<?xml version="1.0" encoding="UTF-8" standalone="no"?>
<!-- Created with Inkscape (http://www.inkscape.org/) -->
<svg xmlns:rdf="http://www.w3.org/1999/02/22-rdf-syntax-ns#" xmlns="http://www.w3.org/2000/svg" height="11.113mm" width="11.112mm" version="1.1" xmlns:cc="http://creativecommons.org/ns#" xmlns:dc="http://purl.org/dc/elements/1.1/" viewBox="0 0 11.112497 11.112584">
 <metadata>
  <rdf:RDF>
   <cc:Work rdf:about="">
    <dc:format>image/svg+xml</dc:format>
    <dc:type rdf:resource="http://purl.org/dc/dcmitype/StillImage"/>
    <dc:title/>
   </cc:Work>
  </rdf:RDF>
 </metadata>
 <g transform="translate(-39.374 -106.36)">
  <path d="m40.486 106.36-1.1112 1.1112v8.89l1.1112 1.1112s8.8899 0.00019 8.89 0l1.1112-1.1112v-8.89l-1.1112-1.1112zm1.2963 1.4818h0.92604l0.55562 0.55563h3.3338l0.55562-0.55563h0.92604l0.18521 0.18521v0.74084l0.74084 0.74083v3.3338l-1.4817 1.4817h-1.1112v2.0373l-0.37042 0.37041h-2.2225l-0.37041-0.37041v-0.55563l-1.1112 0.18521-1.4817-0.55562v-0.92605l1.4817 0.55563 1.1112-0.18521v-0.55562h-1.2965l-1.2965-1.1112v-3.7042l0.74083-0.74083v-0.74084zm0.74083 2.2225-0.55562 0.55563v2.2225l0.55562 0.55562h4.6302l0.55562-0.55562v-2.2225l-0.55562-0.55563zm0.37042 0.74084h0.74083l0.18521 0.18521v1.1112l-0.18521 0.1852h-0.74083l-0.18521-0.1852v-1.1112zm3.1485 0h0.74084l0.18521 0.18521v1.1112l-0.18521 0.1852h-0.741l-0.18521-0.1852v-1.1112z" fill="#fff"/>
 </g>
</svg>
