<?xml version="1.0" encoding="UTF-8"?>
<!-- Created with Inkscape (http://www.inkscape.org/) -->
<svg width="16px" height="16px" version="1.1" xmlns="http://www.w3.org/2000/svg" xmlns:cc="http://creativecommons.org/ns#" xmlns:dc="http://purl.org/dc/elements/1.1/" xmlns:rdf="http://www.w3.org/1999/02/22-rdf-syntax-ns#">
 <metadata>
  <rdf:RDF>
   <cc:Work rdf:about="">
    <dc:format>image/svg+xml</dc:format>
    <dc:type rdf:resource="http://purl.org/dc/dcmitype/StillImage"/>
    <dc:title/>
   </cc:Work>
  </rdf:RDF>
 </metadata>
 <g transform="matrix(.062087 0 0 .062087 .095606 .73054)">
  <path transform="matrix(16.106 0 0 16.106 -1.5399 -11.766)" d="m3.0742 0.75586c-0.12131 7.76e-6 -0.24377 0.07149-0.28906 0.21094l-1.7617 5.4199-0.88867 2.7363a0.60547 0.60547 0 0 0 0.2207 0.67578l7.6914 5.5879 7.6934-5.5879a0.60547 0.60547 0 0 0 0.21875-0.67578l-0.88867-2.7363-1.7617-5.4199c-0.09058-0.27889-0.48552-0.27896-0.57617 0l-1.7598 5.4199h-5.8496l-1.7617-5.4199c-0.045323-0.13948-0.1658-0.21095-0.28711-0.21094z" fill="#fff" stroke-width=".062087"/>
 </g>
</svg>
