<?xml version="1.0" encoding="UTF-8"?>
<!-- Created with Inkscape (http://www.inkscape.org/) -->
<svg width="345" height="200" version="1.1" viewBox="0 0 91.281 52.917" xmlns="http://www.w3.org/2000/svg" xmlns:cc="http://creativecommons.org/ns#" xmlns:dc="http://purl.org/dc/elements/1.1/" xmlns:rdf="http://www.w3.org/1999/02/22-rdf-syntax-ns#" xmlns:xlink="http://www.w3.org/1999/xlink">
 <defs>
  <linearGradient id="linearGradient906">
   <stop stop-color="#cde8ff" offset="0"/>
   <stop stop-color="#fff" stop-opacity="0" offset="1"/>
  </linearGradient>
  <linearGradient id="linearGradient841" x1="92.604" x2="-5.2917" y1="238.79" y2="314.2" gradientTransform="translate(0 -3.5059e-6)" gradientUnits="userSpaceOnUse" xlink:href="#linearGradient906"/>
  <clipPath id="clipPath15038">
   <path d="m25.148 245.21v0.39687h0.98444v4.4871h-0.98444v0.39739h1.4609v-5.2813zm9.1689 0v0.39687h0.98444v4.4871h-0.98444v0.39739h1.4614v-5.2813zm6.2658 0v5.2813h1.4609v-0.39739h-0.98444v-4.4871h0.98444v-0.39687zm39.579 0v0.39687h0.98392v4.4871h-0.98392v0.39739h1.4609v-5.2813zm-66.652 1.326v1.125h-1.0273v0.42788h1.0273v1.1307h0.43977v-1.1307h1.033v-0.42788h-1.033v-1.125zm48.901 0v1.125h-1.0268v0.42788h1.0268v1.1307h0.44028v-1.1307h1.033v-0.42788h-1.033v-1.125zm-58.938 0.17156-0.14056 0.42168 1.9373 0.79479-1.9373 0.80046 0.14056 0.42168 2.3595-1.0025v-0.43357zm3.0561 0-0.14056 0.42168 1.9379 0.79479-1.9379 0.80046 0.14056 0.42168 2.3595-1.0025v-0.43357zm3.0567 0-0.14108 0.42168 1.9379 0.79479-1.9379 0.80046 0.14108 0.42168 2.359-1.0025v-0.43357zm8.3313 0-2.3595 1.0025v0.43357l2.3595 1.0025 0.14056-0.42168-1.9379-0.80046 1.9379-0.79479zm3.0561 0-2.359 1.0025v0.43357l2.359 1.0025 0.14056-0.42168-1.9373-0.80046 1.9373-0.79479zm3.0567 0-2.3595 1.0025v0.43357l2.3595 1.0025 0.14056-0.42168-1.9379-0.80046 1.9379-0.79479zm3.8938 0-0.14056 0.42168 1.9374 0.79479-1.9374 0.80046 0.14056 0.42168 2.359-1.0025v-0.43357zm3.0561 0-0.14056 0.42168 1.9379 0.79479-1.9379 0.80046 0.14056 0.42168 2.3595-1.0025v-0.43357zm6.1128 0-0.14056 0.42168 1.9374 0.79479-1.9374 0.80046 0.14056 0.42168 2.3595-1.0025v-0.43357zm9.169 0-0.14056 0.42168 1.9373 0.79479-1.9373 0.80046 0.14056 0.42168 2.3595-1.0025v-0.43357zm3.0561 0-0.14056 0.42168 1.9379 0.79479-1.9379 0.80046 0.14056 0.42168 2.3595-1.0025v-0.43357zm3.0561 0-0.14056 0.42168 1.9379 0.79479-1.9379 0.80046 0.14056 0.42168 2.3595-1.0025v-0.43357zm3.0567 0-0.14056 0.42168 1.9374 0.79479-1.9374 0.80046 0.14056 0.42168 2.3595-1.0025v-0.43357zm3.0561 0-0.14056 0.42168 1.9379 0.79479-1.9379 0.80046 0.14056 0.42168 2.3595-1.0025v-0.43357zm8.3318 0-2.3595 1.0025v0.43357l2.3595 1.0025 0.14056-0.42168-1.9379-0.80046 1.9379-0.79479zm3.0561 0-2.3595 1.0025v0.43357l2.3595 1.0025 0.14056-0.42168-1.9379-0.80046 1.9379-0.79479zm3.0561 0-2.3595 1.0025v0.43357l2.3595 1.0025 0.14056-0.42168-1.9373-0.80046 1.9373-0.79479zm3.0567 0-2.3595 1.0025v0.43357l2.3595 1.0025 0.14056-0.42168-1.9379-0.80046 1.9379-0.79479zm3.0561 0-2.3595 1.0025v0.43357l2.3595 1.0025 0.14056-0.42168-1.9379-0.80046 1.9379-0.79479zm3.8938 0-0.14056 0.42168 1.9379 0.79479-1.9379 0.80046 0.14056 0.42168 2.3595-1.0025v-0.43357zm3.0561 0-0.14056 0.42168 1.9379 0.79479-1.9379 0.80046 0.14056 0.42168 2.3595-1.0025v-0.43357zm3.0567 0-0.14056 0.42168 1.9374 0.79479-1.9374 0.80046 0.14056 0.42168 2.359-1.0025v-0.43357zm-88.218 0.98392v0.47697h1.3446v-0.47697zm42.789 0v0.47697h1.3446v-0.47697zm-42.923 5.1589v0.39739h0.98392v4.4871h-0.98392v0.39687h1.4609v-5.2813zm6.2653 0v5.2813h1.4609v-0.39687h-0.98392v-4.4871h0.98392v-0.39739zm15.129 0v0.39739h0.98392v4.4871h-0.98392v0.39687h1.4609v-5.2813zm3.2091 0v5.2813h1.4609v-0.39687h-0.98392v-4.4871h0.98392v-0.39739zm5.9598 0v0.39739h0.98444v4.4871h-0.98444v0.39687h1.4609v-5.2813zm9.3219 0v5.2813h1.4609v-0.39687h-0.98444v-4.4871h0.98444v-0.39739zm12.225 0v5.2813h1.4609v-0.39687h-0.98392v-4.4871h0.98392v-0.39739zm5.9598 0v0.39739h0.98444v4.4871h-0.98444v0.39687h1.4609v-5.2813zm3.0567 0v0.39739h0.98392v4.4871h-0.98392v0.39687h1.4609v-5.2813zm6.2653 0v5.2813h1.4609v-0.39687h-0.98392v-4.4871h0.98392v-0.39739zm15.129 0v0.39739h0.98392v4.4871h-0.98392v0.39687h1.4609v-5.2813zm6.2653 0v5.2813h1.4609v-0.39687h-0.98392v-4.4871h0.98392v-0.39739zm-54.58 1.3265v1.125h-1.0268v0.42788h1.0268v1.1307h0.44028v-1.1307h1.033v-0.42788h-1.033v-1.125zm42.789 0v1.125h-1.0268v0.42788h1.0268v1.1307h0.44028v-1.1307h1.033v-0.42788h-1.033v-1.125zm-72.001 0.17157-2.3595 1.002v0.43409l2.3595 1.0025 0.14056-0.42168-1.9379-0.80098 1.9379-0.79427zm9.1689 0-2.3595 1.002v0.43409l2.3595 1.0025 0.14056-0.42168-1.9379-0.80098 1.9379-0.79427zm3.8938 0-0.14056 0.42168 1.9373 0.79427-1.9373 0.80098 0.14056 0.42168 2.359-1.0025v-0.43409zm20.556 0-2.359 1.002v0.43409l2.359 1.0025 0.14108-0.42168-1.9379-0.80098 1.9379-0.79427zm3.8938 0-0.14056 0.42168 1.9379 0.79427-1.9379 0.80098 0.14056 0.42168 2.3595-1.0025v-0.43409zm8.3318 0-2.3595 1.002v0.43409l2.3595 1.0025 0.14056-0.42168-1.9379-0.80098 1.9379-0.79427zm13.063 0-0.14056 0.42168 1.9374 0.79427-1.9374 0.80098 0.14056 0.42168 2.3595-1.0025v-0.43409zm11.388 0-2.3595 1.002v0.43409l2.3595 1.0025 0.14056-0.42168-1.9379-0.80098 1.9379-0.79427zm3.8938 0-0.14056 0.42168 1.9374 0.79427-1.9374 0.80098 0.14056 0.42168 2.359-1.0025v-0.43409zm8.3313 0-2.3595 1.002v0.43409l2.3595 1.0025 0.14056-0.42168-1.9379-0.80098 1.9379-0.79427zm-78.211 0.98392v0.47697h1.3446v-0.47697zm6.1128 0v0.47697h1.3446v-0.47697zm12.225 0v0.47697h1.3446v-0.47697zm18.338 0v0.47697h1.3446v-0.47697zm9.169 0v0.47697h1.3446v-0.47697zm15.282 0v0.47697h1.3446v-0.47697zm-64.318 5.1589v0.39739h0.98444v4.4866h-0.98444v0.39739h1.4609v-5.2813zm12.378 0v5.2813h1.4609v-0.39739h-0.98392v-4.4866h0.98392v-0.39739zm27.354 0v0.39739h0.98392v4.4866h-0.98392v0.39739h1.4609v-5.2813zm18.491 0v5.2813h1.4609v-0.39739h-0.98444v-4.4866h0.98444v-0.39739zm-30.129 1.3265v1.125h-1.0268v0.42788h1.0268v1.1307h0.44028v-1.1307h1.033v-0.42788h-1.033v-1.125zm-32.269 0.17105-2.3595 1.0025v0.43408l2.3595 1.0025 0.14056-0.42168-1.9373-0.80099 1.9373-0.79426zm3.0567 0-2.3595 1.0025v0.43408l2.3595 1.0025 0.14056-0.42168-1.9379-0.80099 1.9379-0.79426zm3.8938 0-0.14108 0.4222 1.9379 0.79426-1.9379 0.80099 0.14108 0.42168 2.359-1.0025v-0.43408zm3.0561 0-0.14056 0.4222 1.9379 0.79426-1.9379 0.80099 0.14056 0.42168 2.3595-1.0025v-0.43408zm3.0561 0-0.14056 0.4222 1.9379 0.79426-1.9379 0.80099 0.14056 0.42168 2.3595-1.0025v-0.43408zm11.388 0-2.3595 1.0025v0.43408l2.3595 1.0025 0.14056-0.42168-1.9379-0.80099 1.9379-0.79426zm3.0561 0-2.359 1.0025v0.43408l2.359 1.0025 0.14056-0.42168-1.9374-0.80099 1.9374-0.79426zm3.0567 0-2.3595 1.0025v0.43408l2.3595 1.0025 0.14056-0.42168-1.9379-0.80099 1.9379-0.79426zm3.8938 0-0.14056 0.4222 1.9374 0.79426-1.9374 0.80099 0.14056 0.42168 2.3595-1.0025v-0.43408zm3.0561 0-0.14056 0.4222 1.9379 0.79426-1.9379 0.80099 0.14056 0.42168 2.3595-1.0025v-0.43408zm3.0561 0-0.14056 0.4222 1.9379 0.79426-1.9379 0.80099 0.14056 0.42168 2.3595-1.0025v-0.43408zm8.3318 0-2.3595 1.0025v0.43408l2.3595 1.0025 0.14056-0.42168-1.9379-0.80099 1.9379-0.79426zm3.0561 0-2.3595 1.0025v0.43408l2.3595 1.0025 0.14056-0.42168-1.9374-0.80099 1.9374-0.79426zm3.0567 0-2.3595 1.0025v0.43408l2.3595 1.0025 0.14056-0.42168-1.9379-0.80099 1.9379-0.79426zm3.8933 0-0.14056 0.4222 1.9379 0.79426-1.9379 0.80099 0.14056 0.42168 2.3595-1.0025v-0.43408zm8.3318 0-2.3595 1.0025v0.43408l2.3595 1.0025 0.14056-0.42168-1.9379-0.80099 1.9379-0.79426zm3.0561 0-2.3595 1.0025v0.43408l2.3595 1.0025 0.14056-0.42168-1.9373-0.80099 1.9373-0.79426zm3.0567 0-2.3595 1.0025v0.43408l2.3595 1.0025 0.14056-0.42168-1.9379-0.80099 1.9379-0.79426zm3.0561 0-2.3595 1.0025v0.43408l2.3595 1.0025 0.14056-0.42168-1.9379-0.80099 1.9379-0.79426zm3.0561 0-2.359 1.0025v0.43408l2.359 1.0025 0.14056-0.42168-1.9374-0.80099 1.9374-0.79426zm3.0567 0-2.3595 1.0025v0.43408l2.3595 1.0025 0.14056-0.42168-1.9379-0.80099 1.9379-0.79426zm3.0561 0-2.3595 1.0025v0.43408l2.3595 1.0025 0.14056-0.42168-1.9379-0.80099 1.9379-0.79426zm3.0561 0-2.359 1.0025v0.43408l2.359 1.0025 0.14056-0.42168-1.9374-0.80099 1.9374-0.79426zm-69.042 0.98444v0.47645h1.3451v-0.47645zm36.676 0v0.47645h1.3451v-0.47645zm-58.204 5.1588v0.3974h0.98392v4.4865h-0.98392v0.39739h1.4609v-5.2813zm24.45 0v0.3974h0.98444v4.4865h-0.98444v0.39739h1.4609v-5.2813zm30.716 0v5.2813h1.4609v-0.39739h-0.98444v-4.4865h0.98444v-0.3974zm12.072 0v0.3974h0.98444v4.4865h-0.98444v0.39739h1.4609v-5.2813zm21.547 0v5.2813h1.4609v-0.39739h-0.98392v-4.4865h0.98392v-0.3974zm-86.011 1.4976-0.14056 0.42168 1.9373 0.79478-1.9373 0.80098 0.14056 0.42168 2.3595-1.0025v-0.43408zm3.0561 0-0.14056 0.42168 1.9379 0.79478-1.9379 0.80098 0.14056 0.42168 2.3595-1.0025v-0.43408zm3.0567 0-0.14108 0.42168 1.9379 0.79478-1.9379 0.80098 0.14108 0.42168 2.359-1.0025v-0.43408zm3.0561 0-0.14056 0.42168 1.9379 0.79478-1.9379 0.80098 0.14056 0.42168 2.3595-1.0025v-0.43408zm3.0561 0-0.14056 0.42168 1.9379 0.79478-1.9379 0.80098 0.14056 0.42168 2.3595-1.0025v-0.43408zm3.0567 0-0.14056 0.42168 1.9373 0.79478-1.9373 0.80098 0.14056 0.42168 2.359-1.0025v-0.43408zm11.387 0-2.359 1.0025v0.43408l2.359 1.0025 0.14056-0.42168-1.9374-0.80098 1.9374-0.79478zm3.0567 0-2.3595 1.0025v0.43408l2.3595 1.0025 0.14056-0.42168-1.9379-0.80098 1.9379-0.79478zm3.0561 0-2.3595 1.0025v0.43408l2.3595 1.0025 0.14056-0.42168-1.9373-0.80098 1.9373-0.79478zm3.0561 0-2.359 1.0025v0.43408l2.359 1.0025 0.14108-0.42168-1.9379-0.80098 1.9379-0.79478zm3.0567 0-2.3595 1.0025v0.43408l2.3595 1.0025 0.14056-0.42168-1.9379-0.80098 1.9379-0.79478zm3.0561 0-2.3595 1.0025v0.43408l2.3595 1.0025 0.14056-0.42168-1.9374-0.80098 1.9374-0.79478zm3.0567 0-2.3595 1.0025v0.43408l2.3595 1.0025 0.14056-0.42168-1.9379-0.80098 1.9379-0.79478zm3.0561 0-2.3595 1.0025v0.43408l2.3595 1.0025 0.14056-0.42168-1.9379-0.80098 1.9379-0.79478zm3.0561 0-2.3595 1.0025v0.43408l2.3595 1.0025 0.14056-0.42168-1.9374-0.80098 1.9374-0.79478zm6.1128 0-2.3595 1.0025v0.43408l2.3595 1.0025 0.14056-0.42168-1.9379-0.80098 1.9379-0.79478zm3.0561 0-2.3595 1.0025v0.43408l2.3595 1.0025 0.14056-0.42168-1.9373-0.80098 1.9373-0.79478zm3.0567 0-2.3595 1.0025v0.43408l2.3595 1.0025 0.14056-0.42168-1.9379-0.80098 1.9379-0.79478zm6.1123 0-2.3595 1.0025v0.43408l2.3595 1.0025 0.14056-0.42168-1.9373-0.80098 1.9373-0.79478zm3.0567 0-2.3595 1.0025v0.43408l2.3595 1.0025 0.14056-0.42168-1.9379-0.80098 1.9379-0.79478zm3.0561 0-2.3595 1.0025v0.43408l2.3595 1.0025 0.14056-0.42168-1.9379-0.80098 1.9379-0.79478zm3.0561 0-2.359 1.0025v0.43408l2.359 1.0025 0.14056-0.42168-1.9374-0.80098 1.9374-0.79478zm3.0567 0-2.3595 1.0025v0.43408l2.3595 1.0025 0.14056-0.42168-1.9379-0.80098 1.9379-0.79478zm3.0561 0-2.3595 1.0025v0.43408l2.3595 1.0025 0.14056-0.42168-1.9379-0.80098 1.9379-0.79478zm-65.986 0.98443v0.47646h1.3451v-0.47646zm-18.472 5.1589v0.39739h0.98392v4.4866h-0.98392v0.39739h1.4609v-5.2813zm6.2653 0v5.2813h1.4609v-0.39739h-0.98392v-4.4866h0.98392v-0.39739zm9.1689 0v5.2813h1.4609v-0.39739h-0.98392v-4.4866h0.98392v-0.39739zm27.354 0v0.39739h0.98392v4.4866h-0.98392v0.39739h1.4609v-5.2813zm18.338 0v0.39739h0.98392v4.4866h-0.98392v0.39739h1.4609v-5.2813zm9.3219 0v5.2813h1.4609v-0.39739h-0.98444v-4.4866h0.98444v-0.39739zm9.169 0v5.2813h1.4609v-0.39739h-0.98444v-4.4866h0.98444v-0.39739zm-48.467 1.3265v1.1245h-1.0268v0.42788h1.0268v1.1312h0.44028v-1.1312h1.033v-0.42788h-1.033v-1.1245zm-34.488 0.17105-0.14056 0.42168 1.9379 0.79479-1.9379 0.80098 0.14056 0.42168 2.3595-1.0025v-0.43408zm8.3318 0-2.3595 1.0025v0.43408l2.3595 1.0025 0.14056-0.42168-1.9379-0.80098 1.9379-0.79479zm3.8938 0-0.14056 0.42168 1.9379 0.79479-1.9379 0.80098 0.14056 0.42168 2.3595-1.0025v-0.43408zm3.0561 0-0.14056 0.42168 1.9379 0.79479-1.9379 0.80098 0.14056 0.42168 2.3595-1.0025v-0.43408zm11.388 0-2.3595 1.0025v0.43408l2.3595 1.0025 0.14056-0.42168-1.9379-0.80098 1.9379-0.79479zm3.0561 0-2.359 1.0025v0.43408l2.359 1.0025 0.14056-0.42168-1.9374-0.80098 1.9374-0.79479zm3.0567 0-2.3595 1.0025v0.43408l2.3595 1.0025 0.14056-0.42168-1.9379-0.80098 1.9379-0.79479zm3.8938 0-0.14056 0.42168 1.9374 0.79479-1.9374 0.80098 0.14056 0.42168 2.3595-1.0025v-0.43408zm3.0561 0-0.14056 0.42168 1.9379 0.79479-1.9379 0.80098 0.14056 0.42168 2.3595-1.0025v-0.43408zm3.0561 0-0.14056 0.42168 1.9379 0.79479-1.9379 0.80098 0.14056 0.42168 2.3595-1.0025v-0.43408zm8.3318 0-2.3595 1.0025v0.43408l2.3595 1.0025 0.14056-0.42168-1.9379-0.80098 1.9379-0.79479zm3.0561 0-2.3595 1.0025v0.43408l2.3595 1.0025 0.14056-0.42168-1.9374-0.80098 1.9374-0.79479zm3.0567 0-2.3595 1.0025v0.43408l2.3595 1.0025 0.14056-0.42168-1.9379-0.80098 1.9379-0.79479zm3.0561 0-2.3595 1.0025v0.43408l2.3595 1.0025 0.14056-0.42168-1.9379-0.80098 1.9379-0.79479zm3.0561 0-2.3595 1.0025v0.43408l2.3595 1.0025 0.14056-0.42168-1.9373-0.80098 1.9373-0.79479zm3.8938 0-0.14056 0.42168 1.9379 0.79479-1.9379 0.80098 0.14056 0.42168 2.3595-1.0025v-0.43408zm3.0567 0-0.14108 0.42168 1.9379 0.79479-1.9379 0.80098 0.14108 0.42168 2.359-1.0025v-0.43408zm9.1689 0-0.14056 0.42168 1.9374 0.79479-1.9374 0.80098 0.14056 0.42168 2.359-1.0025v-0.43408zm6.1123 0-0.14056 0.42168 1.9379 0.79479-1.9379 0.80098 0.14056 0.42168 2.3595-1.0025v-0.43408zm3.0567 0-0.14056 0.42168 1.9374 0.79479-1.9374 0.80098 0.14056 0.42168 2.359-1.0025v-0.43408zm-66.824 0.98444v0.47646h1.3451v-0.47646zm55.014 0v0.47646h1.3446v-0.47646zm-64.165 5.1589v5.2813h1.4609v-0.39739h-0.98444v-4.4866h0.98444v-0.39739zm12.072 0v0.39739h0.98444v4.4866h-0.98444v0.39739h1.4609v-5.2813zm9.1689 0v0.39739h0.98444v4.4866h-0.98444v0.39739h1.4614v-5.2813zm6.2658 0v5.2813h1.4609v-0.39739h-0.98444v-4.4866h0.98444v-0.39739zm12.073 0v0.39739h0.98392v4.4866h-0.98392v0.39739h1.4609v-5.2813zm21.547 0v5.2813h1.4609v-0.39739h-0.98444v-4.4866h0.98444v-0.39739zm12.072 0v0.39739h0.98444v4.4866h-0.98444v0.39739h1.4609v-5.2813zm-83.639 1.4976-2.3595 1.0025v0.43409l2.3595 1.0025 0.14056-0.4222-1.9373-0.80047 1.9373-0.79478zm3.0567 0-2.3595 1.0025v0.43409l2.3595 1.0025 0.14056-0.4222-1.9379-0.80047 1.9379-0.79478zm3.0561 0-2.3595 1.0025v0.43409l2.3595 1.0025 0.14056-0.4222-1.9379-0.80047 1.9379-0.79478zm3.0561 0-2.3595 1.0025v0.43409l2.3595 1.0025 0.14056-0.4222-1.9373-0.80047 1.9373-0.79478zm6.1128 0-2.3595 1.0025v0.43409l2.3595 1.0025 0.14056-0.4222-1.9379-0.80047 1.9379-0.79478zm3.0561 0-2.359 1.0025v0.43409l2.359 1.0025 0.14056-0.4222-1.9373-0.80047 1.9373-0.79478zm3.0567 0-2.3595 1.0025v0.43409l2.3595 1.0025 0.14056-0.4222-1.9379-0.80047 1.9379-0.79478zm3.8938 0-0.14056 0.42168 1.9374 0.79478-1.9374 0.80047 0.14056 0.4222 2.359-1.0025v-0.43409zm3.0561 0-0.14056 0.42168 1.9379 0.79478-1.9379 0.80047 0.14056 0.4222 2.3595-1.0025v-0.43409zm6.1128 0-0.14056 0.42168 1.9374 0.79478-1.9374 0.80047 0.14056 0.4222 2.3595-1.0025v-0.43409zm6.1123 0-0.14056 0.42168 1.9379 0.79478-1.9379 0.80047 0.14056 0.4222 2.3595-1.0025v-0.43409zm3.0567 0-0.14056 0.42168 1.9373 0.79478-1.9373 0.80047 0.14056 0.4222 2.3595-1.0025v-0.43409zm3.0561 0-0.14056 0.42168 1.9379 0.79478-1.9379 0.80047 0.14056 0.4222 2.3595-1.0025v-0.43409zm6.1128 0-0.14056 0.42168 1.9374 0.79478-1.9374 0.80047 0.14056 0.4222 2.3595-1.0025v-0.43409zm3.0561 0-0.14056 0.42168 1.9379 0.79478-1.9379 0.80047 0.14056 0.4222 2.3595-1.0025v-0.43409zm3.0561 0-0.14056 0.42168 1.9379 0.79478-1.9379 0.80047 0.14056 0.4222 2.3595-1.0025v-0.43409zm3.0567 0-0.14056 0.42168 1.9374 0.79478-1.9374 0.80047 0.14056 0.4222 2.3595-1.0025v-0.43409zm3.0561 0-0.14056 0.42168 1.9379 0.79478-1.9379 0.80047 0.14056 0.4222 2.3595-1.0025v-0.43409zm3.0567 0-0.14108 0.42168 1.9379 0.79478-1.9379 0.80047 0.14108 0.4222 2.359-1.0025v-0.43409zm6.1123 0-0.14056 0.42168 1.9379 0.79478-1.9379 0.80047 0.14056 0.4222 2.3595-1.0025v-0.43409zm3.0567 0-0.14056 0.42168 1.9374 0.79478-1.9374 0.80047 0.14056 0.4222 2.359-1.0025v-0.43409zm3.0561 0-0.14056 0.42168 1.9379 0.79478-1.9379 0.80047 0.14056 0.4222 2.3595-1.0025v-0.43409zm6.1128 0-0.14056 0.42168 1.9374 0.79478-1.9374 0.80047 0.14056 0.4222 2.359-1.0025v-0.43409zm-79.183 6.1433v0.3974h0.98392v4.4866h-0.98392v0.39739h1.4609v-5.2813zm33.772 0v5.2813h1.4609v-0.39739h-0.98392v-4.4866h0.98392v-0.3974zm12.073 0v0.3974h0.98392v4.4866h-0.98392v0.39739h1.4609v-5.2813zm6.2653 0v5.2813h1.4609v-0.39739h-0.98392v-4.4866h0.98392v-0.3974zm6.1128 0v5.2813h1.4609v-0.39739h-0.98392v-4.4866h0.98392v-0.3974zm15.716 1.3265v1.1245h-1.0273v0.42788h1.0273v1.1307h0.43977v-1.1307h1.033v-0.42788h-1.033v-1.1245zm-83.389 0.17105-0.14056 0.42168 1.9379 0.79478-1.9379 0.80047 0.14056 0.4222 2.3595-1.0025v-0.43408zm3.0567 0-0.14056 0.42168 1.9373 0.79478-1.9373 0.80047 0.14056 0.4222 2.3595-1.0025v-0.43408zm11.388 0-2.3595 1.0025v0.43408l2.3595 1.0025 0.14056-0.4222-1.9379-0.80047 1.9379-0.79478zm3.0561 0-2.3595 1.0025v0.43408l2.3595 1.0025 0.14056-0.4222-1.9379-0.80047 1.9379-0.79478zm3.0561 0-2.359 1.0025v0.43408l2.359 1.0025 0.14056-0.4222-1.9373-0.80047 1.9373-0.79478zm3.0567 0-2.3595 1.0025v0.43408l2.3595 1.0025 0.14056-0.4222-1.9379-0.80047 1.9379-0.79478zm3.0561 0-2.3595 1.0025v0.43408l2.3595 1.0025 0.14056-0.4222-1.9379-0.80047 1.9379-0.79478zm3.0561 0-2.359 1.0025v0.43408l2.359 1.0025 0.14056-0.4222-1.9374-0.80047 1.9374-0.79478zm3.0567 0-2.3595 1.0025v0.43408l2.3595 1.0025 0.14056-0.4222-1.9379-0.80047 1.9379-0.79478zm3.0561 0-2.3595 1.0025v0.43408l2.3595 1.0025 0.14056-0.4222-1.9373-0.80047 1.9373-0.79478zm3.0561 0-2.359 1.0025v0.43408l2.359 1.0025 0.14108-0.4222-1.9379-0.80047 1.9379-0.79478zm3.0567 0-2.3595 1.0025v0.43408l2.3595 1.0025 0.14056-0.4222-1.9379-0.80047 1.9379-0.79478zm6.1128 0-2.3595 1.0025v0.43408l2.3595 1.0025 0.14056-0.4222-1.9379-0.80047 1.9379-0.79478zm3.0561 0-2.3595 1.0025v0.43408l2.3595 1.0025 0.14056-0.4222-1.9379-0.80047 1.9379-0.79478zm3.0561 0-2.3595 1.0025v0.43408l2.3595 1.0025 0.14056-0.4222-1.9374-0.80047 1.9374-0.79478zm3.8938 0-0.14056 0.42168 1.9379 0.79478-1.9379 0.80047 0.14056 0.4222 2.3595-1.0025v-0.43408zm15.282 0-0.14056 0.42168 1.9373 0.79478-1.9373 0.80047 0.14056 0.4222 2.3595-1.0025v-0.43408zm3.0561 0-0.14056 0.42168 1.9379 0.79478-1.9379 0.80047 0.14056 0.4222 2.3595-1.0025v-0.43408zm3.0567 0-0.14056 0.42168 1.9374 0.79478-1.9374 0.80047 0.14056 0.4222 2.359-1.0025v-0.43408zm8.3313 0-2.3595 1.0025v0.43408l2.3595 1.0025 0.14056-0.4222-1.9379-0.80047 1.9379-0.79478zm3.0561 0-2.359 1.0025v0.43408l2.359 1.0025 0.14056-0.4222-1.9374-0.80047 1.9374-0.79478zm-84.324 0.98392v0.47697h1.3446v-0.47697zm58.07 0v0.47697h1.3446v-0.47697zm6.1128 0v0.47697h1.3446v-0.47697z" fill="#fff"/>
  </clipPath>
  <linearGradient id="linearGradient15042" x1="72.96" x2="44.116" y1="199.88" y2="295.93" gradientTransform="translate(0 -3.5059e-6)" gradientUnits="userSpaceOnUse" xlink:href="#linearGradient906"/>
 </defs>
 <metadata>
  <rdf:RDF>
   <cc:Work rdf:about="">
    <dc:format>image/svg+xml</dc:format>
    <dc:type rdf:resource="http://purl.org/dc/dcmitype/StillImage"/>
    <dc:title/>
   </cc:Work>
  </rdf:RDF>
 </metadata>
 <g transform="translate(0 -244.08)">
  <rect y="244.08" width="91.281" height="52.917" display="none" fill="url(#linearGradient841)"/>
  <rect x="4.4409e-16" y="244.08" width="91.281" height="52.917" display="none" fill="#42a5f5" fill-opacity=".13502" opacity=".597"/>
  <path d="m-9.1729 206.02-0.1284 126.02 128.5-12.216 0.29668-89.911z" display="none" fill="none" stroke="#000" stroke-width=".26458px"/>
  <rect y="244.08" width="91.281" height="52.917" clip-path="url(#clipPath15038)" fill="url(#linearGradient15042)"/>
 </g>
</svg>
