<?xml version="1.0" encoding="UTF-8" standalone="no"?>
<!-- Created with Inkscape (http://www.inkscape.org/) -->

<svg
   xmlns:dc="http://purl.org/dc/elements/1.1/"
   xmlns:cc="http://creativecommons.org/ns#"
   xmlns:rdf="http://www.w3.org/1999/02/22-rdf-syntax-ns#"
   xmlns:svg="http://www.w3.org/2000/svg"
   xmlns="http://www.w3.org/2000/svg"
   xmlns:xlink="http://www.w3.org/1999/xlink"
   xmlns:sodipodi="http://sodipodi.sourceforge.net/DTD/sodipodi-0.dtd"
   xmlns:inkscape="http://www.inkscape.org/namespaces/inkscape"
   width="345"
   height="200"
   viewBox="0 0 91.28125 52.916666"
   version="1.1"
   id="svg8"
   sodipodi:docname="llama.svg"
   inkscape:version="0.92.4 (5da689c313, 2019-01-14)">
  <defs
     id="defs2">
    <linearGradient
       id="linearGradient5877"
       inkscape:collect="always">
      <stop
         id="stop5873"
         offset="0"
         style="stop-color:#ffffff;stop-opacity:0.89873415" />
      <stop
         id="stop5875"
         offset="1"
         style="stop-color:#ffffff;stop-opacity:0;" />
    </linearGradient>
    <linearGradient
       id="linearGradient906"
       inkscape:collect="always">
      <stop
         id="stop902"
         offset="0"
         style="stop-color:#cde8ff;stop-opacity:1" />
      <stop
         id="stop904"
         offset="1"
         style="stop-color:#ffffff;stop-opacity:0;" />
    </linearGradient>
    <linearGradient
       inkscape:collect="always"
       id="linearGradient6991">
      <stop
         style="stop-color:#ffffff;stop-opacity:1;"
         offset="0"
         id="stop6987" />
      <stop
         style="stop-color:#ffffff;stop-opacity:0;"
         offset="1"
         id="stop6989" />
    </linearGradient>
    <clipPath
       clipPathUnits="userSpaceOnUse"
       id="clipPath4694">
      <g
         inkscape:label="Clip"
         id="use4696"
         style="fill:none;fill-opacity:1" />
    </clipPath>
    <linearGradient
       inkscape:collect="always"
       xlink:href="#linearGradient6991"
       id="linearGradient6993"
       x1="0"
       y1="270.54168"
       x2="91.28125"
       y2="270.54168"
       gradientUnits="userSpaceOnUse" />
    <clipPath
       clipPathUnits="userSpaceOnUse"
       id="clipPath7018">
      <g
         inkscape:label="Clip"
         id="use7020">
        <rect
           style="opacity:1;fill:url(#linearGradient7050);fill-opacity:1;stroke:none;stroke-width:0.26458332;stroke-opacity:1"
           id="rect7046"
           width="91.28125"
           height="52.916664"
           x="0"
           y="244.08334" />
      </g>
    </clipPath>
    <linearGradient
       inkscape:collect="always"
       xlink:href="#linearGradient6991"
       id="linearGradient7050"
       gradientUnits="userSpaceOnUse"
       x1="0"
       y1="270.54168"
       x2="91.28125"
       y2="270.54168" />
    <clipPath
       clipPathUnits="userSpaceOnUse"
       id="clipPath7084">
      <g
         id="use7086"
         inkscape:label="Clip">
        <path
           style="display:inline;stroke-width:0.68551093"
           d="m 26.621054,265.69923 -19.2163127,0.008 -0.0014,2.17556 19.2177467,-0.008 z m 9.264282,1.95237 v 1.36976 h 2.286438 v 6.4655 h 1.381711 v -6.4655 h 2.286439 v -1.36976 z m 46.971402,0.25521 v 1.45102 h -0.835905 v 1.18384 h 0.835905 v 2.83224 c 0,0.4024 0.03455,0.7395 0.104191,1.01035 0.06965,0.27085 0.177959,0.48748 0.324994,0.64999 0.147035,0.16251 0.332848,0.27829 0.557268,0.34794 0.23217,0.0696 0.50668,0.10467 0.82396,0.10467 h 1.10308 v -1.12602 h -0.84738 c -0.29407,0 -0.50696,-0.0658 -0.63852,-0.19738 -0.12382,-0.13156 -0.18591,-0.37154 -0.18591,-0.71978 v -2.90201 h 1.69475 v -1.18384 h -1.69475 v -1.45102 z m -39.788523,1.45102 v 1.18384 h 3.667669 c 0.340501,0 0.580474,0.0812 0.71977,0.24375 0.147035,0.1625 0.220805,0.36373 0.220805,0.60362 v 0.46456 H 44.76297 c -0.379195,0 -0.700402,0.0425 -0.963516,0.12761 -0.263114,0.0774 -0.47601,0.19363 -0.638521,0.34841 -0.162512,0.14703 -0.282497,0.32864 -0.359885,0.54532 -0.06965,0.21669 -0.104666,0.4646 -0.104666,0.74319 0,0.5804 0.158736,1.03652 0.476022,1.36928 0.325023,0.33276 0.851183,0.49945 1.578617,0.49945 h 2.86713 c 0.255374,0 0.464539,-0.0234 0.627051,-0.0698 0.170248,-0.0464 0.301908,-0.116 0.394773,-0.20886 0.09286,-0.1006 0.154485,-0.22853 0.185438,-0.3833 0.0387,-0.15477 0.05831,-0.34433 0.05831,-0.56875 v -2.8786 c 0,-0.28633 -0.03875,-0.55337 -0.116138,-0.80101 -0.07738,-0.24764 -0.205313,-0.46054 -0.383302,-0.63852 -0.170252,-0.18573 -0.390609,-0.32859 -0.661463,-0.42919 -0.270854,-0.1006 -0.595791,-0.15102 -0.974985,-0.15102 z m 8.414035,0 c -0.309546,0 -0.529902,0.0696 -0.66146,0.20885 -0.131557,0.13156 -0.197386,0.37947 -0.197386,0.74319 v 5.17699 h 1.230202 v -4.77075 c 0,-0.11608 0.05043,-0.17444 0.151028,-0.17444 h 2.00828 c 0.650048,0 1.11832,0.12792 1.404649,0.3833 0.294069,0.25538 0.441135,0.62653 0.441135,1.11407 v 3.44782 h 1.241674 v -3.44782 c 0,-0.85126 -0.255379,-1.50908 -0.766129,-1.9734 -0.503013,-0.47205 -1.27661,-0.70781 -2.321329,-0.70781 z m 9.716409,0 c -0.820297,0 -1.470652,0.23997 -1.95045,0.71976 -0.472058,0.4798 -0.707822,1.21465 -0.707822,2.20519 0,0.99829 0.235764,1.74155 0.707822,2.22909 0.479798,0.47979 1.130153,0.71976 1.95045,0.71977 h 2.704633 v 0.27815 c 0,0.44111 -0.08918,0.75858 -0.267167,0.95205 -0.177989,0.19347 -0.494986,0.29011 -0.951567,0.29011 h -3.505649 v 1.18432 h 3.644728 c 0.425626,0 0.785586,-0.0467 1.079655,-0.13956 0.301806,-0.0851 0.541781,-0.22425 0.719768,-0.41771 0.185728,-0.19347 0.317388,-0.44511 0.394776,-0.75466 0.08512,-0.30954 0.127609,-0.68118 0.127609,-1.11455 v -3.52858 c 0,-0.88995 -0.19376,-1.54777 -0.580694,-1.9734 -0.379193,-0.43336 -0.936162,-0.64998 -1.671334,-0.64998 z m 7.666074,0 c -0.386937,0 -0.716085,0.0504 -0.986937,0.15102 -0.263113,0.1006 -0.483471,0.24346 -0.661464,0.42919 -0.170246,0.17798 -0.293967,0.39088 -0.371355,0.63852 -0.07739,0.24764 -0.116139,0.51468 -0.116139,0.80101 v 2.08953 c 0,0.29407 0.03873,0.56486 0.116139,0.81249 0.07739,0.2399 0.201109,0.45279 0.371355,0.63852 0.177993,0.17799 0.398351,0.31712 0.661464,0.41772 0.270852,0.1006 0.6,0.15103 0.986937,0.15103 h 3.749395 v -1.1958 h -3.749395 c -0.340507,0 -0.584206,-0.0775 -0.731242,-0.23227 -0.139296,-0.16251 -0.209334,-0.36746 -0.209334,-0.61511 v -0.44113 h 2.913963 c 0.750655,0 1.284277,-0.15079 1.601559,-0.4526 0.317282,-0.30955 0.476026,-0.74654 0.476026,-1.31145 0,-0.59588 -0.162473,-1.05669 -0.487494,-1.38171 -0.325029,-0.33277 -0.851186,-0.49896 -1.578616,-0.49896 z m 6.422956,0 c -0.309542,0 -0.5299,0.0696 -0.661456,0.20885 -0.131563,0.13156 -0.197393,0.37947 -0.197393,0.74319 v 5.17699 h 1.230204 v -4.77075 c 0,-0.11608 0.05045,-0.17444 0.151032,-0.17444 h 2.00828 c 0.650043,0 1.118322,0.12792 1.404646,0.3833 0.294071,0.25538 0.441133,0.62653 0.441133,1.11407 v 3.44782 h 1.241673 v -3.44782 c 0,-0.85126 -0.255373,-1.50908 -0.766127,-1.9734 -0.503007,-0.47205 -1.276606,-0.70781 -2.321325,-0.70781 z m -60.64463,0.59263 c -1.926834,0 -4.9709967,-0.11556 -4.9709967,3.65381 0,2.96662 0.0076,4.52652 0.0076,4.52652 h 6.3460137 l 0.0014,-4.34777 c 0,0 -0.05512,-1.55382 1.620198,-1.62594 1.675252,-0.0721 8.968441,-0.008 8.968441,-0.008 l 9.6e-4,-2.19898 z m 46.671738,0.59121 h 1.218733 c 0.495276,0 0.847292,0.11252 1.056236,0.33694 0.208945,0.22442 0.313526,0.58812 0.313526,1.09112 v 2.14737 h -2.588495 c -0.533965,0 -0.924735,-0.13913 -1.172372,-0.41772 -0.239899,-0.28633 -0.359884,-0.74293 -0.359884,-1.36976 -3e-6,-0.62683 0.119985,-1.0797 0.359884,-1.35829 0.247637,-0.28633 0.638407,-0.42966 1.172372,-0.42966 z m 7.549936,0 h 1.973387 c 0.30181,0 0.522167,0.0696 0.661463,0.20885 0.139296,0.1393 0.208855,0.32511 0.208855,0.55728 0,0.22442 -0.06956,0.40229 -0.208855,0.53385 -0.131556,0.13156 -0.363588,0.19739 -0.696356,0.19739 h -2.87907 v -0.65 c 0,-0.23989 0.07004,-0.44112 0.209334,-0.60362 0.147036,-0.16252 0.390735,-0.24375 0.731242,-0.24375 z m -24.078822,2.28691 h 2.890548 v 1.14896 c 0,0.20894 -0.112524,0.31352 -0.336943,0.31352 H 44.76297 c -0.309546,0 -0.530383,-0.0658 -0.66194,-0.19739 -0.131556,-0.13929 -0.197387,-0.32089 -0.197387,-0.54532 0,-0.22442 0.06583,-0.39856 0.197387,-0.52238 0.131557,-0.13156 0.359858,-0.19739 0.684881,-0.19739 z"
           id="path843"
           inkscape:connector-curvature="0" />
        <rect
           style="display:inline;opacity:1;fill:url(#linearGradient849);fill-opacity:1;stroke:none;stroke-width:0.26458332;stroke-opacity:1"
           id="rect845"
           width="91.28125"
           height="52.916664"
           x="0"
           y="244.08334" />
      </g>
    </clipPath>
    <linearGradient
       inkscape:collect="always"
       xlink:href="#linearGradient906"
       id="linearGradient841"
       gradientUnits="userSpaceOnUse"
       x1="92.604164"
       y1="238.79167"
       x2="-5.2916665"
       y2="314.19794"
       gradientTransform="translate(0,-3.5058594e-6)" />
    <linearGradient
       inkscape:collect="always"
       xlink:href="#linearGradient6991"
       id="linearGradient849"
       gradientUnits="userSpaceOnUse"
       x1="0"
       y1="270.54168"
       x2="91.28125"
       y2="270.54168" />
    <clipPath
       clipPathUnits="userSpaceOnUse"
       id="clipPath5859">
      <path
         style="display:inline;opacity:1;fill:#000000;fill-opacity:1;stroke:none;stroke-width:0.26458332;stroke-opacity:1"
         d="m 32.014583,246.3323 c -0.29315,0 -0.529166,0.23601 -0.529166,0.52916 v 2.11667 c 0,0.29316 0.236016,0.52917 0.529166,0.52917 h 19.05 c 0.293161,0 0.529167,-0.23601 0.529167,-0.52917 v -2.11667 c 0,-0.29315 -0.236006,-0.52916 -0.529167,-0.52916 z m 21.166667,0 c -0.293158,0 -0.529167,0.23601 -0.529167,0.52916 v 2.11667 14.81667 2.11666 0.014 c 0,0.28545 0.229775,0.51521 0.515216,0.51521 h 0.01395 2.130618 1.044382 0.396875 v 0.92604 h -3.395657 -0.264584 c -0.317582,0 -0.573092,0.25551 -0.573092,0.57309 v 6.52674 c 0,0.31759 0.25551,0.57309 0.573092,0.57309 h 2.293398 c 0.31759,0 0.573093,-0.2555 0.573093,-0.57309 v -3.66024 h 3.660241 c 0.317589,0 0.573092,-0.25551 0.573092,-0.5731 v -0.26458 -10.49548 c 0,-0.31759 -0.255503,-0.57309 -0.573092,-0.57309 h -2.293398 c -0.31759,0 -0.573093,0.2555 -0.573093,0.57309 v 3.79253 H 56.35625 55.827083 V 249.5073 H 72.23125 c 0.293161,0 0.529167,-0.23601 0.529167,-0.52917 v -2.11667 c 0,-0.29315 -0.236006,-0.52916 -0.529167,-0.52916 z m 4.144968,4.10104 c -0.31759,0 -0.573093,0.2555 -0.573093,0.57309 v 6.26215 0.30851 c 0,0.29315 0.236006,0.52917 0.529167,0.52917 h 3.175 0.661458 v 3.57187 c 0,0.29316 0.236006,0.52917 0.529167,0.52917 h 2.116666 c 0.293161,0 0.529167,-0.23601 0.529167,-0.52917 v -7.9375 h 1.058333 v 7.9375 c 0,0.29316 0.236009,0.52917 0.529167,0.52917 h 2.116667 c 0.293147,0 0.529166,-0.23601 0.529166,-0.52917 v -3.57187 h 0.661459 0.837676 2.293398 c 0.317589,0 0.573092,-0.25551 0.573092,-0.5731 v -6.52673 c 0,-0.31759 -0.255503,-0.57309 -0.573092,-0.57309 h -2.293398 c -0.31759,0 -0.573093,0.2555 -0.573093,0.57309 v 3.66024 h -0.529167 -0.396875 v -1.4552 -2.11667 c 0,-0.29316 -0.236008,-0.52917 -0.529166,-0.52917 H 65.88125 61.647917 c -0.293161,0 -0.529167,0.23601 -0.529167,0.52917 v 2.11667 1.4552 h -0.661458 -0.264584 v -3.66024 c 0,-0.31759 -0.255503,-0.57309 -0.573092,-0.57309 z m -38.011635,0.13229 c -0.29315,0 -0.529167,0.23601 -0.529167,0.52917 v 2.11667 c 0,0.29315 0.236017,0.52916 0.529167,0.52916 h 12.038542 v 0.66146 0.83767 2.33733 1.32292 h -0.264583 -0.661459 v -1.45521 -2.11667 c 0,-0.29317 -0.236008,-0.52917 -0.529166,-0.52917 H 27.78125 23.547916 c -0.29317,0 -0.529166,0.236 -0.529166,0.52917 v 2.11667 1.45521 h -0.661459 -0.264583 v -3.66025 c 0,-0.31759 -0.255501,-0.57309 -0.573092,-0.57309 h -2.2934 c -0.31759,0 -0.573091,0.2555 -0.573091,0.57309 v 6.52674 c 0,0.31759 0.255501,0.57309 0.573091,0.57309 h 2.2934 0.837675 0.661459 v 3.57187 c 0,0.29316 0.236006,0.52917 0.529166,0.52917 h 2.116667 c 0.29316,0 0.529167,-0.23601 0.529167,-0.52917 v -7.9375 h 1.058333 v 7.9375 c 0,0.29316 0.236009,0.52917 0.529167,0.52917 h 2.116667 c 0.293158,0 0.529166,-0.23601 0.529166,-0.52917 v -3.57187 h 0.661459 0.837676 2.293398 c 0.317589,0 0.573092,-0.2555 0.573092,-0.57309 v -4.45399 -2.07275 -1.10225 -0.39688 h 0.926042 v 13.75833 h -0.529167 -0.396875 v -3.79253 c 0,-0.31759 -0.255503,-0.57309 -0.573092,-0.57309 h -2.293398 c -0.31759,0 -0.573093,0.2555 -0.573093,0.57309 v 10.76007 c 0,0.31759 0.255503,0.57309 0.573093,0.57309 h 2.293398 1.366842 v 3.39566 c 0,0.31759 0.255503,0.57309 0.573093,0.57309 h 2.293398 c 0.317582,0 0.573093,-0.2555 0.573093,-0.57309 v -6.26215 c 0,-0.31759 -0.255511,-0.57309 -0.573093,-0.57309 h -2.293398 -1.366843 v -0.92605 h 0.396875 1.058334 2.116666 c 0.293161,0 0.529167,-0.23601 0.529167,-0.52916 v -2.11667 -14.81666 -2.11667 c 0,-0.29316 -0.236006,-0.52917 -0.529167,-0.52917 h -2.116666 z m 55.131002,4.23333 c -0.34716,0 -0.626835,0.27968 -0.626835,0.62684 v 20.53983 h -3.704167 c -0.29315,0 -0.529166,0.23601 -0.529166,0.52917 v 2.11666 8.46667 c 0,0.29316 0.236005,0.52917 0.529166,0.52917 h 2.116667 c 0.293161,0 0.529167,-0.23601 0.529167,-0.52917 v -3.57187 h 0.661458 3.175 c 0.293161,0 0.529167,-0.23602 0.529167,-0.52917 v -2.38125 c 0,-0.29316 -0.236006,-0.52917 -0.529167,-0.52917 h -3.175 -0.661458 v -0.92604 h 3.704166 c 0.293161,0 0.529167,-0.236 0.529167,-0.52917 v -0.62683 -1.48983 -21.069 c 0,-0.34716 -0.279673,-0.62684 -0.626835,-0.62684 z M 15.08125,259.0323 c -0.29316,0 -0.529167,0.236 -0.529167,0.52916 v 23.01875 0.26459 c 0,0.29316 0.236007,0.52916 0.529167,0.52916 h 3.704166 v 0.92605 h -0.661458 -3.175 c -0.29316,0 -0.529167,0.236 -0.529167,0.52916 v 2.38125 c 0,0.29316 0.236007,0.52917 0.529167,0.52917 h 3.175 0.661458 v 3.57187 c 0,0.29317 0.236007,0.52917 0.529167,0.52917 h 2.116667 c 0.29316,0 0.529166,-0.236 0.529166,-0.52917 v -8.46666 -2.11667 c 0,-0.0366 -0.004,-0.0725 -0.01085,-0.10697 -0.0492,-0.24157 -0.261803,-0.42219 -0.518313,-0.42219 h -2.116667 -1.5875 v -20.63751 c 0,-0.29316 -0.236016,-0.52916 -0.529167,-0.52916 z m 25.664583,0 c -0.439729,0 -0.79375,0.35401 -0.79375,0.79375 v 24.47396 h -0.661458 -3.175 c -0.293161,0 -0.529167,0.236 -0.529167,0.52916 v 2.38125 c 0,0.29316 0.236006,0.52917 0.529167,0.52917 h 3.175 0.661458 v 0.92604 H 27.669628 c -0.231439,0 -0.417545,0.18612 -0.417545,0.41755 v 2.33991 c 0,0.23143 0.186106,0.41754 0.417545,0.41754 h 15.039911 c 0.231439,0 0.417544,-0.18611 0.417544,-0.41754 v -0.64079 -30.95625 c 0,-0.43974 -0.35401,-0.79375 -0.79375,-0.79375 z m 29.36875,0 c -0.293161,0 -0.529166,0.236 -0.529166,0.52916 v 3.70417 h -7.9375 c -0.293161,0 -0.529167,0.23601 -0.529167,0.52917 v 2.11666 8.46667 c 0,0.29316 0.236006,0.52917 0.529167,0.52917 h 2.116666 c 0.293161,0 0.529167,-0.23601 0.529167,-0.52917 v -7.9375 h 5.291667 v 0.92604 h -0.661459 -3.175 c -0.293161,0 -0.529166,0.23601 -0.529166,0.52917 v 2.38125 c 0,0.29315 0.236005,0.52917 0.529166,0.52917 h 3.175 0.661459 v 3.57187 c 0,0.29316 0.236005,0.52917 0.529166,0.52917 h 2.116667 c 0.293161,0 0.529167,-0.23601 0.529167,-0.52917 v -14.81667 c 0,-0.29316 -0.236006,-0.52916 -0.529167,-0.52916 z m -50.8,4.23333 c -0.29316,0 -0.529167,0.23601 -0.529167,0.52917 v 14.81666 c 0,0.29317 0.236007,0.52917 0.529167,0.52917 h 2.116667 c 0.29316,0 0.529166,-0.236 0.529166,-0.52917 v -3.57187 h 0.661459 3.175 c 0.29316,0 0.529166,-0.23601 0.529166,-0.52917 v -2.38125 c 0,-0.29316 -0.236006,-0.52916 -0.529166,-0.52916 h -3.175 -0.661459 v -0.92605 h 5.291667 v 7.9375 c 0,0.29317 0.236009,0.52917 0.529167,0.52917 h 2.116667 c 0.293158,0 0.529166,-0.236 0.529166,-0.52917 v -8.46666 -2.11667 c 0,-0.0366 -0.004,-0.0725 -0.01085,-0.10697 -0.0492,-0.24157 -0.26181,-0.4222 -0.518318,-0.4222 H 27.78125 21.960416 v -3.70416 c 0,-0.29316 -0.236006,-0.52917 -0.529166,-0.52917 z m 37.967709,8.33438 c -0.293161,0 -0.529167,0.236 -0.529167,0.52916 v 3.175 0.66146 H 53.18125 c -0.293158,0 -0.529167,0.23601 -0.529167,0.52917 v 2.11666 c 0,0.29317 0.236009,0.52917 0.529167,0.52917 h 8.466667 2.38125 0.79375 0.396875 v 3.79253 c 0,0.31759 0.25551,0.5731 0.573092,0.5731 h 2.293398 c 0.31759,0 0.573093,-0.25551 0.573093,-0.5731 V 272.1731 c 0,-0.31759 -0.255503,-0.57309 -0.573093,-0.57309 h -2.293398 c -0.317582,0 -0.573092,0.2555 -0.573092,0.57309 v 3.79253 h -0.396875 -0.79375 -2.38125 -1.455209 v -0.66146 -3.175 c 0,-0.29316 -0.236005,-0.52916 -0.529166,-0.52916 z m -33.822742,4.23333 c -0.31759,0 -0.573092,0.2555 -0.573092,0.57309 v 19.22673 c 0,0.31759 0.255502,0.5731 0.573092,0.5731 h 2.2934 21.166666 c 0.317589,0 0.573092,-0.25551 0.573092,-0.5731 v -2.29339 c 0,-0.31759 -0.255503,-0.5731 -0.573092,-0.5731 H 26.326041 v -9.39271 h 0.396876 1.058333 2.116667 8.466666 c 0.293161,0 0.529167,-0.23601 0.529167,-0.52916 v -2.11667 c 0,-0.29315 -0.236006,-0.52916 -0.529167,-0.52916 h -3.571875 v -0.66146 -3.175 c 0,-0.29316 -0.236005,-0.52917 -0.529166,-0.52917 h -2.38125 c -0.293161,0 -0.529167,0.23601 -0.529167,0.52917 v 3.175 0.66146 H 29.897917 27.78125 26.722917 26.326041 v -3.79254 c 0,-0.31759 -0.255501,-0.57309 -0.573091,-0.57309 z m 38.056075,4.23333 c -0.29315,0 -0.529167,0.23601 -0.529167,0.52917 v 3.175 0.66146 h -3.571875 c -0.293161,0 -0.529166,0.236 -0.529166,0.52917 v 2.11666 c 0,0.29316 0.236005,0.52917 0.529166,0.52917 h 7.9375 v 3.43958 0.26458 c 0,0.29317 0.236009,0.52917 0.529167,0.52917 h 10.583333 c 0.293161,0 0.529167,-0.236 0.529167,-0.52917 v -2.11666 c 0,-0.29316 -0.236006,-0.52917 -0.529167,-0.52917 h -7.9375 v -1.5875 -2.11666 c 0,-0.29317 -0.236008,-0.52917 -0.529166,-0.52917 H 65.88125 64.426042 v -0.66146 -3.175 c 0,-0.29316 -0.236006,-0.52917 -0.529167,-0.52917 z m 0.132292,8.59896 c -0.293161,0 -0.529167,0.23601 -0.529167,0.52917 v 6.08541 0.26459 c 0,0.29316 0.236006,0.52916 0.529167,0.52916 H 72.23125 c 0.293161,0 0.529167,-0.236 0.529167,-0.52916 v -2.11667 c 0,-0.29316 -0.236006,-0.52916 -0.529167,-0.52916 h -7.9375 v -3.70417 c 0,-0.29316 -0.236006,-0.52917 -0.529167,-0.52917 z"
         id="path5861"
         inkscape:connector-curvature="0" />
    </clipPath>
    <linearGradient
       inkscape:collect="always"
       xlink:href="#linearGradient5877"
       id="linearGradient5863"
       gradientUnits="userSpaceOnUse"
       gradientTransform="translate(0,-3.5058594e-6)"
       x1="72.760422"
       y1="255.98959"
       x2="34.395836"
       y2="303.61459" />
    <clipPath
       clipPathUnits="userSpaceOnUse"
       id="clipPath1620">
      <path
         inkscape:connector-curvature="0"
         id="path1622"
         d="m 24.153047,210.62492 c -0.428977,0.31233 -0.750309,0.68066 -0.964799,1.10587 -0.214488,0.42522 -0.321944,0.8713 -0.321944,1.33791 0,0.47037 0.105534,0.91837 0.31626,1.34358 0.214489,0.42146 0.537743,0.79172 0.970483,1.11156 l 0.254248,-0.33848 c -0.188148,-0.16181 -0.351696,-0.32343 -0.490926,-0.48524 -0.135466,-0.16181 -0.248686,-0.3292 -0.338997,-0.50229 -0.08655,-0.1731 -0.152251,-0.35394 -0.197404,-0.54209 -0.04139,-0.18815 -0.06201,-0.38768 -0.06201,-0.59841 0,-0.41769 0.09208,-0.80332 0.276469,-1.15704 0.184386,-0.35372 0.451546,-0.66596 0.801502,-0.93689 h 0.0057 z m -15.6403883,0.0109 1.5575273,4.87722 h 0.47439 l -1.5637289,-4.87722 z m 16.9333333,0 1.557529,4.87722 h 0.474389 l -1.56373,-4.87722 z m 5.6441,0 1.558044,4.87722 h 0.47439 l -1.56373,-4.87722 z m -16.001607,0.41754 c -0.06397,0 -0.135435,0.002 -0.214458,0.006 -0.07526,0 -0.15441,0.004 -0.237195,0.0114 -0.07902,0.008 -0.160094,0.0166 -0.242879,0.0279 -0.07902,0.0113 -0.152408,0.0247 -0.220141,0.0398 v 3.44268 h 0.46302 v -1.3038 h 0.406177 c 0.428977,0 0.750827,-0.0978 0.965316,-0.29352 0.214489,-0.19943 0.321944,-0.48145 0.321944,-0.84646 0,-0.16181 -0.02638,-0.30858 -0.07906,-0.44028 -0.04892,-0.1317 -0.126148,-0.2444 -0.23151,-0.33848 -0.1016,-0.0978 -0.231596,-0.17316 -0.38964,-0.22583 -0.154282,-0.0527 -0.334606,-0.0791 -0.541569,-0.0791 z m 0.03359,0.40101 v 5.3e-4 c 0.489185,0 0.733805,0.23309 0.733805,0.6997 0,0.25964 -0.06954,0.44625 -0.208772,0.55914 -0.135467,0.11288 -0.344097,0.16898 -0.626319,0.16898 h -0.383956 v -1.41077 c 0.04516,-0.008 0.112777,-0.0114 0.203089,-0.0114 0.09031,-0.004 0.184316,-0.006 0.282153,-0.006 z m 2.867526,0.44597 c -0.169334,0 -0.327635,0.0341 -0.47439,0.1018 -0.142993,0.064 -0.267224,0.15606 -0.372587,0.27647 -0.105364,0.11665 -0.187841,0.25958 -0.248047,0.42891 -0.05645,0.16934 -0.08475,0.35735 -0.08475,0.56431 0,0.20697 0.0283,0.39549 0.08475,0.56482 0.06021,0.16557 0.142684,0.30851 0.248047,0.42892 0.105363,0.12042 0.229594,0.21442 0.372587,0.28215 0.146755,0.064 0.305056,0.0961 0.47439,0.0961 0.173096,0 0.332801,-0.0321 0.479557,-0.0961 0.146755,-0.0677 0.272908,-0.16173 0.378271,-0.28215 0.105361,-0.12041 0.186433,-0.26335 0.242879,-0.42892 0.06021,-0.16933 0.09043,-0.35785 0.09043,-0.56482 0,-0.20696 -0.03023,-0.39497 -0.09043,-0.56431 -0.05644,-0.16933 -0.137516,-0.31226 -0.242879,-0.42891 -0.105363,-0.12039 -0.231516,-0.21247 -0.378271,-0.27647 -0.146756,-0.0677 -0.306461,-0.1018 -0.479557,-0.1018 z m 10.75283,0.006 c -0.199438,0 -0.412427,0.0432 -0.638204,0.12971 v 2.54558 h 0.423749 v -2.24069 c 0.09407,-0.0339 0.178472,-0.0506 0.25373,-0.0506 0.120414,0 0.201485,0.0374 0.242879,0.11266 0.04139,0.0753 0.06201,0.17888 0.06201,0.31057 v 0.85783 h 0.42323 v -0.85213 c 0,-0.10537 -0.01101,-0.20129 -0.03359,-0.28784 0.04139,-0.0489 0.08647,-0.0849 0.13539,-0.10749 0.04892,-0.0226 0.09592,-0.0336 0.141076,-0.0336 0.09031,0 0.165621,0.0355 0.225827,0.10698 0.06021,0.0715 0.08992,0.1751 0.08992,0.31058 v 1.87378 h 0.423746 v -1.86241 c 0,-0.13547 -0.01921,-0.25394 -0.05684,-0.35554 -0.03763,-0.1016 -0.08847,-0.18651 -0.152445,-0.25426 -0.06021,-0.0677 -0.131673,-0.11857 -0.214458,-0.15243 -0.07902,-0.0339 -0.16342,-0.0506 -0.25373,-0.0506 -0.184386,0 -0.357542,0.0657 -0.519348,0.1974 -0.06773,-0.0677 -0.150728,-0.11663 -0.248566,-0.14677 -0.09407,-0.0339 -0.195246,-0.0506 -0.304374,-0.0506 z m 6.152081,0 c -0.146756,0 -0.304541,0.0115 -0.473874,0.0341 -0.165571,0.0226 -0.332962,0.0542 -0.502296,0.0956 v 2.54558 h 0.468189 V 212.369 c 0.07902,-0.0151 0.160096,-0.0266 0.242879,-0.0341 0.08655,-0.0113 0.167622,-0.017 0.24288,-0.017 0.09031,0 0.172788,0.0115 0.248047,0.0341 0.07902,0.0226 0.144724,0.0638 0.197405,0.12401 0.05644,0.0565 0.100116,0.13752 0.130223,0.24288 0.03011,0.10537 0.04496,0.24253 0.04496,0.41186 v 1.45056 h 0.463023 v -1.5353 c 0,-0.39887 -0.09068,-0.68858 -0.271301,-0.86921 -0.176858,-0.18062 -0.440179,-0.27078 -0.79013,-0.27078 z m -23.571171,0.0563 v 1.4733 c 0,0.17685 0.01729,0.339 0.05116,0.48576 0.03387,0.14675 0.09188,0.27432 0.174667,0.38343 0.08279,0.10537 0.190241,0.18836 0.321944,0.24856 0.131704,0.0565 0.297174,0.0848 0.49661,0.0848 0.225778,0 0.421474,-0.0154 0.587045,-0.0455 0.169333,-0.0301 0.304576,-0.0584 0.406176,-0.0848 v -2.54558 h -0.468188 v 2.21228 c -0.01129,0.004 -0.03383,0.01 -0.0677,0.0171 -0.03387,0.004 -0.0737,0.01 -0.118856,0.0171 -0.04516,0.004 -0.09408,0.007 -0.146761,0.0114 -0.04892,0.004 -0.09784,0.006 -0.146761,0.006 -0.225778,0 -0.387405,-0.0676 -0.485242,-0.20309 -0.09407,-0.13547 -0.141076,-0.36472 -0.141076,-0.68833 v -1.37201 z m 8.190197,0 c 0.03387,0.3763 0.08471,0.79214 0.152446,1.24747 0.0715,0.45156 0.159737,0.90865 0.2651,1.37149 h 0.349849 c 0.05644,-0.12794 0.105368,-0.24449 0.146761,-0.34984 0.04516,-0.10538 0.08691,-0.21039 0.124541,-0.31576 0.04139,-0.10536 0.08263,-0.21473 0.124023,-0.32762 0.04139,-0.11665 0.0884,-0.24857 0.141077,-0.39532 0.05268,0.14675 0.09777,0.27867 0.135392,0.39532 0.0414,0.11289 0.08123,0.22226 0.118856,0.32762 0.04139,0.10537 0.08263,0.21038 0.124023,0.31576 0.04139,0.10535 0.09032,0.2219 0.146761,0.34984 h 0.34985 c 0.04892,-0.21448 0.09592,-0.43605 0.141076,-0.6656 0.04516,-0.23329 0.08691,-0.46306 0.12454,-0.68883 0.03763,-0.22579 0.06926,-0.44595 0.0956,-0.66044 0.02634,-0.21448 0.04888,-0.41594 0.0677,-0.60409 H 21.6979 c -0.01129,0.15427 -0.02422,0.30489 -0.03927,0.45166 -0.01505,0.14675 -0.03235,0.29929 -0.05116,0.45732 -0.01881,0.15429 -0.04136,0.31976 -0.0677,0.49661 -0.02634,0.17687 -0.05657,0.36873 -0.09043,0.57568 -0.05645,-0.14675 -0.10345,-0.27674 -0.141076,-0.38963 l -0.10697,-0.32144 c -0.03387,-0.1016 -0.06601,-0.20521 -0.09612,-0.31057 -0.03011,-0.10536 -0.06366,-0.22383 -0.101285,-0.35554 h -0.350367 c -0.03763,0.13171 -0.0731,0.25018 -0.10697,0.35554 -0.03011,0.10536 -0.06225,0.20897 -0.09612,0.31057 -0.03386,0.1016 -0.07126,0.20855 -0.112654,0.32144 -0.04139,0.11289 -0.09224,0.2448 -0.152446,0.39532 -0.03011,-0.22577 -0.05841,-0.42916 -0.08475,-0.60978 -0.02258,-0.18062 -0.0432,-0.34802 -0.06201,-0.50229 -0.01882,-0.15429 -0.03611,-0.30106 -0.05116,-0.4403 -0.01129,-0.14298 -0.0223,-0.28784 -0.03359,-0.43459 z m -1.523937,0.35036 c 0.218251,0 0.391407,0.0863 0.519347,0.25942 0.127941,0.16933 0.19172,0.40242 0.19172,0.6997 0,0.29351 -0.06378,0.52713 -0.19172,0.70022 -0.12794,0.16932 -0.301096,0.25373 -0.519347,0.25373 -0.214489,0 -0.385724,-0.0844 -0.513664,-0.25373 -0.124178,-0.17309 -0.186552,-0.40671 -0.186552,-0.70022 0,-0.29728 0.06237,-0.53037 0.186552,-0.6997 0.12794,-0.17309 0.299175,-0.25942 0.513664,-0.25942 z m -11.7972133,0.3664 c -0.1204145,0 -0.2215888,0.0244 -0.304374,0.0734 -0.079022,0.0489 -0.1452396,0.10937 -0.1979208,0.18086 -0.052682,0.0715 -0.09392,0.14873 -0.1240234,0.2315 -0.030104,0.0828 -0.050723,0.15616 -0.062012,0.22016 l 0.3219442,0.0904 c 0.01129,-0.0414 0.026143,-0.0851 0.044959,-0.13022 0.018815,-0.0489 0.039434,-0.0921 0.062012,-0.12972 0.026342,-0.0376 0.058489,-0.0673 0.096118,-0.0899 0.03763,-0.0263 0.082711,-0.0398 0.1353923,-0.0398 0.097837,0 0.1879994,0.0264 0.2707846,0.0791 0.082785,0.0527 0.1696212,0.10547 0.2599325,0.15813 0.079022,0.0489 0.1595771,0.094 0.2423623,0.13539 0.086548,0.0376 0.1805533,0.0563 0.2821533,0.0563 0.1166519,0 0.2164215,-0.0244 0.2992067,-0.0734 0.082785,-0.0489 0.1509236,-0.10885 0.2036051,-0.18034 0.056445,-0.0715 0.097683,-0.14872 0.1240234,-0.23151 0.030104,-0.0828 0.050723,-0.15621 0.062012,-0.22015 l -0.3219442,-0.0904 c -0.01129,0.0414 -0.026144,0.0865 -0.044958,0.13539 -0.018815,0.0452 -0.041355,0.0864 -0.067696,0.12402 -0.022577,0.0377 -0.052804,0.0698 -0.090434,0.0961 -0.03763,0.0226 -0.082711,0.0341 -0.1353923,0.0341 -0.094074,0 -0.1842363,-0.0264 -0.2707844,-0.0791 -0.082785,-0.0527 -0.1696215,-0.10546 -0.2599325,-0.15813 -0.079022,-0.0489 -0.1614987,-0.092 -0.2480469,-0.12971 -0.082785,-0.0414 -0.1753856,-0.0625 -0.2769856,-0.0625 z m 10.7869383,5.01262 1.557528,4.8767 h 0.47439 l -1.563729,-4.8767 z m 5.6441,0 1.558044,4.8767 h 0.47439 l -1.563729,-4.8767 z m -1.292427,0.0336 c -0.135467,0 -0.265463,0.0173 -0.389641,0.0512 -0.120414,0.0339 -0.227353,0.0919 -0.321427,0.17467 -0.09031,0.0828 -0.163695,0.19216 -0.220142,0.32762 -0.05645,0.13171 -0.08475,0.2991 -0.08475,0.5023 v 0.23719 h -0.552938 v 0.38913 h 0.552938 v 2.22984 h 0.463021 v -2.22984 h 1.055232 v -0.38952 H 20.77806 v -0.23151 c 0,-0.12794 0.01485,-0.23347 0.04496,-0.31626 0.03011,-0.0865 0.07134,-0.15415 0.124024,-0.20309 0.05268,-0.0527 0.113134,-0.0887 0.180867,-0.10748 0.0715,-0.0226 0.146803,-0.0336 0.225826,-0.0336 0.127941,0 0.254094,0.0148 0.378272,0.045 0.124178,0.0301 0.227273,0.0661 0.310058,0.10748 l 0.08475,-0.40101 c -0.120414,-0.0414 -0.249894,-0.0768 -0.389123,-0.10697 -0.135467,-0.0301 -0.271227,-0.0455 -0.406693,-0.0455 z m 22.577949,0 c -0.135466,0 -0.265462,0.0173 -0.389641,0.0512 -0.120415,0.0339 -0.227354,0.0919 -0.321426,0.17467 -0.09031,0.0828 -0.163696,0.19216 -0.220142,0.32762 -0.05645,0.13171 -0.08475,0.2991 -0.08475,0.5023 v 0.23719 h -0.553453 v 0.38913 h 0.553453 v 2.22984 h 0.462504 v -2.22984 h 1.055751 v -0.38913 h -1.055751 v -0.23151 c 0,-0.12794 0.01537,-0.23347 0.04548,-0.31626 0.0301,-0.0865 0.07134,-0.15415 0.124023,-0.20309 0.05268,-0.0527 0.113133,-0.0887 0.180867,-0.10748 0.0715,-0.0226 0.146288,-0.0336 0.225308,-0.0336 0.127942,0 0.254095,0.0148 0.378272,0.045 0.124177,0.0301 0.227791,0.0661 0.310576,0.10748 l 0.08475,-0.40101 c -0.120412,-0.0414 -0.25041,-0.0768 -0.389639,-0.10697 -0.135469,-0.0301 -0.270711,-0.0455 -0.406175,-0.0455 z m -11.836487,1.2361 c -0.146757,0 -0.305057,0.0115 -0.47439,0.0341 -0.165571,0.0225 -0.332962,0.0547 -0.502296,0.0961 v 2.54559 h 0.468707 v -2.21279 c 0.07902,-0.0151 0.160094,-0.0266 0.24288,-0.0341 0.08655,-0.0113 0.167103,-0.0165 0.242361,-0.0165 0.09031,0 0.173304,0.011 0.248565,0.0336 0.07902,0.0226 0.144722,0.0643 0.197403,0.12454 0.05644,0.0564 0.0996,0.137 0.129707,0.24236 0.03011,0.10537 0.04548,0.24304 0.04548,0.41238 v 1.45056 h 0.462505 v -1.53531 c 0,-0.39888 -0.09016,-0.68857 -0.270785,-0.8692 -0.176861,-0.18062 -0.440177,-0.2713 -0.790131,-0.2713 z m 5.136637,0 c -0.199438,0 -0.412428,0.0437 -0.638204,0.13022 v 2.54559 h 0.423748 v -2.2407 c 0.09407,-0.0339 0.178472,-0.0512 0.25373,-0.0512 0.120415,0 0.201486,0.0379 0.24288,0.11317 0.0414,0.0753 0.06201,0.17835 0.06201,0.31006 v 0.85834 h 0.42323 v -0.85266 c 0,-0.10536 -0.01101,-0.20128 -0.03359,-0.28784 0.04139,-0.0489 0.08647,-0.0844 0.135395,-0.10697 0.04892,-0.0226 0.09592,-0.0341 0.141076,-0.0341 0.09031,0 0.165616,0.036 0.225827,0.10748 0.06021,0.0715 0.08992,0.17459 0.08992,0.31006 v 1.87431 h 0.423746 v -1.86294 c 0,-0.13547 -0.01921,-0.25393 -0.05684,-0.35553 -0.03763,-0.1016 -0.08847,-0.186 -0.152445,-0.25374 -0.06021,-0.0677 -0.131673,-0.11857 -0.214458,-0.15244 -0.07902,-0.0339 -0.16342,-0.0512 -0.253731,-0.0512 -0.184385,0 -0.357542,0.0662 -0.519348,0.19792 -0.06773,-0.0677 -0.150727,-0.11663 -0.248565,-0.14676 -0.09407,-0.0339 -0.195247,-0.0512 -0.304374,-0.0512 z m -11.955342,0.0568 0.942579,1.24179 c -0.173097,0.21449 -0.349579,0.44182 -0.530201,0.68264 -0.176859,0.23707 -0.327474,0.46876 -0.451652,0.69454 h 0.479558 c 0.04139,-0.0715 0.09224,-0.15258 0.152445,-0.24288 0.06021,-0.0903 0.124503,-0.1824 0.192236,-0.27647 0.0715,-0.0978 0.144883,-0.19377 0.220142,-0.28784 0.07526,-0.0941 0.146724,-0.18424 0.214456,-0.27079 0.06773,0.0828 0.135356,0.17103 0.203089,0.2651 0.07149,0.0941 0.139115,0.19001 0.203089,0.28784 0.06397,0.0941 0.122502,0.18616 0.175183,0.27647 0.05644,0.0903 0.103442,0.17331 0.141076,0.24857 h 0.519348 c -0.120414,-0.23331 -0.267187,-0.47025 -0.440282,-0.71107 -0.169334,-0.24084 -0.338646,-0.47252 -0.507979,-0.69453 l 0.863512,-1.21337 h -0.496612 l -0.64957,0.91416 -0.705384,-0.91416 z m 22.57795,0 0.942578,1.24179 c -0.173096,0.21449 -0.350094,0.44182 -0.530717,0.68264 -0.176858,0.23707 -0.326959,0.46876 -0.451136,0.69454 h 0.479557 c 0.04139,-0.0715 0.09224,-0.15258 0.152445,-0.24288 0.06021,-0.0903 0.123987,-0.1824 0.19172,-0.27647 0.0715,-0.0978 0.144883,-0.19377 0.220141,-0.28784 0.07526,-0.0941 0.146725,-0.18424 0.214458,-0.27079 0.06773,0.0828 0.135872,0.17103 0.203605,0.2651 0.07149,0.0941 0.139115,0.19001 0.203089,0.28784 0.06397,0.0941 0.121986,0.18616 0.174667,0.27647 0.05644,0.0903 0.103442,0.17331 0.141076,0.24857 h 0.519348 c -0.120414,-0.23331 -0.267187,-0.47025 -0.440282,-0.71107 -0.169334,-0.24084 -0.338646,-0.47252 -0.507979,-0.69453 l 0.863512,-1.21337 h -0.496609 l -0.649058,0.91416 -0.705384,-0.91416 z M 6.1872204,224.736 5.9329722,225.075 c 0.1881479,0.16181 0.3497752,0.32344 0.4852416,0.48524 0.1392296,0.16181 0.2543707,0.3292 0.3446817,0.5023 0.090311,0.1731 0.1560113,0.35394 0.1974043,0.54208 0.045155,0.18815 0.067696,0.38769 0.067696,0.59842 0,0.41768 -0.094005,0.80331 -0.282153,1.15703 -0.1843855,0.35372 -0.4515464,0.66596 -0.8015015,0.9369 h -0.00568 l 0.2485639,0.33848 c 0.2144887,-0.15429 0.4005775,-0.32552 0.5586222,-0.51367 0.1618072,-0.18438 0.2951294,-0.38008 0.4004923,-0.58704 0.1091261,-0.21073 0.1901979,-0.42896 0.2428791,-0.65474 0.056445,-0.22578 0.08475,-0.45503 0.08475,-0.68833 0,-0.47037 -0.1074552,-0.91645 -0.3219442,-1.3379 C 6.941298,225.42855 6.6199655,225.05586 6.1872249,224.736 Z m 26.4324946,14.11129 c -0.428977,0.31232 -0.750311,0.68118 -0.964801,1.10639 -0.214487,0.42521 -0.321942,0.87078 -0.321942,1.33739 0,0.47037 0.105534,0.91837 0.316259,1.34358 0.21449,0.42146 0.537742,0.79223 0.970484,1.11208 l 0.254248,-0.339 c -0.188148,-0.1618 -0.351697,-0.32343 -0.490926,-0.48524 -0.135467,-0.16181 -0.248687,-0.32919 -0.338998,-0.50229 -0.08655,-0.1731 -0.152251,-0.35394 -0.197405,-0.54209 -0.04139,-0.18815 -0.06201,-0.38717 -0.06201,-0.5979 0,-0.41768 0.09208,-0.80383 0.276469,-1.15755 0.184385,-0.35371 0.451546,-0.66596 0.801502,-0.93689 h 0.0057 z m -24.1070553,0.0114 1.5575273,4.8767 h 0.47439 l -1.5637289,-4.87671 z m 25.3999993,0 1.557528,4.8767 h 0.47439 l -1.56373,-4.8767 z m -19.648413,0.45165 v 0.39481 h 0.677478 v 2.70371 h -0.677478 v 0.39532 h 1.817461 v -0.39533 h -0.677479 v -2.70371 h 0.677479 v -0.39481 z m 5.531446,0 v 0.39481 h 1.597318 c -0.135466,0.19191 -0.276474,0.40105 -0.42323,0.62683 -0.146755,0.22577 -0.293528,0.45887 -0.440283,0.6997 -0.146756,0.24083 -0.291606,0.48737 -0.434599,0.73949 -0.139229,0.24835 -0.267304,0.49105 -0.383956,0.72812 v 0.30489 h 2.263428 v -0.39532 h -1.732711 c 0.109126,-0.20696 0.235279,-0.4343 0.378272,-0.68265 0.146755,-0.25212 0.29737,-0.5025 0.451652,-0.75086 0.154282,-0.24835 0.30438,-0.48528 0.451135,-0.71106 0.150519,-0.22954 0.286279,-0.42717 0.406693,-0.59273 v -0.36122 z m -1.727027,0.81235 c -0.365007,0 -0.63409,0.072 -0.807186,0.21498 -0.169333,0.13923 -0.254248,0.31378 -0.254248,0.52451 0,0.15051 0.03791,0.27283 0.113172,0.3669 0.07902,0.0941 0.174949,0.17327 0.287838,0.2372 0.116651,0.064 0.242804,0.11868 0.378271,0.16381 0.135467,0.0414 0.259698,0.0846 0.372587,0.12971 0.116652,0.0452 0.212578,0.0979 0.287838,0.15813 0.07902,0.0602 0.118339,0.13744 0.118339,0.23151 0,0.21449 -0.212473,0.32143 -0.637687,0.32143 -0.16557,0 -0.32195,-0.0187 -0.468706,-0.0563 -0.142992,-0.0414 -0.280157,-0.0922 -0.411861,-0.15244 l -0.09043,0.42323 c 0.135466,0.0602 0.278395,0.10525 0.428914,0.13539 0.150518,0.0301 0.315988,0.0455 0.496611,0.0455 0.398873,0 0.690496,-0.0643 0.874881,-0.19223 0.184385,-0.1317 0.276986,-0.31587 0.276986,-0.55294 0,-0.14676 -0.03983,-0.26715 -0.118856,-0.36122 -0.07526,-0.0978 -0.171186,-0.18083 -0.287837,-0.24856 -0.116652,-0.0678 -0.242805,-0.12385 -0.378272,-0.16898 -0.135467,-0.0489 -0.261619,-0.096 -0.378271,-0.14108 -0.116652,-0.0452 -0.213984,-0.0941 -0.293006,-0.14676 -0.07526,-0.0564 -0.113171,-0.12459 -0.113171,-0.20361 0,-0.22202 0.203382,-0.33279 0.609782,-0.33279 0.0715,0 0.144882,0.004 0.220141,0.0114 0.07902,0.008 0.152408,0.0185 0.220142,0.0336 0.06774,0.0113 0.127671,0.0267 0.180351,0.0455 0.05268,0.015 0.09392,0.0299 0.124023,0.045 l 0.08475,-0.41755 c -0.109127,-0.0339 -0.240527,-0.0603 -0.394809,-0.0791 -0.150518,-0.0226 -0.29729,-0.0341 -0.440283,-0.0341 z m 5.621879,0 c -0.154281,0 -0.304896,0.0283 -0.451652,0.0847 -0.146755,0.0565 -0.278672,0.14136 -0.395324,0.25425 -0.116652,0.11289 -0.210657,0.25581 -0.282154,0.42891 -0.0715,0.1731 -0.10697,0.37596 -0.10697,0.60927 0,0.19567 0.0283,0.37844 0.08475,0.54777 0.05645,0.16557 0.140843,0.30849 0.253732,0.42891 0.112889,0.12042 0.253896,0.21635 0.42323,0.28784 0.173096,0.0677 0.372635,0.1018 0.598413,0.1018 0.184385,0 0.349855,-0.0173 0.49661,-0.0512 0.146754,-0.0338 0.248445,-0.0655 0.304891,-0.0956 l -0.06201,-0.39532 c -0.06021,0.0301 -0.148448,0.0584 -0.2651,0.0848 -0.116652,0.0263 -0.258176,0.0398 -0.423746,0.0398 -0.289748,0 -0.515154,-0.0701 -0.676962,-0.20929 -0.158045,-0.14299 -0.246803,-0.3497 -0.265616,-0.62064 h 1.874304 v -0.16381 c 0,-0.44779 -0.09593,-0.78066 -0.287838,-0.99891 -0.191911,-0.22202 -0.464836,-0.33331 -0.818555,-0.33331 z m 5.587771,0 c -0.169333,0 -0.327117,0.0341 -0.473871,0.1018 -0.142994,0.064 -0.267224,0.15606 -0.372589,0.27647 -0.105362,0.11666 -0.188357,0.25958 -0.248563,0.42892 -0.05645,0.16933 -0.08475,0.35786 -0.08475,0.56482 0,0.20697 0.0283,0.39497 0.08475,0.56431 0.06021,0.16556 0.143201,0.30849 0.248563,0.42891 0.105365,0.12042 0.229595,0.21442 0.372589,0.28216 0.146754,0.064 0.304538,0.0961 0.473871,0.0961 0.173099,0 0.33332,-0.0321 0.480076,-0.0961 0.146754,-0.0677 0.272391,-0.16174 0.377754,-0.28216 0.10536,-0.12042 0.186433,-0.26335 0.242879,-0.42891 0.06021,-0.16934 0.09043,-0.35734 0.09043,-0.56431 0,-0.20696 -0.03023,-0.39549 -0.09043,-0.56482 -0.05644,-0.16934 -0.137517,-0.31226 -0.242879,-0.42892 -0.105363,-0.12038 -0.231,-0.21247 -0.377754,-0.27647 -0.146756,-0.0677 -0.306977,-0.1018 -0.480076,-0.1018 z m -2.460831,0.006 c -0.391347,0 -0.778896,0.0662 -1.162718,0.19792 v 2.47788 h 0.46302 v -2.17299 c 0.237067,-0.064 0.470159,-0.0961 0.699698,-0.0961 0.109127,0 0.208897,0.005 0.299207,0.0165 0.09408,0.008 0.201012,0.0287 0.321426,0.0625 l 0.08475,-0.41237 c -0.131704,-0.0301 -0.252092,-0.0488 -0.361219,-0.0563 -0.109125,-0.0113 -0.22375,-0.0171 -0.344165,-0.0171 z m 10.899592,0 c -0.146753,0 -0.305054,0.0115 -0.474387,0.0341 -0.165571,0.0226 -0.332962,0.0547 -0.502295,0.0961 v 2.54558 h 0.468704 v -2.21278 c 0.07902,-0.0151 0.159578,-0.0266 0.242363,-0.0341 0.08655,-0.0113 0.167619,-0.0165 0.24288,-0.0165 0.09031,0 0.172786,0.011 0.248047,0.0336 0.07902,0.0226 0.14524,0.0638 0.197919,0.12403 0.05644,0.0564 0.0996,0.13751 0.129709,0.24288 0.03011,0.10536 0.04496,0.24252 0.04496,0.41186 v 1.45107 h 0.46302 v -1.53531 c 0,-0.39888 -0.09016,-0.68857 -0.270785,-0.86919 -0.176858,-0.18062 -0.440176,-0.2713 -0.790133,-0.2713 z m -24.824322,0.0563 v 2.21279 c -0.01129,0.004 -0.03383,0.01 -0.0677,0.017 -0.03387,0.004 -0.0737,0.009 -0.118856,0.0165 -0.04516,0.004 -0.09408,0.007 -0.146761,0.0114 -0.04892,0.004 -0.09784,0.006 -0.146761,0.006 -0.225778,0 -0.387405,-0.0681 -0.485242,-0.20361 -0.09407,-0.13546 -0.141076,-0.36472 -0.141076,-0.68833 v -1.37149 H 11.32334 v 1.47329 c 0,0.17686 0.01729,0.33849 0.05116,0.48525 0.03387,0.14676 0.09188,0.27483 0.174667,0.38395 0.08279,0.10537 0.190241,0.18785 0.321944,0.24805 0.131704,0.0565 0.297174,0.0848 0.49661,0.0848 0.225778,0 0.421474,-0.0148 0.587045,-0.045 0.169333,-0.0301 0.304576,-0.0584 0.406176,-0.0848 v -2.5461 z m 10.792106,0.33332 c 0.191911,0 0.345852,0.0657 0.462504,0.1974 0.116652,0.12794 0.175183,0.30302 0.175183,0.52503 H 22.934 c 0.01129,-0.0903 0.03575,-0.17854 0.07338,-0.2651 0.03763,-0.0865 0.08847,-0.16378 0.152445,-0.23151 0.06397,-0.0677 0.139278,-0.12241 0.225826,-0.16381 0.09031,-0.0414 0.190081,-0.062 0.299207,-0.062 z m 5.593455,0.017 c 0.218253,0 0.391409,0.0863 0.519348,0.25941 0.127942,0.16934 0.19172,0.40295 0.19172,0.70022 0,0.29351 -0.06378,0.5266 -0.19172,0.6997 -0.127939,0.16933 -0.301095,0.25425 -0.519348,0.25425 -0.214487,0 -0.385722,-0.0849 -0.513662,-0.25425 -0.124179,-0.1731 -0.186036,-0.40619 -0.186036,-0.6997 0,-0.29727 0.06186,-0.53088 0.186036,-0.70022 0.12794,-0.17309 0.299175,-0.25941 0.513662,-0.25941 z m -23.0859273,0.3669 c -0.1204145,0 -0.2215888,0.0245 -0.304374,0.0734 -0.079022,0.0489 -0.1452396,0.10885 -0.1979208,0.18035 -0.052682,0.0715 -0.09392,0.14873 -0.1240234,0.23151 -0.030104,0.0828 -0.050723,0.15621 -0.062012,0.22014 l 0.3219442,0.0904 c 0.01129,-0.0414 0.026143,-0.0846 0.044959,-0.12971 0.018815,-0.049 0.039434,-0.0921 0.062012,-0.12971 0.026342,-0.0376 0.058489,-0.0678 0.096118,-0.0904 0.03763,-0.0263 0.082711,-0.0398 0.1353923,-0.0398 0.097837,0 0.1879994,0.0264 0.2707846,0.0791 0.082785,0.0527 0.1696212,0.10547 0.2599325,0.15813 0.079022,0.0489 0.1595771,0.094 0.2423623,0.13539 0.086548,0.0376 0.1805533,0.0563 0.2821533,0.0563 0.1166519,0 0.2164215,-0.0245 0.2992067,-0.0734 0.082785,-0.0489 0.1509236,-0.10885 0.2036051,-0.18035 0.056445,-0.0715 0.097683,-0.14872 0.1240234,-0.23151 0.030104,-0.0828 0.050723,-0.15621 0.062012,-0.22014 l -0.3219442,-0.0904 c -0.01129,0.0414 -0.026144,0.0865 -0.044958,0.1354 -0.018815,0.0452 -0.041355,0.0864 -0.067696,0.12402 -0.022577,0.0377 -0.052804,0.0698 -0.090434,0.0961 -0.03763,0.0226 -0.082711,0.0341 -0.1353923,0.0341 -0.094074,0 -0.1842363,-0.0264 -0.2707844,-0.0791 -0.082785,-0.0527 -0.1696215,-0.10546 -0.2599325,-0.15813 -0.079022,-0.049 -0.1614987,-0.0921 -0.2480469,-0.12971 -0.082785,-0.0414 -0.1753856,-0.062 -0.2769856,-0.062 z m 17.9606603,5.00072 c -0.428977,0.31233 -0.750309,0.68117 -0.964799,1.10639 -0.214488,0.42522 -0.321944,0.8713 -0.321944,1.33791 0,0.47036 0.105534,0.91785 0.31626,1.34307 0.214489,0.42144 0.537743,0.79222 0.970483,1.11207 l 0.254248,-0.33848 c -0.188148,-0.16181 -0.351696,-0.32395 -0.490926,-0.48576 -0.135466,-0.1618 -0.248686,-0.3292 -0.338997,-0.50229 -0.08655,-0.1731 -0.152251,-0.35342 -0.197404,-0.54157 -0.04139,-0.18815 -0.06201,-0.38769 -0.06201,-0.59841 0,-0.41769 0.09208,-0.80332 0.276469,-1.15704 0.184386,-0.35372 0.451546,-0.66596 0.801502,-0.93689 h 0.0057 z m 24.367506,0 -0.254249,0.339 c 0.188148,0.1618 0.349774,0.32343 0.485241,0.48524 0.139231,0.16181 0.254373,0.32919 0.344683,0.50229 0.09031,0.1731 0.156009,0.35394 0.197403,0.54209 0.04515,0.18815 0.0677,0.38769 0.0677,0.59841 0,0.41769 -0.09401,0.80332 -0.282155,1.15704 -0.184385,0.35372 -0.451545,0.66596 -0.801499,0.93689 h -0.0057 l 0.248566,0.33848 c 0.214487,-0.15428 0.400576,-0.32551 0.55862,-0.51366 0.161808,-0.18439 0.295129,-0.38009 0.400494,-0.58705 0.109128,-0.21072 0.190199,-0.42896 0.242877,-0.65474 0.05645,-0.22578 0.08475,-0.45503 0.08475,-0.68833 0,-0.47037 -0.107456,-0.91645 -0.321945,-1.3379 -0.210723,-0.42521 -0.532056,-0.79791 -0.964796,-1.11776 z m -23.074561,0.0114 1.557528,4.8767 h 0.474389 l -1.563729,-4.8767 z m 9.996289,0.0341 c -0.135467,0 -0.265465,0.0168 -0.389642,0.0506 -0.120414,0.0339 -0.227351,0.0924 -0.321426,0.17518 -0.09031,0.0828 -0.163695,0.19165 -0.220141,0.32711 -0.05645,0.1317 -0.08475,0.2991 -0.08475,0.5023 v 0.23719 H 33.87287 v 0.38964 h 0.553453 v 2.22932 h 0.462505 v -2.22932 h 1.055751 v -0.38964 h -1.055751 v -0.23151 c 0,-0.12794 0.01537,-0.23296 0.04548,-0.31574 0.0301,-0.0865 0.07134,-0.15467 0.124023,-0.20361 0.05268,-0.0527 0.113134,-0.0882 0.180867,-0.10697 0.0715,-0.0226 0.146288,-0.0341 0.225309,-0.0341 0.127941,0 0.254095,0.0153 0.378272,0.0455 0.124177,0.0301 0.22779,0.0656 0.310576,0.10697 l 0.08475,-0.40049 c -0.120417,-0.0414 -0.25041,-0.0773 -0.389644,-0.10749 -0.135464,-0.0301 -0.270706,-0.045 -0.406175,-0.045 z m 4.024561,0.0279 v 0.39533 h 0.756025 v 2.47788 c 0,0.17686 0.01344,0.33324 0.03979,0.46871 0.02633,0.1317 0.07142,0.24248 0.135393,0.33279 0.06397,0.0903 0.150288,0.15796 0.259416,0.20309 0.109125,0.0451 0.246806,0.0677 0.412377,0.0677 0.07149,0 0.139115,-0.005 0.203089,-0.0165 0.06773,-0.0113 0.129587,-0.0247 0.186033,-0.0398 0.05644,-0.0151 0.105368,-0.0299 0.146762,-0.045 0.04139,-0.0189 0.07354,-0.0342 0.09612,-0.0455 l -0.0677,-0.39481 c -0.05268,0.0301 -0.126066,0.0584 -0.220141,0.0847 -0.09407,0.0263 -0.195763,0.0393 -0.30489,0.0393 -0.0715,0 -0.133353,-0.01 -0.186037,-0.0284 -0.05268,-0.0188 -0.09777,-0.0523 -0.135392,-0.10129 -0.03387,-0.0527 -0.06025,-0.1203 -0.07906,-0.20309 -0.01505,-0.0828 -0.02273,-0.19023 -0.02273,-0.32194 v -2.87321 z m 15.177884,0.45165 -0.463021,0.0791 v 0.7338 h -0.552937 v 0.38913 h 0.552937 v 1.21956 c 0,0.17686 0.01294,0.33272 0.03927,0.46819 0.02633,0.13171 0.07386,0.243 0.141592,0.33331 0.07149,0.0903 0.169344,0.15796 0.293523,0.20309 0.124177,0.0451 0.283882,0.0677 0.479558,0.0677 0.169333,0 0.31034,-0.0187 0.42323,-0.0563 0.116652,-0.0376 0.201567,-0.0678 0.254249,-0.0904 l -0.0677,-0.39481 c -0.07526,0.0376 -0.154411,0.0673 -0.237197,0.0899 -0.08279,0.0226 -0.192161,0.0341 -0.327628,0.0341 -0.09784,0 -0.180313,-0.01 -0.248047,-0.0284 -0.06774,-0.0188 -0.124346,-0.0523 -0.169497,-0.10129 -0.04139,-0.0527 -0.07162,-0.1203 -0.09043,-0.20309 -0.01881,-0.0828 -0.02791,-0.19023 -0.02791,-0.32194 v -1.21905 h 1.106392 v -0.38964 h -1.106392 z m -16.911114,0.75086 c -0.169333,0 -0.329039,0.011 -0.479557,0.0336 -0.146759,0.0225 -0.252291,0.0489 -0.316259,0.0791 l 0.05633,0.38395 c 0.06397,-0.0225 0.156573,-0.0451 0.276987,-0.0677 0.120415,-0.0226 0.261422,-0.0341 0.42323,-0.0341 0.12794,0 0.231553,0.0192 0.310574,0.0568 0.08279,0.0339 0.146568,0.0809 0.191719,0.14108 0.04891,0.0602 0.08107,0.12783 0.09612,0.20309 0.01881,0.0715 0.0279,0.1468 0.0279,0.22582 v 0.12971 c -0.176858,-0.0414 -0.357182,-0.062 -0.541567,-0.062 -0.135467,0 -0.271228,0.0148 -0.406694,0.045 -0.131704,0.0263 -0.250172,0.0714 -0.355534,0.13539 -0.1016,0.064 -0.185997,0.14888 -0.25373,0.25425 -0.06397,0.1016 -0.09612,0.22775 -0.09612,0.37827 0,0.16933 0.03215,0.30842 0.09612,0.41755 0.06397,0.10909 0.148368,0.19541 0.25373,0.25941 0.105362,0.0602 0.22575,0.10194 0.361217,0.12454 0.135467,0.0263 0.274553,0.0393 0.417547,0.0393 0.188148,0 0.370911,-0.0129 0.547769,-0.0393 0.180624,-0.0263 0.325475,-0.0489 0.4346,-0.0677 v -1.63711 c 0,-0.14676 -0.01677,-0.28201 -0.05064,-0.40618 -0.03387,-0.12418 -0.0924,-0.22971 -0.175184,-0.31626 -0.08278,-0.0865 -0.191643,-0.15415 -0.327109,-0.20309 -0.131705,-0.0489 -0.29577,-0.0734 -0.491445,-0.0734 z m 5.735053,0 c -0.365009,0 -0.63409,0.0715 -0.807188,0.21446 -0.169334,0.13923 -0.254247,0.3143 -0.254247,0.52503 0,0.15052 0.03791,0.27283 0.113171,0.3669 0.07902,0.0941 0.17495,0.17268 0.287837,0.23668 0.116652,0.064 0.242806,0.11868 0.378272,0.16382 0.135467,0.0414 0.2597,0.0846 0.372587,0.1297 0.116652,0.0452 0.212579,0.0979 0.287837,0.15813 0.07902,0.0602 0.11834,0.13744 0.11834,0.23151 0,0.2145 -0.212473,0.32143 -0.637688,0.32143 -0.165571,0 -0.32195,-0.0187 -0.468704,-0.0563 -0.142994,-0.0414 -0.280159,-0.0922 -0.411861,-0.15244 l -0.09043,0.42323 c 0.135467,0.0602 0.278394,0.10577 0.428913,0.13591 0.150519,0.0301 0.315989,0.045 0.496613,0.045 0.398872,0 0.690496,-0.0638 0.874881,-0.19172 0.184386,-0.13171 0.276985,-0.31639 0.276985,-0.55346 0,-0.14675 -0.03983,-0.26714 -0.118856,-0.36122 -0.07526,-0.0978 -0.171186,-0.18031 -0.287838,-0.24804 -0.116652,-0.0678 -0.242803,-0.12437 -0.378269,-0.1695 -0.135467,-0.0489 -0.26162,-0.0959 -0.378273,-0.14108 -0.116652,-0.0452 -0.213981,-0.0941 -0.293004,-0.14676 -0.07526,-0.0564 -0.113173,-0.12406 -0.113173,-0.20309 0,-0.22201 0.203382,-0.33331 0.609782,-0.33331 0.0715,0 0.144883,0.004 0.220142,0.0114 0.07902,0.008 0.152407,0.019 0.220141,0.0341 0.06774,0.0113 0.127672,0.0262 0.18035,0.045 0.05268,0.0151 0.09392,0.0304 0.124024,0.0455 l 0.08475,-0.41806 c -0.109127,-0.0339 -0.240527,-0.0603 -0.394808,-0.0791 -0.150519,-0.0226 -0.297292,-0.0336 -0.440283,-0.0336 z m 2.79931,0 c -0.154281,0 -0.304379,0.0283 -0.451133,0.0848 -0.146757,0.0564 -0.278675,0.14084 -0.395325,0.25373 -0.116652,0.11289 -0.210658,0.25582 -0.282154,0.42892 -0.0715,0.1731 -0.107487,0.37648 -0.107487,0.60978 0,0.19567 0.0283,0.37792 0.08475,0.54725 0.05645,0.16558 0.141359,0.30902 0.254249,0.42943 0.11289,0.12042 0.253897,0.21634 0.42323,0.28784 0.173096,0.0677 0.372634,0.10129 0.598411,0.10129 0.184383,0 0.349856,-0.0168 0.496612,-0.0507 0.146754,-0.0339 0.248444,-0.066 0.30489,-0.0961 l -0.06201,-0.39481 c -0.06021,0.0301 -0.148966,0.0584 -0.265618,0.0847 -0.116652,0.0263 -0.257659,0.0393 -0.42323,0.0393 -0.289748,0 -0.515673,-0.0695 -0.677479,-0.20877 -0.158046,-0.143 -0.246285,-0.35022 -0.265102,-0.62115 h 1.87379 v -0.1633 c 0,-0.44779 -0.09592,-0.78117 -0.287838,-0.99942 -0.19191,-0.22202 -0.464838,-0.3328 -0.818557,-0.3328 z m 16.933333,0 c -0.154281,0 -0.304379,0.0283 -0.451133,0.0848 -0.146756,0.0564 -0.278675,0.14084 -0.395324,0.25373 -0.116653,0.11289 -0.210659,0.25582 -0.282155,0.42892 -0.07149,0.1731 -0.107487,0.37648 -0.107487,0.60978 0,0.19567 0.0283,0.37792 0.08475,0.54725 0.05644,0.16558 0.141359,0.30902 0.254248,0.42943 0.112887,0.12042 0.253897,0.21634 0.42323,0.28784 0.173096,0.0677 0.372637,0.10129 0.598414,0.10129 0.184385,0 0.349853,-0.0168 0.49661,-0.0507 0.146753,-0.0339 0.248443,-0.066 0.30489,-0.0961 l -0.06201,-0.39481 c -0.06021,0.0301 -0.148966,0.0584 -0.265618,0.0847 -0.116652,0.0263 -0.257659,0.0393 -0.42323,0.0393 -0.289748,0 -0.51567,-0.0695 -0.677476,-0.20877 -0.158046,-0.143 -0.246287,-0.35022 -0.265102,-0.62115 h 1.873787 v -0.1633 c 0,-0.44779 -0.09592,-0.78117 -0.287837,-0.99942 -0.191911,-0.22202 -0.464836,-0.3328 -0.818555,-0.3328 z m -45.240131,0.006 c -0.146755,0 -0.304539,0.011 -0.473873,0.0336 -0.16557,0.0226 -0.332961,0.0547 -0.502295,0.0961 v 2.54558 h 0.468189 v -2.21278 c 0.07902,-0.0151 0.160094,-0.0261 0.242879,-0.0336 0.08655,-0.0113 0.16762,-0.0171 0.242879,-0.0171 0.09031,0 0.172788,0.011 0.248047,0.0336 0.07902,0.0226 0.144724,0.0643 0.197404,0.12454 0.05644,0.0564 0.100118,0.137 0.130225,0.24236 0.03011,0.10537 0.04496,0.24304 0.04496,0.41238 v 1.45056 h 0.463021 v -1.53531 c 0,-0.39887 -0.09068,-0.68858 -0.271301,-0.8692 -0.176859,-0.18063 -0.440177,-0.27078 -0.790133,-0.27078 z m 39.900924,0 c -0.391348,0 -0.778899,0.0657 -1.162719,0.1974 v 2.47788 h 0.462502 v -2.17299 c 0.237067,-0.064 0.470675,-0.0961 0.700217,-0.0961 0.109125,0 0.208378,0.006 0.298688,0.017 0.09408,0.008 0.201531,0.0282 0.321945,0.062 l 0.08475,-0.41186 c -0.131702,-0.0301 -0.252093,-0.0493 -0.361217,-0.0568 -0.109128,-0.0113 -0.223751,-0.0165 -0.344165,-0.0165 z m 3.008085,0.0558 v 2.21278 c -0.0113,0.004 -0.03383,0.01 -0.0677,0.0171 -0.03387,0.004 -0.07319,0.009 -0.11834,0.0165 -0.04516,0.004 -0.09408,0.007 -0.146764,0.0114 -0.04892,0.004 -0.09784,0.006 -0.146757,0.006 -0.225779,0 -0.387405,-0.0676 -0.485243,-0.20309 -0.09407,-0.13546 -0.141076,-0.36523 -0.141076,-0.68884 v -1.3715 h -0.463023 v 1.4733 c 0,0.17686 0.01677,0.33849 0.05064,0.48524 0.03387,0.14675 0.0924,0.27483 0.175183,0.38396 0.08278,0.10537 0.189722,0.18784 0.321427,0.24804 0.131704,0.0565 0.29769,0.0847 0.497125,0.0847 0.22578,0 0.421476,-0.0149 0.587047,-0.045 0.169331,-0.0301 0.304575,-0.0584 0.406175,-0.0847 v -2.54609 z m -32.793866,5.3e-4 0.942578,1.24178 c -0.173095,0.21449 -0.350094,0.44234 -0.530714,0.68316 -0.176861,0.23707 -0.327475,0.46824 -0.451654,0.69402 h 0.480075 c 0.04139,-0.0715 0.09224,-0.15257 0.152445,-0.24288 0.06021,-0.0903 0.123987,-0.1824 0.19172,-0.27647 0.0715,-0.0978 0.144881,-0.19376 0.220141,-0.28784 0.07526,-0.0941 0.146725,-0.18424 0.214458,-0.27078 0.06773,0.0828 0.135353,0.17102 0.203087,0.2651 0.0715,0.0941 0.139115,0.18999 0.203089,0.28783 0.06397,0.0941 0.122504,0.18617 0.175183,0.27647 0.05645,0.0903 0.103449,0.17331 0.141076,0.24857 h 0.51935 c -0.120414,-0.23331 -0.267189,-0.47024 -0.440285,-0.71107 -0.169333,-0.24083 -0.338645,-0.47251 -0.507979,-0.69453 l 0.863513,-1.21336 h -0.49661 l -0.649057,0.91415 -0.705898,-0.91415 z m 18.186488,0.33279 c 0.191912,0 0.345852,0.0662 0.462504,0.19792 0.116653,0.12794 0.175184,0.30302 0.175184,0.52504 H 45.51195 c 0.0113,-0.0903 0.03575,-0.17908 0.07338,-0.26562 0.03763,-0.0865 0.08848,-0.16378 0.152445,-0.23151 0.06397,-0.0677 0.139276,-0.1219 0.225824,-0.1633 0.09031,-0.0414 0.190082,-0.0625 0.299207,-0.0625 z m 16.933333,0 c 0.191913,0 0.345853,0.0662 0.462505,0.19792 0.116652,0.12794 0.175183,0.30302 0.175183,0.52504 h -1.388546 c 0.0113,-0.0903 0.03575,-0.17908 0.07338,-0.26562 0.03763,-0.0865 0.08847,-0.16378 0.152445,-0.23151 0.06397,-0.0677 0.139277,-0.1219 0.225825,-0.1633 0.09031,-0.0414 0.190082,-0.0625 0.299206,-0.0625 z m -25.360725,1.07279 c 0.09407,0 0.182313,0.006 0.265099,0.0171 0.08655,0.0113 0.159935,0.0262 0.220141,0.045 v 0.77877 c -0.06021,0.0113 -0.137435,0.0209 -0.23151,0.0284 -0.09031,0.008 -0.193405,0.0114 -0.310057,0.0114 -0.195676,0 -0.352055,-0.0321 -0.468707,-0.0961 -0.112887,-0.0677 -0.169498,-0.1862 -0.169498,-0.35553 0,-0.0828 0.02114,-0.15043 0.06253,-0.20309 0.04139,-0.0564 0.09364,-0.10153 0.15761,-0.13539 0.06397,-0.0339 0.137361,-0.0564 0.220141,-0.0677 0.08279,-0.0151 0.167701,-0.0227 0.254251,-0.0227 z m -31.6481966,4.3124 -0.2542482,0.33848 c 0.1881479,0.16181 0.3497752,0.32344 0.4852416,0.48524 0.1392296,0.16181 0.2543707,0.3292 0.3446817,0.5023 0.090311,0.1731 0.1560113,0.35394 0.1974043,0.54208 0.045155,0.18815 0.067696,0.38769 0.067696,0.59842 0,0.41769 -0.094005,0.80332 -0.282153,1.15703 -0.1843855,0.35372 -0.4515464,0.66596 -0.8015015,0.9369 h -0.00568 l 0.2485639,0.33899 c 0.2144887,-0.15428 0.4005775,-0.32551 0.5586222,-0.51366 0.1618072,-0.18438 0.2951294,-0.38008 0.4004923,-0.58705 0.1091261,-0.21072 0.1901979,-0.42896 0.2428791,-0.65474 0.056445,-0.22578 0.08475,-0.45554 0.08475,-0.68884 0,-0.47037 -0.1074552,-0.91645 -0.3219442,-1.33791 C 6.941298,253.65118 6.6199655,253.279 6.1872249,252.95915 Z m 17.9658276,14.11077 c -0.428977,0.31232 -0.750309,0.68118 -0.964799,1.10639 -0.214488,0.42521 -0.321944,0.87129 -0.321944,1.3379 0,0.47037 0.105534,0.91786 0.31626,1.34307 0.214489,0.42146 0.537743,0.79222 0.970483,1.11208 l 0.254248,-0.33848 c -0.188148,-0.16181 -0.351696,-0.32395 -0.490926,-0.48576 -0.135466,-0.16181 -0.248686,-0.3292 -0.338997,-0.50229 -0.08655,-0.1731 -0.152251,-0.35343 -0.197404,-0.54157 -0.04139,-0.18815 -0.06201,-0.38769 -0.06201,-0.59842 0,-0.41769 0.09208,-0.80332 0.276469,-1.15703 0.184386,-0.35372 0.451546,-0.66596 0.801502,-0.9369 h 0.0057 z m -15.6403883,0.0114 1.5575273,4.8767 h 0.47439 l -1.5637289,-4.8767 z m 16.9333333,0 1.557528,4.8767 h 0.474389 l -1.563729,-4.8767 z m 5.644099,0 1.558044,4.8767 h 0.47439 l -1.56373,-4.8767 z m -9.262483,0.0341 -0.468188,0.0791 v 1.30948 c -0.05268,-0.0376 -0.131832,-0.0736 -0.237195,-0.10749 -0.105363,-0.0339 -0.227673,-0.0506 -0.366903,-0.0506 -0.176859,0 -0.33516,0.0335 -0.47439,0.10128 -0.135466,0.0677 -0.252012,0.16226 -0.349849,0.28267 -0.09784,0.12042 -0.173146,0.26527 -0.225826,0.4346 -0.04892,0.16558 -0.07338,0.34974 -0.07338,0.55294 0,0.21072 0.03023,0.40066 0.09043,0.56999 0.06021,0.16933 0.145122,0.31418 0.254248,0.4346 0.109126,0.11662 0.240527,0.2073 0.394808,0.2713 0.154281,0.064 0.325515,0.0956 0.513664,0.0956 0.210726,0 0.39541,-0.0148 0.553454,-0.045 0.158045,-0.0301 0.287524,-0.0603 0.389124,-0.0904 z m -7.625374,0.41755 c -0.03387,0.26716 -0.06602,0.54586 -0.09612,0.83561 -0.02634,0.28975 -0.0508,0.58277 -0.07338,0.88005 -0.01882,0.29727 -0.03559,0.59658 -0.05064,0.89761 -0.01505,0.30104 -0.0285,0.59458 -0.03979,0.88057 h 0.451652 c 0.0038,-0.2032 0.0076,-0.42336 0.01137,-0.66042 0.0076,-0.23707 0.01332,-0.48169 0.01705,-0.73381 0.0076,-0.25588 0.01332,-0.51151 0.01705,-0.76739 0.0076,-0.25964 0.0128,-0.51195 0.01654,-0.75655 l 0.519348,1.59164 h 0.406693 l 0.50798,-1.59164 c 0.0076,0.2446 0.0128,0.49691 0.01654,0.75655 0.0076,0.25964 0.01332,0.51527 0.01705,0.76739 0.0076,0.25212 0.01332,0.49674 0.01705,0.73381 0.0038,0.23706 0.0076,0.45722 0.01137,0.66042 h 0.451652 c -0.02634,-0.62842 -0.05656,-1.23036 -0.09043,-1.80609 -0.0301,-0.57573 -0.08287,-1.13837 -0.15813,-1.68775 h -0.434599 l -0.542085,1.73839 -0.547255,-1.73839 z m 3.787366,0.81287 c -0.169334,0 -0.327635,0.0335 -0.47439,0.10128 -0.142993,0.064 -0.267224,0.15658 -0.372587,0.27699 -0.105364,0.11665 -0.187841,0.25958 -0.248047,0.42891 -0.05645,0.16934 -0.08475,0.35734 -0.08475,0.56431 0,0.20696 0.0283,0.39497 0.08475,0.56431 0.06021,0.16557 0.142684,0.3085 0.248047,0.42891 0.105363,0.12041 0.229594,0.21494 0.372587,0.28267 0.146755,0.064 0.305056,0.0956 0.47439,0.0956 0.173096,0 0.332801,-0.0316 0.479557,-0.0956 0.146755,-0.0677 0.272908,-0.16226 0.378271,-0.28267 0.105361,-0.12041 0.186433,-0.26334 0.242879,-0.42891 0.06021,-0.16934 0.09043,-0.35735 0.09043,-0.56431 0,-0.20697 -0.03023,-0.39497 -0.09043,-0.56431 -0.05644,-0.16933 -0.137516,-0.31226 -0.242879,-0.42891 -0.105363,-0.12038 -0.231516,-0.21299 -0.378271,-0.27699 -0.146756,-0.0677 -0.306461,-0.10128 -0.479557,-0.10128 z m 11.260809,0.006 c -0.146754,0 -0.305054,0.011 -0.474388,0.0336 -0.16557,0.0226 -0.332962,0.0547 -0.502295,0.0961 v 2.54558 h 0.468704 v -2.21278 c 0.07902,-0.0151 0.159578,-0.0261 0.242364,-0.0336 0.08655,-0.0113 0.167618,-0.0171 0.242879,-0.0171 0.09031,0 0.172786,0.011 0.248047,0.0336 0.07902,0.0226 0.14524,0.0643 0.197919,0.12454 0.05644,0.0565 0.0996,0.13701 0.129709,0.24237 0.03011,0.10536 0.04496,0.24304 0.04496,0.41237 v 1.45056 h 0.463021 v -1.53531 c 0,-0.39887 -0.09016,-0.68857 -0.270785,-0.86919 -0.176858,-0.18062 -0.440177,-0.27079 -0.790134,-0.27079 z m 5.136121,0 c -0.199435,0 -0.411909,0.0432 -0.637686,0.12971 v 2.54558 h 0.42323 v -2.24069 c 0.09407,-0.0339 0.178988,-0.0506 0.254246,-0.0506 0.120415,0 0.20097,0.0374 0.242364,0.11265 0.0414,0.0753 0.06201,0.17887 0.06201,0.31058 v 0.85783 h 0.423749 v -0.85215 c 0,-0.10536 -0.01154,-0.20128 -0.03411,-0.28784 0.04139,-0.0489 0.08647,-0.0849 0.135393,-0.10748 0.04892,-0.0226 0.09592,-0.0341 0.141075,-0.0341 0.09031,0 0.165622,0.036 0.225828,0.10749 0.06021,0.0715 0.09043,0.17511 0.09043,0.31057 v 1.87379 h 0.42323 v -1.86242 c 0,-0.13547 -0.01871,-0.25445 -0.05633,-0.35605 -0.03763,-0.1016 -0.08847,-0.186 -0.152445,-0.25373 -0.06021,-0.0677 -0.13167,-0.11858 -0.214458,-0.15245 -0.07902,-0.0339 -0.16342,-0.0506 -0.25373,-0.0506 -0.184388,0 -0.357542,0.0657 -0.519348,0.19741 -0.06773,-0.0677 -0.150728,-0.11663 -0.248563,-0.14677 -0.09408,-0.0339 -0.195765,-0.0506 -0.304895,-0.0506 z m -21.493777,0.0558 v 2.21279 c -0.01129,0.004 -0.03383,0.01 -0.0677,0.0171 -0.03387,0.004 -0.0737,0.01 -0.118856,0.0171 -0.04516,0.004 -0.09408,0.007 -0.146761,0.0109 -0.04892,0.004 -0.09784,0.006 -0.146761,0.006 -0.225778,0 -0.387405,-0.0676 -0.485242,-0.20309 -0.09407,-0.13547 -0.141076,-0.36523 -0.141076,-0.68885 V 268.4081 H 11.32334 v 1.47328 c 0,0.17686 0.01729,0.33849 0.05116,0.48525 0.03387,0.14675 0.09188,0.27483 0.174667,0.38395 0.08279,0.10537 0.190241,0.18837 0.321944,0.24857 0.131704,0.0565 0.297174,0.0842 0.49661,0.0842 0.225778,0 0.421474,-0.0148 0.587045,-0.045 0.169333,-0.0301 0.304576,-0.0584 0.406176,-0.0847 v -2.5461 z m 5.096847,0.35037 c 0.218251,0 0.391407,0.0868 0.519347,0.25993 0.127941,0.16933 0.19172,0.40242 0.19172,0.6997 0,0.29351 -0.06378,0.5266 -0.19172,0.6997 -0.12794,0.16933 -0.301096,0.25425 -0.519347,0.25425 -0.214489,0 -0.385724,-0.0849 -0.513664,-0.25425 -0.124178,-0.1731 -0.186552,-0.40619 -0.186552,-0.6997 0,-0.29728 0.06237,-0.53037 0.186552,-0.6997 0.12794,-0.17309 0.299175,-0.25993 0.513664,-0.25993 z m 2.822049,0 c 0.109126,0 0.21466,0.0226 0.31626,0.0677 0.101601,0.0414 0.17883,0.0865 0.231511,0.1354 v 1.65984 c -0.03763,0.0113 -0.09808,0.0223 -0.180868,0.0336 -0.07902,0.0113 -0.176871,0.017 -0.293522,0.017 -0.229541,0 -0.41563,-0.083 -0.558622,-0.24857 -0.142993,-0.16557 -0.214458,-0.40058 -0.214458,-0.70538 0,-0.13547 0.01293,-0.26162 0.03927,-0.37828 0.02634,-0.12041 0.06809,-0.2221 0.124541,-0.30489 0.05644,-0.0865 0.127908,-0.15415 0.214457,-0.20308 0.09031,-0.0489 0.197249,-0.0734 0.321427,-0.0734 z m -14.6192623,0.3669 c -0.1204145,0 -0.2215888,0.0245 -0.304374,0.0734 -0.079022,0.0489 -0.1452396,0.10937 -0.1979208,0.18087 -0.052682,0.0715 -0.09392,0.14821 -0.1240234,0.23099 -0.030104,0.0828 -0.050723,0.15614 -0.062012,0.22014 l 0.3219442,0.0904 c 0.01129,-0.0414 0.026143,-0.0846 0.044959,-0.12971 0.018815,-0.0489 0.039434,-0.092 0.062012,-0.12971 0.026342,-0.0376 0.058489,-0.0678 0.096118,-0.0904 0.03763,-0.0263 0.082711,-0.0393 0.1353923,-0.0393 0.097837,0 0.1879994,0.0259 0.2707846,0.0786 0.082785,0.0527 0.1696212,0.10547 0.2599325,0.15813 0.079022,0.0489 0.1595771,0.094 0.2423623,0.13539 0.086548,0.0377 0.1805533,0.0568 0.2821533,0.0568 0.1166519,0 0.2164215,-0.0245 0.2992067,-0.0734 0.082785,-0.0489 0.1509236,-0.10938 0.2036051,-0.18087 0.056445,-0.0715 0.097683,-0.14872 0.1240234,-0.23151 0.030104,-0.0828 0.050723,-0.15614 0.062012,-0.22014 l -0.3219442,-0.0904 c -0.01129,0.0414 -0.026144,0.087 -0.044958,0.13591 -0.018815,0.0452 -0.041355,0.0864 -0.067696,0.12403 -0.022577,0.0377 -0.052804,0.0698 -0.090434,0.0961 -0.03763,0.0226 -0.082711,0.0336 -0.1353923,0.0336 -0.094074,0 -0.1842363,-0.0264 -0.2707844,-0.0791 -0.082785,-0.0527 -0.1696215,-0.10495 -0.2599325,-0.15761 -0.079022,-0.0489 -0.1614987,-0.0926 -0.2480469,-0.13023 -0.082785,-0.0414 -0.1753856,-0.062 -0.2769856,-0.062 z m 12.3165603,5.00125 c -0.428977,0.31232 -0.750827,0.68066 -0.965315,1.10587 -0.214489,0.42522 -0.321944,0.8713 -0.321944,1.33791 0,0.47037 0.105533,0.91837 0.316259,1.34358 0.214489,0.42146 0.53826,0.79171 0.971,1.11156 l 0.253732,-0.33848 c -0.188148,-0.16181 -0.351696,-0.32343 -0.490926,-0.48524 -0.135467,-0.16181 -0.24817,-0.3292 -0.338481,-0.50229 -0.08655,-0.1731 -0.152767,-0.35394 -0.197921,-0.54209 -0.04139,-0.18815 -0.06201,-0.38769 -0.06201,-0.59841 0,-0.41769 0.09208,-0.80332 0.276469,-1.15704 0.184385,-0.35372 0.451546,-0.66596 0.801501,-0.93689 h 0.0057 z m 46.944939,0 -0.254249,0.33848 c 0.188148,0.1618 0.349774,0.32343 0.485241,0.48524 0.139232,0.16181 0.25437,0.3292 0.344683,0.50229 0.09031,0.1731 0.156009,0.35394 0.197403,0.54209 0.04515,0.18815 0.0677,0.38769 0.0677,0.59841 0,0.41769 -0.09401,0.80332 -0.282154,1.15704 -0.184386,0.35372 -0.451546,0.66596 -0.8015,0.93689 h -0.0057 l 0.248565,0.33848 c 0.214487,-0.15428 0.400577,-0.325 0.55862,-0.51314 0.161809,-0.18439 0.29513,-0.38009 0.400495,-0.58705 0.109127,-0.21073 0.190198,-0.42896 0.242877,-0.65474 0.05645,-0.22577 0.08475,-0.45554 0.08475,-0.68884 0,-0.47038 -0.107455,-0.91646 -0.321945,-1.33791 -0.210725,-0.42522 -0.532059,-0.7974 -0.964798,-1.11724 z m 6.67711,0 c -0.428977,0.31232 -0.750827,0.68066 -0.965314,1.10587 -0.21449,0.42522 -0.321429,0.8713 -0.321429,1.33791 0,0.47037 0.105018,0.91837 0.315743,1.34358 0.21449,0.42146 0.53826,0.79171 0.971,1.11156 l 0.254248,-0.33848 c -0.188147,-0.16181 -0.352213,-0.32343 -0.491442,-0.48524 -0.135467,-0.16181 -0.248171,-0.3292 -0.338481,-0.50229 -0.08655,-0.1731 -0.15225,-0.35394 -0.197403,-0.54209 -0.04139,-0.18815 -0.06201,-0.38769 -0.06201,-0.59841 0,-0.41769 0.09208,-0.80332 0.276471,-1.15704 0.184386,-0.35372 0.451546,-0.66596 0.8015,-0.93689 h 0.0057 z m -52.329621,0.0109 1.558045,4.87722 h 0.473872 l -1.563212,-4.87722 z m 5.644617,0 1.557528,4.87722 h 0.474389 l -1.563729,-4.87722 z m 53.622048,0 1.558047,4.87722 h 0.473871 l -1.563211,-4.87722 z m -20.551198,0.0341 -0.468707,0.0791 v 1.30948 c -0.05268,-0.0376 -0.131831,-0.0736 -0.237194,-0.10749 -0.105365,-0.0339 -0.227674,-0.0506 -0.366903,-0.0506 -0.17686,0 -0.334645,0.0341 -0.473874,0.1018 -0.135466,0.0677 -0.25201,0.16174 -0.349848,0.28215 -0.09784,0.12042 -0.173146,0.26527 -0.225827,0.4346 -0.04892,0.16557 -0.07338,0.34974 -0.07338,0.55294 0,0.21073 0.02971,0.40117 0.08992,0.57051 0.06021,0.16933 0.145121,0.31418 0.254249,0.4346 0.109122,0.11663 0.241043,0.20678 0.395324,0.27078 0.154279,0.064 0.325517,0.0961 0.513665,0.0961 0.210725,0 0.394893,-0.0154 0.552937,-0.0455 0.158041,-0.0301 0.288041,-0.0603 0.389641,-0.0904 z m -9.561693,0.38344 c -0.06397,0 -0.135432,0.002 -0.214455,0.006 -0.07526,0 -0.154411,0.004 -0.237196,0.0114 -0.07902,0.008 -0.160094,0.0166 -0.24288,0.0279 -0.07902,0.0113 -0.152408,0.0247 -0.220141,0.0398 v 3.44268 h 0.463021 v -1.3038 h 0.406177 c 0.428977,0 0.750827,-0.0978 0.965317,-0.29352 0.214487,-0.19943 0.321942,-0.48145 0.321942,-0.84646 0,-0.16181 -0.02638,-0.30858 -0.07906,-0.44028 -0.04892,-0.1317 -0.126148,-0.2444 -0.23151,-0.33848 -0.1016,-0.0978 -0.231598,-0.17316 -0.389642,-0.22583 -0.154281,-0.0527 -0.334605,-0.0791 -0.54157,-0.0791 z m 0.03359,0.40101 v 5.3e-4 c 0.489185,0 0.733803,0.23309 0.733803,0.6997 0,0.25964 -0.06954,0.44625 -0.208772,0.55914 -0.135467,0.11288 -0.344096,0.16898 -0.626319,0.16898 h -0.383955 v -1.41077 c 0.04516,-0.008 0.112778,-0.0114 0.203089,-0.0114 0.09031,-0.004 0.184316,-0.006 0.282154,-0.006 z m 5.745901,0.44597 c -0.154282,0 -0.30438,0.0283 -0.451134,0.0848 -0.146756,0.0564 -0.278675,0.14083 -0.395324,0.25373 -0.116652,0.11289 -0.210659,0.25633 -0.282154,0.42943 -0.0715,0.17309 -0.107487,0.37596 -0.107487,0.60927 0,0.19567 0.0283,0.37843 0.08475,0.54777 0.05645,0.16556 0.141359,0.3085 0.254249,0.42891 0.11289,0.12042 0.253897,0.21635 0.42323,0.28784 0.173096,0.0677 0.372634,0.10128 0.598414,0.10128 0.184385,0 0.349853,-0.0168 0.496609,-0.0506 0.146754,-0.0339 0.248444,-0.0655 0.30489,-0.0956 l -0.06201,-0.39533 c -0.06021,0.0301 -0.148966,0.0584 -0.265618,0.0847 -0.116652,0.0263 -0.257659,0.0393 -0.42323,0.0393 -0.289748,0 -0.515668,-0.0695 -0.677474,-0.20878 -0.158046,-0.14299 -0.246287,-0.3497 -0.265104,-0.62063 h 1.873787 v -0.16381 c 0,-0.4478 -0.09593,-0.78066 -0.287835,-0.99891 -0.191913,-0.22201 -0.464836,-0.33331 -0.818555,-0.33331 z m -25.484233,0.006 c -0.146754,0 -0.305054,0.0115 -0.474388,0.0341 -0.16557,0.0226 -0.332962,0.0542 -0.502295,0.0956 v 2.54558 h 0.468704 V 275.869 c 0.07902,-0.0151 0.159578,-0.0266 0.242364,-0.0341 0.08655,-0.0113 0.167618,-0.017 0.242879,-0.017 0.09031,0 0.172786,0.0115 0.248047,0.0341 0.07902,0.0226 0.14524,0.0638 0.197919,0.12402 0.05644,0.0564 0.0996,0.13751 0.129709,0.24288 0.03011,0.10536 0.04496,0.24253 0.04496,0.41186 v 1.45056 h 0.463021 v -1.53531 c 0,-0.39887 -0.09016,-0.68858 -0.270785,-0.8692 -0.176861,-0.18062 -0.440177,-0.27078 -0.790136,-0.27078 z m 11.288718,0 c -0.146757,0 -0.305057,0.0115 -0.47439,0.0341 -0.165571,0.0226 -0.332963,0.0542 -0.502296,0.0956 v 2.54558 h 0.468707 V 275.869 c 0.07902,-0.0151 0.160094,-0.0266 0.242879,-0.0341 0.08655,-0.0113 0.167103,-0.017 0.242361,-0.017 0.09031,0 0.173305,0.0115 0.248566,0.0341 0.07902,0.0226 0.144722,0.0638 0.197403,0.12402 0.05644,0.0564 0.0996,0.13751 0.129706,0.24288 0.03011,0.10536 0.04548,0.24253 0.04548,0.41186 v 1.45056 h 0.462505 v -1.53531 c 0,-0.39887 -0.09016,-0.68858 -0.270786,-0.8692 -0.17686,-0.18062 -0.440176,-0.27078 -0.790133,-0.27078 z m 11.678356,0 c -0.391348,0 -0.778896,0.0657 -1.162719,0.1974 v 2.47788 h 0.46302 v -2.17299 c 0.237067,-0.064 0.47016,-0.0961 0.699699,-0.0961 0.109127,0 0.208897,0.006 0.299207,0.0171 0.09408,0.008 0.201012,0.0281 0.321426,0.062 l 0.08475,-0.41186 c -0.131702,-0.0301 -0.252093,-0.0488 -0.36122,-0.0563 -0.109125,-0.0113 -0.22375,-0.017 -0.344165,-0.017 z m 10.899592,0 c -0.146753,0 -0.305054,0.0115 -0.474387,0.0341 -0.165571,0.0226 -0.332962,0.0542 -0.502295,0.0956 v 2.54558 h 0.468704 V 275.869 c 0.07902,-0.0151 0.159578,-0.0266 0.242363,-0.0341 0.08655,-0.0113 0.167619,-0.017 0.24288,-0.017 0.09031,0 0.172786,0.0115 0.248047,0.0341 0.07902,0.0226 0.14524,0.0638 0.197919,0.12402 0.05644,0.0564 0.0996,0.13751 0.129709,0.24288 0.03011,0.10536 0.04496,0.24253 0.04496,0.41186 v 1.45056 h 0.463021 v -1.53531 c 0,-0.39887 -0.09016,-0.68858 -0.270783,-0.8692 -0.176858,-0.18062 -0.440179,-0.27078 -0.790133,-0.27078 z m 11.288718,0 c -0.146756,0 -0.305056,0.0115 -0.47439,0.0341 -0.165573,0.0226 -0.332962,0.0542 -0.502295,0.0956 v 2.54558 h 0.468706 V 275.869 c 0.07902,-0.0151 0.160095,-0.0266 0.24288,-0.0341 0.08655,-0.0113 0.167103,-0.017 0.242361,-0.017 0.09031,0 0.173305,0.0115 0.248563,0.0341 0.07902,0.0226 0.144724,0.0638 0.197403,0.12402 0.05644,0.0564 0.0996,0.13751 0.129709,0.24288 0.03011,0.10536 0.04548,0.24253 0.04548,0.41186 v 1.45056 h 0.462505 v -1.53531 c 0,-0.39887 -0.09016,-0.68858 -0.270785,-0.8692 -0.176861,-0.18062 -0.440177,-0.27078 -0.790133,-0.27078 z m 8.466667,0 c -0.146759,0 -0.305057,0.0115 -0.47439,0.0341 -0.165571,0.0226 -0.332962,0.0542 -0.502298,0.0956 v 2.54558 H 82.36448 V 275.869 c 0.07902,-0.0151 0.160094,-0.0266 0.24288,-0.0341 0.08655,-0.0113 0.167103,-0.017 0.242361,-0.017 0.09031,0 0.173302,0.0115 0.248565,0.0341 0.07902,0.0226 0.144722,0.0638 0.197403,0.12402 0.05644,0.0564 0.0996,0.13751 0.129707,0.24288 0.0301,0.10536 0.04548,0.24253 0.04548,0.41186 v 1.45056 h 0.462505 v -1.53531 c 0,-0.39887 -0.09016,-0.68858 -0.270785,-0.8692 -0.176861,-0.18062 -0.440177,-0.27078 -0.790133,-0.27078 z m -60.440756,0.0563 0.942579,1.24179 c -0.173096,0.21448 -0.350095,0.44233 -0.530717,0.68316 -0.17686,0.23707 -0.326958,0.46824 -0.451136,0.69401 h 0.479558 c 0.04139,-0.0715 0.09224,-0.15204 0.152445,-0.24236 0.06021,-0.0903 0.123986,-0.18239 0.19172,-0.27647 0.0715,-0.0978 0.144882,-0.19428 0.220141,-0.28835 0.07526,-0.0941 0.146724,-0.18423 0.214458,-0.27078 0.06773,0.0828 0.135871,0.17154 0.203605,0.26561 0.07149,0.0941 0.139115,0.19 0.203088,0.28784 0.06397,0.0941 0.121986,0.18615 0.174666,0.27647 0.05644,0.0903 0.103444,0.17279 0.141077,0.24804 h 0.519348 c -0.120415,-0.2333 -0.267187,-0.47023 -0.440283,-0.71106 -0.169333,-0.24083 -0.338646,-0.47201 -0.507979,-0.69402 l 0.863513,-1.21388 h -0.496611 l -0.649056,0.91468 -0.705383,-0.91468 z m 11.288719,0 0.942578,1.24179 c -0.173099,0.21448 -0.349578,0.44233 -0.530202,0.68316 -0.17686,0.23707 -0.327474,0.46824 -0.451651,0.69401 h 0.479557 c 0.04139,-0.0715 0.09224,-0.15204 0.152445,-0.24236 0.06021,-0.0903 0.124502,-0.18239 0.192236,-0.27647 0.0715,-0.0978 0.144883,-0.19428 0.220141,-0.28835 0.07526,-0.0941 0.146725,-0.18423 0.214458,-0.27078 0.06773,0.0828 0.135356,0.17154 0.203089,0.26561 0.07149,0.0941 0.139115,0.19 0.203089,0.28784 0.06397,0.0941 0.122502,0.18615 0.175183,0.27647 0.05644,0.0903 0.103442,0.17279 0.141076,0.24804 h 0.519348 c -0.120415,-0.2333 -0.267187,-0.47023 -0.440283,-0.71106 -0.169333,-0.24083 -0.338645,-0.47201 -0.507979,-0.69402 l 0.863513,-1.21388 h -0.49661 l -0.649571,0.91468 -0.705384,-0.91468 z m 11.469584,0 v 1.4733 c 0,0.17686 0.0173,0.339 0.05116,0.48576 0.03387,0.14676 0.09188,0.27432 0.174667,0.38343 0.08279,0.10538 0.190241,0.18837 0.321945,0.24857 0.131704,0.0565 0.297172,0.0847 0.49661,0.0847 0.225777,0 0.421473,-0.0153 0.587044,-0.0455 0.169333,-0.0301 0.304578,-0.0584 0.406178,-0.0847 v -2.54714 h -0.468191 v 2.21227 c -0.0113,0.004 -0.03383,0.01 -0.0677,0.0171 -0.03387,0.004 -0.0737,0.01 -0.118856,0.0171 -0.04516,0.004 -0.09408,0.007 -0.146762,0.0114 -0.04892,0.004 -0.09784,0.006 -0.146761,0.006 -0.225777,0 -0.387406,-0.0676 -0.485241,-0.20309 -0.09407,-0.13547 -0.141076,-0.36472 -0.141076,-0.68833 v -1.37201 z m 39.330413,0 0.942581,1.24179 c -0.173099,0.21448 -0.349581,0.44233 -0.530204,0.68316 -0.176858,0.23707 -0.327472,0.46824 -0.451649,0.69401 h 0.479557 c 0.04139,-0.0715 0.09224,-0.15204 0.152445,-0.24236 0.06021,-0.0903 0.1245,-0.18239 0.192236,-0.27647 0.07149,-0.0978 0.144883,-0.19428 0.220141,-0.28835 0.07526,-0.0941 0.146725,-0.18423 0.214458,-0.27078 0.06773,0.0828 0.135353,0.17154 0.203089,0.26561 0.07149,0.0941 0.139115,0.19 0.203089,0.28784 0.06397,0.0941 0.122502,0.18615 0.175183,0.27647 0.05645,0.0903 0.103447,0.17279 0.141076,0.24804 h 0.519348 c -0.120415,-0.2333 -0.267187,-0.47023 -0.440283,-0.71106 -0.169333,-0.24083 -0.338645,-0.47201 -0.507981,-0.69402 l 0.863515,-1.21388 h -0.49661 l -0.649571,0.91468 -0.705384,-0.91468 z m -29.790946,0.33332 c 0.19191,0 0.345853,0.0657 0.462505,0.1974 0.116652,0.12794 0.175183,0.30302 0.175183,0.52503 h -1.388546 c 0.0113,-0.0903 0.03575,-0.17907 0.07338,-0.26562 0.03763,-0.0865 0.08848,-0.16325 0.152445,-0.23099 0.06397,-0.0677 0.139277,-0.12241 0.225825,-0.16381 0.09031,-0.0414 0.190082,-0.062 0.299207,-0.062 z m 2.771407,0.0171 c 0.109128,0 0.214144,0.0226 0.315744,0.0677 0.101602,0.0414 0.178832,0.0865 0.23151,0.1354 v 1.65933 c -0.03763,0.0113 -0.09757,0.0228 -0.180351,0.0341 -0.07902,0.0113 -0.176868,0.0165 -0.29352,0.0165 -0.229542,0 -0.416148,-0.0825 -0.559142,-0.24805 -0.142991,-0.16557 -0.214455,-0.40109 -0.214455,-0.70589 0,-0.13547 0.01344,-0.26111 0.03979,-0.37776 0.02633,-0.12041 0.06758,-0.22211 0.124023,-0.30489 0.05644,-0.0865 0.127908,-0.15416 0.214458,-0.20309 0.09031,-0.0489 0.197766,-0.0734 0.321943,-0.0734 z m -15.917373,5.41259 -0.468706,0.0791 v 1.30948 c -0.05268,-0.0376 -0.131832,-0.0731 -0.237194,-0.10696 -0.105362,-0.0339 -0.227674,-0.0506 -0.366903,-0.0506 -0.176858,0 -0.334642,0.0335 -0.473874,0.10129 -0.135467,0.0677 -0.252013,0.16174 -0.349848,0.28215 -0.09784,0.12041 -0.173146,0.26527 -0.225827,0.4346 -0.04892,0.16557 -0.07338,0.35025 -0.07338,0.55345 0,0.21073 0.02971,0.40066 0.08992,0.57 0.06021,0.16933 0.145121,0.31418 0.254249,0.43459 0.109124,0.11669 0.241043,0.20686 0.395324,0.27079 0.154281,0.064 0.325514,0.0961 0.513665,0.0961 0.210725,0 0.394893,-0.0148 0.552937,-0.045 0.158043,-0.0301 0.288041,-0.0603 0.389641,-0.0904 z m -9.561692,0.38344 c -0.06397,0 -0.135435,0.002 -0.214455,0.006 -0.07526,0 -0.154411,0.004 -0.237197,0.0114 -0.07902,0.008 -0.160094,0.0166 -0.242879,0.0279 -0.07902,0.0113 -0.152408,0.0247 -0.220141,0.0398 v 3.4432 h 0.46302 v -1.30379 h 0.406178 c 0.428977,0 0.750827,-0.0978 0.965317,-0.29353 0.214487,-0.19944 0.321942,-0.48197 0.321942,-0.84697 0,-0.16181 -0.02638,-0.30859 -0.07906,-0.44029 -0.04892,-0.1317 -0.126148,-0.2444 -0.231511,-0.33848 -0.1016,-0.0978 -0.231597,-0.17316 -0.389641,-0.22582 -0.154281,-0.0527 -0.334608,-0.0791 -0.54157,-0.0791 z m 16.109095,0.0346 v 0.39481 h 0.677479 v 2.70371 H 48.13091 v 0.39532 h 1.81746 v -0.39532 h -0.677478 v -2.70371 h 0.677478 v -0.39481 z m 5.531446,0 v 0.39481 h 1.597318 c -0.135466,0.19191 -0.276473,0.40105 -0.42323,0.62683 -0.146756,0.22578 -0.293526,0.45888 -0.440282,0.6997 -0.146757,0.24084 -0.291608,0.48738 -0.4346,0.73949 -0.139229,0.24836 -0.267303,0.49106 -0.383955,0.72812 v 0.30489 h 2.263426 v -0.39532 h -1.732709 c 0.109125,-0.20697 0.235278,-0.43429 0.37827,-0.68265 0.146756,-0.25212 0.29737,-0.5025 0.451651,-0.75085 0.154284,-0.24836 0.30438,-0.4853 0.451136,-0.71107 0.150519,-0.22954 0.286279,-0.42716 0.406694,-0.59273 v -0.36122 z m -21.606949,0.3669 c 0.489185,0 0.733803,0.23361 0.733803,0.70022 0,0.25964 -0.06954,0.44573 -0.208772,0.55862 -0.135467,0.11289 -0.344096,0.1695 -0.626319,0.1695 h -0.383956 v -1.41128 c 0.04516,-0.008 0.112779,-0.0114 0.203089,-0.0114 0.09031,-0.004 0.184317,-0.006 0.282155,-0.006 z m 5.7459,0.44546 c -0.154281,0 -0.304379,0.0283 -0.451133,0.0847 -0.146756,0.0564 -0.278675,0.14137 -0.395324,0.25425 -0.116653,0.1129 -0.210659,0.25582 -0.282155,0.42892 -0.0715,0.1731 -0.107487,0.37648 -0.107487,0.60978 0,0.19567 0.0283,0.37792 0.08475,0.54725 0.05645,0.16558 0.141359,0.3085 0.254249,0.42892 0.112887,0.12041 0.253897,0.21634 0.42323,0.28783 0.173096,0.0677 0.372636,0.10181 0.598413,0.10181 0.184386,0 0.349854,-0.0168 0.49661,-0.0506 0.146754,-0.0339 0.248444,-0.066 0.30489,-0.0961 l -0.06201,-0.39533 c -0.06021,0.0301 -0.148966,0.0584 -0.265618,0.0847 -0.116652,0.0263 -0.25766,0.0398 -0.42323,0.0398 -0.289748,0 -0.515671,-0.0701 -0.677477,-0.20929 -0.158046,-0.14299 -0.246287,-0.3497 -0.265102,-0.62063 H 38.9077 v -0.16382 c 0,-0.44779 -0.09593,-0.78065 -0.287837,-0.9989 -0.19191,-0.22201 -0.464836,-0.33331 -0.818555,-0.33331 z m 14.134023,0 c -0.365008,0 -0.634089,0.072 -0.807188,0.21497 -0.169333,0.13923 -0.254246,0.31379 -0.254246,0.52451 0,0.15052 0.03791,0.27283 0.11317,0.36691 0.07902,0.094 0.174951,0.17319 0.287838,0.23719 0.116652,0.064 0.242805,0.11868 0.378272,0.16382 0.135467,0.0414 0.259699,0.0846 0.372586,0.12971 0.116652,0.0451 0.21258,0.0979 0.287838,0.15812 0.07888,0.0601 0.118192,0.13768 0.11834,0.23151 -2.65e-4,0.21414 -0.212831,0.32143 -0.637688,0.32143 -0.165568,0 -0.321948,-0.0187 -0.468704,-0.0563 -0.142994,-0.0414 -0.28016,-0.0923 -0.411861,-0.15245 l -0.09043,0.42323 c 0.135467,0.0602 0.278397,0.10526 0.428913,0.13539 0.150519,0.0301 0.315989,0.0455 0.496613,0.0455 0.398872,0 0.690496,-0.0643 0.874881,-0.19224 0.184386,-0.13171 0.276985,-0.31587 0.276985,-0.55294 0,-0.14675 -0.03983,-0.26714 -0.118856,-0.36121 -0.07526,-0.0978 -0.171186,-0.18084 -0.287838,-0.24857 -0.116652,-0.0677 -0.242803,-0.12385 -0.378269,-0.16898 -0.135467,-0.0489 -0.26162,-0.096 -0.378273,-0.14108 -0.116652,-0.0452 -0.213984,-0.0941 -0.293004,-0.14676 -0.07526,-0.0564 -0.113173,-0.12458 -0.113173,-0.2036 0,-0.22202 0.203382,-0.3328 0.609782,-0.3328 0.0715,0 0.144883,0.004 0.220142,0.0114 0.07902,0.008 0.152407,0.0185 0.220141,0.0336 0.06773,0.0113 0.127672,0.0267 0.18035,0.0455 0.05269,0.015 0.09392,0.0299 0.124024,0.045 l 0.08475,-0.41754 c -0.109127,-0.0339 -0.240527,-0.0603 -0.394808,-0.0791 -0.150519,-0.0226 -0.297292,-0.0341 -0.440283,-0.0341 z m 5.621878,0 c -0.154282,0 -0.304896,0.0283 -0.451652,0.0847 -0.146754,0.0564 -0.278672,0.14137 -0.395325,0.25425 -0.116652,0.1129 -0.210656,0.25582 -0.282154,0.42892 -0.07149,0.1731 -0.106968,0.37648 -0.106968,0.60978 0,0.19567 0.0283,0.37792 0.08475,0.54725 0.05644,0.16558 0.140843,0.3085 0.253731,0.42892 0.112889,0.12041 0.253896,0.21634 0.42323,0.28783 0.173095,0.0677 0.372636,0.10181 0.598413,0.10181 0.184386,0 0.349856,-0.0168 0.496612,-0.0506 0.146752,-0.0339 0.248444,-0.066 0.30489,-0.0961 l -0.06201,-0.39533 c -0.06021,0.0301 -0.148447,0.0584 -0.265099,0.0847 -0.116652,0.0263 -0.258175,0.0398 -0.423746,0.0398 -0.289748,0 -0.515155,-0.0701 -0.676963,-0.20929 -0.158044,-0.14299 -0.246804,-0.3497 -0.265616,-0.62063 h 1.874304 v -0.16382 c 0,-0.44779 -0.09593,-0.78065 -0.287838,-0.9989 -0.19191,-0.22201 -0.464836,-0.33331 -0.818555,-0.33331 z m 5.587772,0 c -0.169333,0 -0.327118,0.0341 -0.473871,0.1018 -0.142994,0.064 -0.267224,0.15605 -0.372589,0.27647 -0.105363,0.11665 -0.188357,0.25958 -0.248563,0.42891 -0.05645,0.16933 -0.08475,0.35786 -0.08475,0.56482 0,0.20696 0.0283,0.39498 0.08475,0.56431 0.06021,0.16558 0.1432,0.3085 0.248563,0.42892 0.105365,0.12041 0.229595,0.21442 0.372589,0.28215 0.146753,0.064 0.304538,0.0961 0.473871,0.0961 0.173096,0 0.33332,-0.0321 0.480076,-0.0961 0.146754,-0.0677 0.272391,-0.16174 0.377754,-0.28215 0.105359,-0.12042 0.186433,-0.26334 0.242879,-0.42892 0.06021,-0.16933 0.09043,-0.35735 0.09043,-0.56431 0,-0.20696 -0.03023,-0.39549 -0.09043,-0.56482 -0.05644,-0.16933 -0.137517,-0.31226 -0.242879,-0.42891 -0.105363,-0.12038 -0.231,-0.21247 -0.377754,-0.27647 -0.146756,-0.0677 -0.30698,-0.1018 -0.480076,-0.1018 z m -27.860831,0.006 c -0.391348,0 -0.778897,0.0662 -1.16272,0.19793 v 2.47788 h 0.463021 v -2.17351 c 0.237067,-0.064 0.470159,-0.0956 0.699699,-0.0956 0.109127,0 0.208896,0.005 0.299206,0.0165 0.09408,0.008 0.201012,0.0287 0.321427,0.0625 l 0.08475,-0.41239 c -0.131705,-0.0301 -0.252093,-0.0488 -0.36122,-0.0563 -0.109125,-0.0113 -0.22375,-0.017 -0.344165,-0.017 z m 25.4,0 c -0.391348,0 -0.778897,0.0662 -1.16272,0.19793 v 2.47788 h 0.463021 v -2.17351 c 0.237067,-0.064 0.470157,-0.0956 0.699699,-0.0956 0.109124,0 0.208896,0.005 0.299206,0.0165 0.09408,0.008 0.201012,0.0287 0.321427,0.0625 l 0.08475,-0.41239 c -0.131705,-0.0301 -0.252093,-0.0488 -0.36122,-0.0563 -0.109125,-0.0113 -0.22375,-0.017 -0.344165,-0.017 z m 8.077028,0 c -0.146757,0 -0.304541,0.0115 -0.473874,0.0341 -0.165571,0.0226 -0.332963,0.0547 -0.502296,0.0961 v 2.54558 h 0.468188 v -2.21278 c 0.07902,-0.0151 0.160092,-0.0266 0.24288,-0.0341 0.08655,-0.0113 0.167621,-0.0165 0.242879,-0.0165 0.09031,0 0.172789,0.011 0.248047,0.0336 0.07902,0.0226 0.144725,0.0638 0.197406,0.12403 0.05644,0.0564 0.100116,0.13752 0.130223,0.24288 0.03011,0.10536 0.04496,0.24252 0.04496,0.41186 v 1.45107 h 0.463018 v -1.53531 c 0,-0.39887 -0.09068,-0.68857 -0.271301,-0.86919 -0.176858,-0.18063 -0.440174,-0.27131 -0.79013,-0.27131 z m 7.958685,0 c -0.199435,0 -0.411909,0.0437 -0.637688,0.13023 v 2.54558 h 0.423233 v -2.24069 c 0.09407,-0.0339 0.178988,-0.0512 0.254246,-0.0512 0.120414,0 0.200969,0.0379 0.242363,0.11317 0.04139,0.0753 0.06201,0.17835 0.06201,0.31006 v 0.85835 h 0.423749 v -0.85265 c 0,-0.10536 -0.01154,-0.20129 -0.03411,-0.28784 0.04139,-0.0489 0.08647,-0.0844 0.135392,-0.10698 0.04892,-0.0226 0.09592,-0.0341 0.141076,-0.0341 0.09031,0 0.165621,0.036 0.225827,0.10749 0.0602,0.0715 0.09043,0.17459 0.09043,0.31006 v 1.8743 h 0.423228 v -1.86292 c 0,-0.13547 -0.01871,-0.25395 -0.05633,-0.35555 -0.03763,-0.1016 -0.08847,-0.186 -0.152445,-0.25373 -0.06021,-0.0677 -0.131673,-0.11857 -0.214455,-0.15244 -0.07902,-0.0339 -0.163423,-0.0512 -0.253733,-0.0512 -0.184386,0 -0.35754,0.0662 -0.519348,0.19794 -0.06773,-0.0677 -0.150725,-0.11663 -0.248563,-0.14678 -0.09408,-0.0339 -0.195765,-0.0512 -0.304893,-0.0512 z m 6.152597,0 c -0.146759,0 -0.305057,0.0115 -0.47439,0.0341 -0.165571,0.0226 -0.332962,0.0547 -0.502298,0.0961 v 2.54558 h 0.468709 v -2.21278 c 0.07902,-0.0151 0.160094,-0.0266 0.24288,-0.0341 0.08655,-0.0113 0.167103,-0.0165 0.242361,-0.0165 0.09031,0 0.173302,0.011 0.248565,0.0336 0.07902,0.0226 0.144722,0.0638 0.197403,0.12403 0.05644,0.0564 0.0996,0.13752 0.129707,0.24288 0.0301,0.10536 0.04548,0.24252 0.04548,0.41186 v 1.45107 h 0.462505 v -1.53531 c 0,-0.39887 -0.09016,-0.68857 -0.270785,-0.86919 -0.176861,-0.18063 -0.440177,-0.27131 -0.790133,-0.27131 z m -53.046373,0.0563 v 2.21279 c -0.0113,0.004 -0.03383,0.01 -0.0677,0.0171 -0.03387,0.004 -0.0737,0.009 -0.118856,0.0165 -0.04516,0.004 -0.09408,0.007 -0.146762,0.0114 -0.04892,0.004 -0.09784,0.006 -0.146762,0.006 -0.225776,0 -0.387402,-0.0681 -0.48524,-0.20361 -0.09408,-0.13547 -0.141079,-0.36472 -0.141076,-0.68833 v -1.37149 h -0.463021 v 1.47329 c -2e-6,0.17686 0.01728,0.33849 0.05116,0.48525 0.03387,0.14675 0.09188,0.27482 0.17467,0.38395 0.08278,0.10537 0.190238,0.18785 0.321945,0.24805 0.131699,0.0565 0.297172,0.0847 0.496607,0.0847 0.225777,0 0.421476,-0.0148 0.587047,-0.045 0.169333,-0.0301 0.304575,-0.0584 0.406175,-0.0847 v -2.5461 z m 16.933333,0 v 2.21279 c -0.0113,0.004 -0.03383,0.01 -0.0677,0.0171 -0.03387,0.004 -0.0737,0.009 -0.118856,0.0165 -0.04516,0.004 -0.09408,0.007 -0.146762,0.0114 -0.04892,0.004 -0.09784,0.006 -0.146761,0.006 -0.225777,0 -0.387406,-0.0681 -0.485241,-0.20361 -0.09407,-0.13547 -0.141076,-0.36472 -0.141076,-0.68833 v -1.37149 h -0.46302 v 1.47329 c 0,0.17686 0.0173,0.33849 0.05116,0.48525 0.03387,0.14675 0.09188,0.27482 0.174668,0.38395 0.08279,0.10537 0.19024,0.18785 0.321945,0.24805 0.131704,0.0565 0.297172,0.0847 0.496609,0.0847 0.225777,0 0.421474,-0.0148 0.587047,-0.045 0.169331,-0.0301 0.304575,-0.0584 0.406175,-0.0847 v -2.5461 z m 23.650234,5.3e-4 0.942578,1.24179 c -0.173096,0.21449 -0.350094,0.44182 -0.530715,0.68264 -0.17686,0.23707 -0.327475,0.46875 -0.451654,0.69453 h 0.480076 c 0.04139,-0.0715 0.09224,-0.15257 0.152445,-0.24288 0.06021,-0.0903 0.123986,-0.1824 0.191719,-0.27648 0.07149,-0.0978 0.144881,-0.19376 0.220142,-0.28783 0.07526,-0.0941 0.146724,-0.18424 0.214458,-0.27079 0.06773,0.0828 0.135353,0.17104 0.203086,0.26511 0.0715,0.0941 0.139123,0.19 0.203089,0.28784 0.06397,0.0941 0.122505,0.18615 0.175183,0.27646 0.05645,0.0903 0.10345,0.1733 0.141076,0.24857 h 0.519351 c -0.120415,-0.2333 -0.26719,-0.47024 -0.440286,-0.71106 -0.169333,-0.24084 -0.338645,-0.47252 -0.507978,-0.69454 l 0.863512,-1.21336 h -0.496609 l -0.649058,0.91415 -0.705897,-0.91415 z m 14.110766,0 0.942581,1.24179 c -0.173099,0.21449 -0.349581,0.44182 -0.530204,0.68264 -0.176858,0.23707 -0.327472,0.46875 -0.451649,0.69453 h 0.479557 c 0.04139,-0.0715 0.09224,-0.15257 0.152445,-0.24288 0.06021,-0.0903 0.1245,-0.1824 0.192236,-0.27648 0.07149,-0.0978 0.144883,-0.19376 0.220141,-0.28783 0.07526,-0.0941 0.146725,-0.18424 0.214458,-0.27079 0.06773,0.0828 0.135353,0.17104 0.203089,0.26511 0.07149,0.0941 0.139115,0.19 0.203089,0.28784 0.06397,0.0941 0.122502,0.18615 0.175183,0.27646 0.05645,0.0903 0.103447,0.1733 0.141076,0.24857 h 0.519348 c -0.120415,-0.2333 -0.267187,-0.47024 -0.440283,-0.71106 -0.169333,-0.24084 -0.338645,-0.47252 -0.507981,-0.69454 l 0.863515,-1.21336 h -0.49661 l -0.649571,0.91415 -0.705384,-0.91415 z m -46.724279,0.3328 c 0.191913,0 0.345853,0.0657 0.462505,0.19739 0.116652,0.12795 0.175183,0.30303 0.175183,0.52505 h -1.388546 c 0.0113,-0.0903 0.03575,-0.17856 0.07338,-0.26511 0.03763,-0.0865 0.08847,-0.16378 0.152445,-0.23151 0.06397,-0.0677 0.139277,-0.12241 0.225825,-0.16382 0.09031,-0.0414 0.190082,-0.062 0.299206,-0.062 z m 19.755384,0 c 0.191911,0 0.345853,0.0657 0.462503,0.19739 0.116652,0.12795 0.175183,0.30303 0.175183,0.52505 h -1.388544 c 0.0113,-0.0903 0.03575,-0.17856 0.07338,-0.26511 0.03763,-0.0865 0.08848,-0.16378 0.152445,-0.23151 0.06397,-0.0677 0.139279,-0.12241 0.225827,-0.16382 0.09031,-0.0414 0.190082,-0.062 0.299206,-0.062 z m -16.983977,0.017 c 0.109128,0 0.214143,0.0226 0.315743,0.0677 0.101603,0.0414 0.178832,0.0865 0.231511,0.1354 v 1.65933 c -0.03763,0.0113 -0.09756,0.0228 -0.180351,0.0341 -0.07902,0.0113 -0.176871,0.017 -0.293521,0.017 -0.229542,0 -0.416147,-0.083 -0.559141,-0.24856 -0.142991,-0.16557 -0.214455,-0.40058 -0.214455,-0.70538 0,-0.13547 0.01344,-0.26162 0.03979,-0.37827 0.02633,-0.12042 0.06758,-0.22211 0.124023,-0.3049 0.05644,-0.0865 0.12791,-0.15415 0.214458,-0.20309 0.09031,-0.0489 0.197768,-0.0734 0.321945,-0.0734 z m 22.577433,0 c 0.218252,0 0.391409,0.0863 0.519348,0.25941 0.127942,0.16934 0.19172,0.40295 0.19172,0.70022 0,0.29351 -0.06378,0.5266 -0.19172,0.6997 -0.127939,0.16933 -0.301096,0.25425 -0.519348,0.25425 -0.214487,0 -0.385723,-0.0849 -0.513662,-0.25425 -0.12418,-0.1731 -0.186036,-0.40619 -0.186036,-0.6997 0,-0.29727 0.06186,-0.53088 0.186036,-0.70022 0.127939,-0.1731 0.299175,-0.25941 0.513662,-0.25941 z m -20.263361,0.3669 c -0.120414,0 -0.222107,0.0245 -0.304892,0.0734 -0.07902,0.0489 -0.144725,0.10886 -0.197403,0.18035 -0.05268,0.0715 -0.09444,0.14873 -0.124542,0.23151 -0.0301,0.0828 -0.05072,0.15615 -0.06201,0.22014 l 0.321945,0.0904 c 0.0113,-0.0414 0.02614,-0.0846 0.04496,-0.12971 0.01881,-0.0489 0.03943,-0.0926 0.06201,-0.13022 0.02635,-0.0376 0.05849,-0.0673 0.09612,-0.0899 0.03763,-0.0263 0.08271,-0.0398 0.135393,-0.0398 0.09784,0 0.188,0.0264 0.270785,0.0791 0.08279,0.0527 0.169622,0.10546 0.259932,0.15813 0.07902,0.0489 0.160094,0.094 0.24288,0.13539 0.08655,0.0377 0.180554,0.0563 0.282154,0.0563 0.116652,0 0.216421,-0.0245 0.299207,-0.0734 0.08279,-0.0489 0.150407,-0.10885 0.203088,-0.18035 0.05644,-0.0715 0.09768,-0.14873 0.124024,-0.23151 0.0301,-0.0828 0.05072,-0.15614 0.06201,-0.22014 l -0.321426,-0.0904 c -0.0113,0.0414 -0.02666,0.0865 -0.04548,0.13539 -0.01881,0.0452 -0.04135,0.0864 -0.0677,0.12402 -0.02257,0.0377 -0.05281,0.0698 -0.09043,0.0961 -0.03763,0.0226 -0.08271,0.0341 -0.135393,0.0341 -0.09407,0 -0.184237,-0.0264 -0.270785,-0.0791 -0.08279,-0.0527 -0.169106,-0.10546 -0.259416,-0.15813 -0.07902,-0.0489 -0.162015,-0.0921 -0.248563,-0.12971 -0.08278,-0.0414 -0.174868,-0.062 -0.276468,-0.062 z m -25.405685,5.00073 -0.254248,0.339 c 0.188148,0.16181 0.350291,0.32343 0.485758,0.48524 0.139229,0.16181 0.253854,0.3292 0.344165,0.50229 0.09031,0.1731 0.156011,0.35394 0.197404,0.54209 0.04515,0.18815 0.0677,0.38768 0.0677,0.59841 0,0.41769 -0.09401,0.80332 -0.282153,1.15704 -0.184385,0.35372 -0.451546,0.66596 -0.801502,0.93689 h -0.0057 l 0.248564,0.33848 c 0.214488,-0.15428 0.400577,-0.32551 0.558622,-0.51366 0.161807,-0.18439 0.295646,-0.38009 0.401009,-0.58705 0.109127,-0.21072 0.189682,-0.42896 0.242363,-0.65474 0.05645,-0.22577 0.08475,-0.45502 0.08475,-0.68833 0,-0.47036 -0.106939,-0.91645 -0.321427,-1.3379 -0.210727,-0.42521 -0.532576,-0.79791 -0.965316,-1.11776 z m 6.677111,0 c -0.428977,0.31233 -0.750309,0.68118 -0.964799,1.10639 -0.214488,0.42522 -0.321944,0.8713 -0.321944,1.3379 0,0.47038 0.105534,0.91786 0.31626,1.34307 0.214489,0.42146 0.537743,0.79223 0.970483,1.11208 l 0.254248,-0.33848 c -0.188148,-0.16181 -0.351696,-0.32395 -0.490926,-0.48576 -0.135466,-0.1618 -0.248686,-0.32919 -0.338997,-0.50229 -0.08655,-0.17309 -0.152251,-0.35342 -0.197404,-0.54157 -0.04139,-0.18815 -0.06201,-0.38769 -0.06201,-0.59842 0,-0.41768 0.09208,-0.80331 0.276469,-1.15703 0.184386,-0.35372 0.451546,-0.66596 0.801502,-0.93689 h 0.0057 z m 21.54494,0 -0.253733,0.339 c 0.188148,0.16181 0.349776,0.32343 0.485243,0.48524 0.139229,0.16181 0.253855,0.3292 0.344165,0.50229 0.09031,0.1731 0.156527,0.35394 0.197919,0.54209 0.04515,0.18815 0.0677,0.38768 0.0677,0.59841 0,0.41769 -0.094,0.80332 -0.282152,1.15704 -0.184385,0.35372 -0.451546,0.66596 -0.801502,0.93689 h -0.0057 l 0.248047,0.33848 c 0.214487,-0.15428 0.401092,-0.32551 0.559139,-0.51366 0.161806,-0.18439 0.295129,-0.38009 0.400492,-0.58705 0.109127,-0.21072 0.190198,-0.42896 0.242879,-0.65474 0.05645,-0.22577 0.08475,-0.45502 0.08475,-0.68833 0,-0.47036 -0.107455,-0.91645 -0.321945,-1.3379 -0.210725,-0.42521 -0.532575,-0.79791 -0.965314,-1.11776 z m -6.937045,0.0455 -0.468188,0.0791 v 1.30948 c -0.05268,-0.0376 -0.131834,-0.0736 -0.237196,-0.10749 -0.105362,-0.0339 -0.227674,-0.0506 -0.366903,-0.0506 -0.176858,0 -0.335158,0.0335 -0.47439,0.10129 -0.135467,0.0677 -0.252013,0.16225 -0.349848,0.28267 -0.09784,0.12042 -0.173146,0.26526 -0.225827,0.4346 -0.04892,0.16556 -0.07338,0.34973 -0.07338,0.55293 0,0.21073 0.03023,0.40066 0.09043,0.56999 0.06021,0.16934 0.145121,0.31419 0.254246,0.4346 0.109127,0.11663 0.240527,0.20731 0.394808,0.2713 0.154281,0.064 0.325517,0.0956 0.513665,0.0956 0.210725,0 0.395409,-0.0148 0.553453,-0.045 0.158046,-0.0301 0.287525,-0.0603 0.389125,-0.0904 z m -9.561689,0.38343 c -0.06397,0 -0.135438,0.002 -0.214458,0.006 -0.07526,0 -0.154411,0.004 -0.237197,0.0114 -0.07902,0.008 -0.159575,0.0171 -0.242361,0.0284 -0.07902,0.0113 -0.152408,0.0242 -0.220141,0.0393 v 3.4432 h 0.462502 v -1.30379 h 0.406694 c 0.42898,0 0.750827,-0.0978 0.965316,-0.29352 0.21449,-0.19944 0.321427,-0.48146 0.321427,-0.84646 0,-0.16181 -0.02638,-0.30858 -0.07906,-0.44029 -0.04892,-0.1317 -0.125632,-0.24492 -0.230995,-0.33899 -0.1016,-0.0979 -0.2316,-0.17316 -0.389641,-0.22583 -0.154281,-0.0527 -0.335121,-0.0791 -0.542084,-0.0791 z m 0.03411,0.40101 v 5.3e-4 c 0.489185,0 0.733806,0.23309 0.733806,0.6997 0,0.25965 -0.06954,0.44574 -0.208772,0.55862 -0.135467,0.1129 -0.344615,0.1695 -0.626835,0.1695 h -0.383958 v -1.41128 c 0.04516,-0.008 0.113294,-0.0109 0.203607,-0.0109 0.09031,-0.004 0.184314,-0.006 0.282152,-0.006 z m 5.745903,0.44597 c -0.154281,0 -0.304895,0.0283 -0.451652,0.0847 -0.146756,0.0564 -0.278156,0.14084 -0.394808,0.25373 -0.116652,0.11289 -0.210656,0.25582 -0.282155,0.42892 -0.0715,0.17309 -0.107487,0.37647 -0.107487,0.60978 0,0.19567 0.0283,0.37792 0.08475,0.54725 0.05644,0.16557 0.140841,0.30901 0.25373,0.42943 0.11289,0.12042 0.254413,0.21635 0.423746,0.28784 0.173096,0.0677 0.372118,0.10128 0.597898,0.10128 0.184385,0 0.350374,-0.0168 0.497125,-0.0506 0.146754,-0.0339 0.247928,-0.0661 0.304374,-0.0961 l -0.06201,-0.39481 c -0.06021,0.0301 -0.148447,0.0584 -0.265099,0.0847 -0.11665,0.0263 -0.257662,0.0393 -0.423228,0.0393 -0.28975,0 -0.515673,-0.0696 -0.677481,-0.20877 -0.158044,-0.143 -0.246288,-0.35022 -0.265099,-0.62115 h 1.873789 v -0.1633 c 0,-0.4478 -0.09593,-0.78117 -0.28784,-0.99942 -0.19191,-0.22202 -0.464836,-0.3328 -0.818555,-0.3328 z m -2.517158,0.006 c -0.391348,0 -0.778899,0.0657 -1.16272,0.1974 v 2.47789 h 0.462502 v -2.17299 c 0.237067,-0.0639 0.470676,-0.0961 0.700218,-0.0961 0.109124,0 0.208377,0.006 0.298688,0.0171 0.09407,0.008 0.20153,0.0281 0.321945,0.062 l 0.08475,-0.41186 c -0.131704,-0.0301 -0.252092,-0.0493 -0.361217,-0.0568 -0.109125,-0.0113 -0.22375,-0.0165 -0.344164,-0.0165 z m 10.391095,0 c -0.199438,0 -0.411909,0.0432 -0.637686,0.12971 v 2.54558 h 0.42323 v -2.24069 c 0.09407,-0.0339 0.178988,-0.0506 0.254246,-0.0506 0.120415,0 0.20097,0.0374 0.242364,0.11265 0.04139,0.0753 0.06201,0.17888 0.06201,0.31058 v 0.85782 h 0.423749 v -0.85214 c 0,-0.10537 -0.01154,-0.20129 -0.03411,-0.28784 0.04139,-0.0489 0.08647,-0.0849 0.13539,-0.10748 0.04892,-0.0226 0.09592,-0.0341 0.141078,-0.0341 0.09031,0 0.165619,0.036 0.225825,0.10749 0.06021,0.0715 0.09043,0.17511 0.09043,0.31057 v 1.87379 h 0.423227 v -1.86242 c 3e-6,-0.13547 -0.01871,-0.25445 -0.05633,-0.35605 -0.03763,-0.1016 -0.08847,-0.186 -0.152445,-0.25373 -0.06021,-0.0677 -0.13167,-0.11858 -0.214453,-0.15245 -0.07902,-0.0339 -0.16342,-0.0506 -0.253735,-0.0506 -0.184383,0 -0.357537,0.0657 -0.519348,0.1974 -0.06773,-0.0677 -0.150728,-0.11662 -0.248563,-0.14676 -0.09407,-0.0339 -0.195765,-0.0506 -0.30489,-0.0506 z m -15.849677,0.0558 v 2.21278 c -0.0113,0.004 -0.03383,0.01 -0.0677,0.017 -0.03387,0.004 -0.07319,0.01 -0.11834,0.0171 -0.04516,0.004 -0.09408,0.007 -0.146762,0.0109 -0.04892,0.004 -0.09784,0.006 -0.146759,0.006 -0.225778,0 -0.387404,-0.0676 -0.485242,-0.20309 -0.09407,-0.13547 -0.141076,-0.36523 -0.141076,-0.68885 v -1.37149 h -0.463021 v 1.47329 c 0,0.17686 0.01678,0.33849 0.05064,0.48524 0.03387,0.14676 0.0924,0.27483 0.175183,0.38396 0.08279,0.10536 0.189723,0.18836 0.321427,0.24856 0.131704,0.0565 0.297691,0.0842 0.497126,0.0842 0.225779,0 0.421476,-0.0148 0.587047,-0.045 0.169333,-0.0301 0.304575,-0.0584 0.406175,-0.0847 v -2.5461 z m 7.970054,0.3333 c 0.191913,0 0.346369,0.0662 0.463021,0.19792 0.116652,0.12794 0.174667,0.30302 0.174667,0.52504 H 34.22272 c 0.0113,-0.0903 0.03576,-0.17907 0.07338,-0.26562 0.03763,-0.0865 0.08848,-0.16378 0.152445,-0.23151 0.06397,-0.0677 0.139277,-0.1219 0.225825,-0.1633 0.09031,-0.0414 0.190082,-0.0625 0.299207,-0.0625 z m 2.771407,0.0171 c 0.109128,0 0.214662,0.0226 0.316262,0.0677 0.1016,0.0414 0.178829,0.0865 0.231511,0.13539 v 1.65986 c -0.03763,0.0113 -0.09808,0.0223 -0.18087,0.0336 -0.07902,0.0113 -0.176868,0.0171 -0.29352,0.0171 -0.229542,0 -0.415632,-0.083 -0.558623,-0.24856 -0.142994,-0.16558 -0.214458,-0.40059 -0.214458,-0.70539 0,-0.13546 0.01294,-0.26162 0.03928,-0.37827 0.02633,-0.12041 0.06809,-0.2221 0.124539,-0.30489 0.05645,-0.0865 0.127908,-0.15416 0.214458,-0.20309 0.09031,-0.0489 0.19725,-0.0734 0.321427,-0.0734 z m -31.5577626,5.36815 -0.2542482,0.33847 c 0.1881481,0.16181 0.3497752,0.32344 0.4852416,0.48525 0.1392298,0.1618 0.2543707,0.32919 0.3446817,0.50229 0.090311,0.1731 0.1560113,0.35394 0.1974043,0.54209 0.045155,0.18814 0.067696,0.38769 0.067696,0.59841 0,0.41768 -0.094005,0.80332 -0.2821532,1.15704 -0.1843855,0.3537 -0.4515464,0.66596 -0.8015015,0.93689 h -0.00568 l 0.2485638,0.339 c 0.2144887,-0.15429 0.4005776,-0.32552 0.5586222,-0.51367 0.1618073,-0.18438 0.2951295,-0.38008 0.4004924,-0.58704 0.1091261,-0.21072 0.1901979,-0.42896 0.2428791,-0.65474 0.056445,-0.22578 0.08475,-0.45556 0.08475,-0.68885 0,-0.47038 -0.1074553,-0.91645 -0.3219442,-1.3379 -0.2107259,-0.42521 -0.5320583,-0.79739 -0.9647989,-1.11724 z"
         style="font-style:normal;font-variant:normal;font-weight:normal;font-stretch:normal;font-size:5.64444447px;line-height:1.25;font-family:'Ubuntu Mono';-inkscape-font-specification:'Ubuntu Mono';letter-spacing:0px;word-spacing:0px;fill:#ffffff;fill-opacity:1;stroke:none;stroke-width:0.26458332" />
    </clipPath>
  </defs>
  <sodipodi:namedview
     id="base"
     pagecolor="#303d4f"
     bordercolor="#666666"
     borderopacity="1.0"
     inkscape:pageopacity="0"
     inkscape:pageshadow="2"
     inkscape:zoom="2.058808"
     inkscape:cx="213.05534"
     inkscape:cy="123.83029"
     inkscape:document-units="mm"
     inkscape:current-layer="layer1"
     showgrid="true"
     units="px"
     inkscape:window-width="1542"
     inkscape:window-height="1377"
     inkscape:window-x="1016"
     inkscape:window-y="0"
     inkscape:window-maximized="0">
    <inkscape:grid
       type="xygrid"
       id="grid4518"
       color="#ffffff"
       opacity="0.03137255"
       empcolor="#ffffff"
       empopacity="0.01568627"
       enabled="true"
       empspacing="1"
       spacingx="0.13229167"
       spacingy="0.13229167" />
  </sodipodi:namedview>
  <metadata
     id="metadata5">
    <rdf:RDF>
      <cc:Work
         rdf:about="">
        <dc:format>image/svg+xml</dc:format>
        <dc:type
           rdf:resource="http://purl.org/dc/dcmitype/StillImage" />
        <dc:title />
      </cc:Work>
    </rdf:RDF>
  </metadata>
  <g
     inkscape:label="Layer 1"
     inkscape:groupmode="layer"
     id="layer1"
     transform="translate(0,-244.08334)"
     style="display:inline">
    <rect
       mask="none"
       clip-path="none"
       style="display:none;opacity:1;fill:url(#linearGradient841);fill-opacity:1;stroke:none;stroke-width:0.26458332;stroke-opacity:1"
       id="rect4525"
       width="91.28125"
       height="52.916664"
       x="0"
       y="244.08334" />
    <rect
       style="display:none;opacity:0.597;fill:#42a5f5;fill-opacity:0.13502108;stroke:none;stroke-width:0.26458332;stroke-opacity:1"
       id="rect4520"
       width="91.28125"
       height="52.916664"
       x="4.4408921e-16"
       y="244.08334" />
    <rect
       y="244.08334"
       x="0"
       height="52.916664"
       width="91.28125"
       id="rect6985"
       style="display:inline;opacity:1;fill:url(#linearGradient5863);fill-opacity:1;stroke:none;stroke-width:0.26458332;stroke-opacity:1"
       clip-path="url(#clipPath1620)"
       mask="none" />
  </g>
</svg>
