<?xml version="1.0" encoding="UTF-8"?>
<!-- Created with Inkscape (http://www.inkscape.org/) -->
<svg width="345" height="200" version="1.1" viewBox="0 0 91.281 52.917" xmlns="http://www.w3.org/2000/svg" xmlns:cc="http://creativecommons.org/ns#" xmlns:dc="http://purl.org/dc/elements/1.1/" xmlns:rdf="http://www.w3.org/1999/02/22-rdf-syntax-ns#" xmlns:xlink="http://www.w3.org/1999/xlink">
 <defs>
  <linearGradient id="linearGradient841" x1="92.604" x2="-5.2917" y1="238.79" y2="314.2" gradientTransform="translate(0 -3.5059e-6)" gradientUnits="userSpaceOnUse">
   <stop stop-color="#cde8ff" offset="0"/>
   <stop stop-color="#fff" stop-opacity="0" offset="1"/>
  </linearGradient>
  <linearGradient id="linearGradient5863" x1="64.823" x2="42.333" y1="233.5" y2="300.97" gradientTransform="translate(0 -3.5059e-6)" gradientUnits="userSpaceOnUse">
   <stop stop-color="#fff" stop-opacity=".89873" offset="0"/>
   <stop stop-color="#fff" stop-opacity="0" offset="1"/>
  </linearGradient>
  <clipPath id="clipPath1620">
   <path d="m24.153 210.62c-0.42898 0.31233-0.75031 0.68066-0.9648 1.1059-0.21449 0.42522-0.32194 0.8713-0.32194 1.3379 0 0.47037 0.10553 0.91837 0.31626 1.3436 0.21449 0.42146 0.53774 0.79172 0.97048 1.1116l0.25425-0.33848c-0.18815-0.16181-0.3517-0.32343-0.49093-0.48524-0.13547-0.16181-0.24869-0.3292-0.339-0.50229-0.08655-0.1731-0.15225-0.35394-0.1974-0.54209-0.04139-0.18815-0.06201-0.38768-0.06201-0.59841 0-0.41769 0.09208-0.80332 0.27647-1.157 0.18439-0.35372 0.45155-0.66596 0.8015-0.93689h0.0057zm-15.64 0.0109 1.5575 4.8772h0.47439l-1.5637-4.8772zm16.933 0 1.5575 4.8772h0.47439l-1.5637-4.8772zm5.6441 0 1.558 4.8772h0.47439l-1.5637-4.8772zm-16.002 0.41754c-0.06397 0-0.13544 2e-3 -0.21446 6e-3 -0.07526 0-0.15441 4e-3 -0.2372 0.0114-0.07902 8e-3 -0.16009 0.0166-0.24288 0.0279-0.07902 0.0113-0.15241 0.0247-0.22014 0.0398v3.4427h0.46302v-1.3038h0.40618c0.42898 0 0.75083-0.0978 0.96532-0.29352 0.21449-0.19943 0.32194-0.48145 0.32194-0.84646 0-0.16181-0.02638-0.30858-0.07906-0.44028-0.04892-0.1317-0.12615-0.2444-0.23151-0.33848-0.1016-0.0978-0.2316-0.17316-0.38964-0.22583-0.15428-0.0527-0.33461-0.0791-0.54157-0.0791zm0.03359 0.40101v5.3e-4c0.48918 0 0.7338 0.23309 0.7338 0.6997 0 0.25964-0.06954 0.44625-0.20877 0.55914-0.13547 0.11288-0.3441 0.16898-0.62632 0.16898h-0.38396v-1.4108c0.04516-8e-3 0.11278-0.0114 0.20309-0.0114 0.09031-4e-3 0.18432-6e-3 0.28215-6e-3zm2.8675 0.44597c-0.16933 0-0.32764 0.0341-0.47439 0.1018-0.14299 0.064-0.26722 0.15606-0.37259 0.27647-0.10536 0.11665-0.18784 0.25958-0.24805 0.42891-0.05645 0.16934-0.08475 0.35735-0.08475 0.56431 0 0.20697 0.0283 0.39549 0.08475 0.56482 0.06021 0.16557 0.14268 0.30851 0.24805 0.42892 0.10536 0.12042 0.22959 0.21442 0.37259 0.28215 0.14676 0.064 0.30506 0.0961 0.47439 0.0961 0.1731 0 0.3328-0.0321 0.47956-0.0961 0.14676-0.0677 0.27291-0.16173 0.37827-0.28215 0.10536-0.12041 0.18643-0.26335 0.24288-0.42892 0.06021-0.16933 0.09043-0.35785 0.09043-0.56482 0-0.20696-0.03023-0.39497-0.09043-0.56431-0.05644-0.16933-0.13752-0.31226-0.24288-0.42891-0.10536-0.12039-0.23152-0.21247-0.37827-0.27647-0.14676-0.0677-0.30646-0.1018-0.47956-0.1018zm10.753 6e-3c-0.19944 0-0.41243 0.0432-0.6382 0.12971v2.5456h0.42375v-2.2407c0.09407-0.0339 0.17847-0.0506 0.25373-0.0506 0.12041 0 0.20148 0.0374 0.24288 0.11266 0.04139 0.0753 0.06201 0.17888 0.06201 0.31057v0.85783h0.42323v-0.85213c0-0.10537-0.01101-0.20129-0.03359-0.28784 0.04139-0.0489 0.08647-0.0849 0.13539-0.10749 0.04892-0.0226 0.09592-0.0336 0.14108-0.0336 0.09031 0 0.16562 0.0355 0.22583 0.10698 0.06021 0.0715 0.08992 0.1751 0.08992 0.31058v1.8738h0.42375v-1.8624c0-0.13547-0.01921-0.25394-0.05684-0.35554s-0.08847-0.18651-0.15244-0.25426c-0.06021-0.0677-0.13167-0.11857-0.21446-0.15243-0.07902-0.0339-0.16342-0.0506-0.25373-0.0506-0.18439 0-0.35754 0.0657-0.51935 0.1974-0.06773-0.0677-0.15073-0.11663-0.24857-0.14677-0.09407-0.0339-0.19525-0.0506-0.30437-0.0506zm6.1521 0c-0.14676 0-0.30454 0.0115-0.47387 0.0341-0.16557 0.0226-0.33296 0.0542-0.5023 0.0956v2.5456h0.46819v-2.2126c0.07902-0.0151 0.1601-0.0266 0.24288-0.0341 0.08655-0.0113 0.16762-0.017 0.24288-0.017 0.09031 0 0.17279 0.0115 0.24805 0.0341 0.07902 0.0226 0.14472 0.0638 0.1974 0.12401 0.05644 0.0565 0.10012 0.13752 0.13022 0.24288 0.03011 0.10537 0.04496 0.24253 0.04496 0.41186v1.4506h0.46302v-1.5353c0-0.39887-0.09068-0.68858-0.2713-0.86921-0.17686-0.18062-0.44018-0.27078-0.79013-0.27078zm-23.571 0.0563v1.4733c0 0.17685 0.01729 0.339 0.05116 0.48576 0.03387 0.14675 0.09188 0.27432 0.17467 0.38343 0.08279 0.10537 0.19024 0.18836 0.32194 0.24856 0.1317 0.0565 0.29717 0.0848 0.49661 0.0848 0.22578 0 0.42147-0.0154 0.58704-0.0455 0.16933-0.0301 0.30458-0.0584 0.40618-0.0848v-2.5456h-0.46819v2.2123c-0.01129 4e-3 -0.03383 0.01-0.0677 0.0171-0.03387 4e-3 -0.0737 0.01-0.11886 0.0171-0.04516 4e-3 -0.09408 7e-3 -0.14676 0.0114-0.04892 4e-3 -0.09784 6e-3 -0.14676 6e-3 -0.22578 0-0.3874-0.0676-0.48524-0.20309-0.09407-0.13547-0.14108-0.36472-0.14108-0.68833v-1.372zm8.1902 0c0.03387 0.3763 0.08471 0.79214 0.15245 1.2475 0.0715 0.45156 0.15974 0.90865 0.2651 1.3715h0.34985c0.05644-0.12794 0.10537-0.24449 0.14676-0.34984 0.04516-0.10538 0.08691-0.21039 0.12454-0.31576 0.04139-0.10536 0.08263-0.21473 0.12402-0.32762 0.04139-0.11665 0.0884-0.24857 0.14108-0.39532 0.05268 0.14675 0.09777 0.27867 0.13539 0.39532 0.0414 0.11289 0.08123 0.22226 0.11886 0.32762 0.04139 0.10537 0.08263 0.21038 0.12402 0.31576 0.04139 0.10535 0.09032 0.2219 0.14676 0.34984h0.34985c0.04892-0.21448 0.09592-0.43605 0.14108-0.6656 0.04516-0.23329 0.08691-0.46306 0.12454-0.68883 0.03763-0.22579 0.06926-0.44595 0.0956-0.66044 0.02634-0.21448 0.04888-0.41594 0.0677-0.60409h-0.42323c-0.01129 0.15427-0.02422 0.30489-0.03927 0.45166-0.01505 0.14675-0.03235 0.29929-0.05116 0.45732-0.01881 0.15429-0.04136 0.31976-0.0677 0.49661-0.02634 0.17687-0.05657 0.36873-0.09043 0.57568-0.05645-0.14675-0.10345-0.27674-0.14108-0.38963l-0.10697-0.32144c-0.03387-0.1016-0.06601-0.20521-0.09612-0.31057s-0.06366-0.22383-0.10128-0.35554h-0.35037c-0.03763 0.13171-0.0731 0.25018-0.10697 0.35554-0.03011 0.10536-0.06225 0.20897-0.09612 0.31057-0.03386 0.1016-0.07126 0.20855-0.11265 0.32144-0.04139 0.11289-0.09224 0.2448-0.15245 0.39532-0.03011-0.22577-0.05841-0.42916-0.08475-0.60978-0.02258-0.18062-0.0432-0.34802-0.06201-0.50229-0.01882-0.15429-0.03611-0.30106-0.05116-0.4403-0.01129-0.14298-0.0223-0.28784-0.03359-0.43459zm-1.5239 0.35036c0.21825 0 0.39141 0.0863 0.51935 0.25942 0.12794 0.16933 0.19172 0.40242 0.19172 0.6997 0 0.29351-0.06378 0.52713-0.19172 0.70022-0.12794 0.16932-0.3011 0.25373-0.51935 0.25373-0.21449 0-0.38572-0.0844-0.51366-0.25373-0.12418-0.17309-0.18655-0.40671-0.18655-0.70022 0-0.29728 0.06237-0.53037 0.18655-0.6997 0.12794-0.17309 0.29918-0.25942 0.51366-0.25942zm-11.797 0.3664c-0.12041 0-0.22159 0.0244-0.30437 0.0734-0.079022 0.0489-0.14524 0.10937-0.19792 0.18086-0.052682 0.0715-0.09392 0.14873-0.12402 0.2315-0.030104 0.0828-0.050723 0.15616-0.062012 0.22016l0.32194 0.0904c0.01129-0.0414 0.026143-0.0851 0.044959-0.13022 0.018815-0.0489 0.039434-0.0921 0.062012-0.12972 0.026342-0.0376 0.058489-0.0673 0.096118-0.0899 0.03763-0.0263 0.082711-0.0398 0.13539-0.0398 0.097837 0 0.188 0.0264 0.27078 0.0791 0.082785 0.0527 0.16962 0.10547 0.25993 0.15813 0.079022 0.0489 0.15958 0.094 0.24236 0.13539 0.086548 0.0376 0.18055 0.0563 0.28215 0.0563 0.11665 0 0.21642-0.0244 0.29921-0.0734 0.082785-0.0489 0.15092-0.10885 0.20361-0.18034 0.056445-0.0715 0.097683-0.14872 0.12402-0.23151 0.030104-0.0828 0.050723-0.15621 0.062012-0.22015l-0.32194-0.0904c-0.01129 0.0414-0.026144 0.0865-0.044958 0.13539-0.018815 0.0452-0.041355 0.0864-0.067696 0.12402-0.022577 0.0377-0.052804 0.0698-0.090434 0.0961-0.03763 0.0226-0.082711 0.0341-0.13539 0.0341-0.094074 0-0.18424-0.0264-0.27078-0.0791-0.082785-0.0527-0.16962-0.10546-0.25993-0.15813-0.079022-0.0489-0.1615-0.092-0.24805-0.12971-0.082785-0.0414-0.17539-0.0625-0.27699-0.0625zm10.787 5.0126 1.5575 4.8767h0.47439l-1.5637-4.8767zm5.6441 0 1.558 4.8767h0.47439l-1.5637-4.8767zm-1.2924 0.0336c-0.13547 0-0.26546 0.0173-0.38964 0.0512-0.12041 0.0339-0.22735 0.0919-0.32143 0.17467-0.09031 0.0828-0.1637 0.19216-0.22014 0.32762-0.05645 0.13171-0.08475 0.2991-0.08475 0.5023v0.23719h-0.55294v0.38913h0.55294v2.2298h0.46302v-2.2298h1.0552v-0.38952h-1.0552v-0.23151c0-0.12794 0.01485-0.23347 0.04496-0.31626 0.03011-0.0865 0.07134-0.15415 0.12402-0.20309 0.05268-0.0527 0.11313-0.0887 0.18087-0.10748 0.0715-0.0226 0.1468-0.0336 0.22583-0.0336 0.12794 0 0.25409 0.0148 0.37827 0.045 0.12418 0.0301 0.22727 0.0661 0.31006 0.10748l0.08475-0.40101c-0.12041-0.0414-0.24989-0.0768-0.38912-0.10697-0.13547-0.0301-0.27123-0.0455-0.40669-0.0455zm22.578 0c-0.13547 0-0.26546 0.0173-0.38964 0.0512-0.12042 0.0339-0.22735 0.0919-0.32143 0.17467-0.09031 0.0828-0.1637 0.19216-0.22014 0.32762-0.05645 0.13171-0.08475 0.2991-0.08475 0.5023v0.23719h-0.55345v0.38913h0.55345v2.2298h0.4625v-2.2298h1.0558v-0.38913h-1.0558v-0.23151c0-0.12794 0.01537-0.23347 0.04548-0.31626 0.0301-0.0865 0.07134-0.15415 0.12402-0.20309 0.05268-0.0527 0.11313-0.0887 0.18087-0.10748 0.0715-0.0226 0.14629-0.0336 0.22531-0.0336 0.12794 0 0.2541 0.0148 0.37827 0.045 0.12418 0.0301 0.22779 0.0661 0.31058 0.10748l0.08475-0.40101c-0.12041-0.0414-0.25041-0.0768-0.38964-0.10697-0.13547-0.0301-0.27071-0.0455-0.40618-0.0455zm-11.836 1.2361c-0.14676 0-0.30506 0.0115-0.47439 0.0341-0.16557 0.0225-0.33296 0.0547-0.5023 0.0961v2.5456h0.46871v-2.2128c0.07902-0.0151 0.16009-0.0266 0.24288-0.0341 0.08655-0.0113 0.1671-0.0165 0.24236-0.0165 0.09031 0 0.1733 0.011 0.24856 0.0336 0.07902 0.0226 0.14472 0.0643 0.1974 0.12454 0.05644 0.0564 0.0996 0.137 0.12971 0.24236 0.03011 0.10537 0.04548 0.24304 0.04548 0.41238v1.4506h0.4625v-1.5353c0-0.39888-0.09016-0.68857-0.27078-0.8692-0.17686-0.18062-0.44018-0.2713-0.79013-0.2713zm5.1366 0c-0.19944 0-0.41243 0.0437-0.6382 0.13022v2.5456h0.42375v-2.2407c0.09407-0.0339 0.17847-0.0512 0.25373-0.0512 0.12042 0 0.20149 0.0379 0.24288 0.11317 0.0414 0.0753 0.06201 0.17835 0.06201 0.31006v0.85834h0.42323v-0.85266c0-0.10536-0.01101-0.20128-0.03359-0.28784 0.04139-0.0489 0.08647-0.0844 0.1354-0.10697 0.04892-0.0226 0.09592-0.0341 0.14108-0.0341 0.09031 0 0.16562 0.036 0.22583 0.10748 0.06021 0.0715 0.08992 0.17459 0.08992 0.31006v1.8743h0.42375v-1.8629c0-0.13547-0.01921-0.25393-0.05684-0.35553s-0.08847-0.186-0.15244-0.25374c-0.06021-0.0677-0.13167-0.11857-0.21446-0.15244-0.07902-0.0339-0.16342-0.0512-0.25373-0.0512-0.18438 0-0.35754 0.0662-0.51935 0.19792-0.06773-0.0677-0.15073-0.11663-0.24856-0.14676-0.09407-0.0339-0.19525-0.0512-0.30437-0.0512zm-11.955 0.0568 0.94258 1.2418c-0.1731 0.21449-0.34958 0.44182-0.5302 0.68264-0.17686 0.23707-0.32747 0.46876-0.45165 0.69454h0.47956c0.04139-0.0715 0.09224-0.15258 0.15244-0.24288 0.06021-0.0903 0.1245-0.1824 0.19224-0.27647 0.0715-0.0978 0.14488-0.19377 0.22014-0.28784 0.07526-0.0941 0.14672-0.18424 0.21446-0.27079 0.06773 0.0828 0.13536 0.17103 0.20309 0.2651 0.07149 0.0941 0.13912 0.19001 0.20309 0.28784 0.06397 0.0941 0.1225 0.18616 0.17518 0.27647 0.05644 0.0903 0.10344 0.17331 0.14108 0.24857h0.51935c-0.12041-0.23331-0.26719-0.47025-0.44028-0.71107-0.16933-0.24084-0.33865-0.47252-0.50798-0.69453l0.86351-1.2134h-0.49661l-0.64957 0.91416-0.70538-0.91416zm22.578 0 0.94258 1.2418c-0.1731 0.21449-0.35009 0.44182-0.53072 0.68264-0.17686 0.23707-0.32696 0.46876-0.45114 0.69454h0.47956c0.04139-0.0715 0.09224-0.15258 0.15244-0.24288 0.06021-0.0903 0.12399-0.1824 0.19172-0.27647 0.0715-0.0978 0.14488-0.19377 0.22014-0.28784 0.07526-0.0941 0.14672-0.18424 0.21446-0.27079 0.06773 0.0828 0.13587 0.17103 0.2036 0.2651 0.07149 0.0941 0.13912 0.19001 0.20309 0.28784 0.06397 0.0941 0.12199 0.18616 0.17467 0.27647 0.05644 0.0903 0.10344 0.17331 0.14108 0.24857h0.51935c-0.12041-0.23331-0.26719-0.47025-0.44028-0.71107-0.16933-0.24084-0.33865-0.47252-0.50798-0.69453l0.86351-1.2134h-0.49661l-0.64906 0.91416-0.70538-0.91416zm-41.644 5.7175-0.25425 0.339c0.18815 0.16181 0.34978 0.32344 0.48524 0.48524 0.13923 0.16181 0.25437 0.3292 0.34468 0.5023s0.15601 0.35394 0.1974 0.54208c0.045155 0.18815 0.067696 0.38769 0.067696 0.59842 0 0.41768-0.094005 0.80331-0.28215 1.157-0.18439 0.35372-0.45155 0.66596-0.8015 0.9369h-0.00568l0.24856 0.33848c0.21449-0.15429 0.40058-0.32552 0.55862-0.51367 0.16181-0.18438 0.29513-0.38008 0.40049-0.58704 0.10913-0.21073 0.1902-0.42896 0.24288-0.65474 0.056445-0.22578 0.08475-0.45503 0.08475-0.68833 0-0.47037-0.10746-0.91645-0.32194-1.3379-0.21073-0.42522-0.53206-0.79791-0.9648-1.1178zm26.432 14.111c-0.42898 0.31232-0.75031 0.68118-0.9648 1.1064-0.21449 0.42521-0.32194 0.87078-0.32194 1.3374 0 0.47037 0.10553 0.91837 0.31626 1.3436 0.21449 0.42146 0.53774 0.79223 0.97048 1.1121l0.25425-0.339c-0.18815-0.1618-0.3517-0.32343-0.49093-0.48524-0.13547-0.16181-0.24869-0.32919-0.339-0.50229-0.08655-0.1731-0.15225-0.35394-0.1974-0.54209-0.04139-0.18815-0.06201-0.38717-0.06201-0.5979 0-0.41768 0.09208-0.80383 0.27647-1.1576 0.18438-0.35371 0.45155-0.66596 0.8015-0.93689h0.0057zm-24.107 0.0114 1.5575 4.8767h0.47439l-1.5637-4.8767zm25.4 0 1.5575 4.8767h0.47439l-1.5637-4.8767zm-19.648 0.45165v0.39481h0.67748v2.7037h-0.67748v0.39532h1.8175v-0.39533h-0.67748v-2.7037h0.67748v-0.39481zm5.5314 0v0.39481h1.5973c-0.13547 0.19191-0.27647 0.40105-0.42323 0.62683-0.14676 0.22577-0.29353 0.45887-0.44028 0.6997-0.14676 0.24083-0.29161 0.48737-0.4346 0.73949-0.13923 0.24835-0.2673 0.49105-0.38396 0.72812v0.30489h2.2634v-0.39532h-1.7327c0.10913-0.20696 0.23528-0.4343 0.37827-0.68265 0.14676-0.25212 0.29737-0.5025 0.45165-0.75086 0.15428-0.24835 0.30438-0.48528 0.45114-0.71106 0.15052-0.22954 0.28628-0.42717 0.40669-0.59273v-0.36122zm-1.727 0.81235c-0.36501 0-0.63409 0.072-0.80719 0.21498-0.16933 0.13923-0.25425 0.31378-0.25425 0.52451 0 0.15051 0.03791 0.27283 0.11317 0.3669 0.07902 0.0941 0.17495 0.17327 0.28784 0.2372 0.11665 0.064 0.2428 0.11868 0.37827 0.16381 0.13547 0.0414 0.2597 0.0846 0.37259 0.12971 0.11665 0.0452 0.21258 0.0979 0.28784 0.15813 0.07902 0.0602 0.11834 0.13744 0.11834 0.23151 0 0.21449-0.21247 0.32143-0.63769 0.32143-0.16557 0-0.32195-0.0187-0.46871-0.0563-0.14299-0.0414-0.28016-0.0922-0.41186-0.15244l-0.09043 0.42323c0.13547 0.0602 0.2784 0.10525 0.42891 0.13539 0.15052 0.0301 0.31599 0.0455 0.49661 0.0455 0.39887 0 0.6905-0.0643 0.87488-0.19223 0.18438-0.1317 0.27699-0.31587 0.27699-0.55294 0-0.14676-0.03983-0.26715-0.11886-0.36122-0.07526-0.0978-0.17119-0.18083-0.28784-0.24856-0.11665-0.0678-0.2428-0.12385-0.37827-0.16898-0.13547-0.0489-0.26162-0.096-0.37827-0.14108-0.11665-0.0452-0.21398-0.0941-0.29301-0.14676-0.07526-0.0564-0.11317-0.12459-0.11317-0.20361 0-0.22202 0.20338-0.33279 0.60978-0.33279 0.0715 0 0.14488 4e-3 0.22014 0.0114 0.07902 8e-3 0.15241 0.0185 0.22014 0.0336 0.06774 0.0113 0.12767 0.0267 0.18035 0.0455 0.05268 0.015 0.09392 0.0299 0.12402 0.045l0.08475-0.41755c-0.10913-0.0339-0.24053-0.0603-0.39481-0.0791-0.15052-0.0226-0.29729-0.0341-0.44028-0.0341zm5.6219 0c-0.15428 0-0.3049 0.0283-0.45165 0.0847-0.14676 0.0565-0.27867 0.14136-0.39532 0.25425s-0.21066 0.25581-0.28215 0.42891c-0.0715 0.1731-0.10697 0.37596-0.10697 0.60927 0 0.19567 0.0283 0.37844 0.08475 0.54777 0.05645 0.16557 0.14084 0.30849 0.25373 0.42891s0.2539 0.21635 0.42323 0.28784c0.1731 0.0677 0.37264 0.1018 0.59841 0.1018 0.18438 0 0.34986-0.0173 0.49661-0.0512 0.14675-0.0338 0.24844-0.0655 0.30489-0.0956l-0.06201-0.39532c-0.06021 0.0301-0.14845 0.0584-0.2651 0.0848-0.11665 0.0263-0.25818 0.0398-0.42375 0.0398-0.28975 0-0.51515-0.0701-0.67696-0.20929-0.15804-0.14299-0.2468-0.3497-0.26562-0.62064h1.8743v-0.16381c0-0.44779-0.09593-0.78066-0.28784-0.99891-0.19191-0.22202-0.46484-0.33331-0.81856-0.33331zm5.5878 0c-0.16933 0-0.32712 0.0341-0.47387 0.1018-0.14299 0.064-0.26722 0.15606-0.37259 0.27647-0.10536 0.11666-0.18836 0.25958-0.24856 0.42892-0.05645 0.16933-0.08475 0.35786-0.08475 0.56482 0 0.20697 0.0283 0.39497 0.08475 0.56431 0.06021 0.16556 0.1432 0.30849 0.24856 0.42891 0.10536 0.12042 0.2296 0.21442 0.37259 0.28216 0.14675 0.064 0.30454 0.0961 0.47387 0.0961 0.1731 0 0.33332-0.0321 0.48008-0.0961 0.14675-0.0677 0.27239-0.16174 0.37775-0.28216 0.10536-0.12042 0.18643-0.26335 0.24288-0.42891 0.06021-0.16934 0.09043-0.35734 0.09043-0.56431 0-0.20696-0.03023-0.39549-0.09043-0.56482-0.05644-0.16934-0.13752-0.31226-0.24288-0.42892-0.10536-0.12038-0.231-0.21247-0.37775-0.27647-0.14676-0.0677-0.30698-0.1018-0.48008-0.1018zm-2.4608 6e-3c-0.39135 0-0.7789 0.0662-1.1627 0.19792v2.4779h0.46302v-2.173c0.23707-0.064 0.47016-0.0961 0.6997-0.0961 0.10913 0 0.2089 5e-3 0.29921 0.0165 0.09408 8e-3 0.20101 0.0287 0.32143 0.0625l0.08475-0.41237c-0.1317-0.0301-0.25209-0.0488-0.36122-0.0563-0.10912-0.0113-0.22375-0.0171-0.34416-0.0171zm10.9 0c-0.14675 0-0.30505 0.0115-0.47439 0.0341-0.16557 0.0226-0.33296 0.0547-0.5023 0.0961v2.5456h0.4687v-2.2128c0.07902-0.0151 0.15958-0.0266 0.24236-0.0341 0.08655-0.0113 0.16762-0.0165 0.24288-0.0165 0.09031 0 0.17279 0.011 0.24805 0.0336 0.07902 0.0226 0.14524 0.0638 0.19792 0.12403 0.05644 0.0564 0.0996 0.13751 0.12971 0.24288 0.03011 0.10536 0.04496 0.24252 0.04496 0.41186v1.4511h0.46302v-1.5353c0-0.39888-0.09016-0.68857-0.27078-0.86919-0.17686-0.18062-0.44018-0.2713-0.79013-0.2713zm-24.824 0.0563v2.2128c-0.01129 4e-3 -0.03383 0.01-0.0677 0.017-0.03387 4e-3 -0.0737 9e-3 -0.11886 0.0165-0.04516 4e-3 -0.09408 7e-3 -0.14676 0.0114-0.04892 4e-3 -0.09784 6e-3 -0.14676 6e-3 -0.22578 0-0.3874-0.0681-0.48524-0.20361-0.09407-0.13546-0.14108-0.36472-0.14108-0.68833v-1.3715h-0.46302v1.4733c0 0.17686 0.01729 0.33849 0.05116 0.48525s0.09188 0.27483 0.17467 0.38395c0.08279 0.10537 0.19024 0.18785 0.32194 0.24805 0.1317 0.0565 0.29717 0.0848 0.49661 0.0848 0.22578 0 0.42147-0.0148 0.58704-0.045 0.16933-0.0301 0.30458-0.0584 0.40618-0.0848v-2.5461zm10.792 0.33332c0.19191 0 0.34585 0.0657 0.4625 0.1974 0.11665 0.12794 0.17518 0.30302 0.17518 0.52503h-1.3885c0.01129-0.0903 0.03575-0.17854 0.07338-0.2651 0.03763-0.0865 0.08847-0.16378 0.15244-0.23151 0.06397-0.0677 0.13928-0.12241 0.22583-0.16381 0.09031-0.0414 0.19008-0.062 0.29921-0.062zm5.5935 0.017c0.21825 0 0.39141 0.0863 0.51935 0.25941 0.12794 0.16934 0.19172 0.40295 0.19172 0.70022 0 0.29351-0.06378 0.5266-0.19172 0.6997-0.12794 0.16933-0.3011 0.25425-0.51935 0.25425-0.21449 0-0.38572-0.0849-0.51366-0.25425-0.12418-0.1731-0.18604-0.40619-0.18604-0.6997 0-0.29727 0.06186-0.53088 0.18604-0.70022 0.12794-0.17309 0.29918-0.25941 0.51366-0.25941zm-23.086 0.3669c-0.12041 0-0.22159 0.0245-0.30437 0.0734-0.079022 0.0489-0.14524 0.10885-0.19792 0.18035-0.052682 0.0715-0.09392 0.14873-0.12402 0.23151-0.030104 0.0828-0.050723 0.15621-0.062012 0.22014l0.32194 0.0904c0.01129-0.0414 0.026143-0.0846 0.044959-0.12971 0.018815-0.049 0.039434-0.0921 0.062012-0.12971 0.026342-0.0376 0.058489-0.0678 0.096118-0.0904 0.03763-0.0263 0.082711-0.0398 0.13539-0.0398 0.097837 0 0.188 0.0264 0.27078 0.0791 0.082785 0.0527 0.16962 0.10547 0.25993 0.15813 0.079022 0.0489 0.15958 0.094 0.24236 0.13539 0.086548 0.0376 0.18055 0.0563 0.28215 0.0563 0.11665 0 0.21642-0.0245 0.29921-0.0734 0.082785-0.0489 0.15092-0.10885 0.20361-0.18035 0.056445-0.0715 0.097683-0.14872 0.12402-0.23151 0.030104-0.0828 0.050723-0.15621 0.062012-0.22014l-0.32194-0.0904c-0.01129 0.0414-0.026144 0.0865-0.044958 0.1354-0.018815 0.0452-0.041355 0.0864-0.067696 0.12402-0.022577 0.0377-0.052804 0.0698-0.090434 0.0961-0.03763 0.0226-0.082711 0.0341-0.13539 0.0341-0.094074 0-0.18424-0.0264-0.27078-0.0791-0.082785-0.0527-0.16962-0.10546-0.25993-0.15813-0.079022-0.049-0.1615-0.0921-0.24805-0.12971-0.082785-0.0414-0.17539-0.062-0.27699-0.062zm17.961 5.0007c-0.42898 0.31233-0.75031 0.68117-0.9648 1.1064-0.21449 0.42522-0.32194 0.8713-0.32194 1.3379 0 0.47036 0.10553 0.91785 0.31626 1.3431 0.21449 0.42144 0.53774 0.79222 0.97048 1.1121l0.25425-0.33848c-0.18815-0.16181-0.3517-0.32395-0.49093-0.48576-0.13547-0.1618-0.24869-0.3292-0.339-0.50229-0.08655-0.1731-0.15225-0.35342-0.1974-0.54157-0.04139-0.18815-0.06201-0.38769-0.06201-0.59841 0-0.41769 0.09208-0.80332 0.27647-1.157 0.18439-0.35372 0.45155-0.66596 0.8015-0.93689h0.0057zm24.368 0-0.25425 0.339c0.18815 0.1618 0.34977 0.32343 0.48524 0.48524 0.13923 0.16181 0.25437 0.32919 0.34468 0.50229s0.15601 0.35394 0.1974 0.54209c0.04515 0.18815 0.0677 0.38769 0.0677 0.59841 0 0.41769-0.09401 0.80332-0.28216 1.157-0.18438 0.35372-0.45154 0.66596-0.8015 0.93689h-0.0057l0.24857 0.33848c0.21449-0.15428 0.40058-0.32551 0.55862-0.51366 0.16181-0.18439 0.29513-0.38009 0.40049-0.58705 0.10913-0.21072 0.1902-0.42896 0.24288-0.65474 0.05645-0.22578 0.08475-0.45503 0.08475-0.68833 0-0.47037-0.10746-0.91645-0.32194-1.3379-0.21072-0.42521-0.53206-0.79791-0.9648-1.1178zm-23.075 0.0114 1.5575 4.8767h0.47439l-1.5637-4.8767zm9.9963 0.0341c-0.13547 0-0.26546 0.0168-0.38964 0.0506-0.12041 0.0339-0.22735 0.0924-0.32143 0.17518-0.09031 0.0828-0.1637 0.19165-0.22014 0.32711-0.05645 0.1317-0.08475 0.2991-0.08475 0.5023v0.23719h-0.55345v0.38964h0.55345v2.2293h0.4625v-2.2293h1.0558v-0.38964h-1.0558v-0.23151c0-0.12794 0.01537-0.23296 0.04548-0.31574 0.0301-0.0865 0.07134-0.15467 0.12402-0.20361 0.05268-0.0527 0.11313-0.0882 0.18087-0.10697 0.0715-0.0226 0.14629-0.0341 0.22531-0.0341 0.12794 0 0.2541 0.0153 0.37827 0.0455 0.12418 0.0301 0.22779 0.0656 0.31058 0.10697l0.08475-0.40049c-0.12042-0.0414-0.25041-0.0773-0.38964-0.10749-0.13546-0.0301-0.27071-0.045-0.40618-0.045zm4.0246 0.0279v0.39533h0.75602v2.4779c0 0.17686 0.01344 0.33324 0.03979 0.46871 0.02633 0.1317 0.07142 0.24248 0.13539 0.33279 0.06397 0.0903 0.15029 0.15796 0.25942 0.20309 0.10912 0.0451 0.24681 0.0677 0.41238 0.0677 0.07149 0 0.13912-5e-3 0.20309-0.0165 0.06773-0.0113 0.12959-0.0247 0.18603-0.0398 0.05644-0.0151 0.10537-0.0299 0.14676-0.045 0.04139-0.0189 0.07354-0.0342 0.09612-0.0455l-0.0677-0.39481c-0.05268 0.0301-0.12607 0.0584-0.22014 0.0847-0.09407 0.0263-0.19576 0.0393-0.30489 0.0393-0.0715 0-0.13335-0.01-0.18604-0.0284-0.05268-0.0188-0.09777-0.0523-0.13539-0.10129-0.03387-0.0527-0.06025-0.1203-0.07906-0.20309-0.01505-0.0828-0.02273-0.19023-0.02273-0.32194v-2.8732zm15.178 0.45165-0.46302 0.0791v0.7338h-0.55294v0.38913h0.55294v1.2196c0 0.17686 0.01294 0.33272 0.03927 0.46819 0.02633 0.13171 0.07386 0.243 0.14159 0.33331 0.07149 0.0903 0.16934 0.15796 0.29352 0.20309 0.12418 0.0451 0.28388 0.0677 0.47956 0.0677 0.16933 0 0.31034-0.0187 0.42323-0.0563 0.11665-0.0376 0.20157-0.0678 0.25425-0.0904l-0.0677-0.39481c-0.07526 0.0376-0.15441 0.0673-0.2372 0.0899-0.08279 0.0226-0.19216 0.0341-0.32763 0.0341-0.09784 0-0.18031-0.01-0.24805-0.0284-0.06774-0.0188-0.12435-0.0523-0.1695-0.10129-0.04139-0.0527-0.07162-0.1203-0.09043-0.20309-0.01881-0.0828-0.02791-0.19023-0.02791-0.32194v-1.219h1.1064v-0.38964h-1.1064zm-16.911 0.75086c-0.16933 0-0.32904 0.011-0.47956 0.0336-0.14676 0.0225-0.25229 0.0489-0.31626 0.0791l0.05633 0.38395c0.06397-0.0225 0.15657-0.0451 0.27699-0.0677 0.12042-0.0226 0.26142-0.0341 0.42323-0.0341 0.12794 0 0.23155 0.0192 0.31057 0.0568 0.08279 0.0339 0.14657 0.0809 0.19172 0.14108 0.04891 0.0602 0.08107 0.12783 0.09612 0.20309 0.01881 0.0715 0.0279 0.1468 0.0279 0.22582v0.12971c-0.17686-0.0414-0.35718-0.062-0.54157-0.062-0.13547 0-0.27123 0.0148-0.40669 0.045-0.1317 0.0263-0.25017 0.0714-0.35553 0.13539-0.1016 0.064-0.186 0.14888-0.25373 0.25425-0.06397 0.1016-0.09612 0.22775-0.09612 0.37827 0 0.16933 0.03215 0.30842 0.09612 0.41755 0.06397 0.10909 0.14837 0.19541 0.25373 0.25941 0.10536 0.0602 0.22575 0.10194 0.36122 0.12454 0.13547 0.0263 0.27455 0.0393 0.41755 0.0393 0.18815 0 0.37091-0.0129 0.54777-0.0393 0.18062-0.0263 0.32548-0.0489 0.4346-0.0677v-1.6371c0-0.14676-0.01677-0.28201-0.05064-0.40618-0.03387-0.12418-0.0924-0.22971-0.17518-0.31626-0.08278-0.0865-0.19164-0.15415-0.32711-0.20309-0.1317-0.0489-0.29577-0.0734-0.49144-0.0734zm5.7351 0c-0.36501 0-0.63409 0.0715-0.80719 0.21446-0.16933 0.13923-0.25425 0.3143-0.25425 0.52503 0 0.15052 0.03791 0.27283 0.11317 0.3669 0.07902 0.0941 0.17495 0.17268 0.28784 0.23668 0.11665 0.064 0.24281 0.11868 0.37827 0.16382 0.13547 0.0414 0.2597 0.0846 0.37259 0.1297 0.11665 0.0452 0.21258 0.0979 0.28784 0.15813 0.07902 0.0602 0.11834 0.13744 0.11834 0.23151 0 0.2145-0.21247 0.32143-0.63769 0.32143-0.16557 0-0.32195-0.0187-0.4687-0.0563-0.14299-0.0414-0.28016-0.0922-0.41186-0.15244l-0.09043 0.42323c0.13547 0.0602 0.27839 0.10577 0.42891 0.13591 0.15052 0.0301 0.31599 0.045 0.49661 0.045 0.39887 0 0.6905-0.0638 0.87488-0.19172 0.18439-0.13171 0.27698-0.31639 0.27698-0.55346 0-0.14675-0.03983-0.26714-0.11886-0.36122-0.07526-0.0978-0.17119-0.18031-0.28784-0.24804-0.11665-0.0678-0.2428-0.12437-0.37827-0.1695-0.13547-0.0489-0.26162-0.0959-0.37827-0.14108-0.11665-0.0452-0.21398-0.0941-0.293-0.14676-0.07526-0.0564-0.11317-0.12406-0.11317-0.20309 0-0.22201 0.20338-0.33331 0.60978-0.33331 0.0715 0 0.14488 4e-3 0.22014 0.0114 0.07902 8e-3 0.15241 0.019 0.22014 0.0341 0.06774 0.0113 0.12767 0.0262 0.18035 0.045 0.05268 0.0151 0.09392 0.0304 0.12402 0.0455l0.08475-0.41806c-0.10913-0.0339-0.24053-0.0603-0.39481-0.0791-0.15052-0.0226-0.29729-0.0336-0.44028-0.0336zm2.7993 0c-0.15428 0-0.30438 0.0283-0.45113 0.0848-0.14676 0.0564-0.27868 0.14084-0.39532 0.25373-0.11665 0.11289-0.21066 0.25582-0.28215 0.42892-0.0715 0.1731-0.10749 0.37648-0.10749 0.60978 0 0.19567 0.0283 0.37792 0.08475 0.54725 0.05645 0.16558 0.14136 0.30902 0.25425 0.42943 0.11289 0.12042 0.2539 0.21634 0.42323 0.28784 0.1731 0.0677 0.37263 0.10129 0.59841 0.10129 0.18438 0 0.34986-0.0168 0.49661-0.0507 0.14675-0.0339 0.24844-0.066 0.30489-0.0961l-0.06201-0.39481c-0.06021 0.0301-0.14897 0.0584-0.26562 0.0847s-0.25766 0.0393-0.42323 0.0393c-0.28975 0-0.51567-0.0695-0.67748-0.20877-0.15805-0.143-0.24628-0.35022-0.2651-0.62115h1.8738v-0.1633c0-0.44779-0.09592-0.78117-0.28784-0.99942-0.19191-0.22202-0.46484-0.3328-0.81856-0.3328zm16.933 0c-0.15428 0-0.30438 0.0283-0.45113 0.0848-0.14676 0.0564-0.27868 0.14084-0.39532 0.25373-0.11665 0.11289-0.21066 0.25582-0.28216 0.42892-0.07149 0.1731-0.10749 0.37648-0.10749 0.60978 0 0.19567 0.0283 0.37792 0.08475 0.54725 0.05644 0.16558 0.14136 0.30902 0.25425 0.42943 0.11289 0.12042 0.2539 0.21634 0.42323 0.28784 0.1731 0.0677 0.37264 0.10129 0.59841 0.10129 0.18438 0 0.34985-0.0168 0.49661-0.0507 0.14675-0.0339 0.24844-0.066 0.30489-0.0961l-0.06201-0.39481c-0.06021 0.0301-0.14897 0.0584-0.26562 0.0847s-0.25766 0.0393-0.42323 0.0393c-0.28975 0-0.51567-0.0695-0.67748-0.20877-0.15805-0.143-0.24629-0.35022-0.2651-0.62115h1.8738v-0.1633c0-0.44779-0.09592-0.78117-0.28784-0.99942-0.19191-0.22202-0.46484-0.3328-0.81856-0.3328zm-45.24 6e-3c-0.14676 0-0.30454 0.011-0.47387 0.0336-0.16557 0.0226-0.33296 0.0547-0.5023 0.0961v2.5456h0.46819v-2.2128c0.07902-0.0151 0.16009-0.0261 0.24288-0.0336 0.08655-0.0113 0.16762-0.0171 0.24288-0.0171 0.09031 0 0.17279 0.011 0.24805 0.0336 0.07902 0.0226 0.14472 0.0643 0.1974 0.12454 0.05644 0.0564 0.10012 0.137 0.13022 0.24236 0.03011 0.10537 0.04496 0.24304 0.04496 0.41238v1.4506h0.46302v-1.5353c0-0.39887-0.09068-0.68858-0.2713-0.8692-0.17686-0.18063-0.44018-0.27078-0.79013-0.27078zm39.901 0c-0.39135 0-0.7789 0.0657-1.1627 0.1974v2.4779h0.4625v-2.173c0.23707-0.064 0.47068-0.0961 0.70022-0.0961 0.10912 0 0.20838 6e-3 0.29869 0.017 0.09408 8e-3 0.20153 0.0282 0.32194 0.062l0.08475-0.41186c-0.1317-0.0301-0.25209-0.0493-0.36122-0.0568-0.10913-0.0113-0.22375-0.0165-0.34416-0.0165zm3.0081 0.0558v2.2128c-0.0113 4e-3 -0.03383 0.01-0.0677 0.0171-0.03387 4e-3 -0.07319 9e-3 -0.11834 0.0165-0.04516 4e-3 -0.09408 7e-3 -0.14676 0.0114-0.04892 4e-3 -0.09784 6e-3 -0.14676 6e-3 -0.22578 0-0.3874-0.0676-0.48524-0.20309-0.09407-0.13546-0.14108-0.36523-0.14108-0.68884v-1.3715h-0.46302v1.4733c0 0.17686 0.01677 0.33849 0.05064 0.48524s0.0924 0.27483 0.17518 0.38396c0.08278 0.10537 0.18972 0.18784 0.32143 0.24804 0.1317 0.0565 0.29769 0.0847 0.49712 0.0847 0.22578 0 0.42148-0.0149 0.58705-0.045 0.16933-0.0301 0.30458-0.0584 0.40618-0.0847v-2.5461zm-32.794 5.3e-4 0.94258 1.2418c-0.1731 0.21449-0.35009 0.44234-0.53071 0.68316-0.17686 0.23707-0.32748 0.46824-0.45165 0.69402h0.48008c0.04139-0.0715 0.09224-0.15257 0.15244-0.24288 0.06021-0.0903 0.12399-0.1824 0.19172-0.27647 0.0715-0.0978 0.14488-0.19376 0.22014-0.28784 0.07526-0.0941 0.14672-0.18424 0.21446-0.27078 0.06773 0.0828 0.13535 0.17102 0.20309 0.2651 0.0715 0.0941 0.13912 0.18999 0.20309 0.28783 0.06397 0.0941 0.1225 0.18617 0.17518 0.27647 0.05645 0.0903 0.10345 0.17331 0.14108 0.24857h0.51935c-0.12041-0.23331-0.26719-0.47024-0.44028-0.71107-0.16933-0.24083-0.33864-0.47251-0.50798-0.69453l0.86351-1.2134h-0.49661l-0.64906 0.91415-0.7059-0.91415zm18.186 0.33279c0.19191 0 0.34585 0.0662 0.4625 0.19792 0.11665 0.12794 0.17518 0.30302 0.17518 0.52504h-1.3885c0.0113-0.0903 0.03575-0.17908 0.07338-0.26562 0.03763-0.0865 0.08848-0.16378 0.15244-0.23151 0.06397-0.0677 0.13928-0.1219 0.22582-0.1633 0.09031-0.0414 0.19008-0.0625 0.29921-0.0625zm16.933 0c0.19191 0 0.34585 0.0662 0.4625 0.19792 0.11665 0.12794 0.17518 0.30302 0.17518 0.52504h-1.3885c0.0113-0.0903 0.03575-0.17908 0.07338-0.26562 0.03763-0.0865 0.08847-0.16378 0.15244-0.23151 0.06397-0.0677 0.13928-0.1219 0.22582-0.1633 0.09031-0.0414 0.19008-0.0625 0.29921-0.0625zm-25.361 1.0728c0.09407 0 0.18231 6e-3 0.2651 0.0171 0.08655 0.0113 0.15994 0.0262 0.22014 0.045v0.77877c-0.06021 0.0113-0.13744 0.0209-0.23151 0.0284-0.09031 8e-3 -0.1934 0.0114-0.31006 0.0114-0.19568 0-0.35206-0.0321-0.46871-0.0961-0.11289-0.0677-0.1695-0.1862-0.1695-0.35553 0-0.0828 0.02114-0.15043 0.06253-0.20309 0.04139-0.0564 0.09364-0.10153 0.15761-0.13539 0.06397-0.0339 0.13736-0.0564 0.22014-0.0677 0.08279-0.0151 0.1677-0.0227 0.25425-0.0227zm-31.648 4.3124-0.25425 0.33848c0.18815 0.16181 0.34978 0.32344 0.48524 0.48524 0.13923 0.16181 0.25437 0.3292 0.34468 0.5023s0.15601 0.35394 0.1974 0.54208c0.045155 0.18815 0.067696 0.38769 0.067696 0.59842 0 0.41769-0.094005 0.80332-0.28215 1.157-0.18439 0.35372-0.45155 0.66596-0.8015 0.9369h-0.00568l0.24856 0.33899c0.21449-0.15428 0.40058-0.32551 0.55862-0.51366 0.16181-0.18438 0.29513-0.38008 0.40049-0.58705 0.10913-0.21072 0.1902-0.42896 0.24288-0.65474 0.056445-0.22578 0.08475-0.45554 0.08475-0.68884 0-0.47037-0.10746-0.91645-0.32194-1.3379-0.21073-0.42521-0.53206-0.79739-0.9648-1.1172zm17.966 14.111c-0.42898 0.31232-0.75031 0.68118-0.9648 1.1064-0.21449 0.42521-0.32194 0.87129-0.32194 1.3379 0 0.47037 0.10553 0.91786 0.31626 1.3431 0.21449 0.42146 0.53774 0.79222 0.97048 1.1121l0.25425-0.33848c-0.18815-0.16181-0.3517-0.32395-0.49093-0.48576-0.13547-0.16181-0.24869-0.3292-0.339-0.50229-0.08655-0.1731-0.15225-0.35343-0.1974-0.54157-0.04139-0.18815-0.06201-0.38769-0.06201-0.59842 0-0.41769 0.09208-0.80332 0.27647-1.157 0.18439-0.35372 0.45155-0.66596 0.8015-0.9369h0.0057zm-15.64 0.0114 1.5575 4.8767h0.47439l-1.5637-4.8767zm16.933 0 1.5575 4.8767h0.47439l-1.5637-4.8767zm5.6441 0 1.558 4.8767h0.47439l-1.5637-4.8767zm-9.2625 0.0341-0.46819 0.0791v1.3095c-0.05268-0.0376-0.13183-0.0736-0.2372-0.10749-0.10536-0.0339-0.22767-0.0506-0.3669-0.0506-0.17686 0-0.33516 0.0335-0.47439 0.10128-0.13547 0.0677-0.25201 0.16226-0.34985 0.28267-0.09784 0.12042-0.17315 0.26527-0.22583 0.4346-0.04892 0.16558-0.07338 0.34974-0.07338 0.55294 0 0.21072 0.03023 0.40066 0.09043 0.56999 0.06021 0.16933 0.14512 0.31418 0.25425 0.4346 0.10913 0.11662 0.24053 0.2073 0.39481 0.2713s0.32552 0.0956 0.51366 0.0956c0.21073 0 0.39541-0.0148 0.55345-0.045 0.15804-0.0301 0.28752-0.0603 0.38912-0.0904zm-7.6254 0.41755c-0.03387 0.26716-0.06602 0.54586-0.09612 0.83561-0.02634 0.28975-0.0508 0.58277-0.07338 0.88005-0.01882 0.29727-0.03559 0.59658-0.05064 0.89761-0.01505 0.30104-0.0285 0.59458-0.03979 0.88057h0.45165c0.0038-0.2032 0.0076-0.42336 0.01137-0.66042 0.0076-0.23707 0.01332-0.48169 0.01705-0.73381 0.0076-0.25588 0.01332-0.51151 0.01705-0.76739 0.0076-0.25964 0.0128-0.51195 0.01654-0.75655l0.51935 1.5916h0.40669l0.50798-1.5916c0.0076 0.2446 0.0128 0.49691 0.01654 0.75655 0.0076 0.25964 0.01332 0.51527 0.01705 0.76739 0.0076 0.25212 0.01332 0.49674 0.01705 0.73381 0.0038 0.23706 0.0076 0.45722 0.01137 0.66042h0.45165c-0.02634-0.62842-0.05656-1.2304-0.09043-1.8061-0.0301-0.57573-0.08287-1.1384-0.15813-1.6878h-0.4346l-0.54208 1.7384-0.54726-1.7384zm3.7874 0.81287c-0.16933 0-0.32764 0.0335-0.47439 0.10128-0.14299 0.064-0.26722 0.15658-0.37259 0.27699-0.10536 0.11665-0.18784 0.25958-0.24805 0.42891-0.05645 0.16934-0.08475 0.35734-0.08475 0.56431 0 0.20696 0.0283 0.39497 0.08475 0.56431 0.06021 0.16557 0.14268 0.3085 0.24805 0.42891s0.22959 0.21494 0.37259 0.28267c0.14676 0.064 0.30506 0.0956 0.47439 0.0956 0.1731 0 0.3328-0.0316 0.47956-0.0956 0.14676-0.0677 0.27291-0.16226 0.37827-0.28267 0.10536-0.12041 0.18643-0.26334 0.24288-0.42891 0.06021-0.16934 0.09043-0.35735 0.09043-0.56431 0-0.20697-0.03023-0.39497-0.09043-0.56431-0.05644-0.16933-0.13752-0.31226-0.24288-0.42891-0.10536-0.12038-0.23152-0.21299-0.37827-0.27699-0.14676-0.0677-0.30646-0.10128-0.47956-0.10128zm11.261 6e-3c-0.14675 0-0.30505 0.011-0.47439 0.0336-0.16557 0.0226-0.33296 0.0547-0.5023 0.0961v2.5456h0.4687v-2.2128c0.07902-0.0151 0.15958-0.0261 0.24236-0.0336 0.08655-0.0113 0.16762-0.0171 0.24288-0.0171 0.09031 0 0.17279 0.011 0.24805 0.0336 0.07902 0.0226 0.14524 0.0643 0.19792 0.12454 0.05644 0.0565 0.0996 0.13701 0.12971 0.24237 0.03011 0.10536 0.04496 0.24304 0.04496 0.41237v1.4506h0.46302v-1.5353c0-0.39887-0.09016-0.68857-0.27078-0.86919-0.17686-0.18062-0.44018-0.27079-0.79013-0.27079zm5.1361 0c-0.19944 0-0.41191 0.0432-0.63769 0.12971v2.5456h0.42323v-2.2407c0.09407-0.0339 0.17899-0.0506 0.25425-0.0506 0.12042 0 0.20097 0.0374 0.24236 0.11265 0.0414 0.0753 0.06201 0.17887 0.06201 0.31058v0.85783h0.42375v-0.85215c0-0.10536-0.01154-0.20128-0.03411-0.28784 0.04139-0.0489 0.08647-0.0849 0.13539-0.10748 0.04892-0.0226 0.09592-0.0341 0.14108-0.0341 0.09031 0 0.16562 0.036 0.22583 0.10749 0.06021 0.0715 0.09043 0.17511 0.09043 0.31057v1.8738h0.42323v-1.8624c0-0.13547-0.01871-0.25445-0.05633-0.35605-0.03763-0.1016-0.08847-0.186-0.15244-0.25373-0.06021-0.0677-0.13167-0.11858-0.21446-0.15245-0.07902-0.0339-0.16342-0.0506-0.25373-0.0506-0.18439 0-0.35754 0.0657-0.51935 0.19741-0.06773-0.0677-0.15073-0.11663-0.24856-0.14677-0.09408-0.0339-0.19576-0.0506-0.3049-0.0506zm-21.494 0.0558v2.2128c-0.01129 4e-3 -0.03383 0.01-0.0677 0.0171-0.03387 4e-3 -0.0737 0.01-0.11886 0.0171-0.04516 4e-3 -0.09408 7e-3 -0.14676 0.0109-0.04892 4e-3 -0.09784 6e-3 -0.14676 6e-3 -0.22578 0-0.3874-0.0676-0.48524-0.20309-0.09407-0.13547-0.14108-0.36523-0.14108-0.68885v-1.3715h-0.46302v1.4733c0 0.17686 0.01729 0.33849 0.05116 0.48525 0.03387 0.14675 0.09188 0.27483 0.17467 0.38395 0.08279 0.10537 0.19024 0.18837 0.32194 0.24857 0.1317 0.0565 0.29717 0.0842 0.49661 0.0842 0.22578 0 0.42147-0.0148 0.58704-0.045 0.16933-0.0301 0.30458-0.0584 0.40618-0.0847v-2.5461zm5.0968 0.35037c0.21825 0 0.39141 0.0868 0.51935 0.25993 0.12794 0.16933 0.19172 0.40242 0.19172 0.6997 0 0.29351-0.06378 0.5266-0.19172 0.6997-0.12794 0.16933-0.3011 0.25425-0.51935 0.25425-0.21449 0-0.38572-0.0849-0.51366-0.25425-0.12418-0.1731-0.18655-0.40619-0.18655-0.6997 0-0.29728 0.06237-0.53037 0.18655-0.6997 0.12794-0.17309 0.29918-0.25993 0.51366-0.25993zm2.822 0c0.10913 0 0.21466 0.0226 0.31626 0.0677 0.1016 0.0414 0.17883 0.0865 0.23151 0.1354v1.6598c-0.03763 0.0113-0.09808 0.0223-0.18087 0.0336-0.07902 0.0113-0.17687 0.017-0.29352 0.017-0.22954 0-0.41563-0.083-0.55862-0.24857-0.14299-0.16557-0.21446-0.40058-0.21446-0.70538 0-0.13547 0.01293-0.26162 0.03927-0.37828 0.02634-0.12041 0.06809-0.2221 0.12454-0.30489 0.05644-0.0865 0.12791-0.15415 0.21446-0.20308 0.09031-0.0489 0.19725-0.0734 0.32143-0.0734zm-14.619 0.3669c-0.12041 0-0.22159 0.0245-0.30437 0.0734-0.079022 0.0489-0.14524 0.10937-0.19792 0.18087-0.052682 0.0715-0.09392 0.14821-0.12402 0.23099-0.030104 0.0828-0.050723 0.15614-0.062012 0.22014l0.32194 0.0904c0.01129-0.0414 0.026143-0.0846 0.044959-0.12971 0.018815-0.0489 0.039434-0.092 0.062012-0.12971 0.026342-0.0376 0.058489-0.0678 0.096118-0.0904 0.03763-0.0263 0.082711-0.0393 0.13539-0.0393 0.097837 0 0.188 0.0259 0.27078 0.0786 0.082785 0.0527 0.16962 0.10547 0.25993 0.15813 0.079022 0.0489 0.15958 0.094 0.24236 0.13539 0.086548 0.0377 0.18055 0.0568 0.28215 0.0568 0.11665 0 0.21642-0.0245 0.29921-0.0734 0.082785-0.0489 0.15092-0.10938 0.20361-0.18087 0.056445-0.0715 0.097683-0.14872 0.12402-0.23151 0.030104-0.0828 0.050723-0.15614 0.062012-0.22014l-0.32194-0.0904c-0.01129 0.0414-0.026144 0.087-0.044958 0.13591-0.018815 0.0452-0.041355 0.0864-0.067696 0.12403-0.022577 0.0377-0.052804 0.0698-0.090434 0.0961-0.03763 0.0226-0.082711 0.0336-0.13539 0.0336-0.094074 0-0.18424-0.0264-0.27078-0.0791-0.082785-0.0527-0.16962-0.10495-0.25993-0.15761-0.079022-0.0489-0.1615-0.0926-0.24805-0.13023-0.082785-0.0414-0.17539-0.062-0.27699-0.062zm12.317 5.0012c-0.42898 0.31232-0.75083 0.68066-0.96532 1.1059-0.21449 0.42522-0.32194 0.8713-0.32194 1.3379 0 0.47037 0.10553 0.91837 0.31626 1.3436 0.21449 0.42146 0.53826 0.79171 0.971 1.1116l0.25373-0.33848c-0.18815-0.16181-0.3517-0.32343-0.49093-0.48524-0.13547-0.16181-0.24817-0.3292-0.33848-0.50229-0.08655-0.1731-0.15277-0.35394-0.19792-0.54209-0.04139-0.18815-0.06201-0.38769-0.06201-0.59841 0-0.41769 0.09208-0.80332 0.27647-1.157 0.18438-0.35372 0.45155-0.66596 0.8015-0.93689h0.0057zm46.945 0-0.25425 0.33848c0.18815 0.1618 0.34977 0.32343 0.48524 0.48524 0.13923 0.16181 0.25437 0.3292 0.34468 0.50229 0.09031 0.1731 0.15601 0.35394 0.1974 0.54209 0.04515 0.18815 0.0677 0.38769 0.0677 0.59841 0 0.41769-0.09401 0.80332-0.28215 1.157-0.18439 0.35372-0.45155 0.66596-0.8015 0.93689h-0.0057l0.24856 0.33848c0.21449-0.15428 0.40058-0.325 0.55862-0.51314 0.16181-0.18439 0.29513-0.38009 0.4005-0.58705 0.10913-0.21073 0.1902-0.42896 0.24288-0.65474 0.05645-0.22577 0.08475-0.45554 0.08475-0.68884 0-0.47038-0.10746-0.91646-0.32194-1.3379-0.21072-0.42522-0.53206-0.7974-0.9648-1.1172zm6.6771 0c-0.42898 0.31232-0.75083 0.68066-0.96531 1.1059-0.21449 0.42522-0.32143 0.8713-0.32143 1.3379 0 0.47037 0.10502 0.91837 0.31574 1.3436 0.21449 0.42146 0.53826 0.79171 0.971 1.1116l0.25425-0.33848c-0.18815-0.16181-0.35221-0.32343-0.49144-0.48524-0.13547-0.16181-0.24817-0.3292-0.33848-0.50229-0.08655-0.1731-0.15225-0.35394-0.1974-0.54209-0.04139-0.18815-0.06201-0.38769-0.06201-0.59841 0-0.41769 0.09208-0.80332 0.27647-1.157 0.18439-0.35372 0.45155-0.66596 0.8015-0.93689h0.0057zm-52.33 0.0109 1.558 4.8772h0.47387l-1.5632-4.8772zm5.6446 0 1.5575 4.8772h0.47439l-1.5637-4.8772zm53.622 0 1.558 4.8772h0.47387l-1.5632-4.8772zm-20.551 0.0341-0.46871 0.0791v1.3095c-0.05268-0.0376-0.13183-0.0736-0.23719-0.10749-0.10536-0.0339-0.22767-0.0506-0.3669-0.0506-0.17686 0-0.33464 0.0341-0.47387 0.1018-0.13547 0.0677-0.25201 0.16174-0.34985 0.28215-0.09784 0.12042-0.17315 0.26527-0.22583 0.4346-0.04892 0.16557-0.07338 0.34974-0.07338 0.55294 0 0.21073 0.02971 0.40117 0.08992 0.57051 0.06021 0.16933 0.14512 0.31418 0.25425 0.4346 0.10912 0.11663 0.24104 0.20678 0.39532 0.27078 0.15428 0.064 0.32552 0.0961 0.51366 0.0961 0.21072 0 0.39489-0.0154 0.55294-0.0455 0.15804-0.0301 0.28804-0.0603 0.38964-0.0904zm-9.5617 0.38344c-0.06397 0-0.13543 2e-3 -0.21446 6e-3 -0.07526 0-0.15441 4e-3 -0.2372 0.0114-0.07902 8e-3 -0.16009 0.0166-0.24288 0.0279-0.07902 0.0113-0.15241 0.0247-0.22014 0.0398v3.4427h0.46302v-1.3038h0.40618c0.42898 0 0.75083-0.0978 0.96532-0.29352 0.21449-0.19943 0.32194-0.48145 0.32194-0.84646 0-0.16181-0.02638-0.30858-0.07906-0.44028-0.04892-0.1317-0.12615-0.2444-0.23151-0.33848-0.1016-0.0978-0.2316-0.17316-0.38964-0.22583-0.15428-0.0527-0.3346-0.0791-0.54157-0.0791zm0.03359 0.40101v5.3e-4c0.48918 0 0.7338 0.23309 0.7338 0.6997 0 0.25964-0.06954 0.44625-0.20877 0.55914-0.13547 0.11288-0.3441 0.16898-0.62632 0.16898h-0.38396v-1.4108c0.04516-8e-3 0.11278-0.0114 0.20309-0.0114 0.09031-4e-3 0.18432-6e-3 0.28215-6e-3zm5.7459 0.44597c-0.15428 0-0.30438 0.0283-0.45113 0.0848-0.14676 0.0564-0.27868 0.14083-0.39532 0.25373-0.11665 0.11289-0.21066 0.25633-0.28215 0.42943-0.0715 0.17309-0.10749 0.37596-0.10749 0.60927 0 0.19567 0.0283 0.37843 0.08475 0.54777 0.05645 0.16556 0.14136 0.3085 0.25425 0.42891 0.11289 0.12042 0.2539 0.21635 0.42323 0.28784 0.1731 0.0677 0.37263 0.10128 0.59841 0.10128 0.18438 0 0.34985-0.0168 0.49661-0.0506 0.14675-0.0339 0.24844-0.0655 0.30489-0.0956l-0.06201-0.39533c-0.06021 0.0301-0.14897 0.0584-0.26562 0.0847s-0.25766 0.0393-0.42323 0.0393c-0.28975 0-0.51567-0.0695-0.67747-0.20878-0.15805-0.14299-0.24629-0.3497-0.2651-0.62063h1.8738v-0.16381c0-0.4478-0.09593-0.78066-0.28784-0.99891-0.19191-0.22201-0.46484-0.33331-0.81856-0.33331zm-25.484 6e-3c-0.14675 0-0.30505 0.0115-0.47439 0.0341-0.16557 0.0226-0.33296 0.0542-0.5023 0.0956v2.5456h0.4687v-2.2139c0.07902-0.0151 0.15958-0.0266 0.24236-0.0341 0.08655-0.0113 0.16762-0.017 0.24288-0.017 0.09031 0 0.17279 0.0115 0.24805 0.0341 0.07902 0.0226 0.14524 0.0638 0.19792 0.12402 0.05644 0.0564 0.0996 0.13751 0.12971 0.24288 0.03011 0.10536 0.04496 0.24253 0.04496 0.41186v1.4506h0.46302v-1.5353c0-0.39887-0.09016-0.68858-0.27078-0.8692-0.17686-0.18062-0.44018-0.27078-0.79014-0.27078zm11.289 0c-0.14676 0-0.30506 0.0115-0.47439 0.0341-0.16557 0.0226-0.33296 0.0542-0.5023 0.0956v2.5456h0.46871v-2.2139c0.07902-0.0151 0.16009-0.0266 0.24288-0.0341 0.08655-0.0113 0.1671-0.017 0.24236-0.017 0.09031 0 0.1733 0.0115 0.24857 0.0341 0.07902 0.0226 0.14472 0.0638 0.1974 0.12402 0.05644 0.0564 0.0996 0.13751 0.12971 0.24288 0.03011 0.10536 0.04548 0.24253 0.04548 0.41186v1.4506h0.4625v-1.5353c0-0.39887-0.09016-0.68858-0.27079-0.8692-0.17686-0.18062-0.44018-0.27078-0.79013-0.27078zm11.678 0c-0.39135 0-0.7789 0.0657-1.1627 0.1974v2.4779h0.46302v-2.173c0.23707-0.064 0.47016-0.0961 0.6997-0.0961 0.10913 0 0.2089 6e-3 0.29921 0.0171 0.09408 8e-3 0.20101 0.0281 0.32143 0.062l0.08475-0.41186c-0.1317-0.0301-0.25209-0.0488-0.36122-0.0563-0.10912-0.0113-0.22375-0.017-0.34416-0.017zm10.9 0c-0.14675 0-0.30505 0.0115-0.47439 0.0341-0.16557 0.0226-0.33296 0.0542-0.5023 0.0956v2.5456h0.4687v-2.2139c0.07902-0.0151 0.15958-0.0266 0.24236-0.0341 0.08655-0.0113 0.16762-0.017 0.24288-0.017 0.09031 0 0.17279 0.0115 0.24805 0.0341 0.07902 0.0226 0.14524 0.0638 0.19792 0.12402 0.05644 0.0564 0.0996 0.13751 0.12971 0.24288 0.03011 0.10536 0.04496 0.24253 0.04496 0.41186v1.4506h0.46302v-1.5353c0-0.39887-0.09016-0.68858-0.27078-0.8692-0.17686-0.18062-0.44018-0.27078-0.79013-0.27078zm11.289 0c-0.14676 0-0.30506 0.0115-0.47439 0.0341-0.16557 0.0226-0.33296 0.0542-0.5023 0.0956v2.5456h0.46871v-2.2139c0.07902-0.0151 0.1601-0.0266 0.24288-0.0341 0.08655-0.0113 0.1671-0.017 0.24236-0.017 0.09031 0 0.1733 0.0115 0.24856 0.0341 0.07902 0.0226 0.14472 0.0638 0.1974 0.12402 0.05644 0.0564 0.0996 0.13751 0.12971 0.24288 0.03011 0.10536 0.04548 0.24253 0.04548 0.41186v1.4506h0.4625v-1.5353c0-0.39887-0.09016-0.68858-0.27078-0.8692-0.17686-0.18062-0.44018-0.27078-0.79013-0.27078zm8.4667 0c-0.14676 0-0.30506 0.0115-0.47439 0.0341-0.16557 0.0226-0.33296 0.0542-0.5023 0.0956v2.5456h0.46871v-2.2139c0.07902-0.0151 0.16009-0.0266 0.24288-0.0341 0.08655-0.0113 0.1671-0.017 0.24236-0.017 0.09031 0 0.1733 0.0115 0.24856 0.0341 0.07902 0.0226 0.14472 0.0638 0.1974 0.12402 0.05644 0.0564 0.0996 0.13751 0.12971 0.24288 0.0301 0.10536 0.04548 0.24253 0.04548 0.41186v1.4506h0.4625v-1.5353c0-0.39887-0.09016-0.68858-0.27078-0.8692-0.17686-0.18062-0.44018-0.27078-0.79013-0.27078zm-60.441 0.0563 0.94258 1.2418c-0.1731 0.21448-0.3501 0.44233-0.53072 0.68316-0.17686 0.23707-0.32696 0.46824-0.45114 0.69401h0.47956c0.04139-0.0715 0.09224-0.15204 0.15244-0.24236 0.06021-0.0903 0.12399-0.18239 0.19172-0.27647 0.0715-0.0978 0.14488-0.19428 0.22014-0.28835 0.07526-0.0941 0.14672-0.18423 0.21446-0.27078 0.06773 0.0828 0.13587 0.17154 0.2036 0.26561 0.07149 0.0941 0.13912 0.19 0.20309 0.28784 0.06397 0.0941 0.12199 0.18615 0.17467 0.27647 0.05644 0.0903 0.10344 0.17279 0.14108 0.24804h0.51935c-0.12042-0.2333-0.26719-0.47023-0.44028-0.71106-0.16933-0.24083-0.33865-0.47201-0.50798-0.69402l0.86351-1.2139h-0.49661l-0.64906 0.91468-0.70538-0.91468zm11.289 0 0.94258 1.2418c-0.1731 0.21448-0.34958 0.44233-0.5302 0.68316-0.17686 0.23707-0.32747 0.46824-0.45165 0.69401h0.47956c0.04139-0.0715 0.09224-0.15204 0.15244-0.24236 0.06021-0.0903 0.1245-0.18239 0.19224-0.27647 0.0715-0.0978 0.14488-0.19428 0.22014-0.28835 0.07526-0.0941 0.14672-0.18423 0.21446-0.27078 0.06773 0.0828 0.13536 0.17154 0.20309 0.26561 0.07149 0.0941 0.13912 0.19 0.20309 0.28784 0.06397 0.0941 0.1225 0.18615 0.17518 0.27647 0.05644 0.0903 0.10344 0.17279 0.14108 0.24804h0.51935c-0.12042-0.2333-0.26719-0.47023-0.44028-0.71106-0.16933-0.24083-0.33864-0.47201-0.50798-0.69402l0.86351-1.2139h-0.49661l-0.64957 0.91468-0.70538-0.91468zm11.47 0v1.4733c0 0.17686 0.0173 0.339 0.05116 0.48576 0.03387 0.14676 0.09188 0.27432 0.17467 0.38343 0.08279 0.10538 0.19024 0.18837 0.32194 0.24857 0.1317 0.0565 0.29717 0.0847 0.49661 0.0847 0.22578 0 0.42147-0.0153 0.58704-0.0455 0.16933-0.0301 0.30458-0.0584 0.40618-0.0847v-2.5471h-0.46819v2.2123c-0.0113 4e-3 -0.03383 0.01-0.0677 0.0171-0.03387 4e-3 -0.0737 0.01-0.11886 0.0171-0.04516 4e-3 -0.09408 7e-3 -0.14676 0.0114-0.04892 4e-3 -0.09784 6e-3 -0.14676 6e-3 -0.22578 0-0.38741-0.0676-0.48524-0.20309-0.09407-0.13547-0.14108-0.36472-0.14108-0.68833v-1.372zm39.33 0 0.94258 1.2418c-0.1731 0.21448-0.34958 0.44233-0.5302 0.68316-0.17686 0.23707-0.32747 0.46824-0.45165 0.69401h0.47956c0.04139-0.0715 0.09224-0.15204 0.15244-0.24236 0.06021-0.0903 0.1245-0.18239 0.19224-0.27647 0.07149-0.0978 0.14488-0.19428 0.22014-0.28835 0.07526-0.0941 0.14672-0.18423 0.21446-0.27078 0.06773 0.0828 0.13535 0.17154 0.20309 0.26561 0.07149 0.0941 0.13912 0.19 0.20309 0.28784 0.06397 0.0941 0.1225 0.18615 0.17518 0.27647 0.05645 0.0903 0.10345 0.17279 0.14108 0.24804h0.51935c-0.12042-0.2333-0.26719-0.47023-0.44028-0.71106-0.16933-0.24083-0.33864-0.47201-0.50798-0.69402l0.86352-1.2139h-0.49661l-0.64957 0.91468-0.70538-0.91468zm-29.791 0.33332c0.19191 0 0.34585 0.0657 0.4625 0.1974 0.11665 0.12794 0.17518 0.30302 0.17518 0.52503h-1.3885c0.0113-0.0903 0.03575-0.17907 0.07338-0.26562 0.03763-0.0865 0.08848-0.16325 0.15244-0.23099 0.06397-0.0677 0.13928-0.12241 0.22582-0.16381 0.09031-0.0414 0.19008-0.062 0.29921-0.062zm2.7714 0.0171c0.10913 0 0.21414 0.0226 0.31574 0.0677 0.1016 0.0414 0.17883 0.0865 0.23151 0.1354v1.6593c-0.03763 0.0113-0.09757 0.0228-0.18035 0.0341-0.07902 0.0113-0.17687 0.0165-0.29352 0.0165-0.22954 0-0.41615-0.0825-0.55914-0.24805-0.14299-0.16557-0.21446-0.40109-0.21446-0.70589 0-0.13547 0.01344-0.26111 0.03979-0.37776 0.02633-0.12041 0.06758-0.22211 0.12402-0.30489 0.05644-0.0865 0.12791-0.15416 0.21446-0.20309 0.09031-0.0489 0.19777-0.0734 0.32194-0.0734zm-15.917 5.4126-0.46871 0.0791v1.3095c-0.05268-0.0376-0.13183-0.0731-0.23719-0.10696-0.10536-0.0339-0.22767-0.0506-0.3669-0.0506-0.17686 0-0.33464 0.0335-0.47387 0.10129-0.13547 0.0677-0.25201 0.16174-0.34985 0.28215-0.09784 0.12041-0.17315 0.26527-0.22583 0.4346-0.04892 0.16557-0.07338 0.35025-0.07338 0.55345 0 0.21073 0.02971 0.40066 0.08992 0.57 0.06021 0.16933 0.14512 0.31418 0.25425 0.43459 0.10912 0.11669 0.24104 0.20686 0.39532 0.27079 0.15428 0.064 0.32551 0.0961 0.51366 0.0961 0.21072 0 0.39489-0.0148 0.55294-0.045 0.15804-0.0301 0.28804-0.0603 0.38964-0.0904zm-9.5617 0.38344c-0.06397 0-0.13544 2e-3 -0.21446 6e-3 -0.07526 0-0.15441 4e-3 -0.2372 0.0114-0.07902 8e-3 -0.16009 0.0166-0.24288 0.0279-0.07902 0.0113-0.15241 0.0247-0.22014 0.0398v3.4432h0.46302v-1.3038h0.40618c0.42898 0 0.75083-0.0978 0.96532-0.29353 0.21449-0.19944 0.32194-0.48197 0.32194-0.84697 0-0.16181-0.02638-0.30859-0.07906-0.44029-0.04892-0.1317-0.12615-0.2444-0.23151-0.33848-0.1016-0.0978-0.2316-0.17316-0.38964-0.22582-0.15428-0.0527-0.33461-0.0791-0.54157-0.0791zm16.109 0.0346v0.39481h0.67748v2.7037h-0.67748v0.39532h1.8175v-0.39532h-0.67748v-2.7037h0.67748v-0.39481zm5.5314 0v0.39481h1.5973c-0.13547 0.19191-0.27647 0.40105-0.42323 0.62683-0.14676 0.22578-0.29353 0.45888-0.44028 0.6997-0.14676 0.24084-0.29161 0.48738-0.4346 0.73949-0.13923 0.24836-0.2673 0.49106-0.38396 0.72812v0.30489h2.2634v-0.39532h-1.7327c0.10912-0.20697 0.23528-0.43429 0.37827-0.68265 0.14676-0.25212 0.29737-0.5025 0.45165-0.75085 0.15428-0.24836 0.30438-0.4853 0.45114-0.71107 0.15052-0.22954 0.28628-0.42716 0.40669-0.59273v-0.36122zm-21.607 0.3669c0.48918 0 0.7338 0.23361 0.7338 0.70022 0 0.25964-0.06954 0.44573-0.20877 0.55862-0.13547 0.11289-0.3441 0.1695-0.62632 0.1695h-0.38396v-1.4113c0.04516-8e-3 0.11278-0.0114 0.20309-0.0114 0.09031-4e-3 0.18432-6e-3 0.28216-6e-3zm5.7459 0.44546c-0.15428 0-0.30438 0.0283-0.45113 0.0847-0.14676 0.0564-0.27868 0.14137-0.39532 0.25425-0.11665 0.1129-0.21066 0.25582-0.28216 0.42892-0.0715 0.1731-0.10749 0.37648-0.10749 0.60978 0 0.19567 0.0283 0.37792 0.08475 0.54725 0.05645 0.16558 0.14136 0.3085 0.25425 0.42892 0.11289 0.12041 0.2539 0.21634 0.42323 0.28783 0.1731 0.0677 0.37264 0.10181 0.59841 0.10181 0.18439 0 0.34985-0.0168 0.49661-0.0506 0.14675-0.0339 0.24844-0.066 0.30489-0.0961l-0.06201-0.39533c-0.06021 0.0301-0.14897 0.0584-0.26562 0.0847s-0.25766 0.0398-0.42323 0.0398c-0.28975 0-0.51567-0.0701-0.67748-0.20929-0.15805-0.14299-0.24629-0.3497-0.2651-0.62063h1.8738v-0.16382c0-0.44779-0.09593-0.78065-0.28784-0.9989-0.19191-0.22201-0.46484-0.33331-0.81856-0.33331zm14.134 0c-0.36501 0-0.63409 0.072-0.80719 0.21497-0.16933 0.13923-0.25425 0.31379-0.25425 0.52451 0 0.15052 0.03791 0.27283 0.11317 0.36691 0.07902 0.094 0.17495 0.17319 0.28784 0.23719 0.11665 0.064 0.2428 0.11868 0.37827 0.16382 0.13547 0.0414 0.2597 0.0846 0.37259 0.12971 0.11665 0.0451 0.21258 0.0979 0.28784 0.15812 0.07888 0.0601 0.11819 0.13768 0.11834 0.23151-2.65e-4 0.21414-0.21283 0.32143-0.63769 0.32143-0.16557 0-0.32195-0.0187-0.4687-0.0563-0.14299-0.0414-0.28016-0.0923-0.41186-0.15245l-0.09043 0.42323c0.13547 0.0602 0.2784 0.10526 0.42891 0.13539 0.15052 0.0301 0.31599 0.0455 0.49661 0.0455 0.39887 0 0.6905-0.0643 0.87488-0.19224 0.18439-0.13171 0.27698-0.31587 0.27698-0.55294 0-0.14675-0.03983-0.26714-0.11886-0.36121-0.07526-0.0978-0.17119-0.18084-0.28784-0.24857-0.11665-0.0677-0.2428-0.12385-0.37827-0.16898-0.13547-0.0489-0.26162-0.096-0.37827-0.14108-0.11665-0.0452-0.21398-0.0941-0.293-0.14676-0.07526-0.0564-0.11317-0.12458-0.11317-0.2036 0-0.22202 0.20338-0.3328 0.60978-0.3328 0.0715 0 0.14488 4e-3 0.22014 0.0114 0.07902 8e-3 0.15241 0.0185 0.22014 0.0336 0.06773 0.0113 0.12767 0.0267 0.18035 0.0455 0.05269 0.015 0.09392 0.0299 0.12402 0.045l0.08475-0.41754c-0.10913-0.0339-0.24053-0.0603-0.39481-0.0791-0.15052-0.0226-0.29729-0.0341-0.44028-0.0341zm5.6219 0c-0.15428 0-0.3049 0.0283-0.45165 0.0847-0.14675 0.0564-0.27867 0.14137-0.39532 0.25425-0.11665 0.1129-0.21066 0.25582-0.28215 0.42892-0.07149 0.1731-0.10697 0.37648-0.10697 0.60978 0 0.19567 0.0283 0.37792 0.08475 0.54725 0.05644 0.16558 0.14084 0.3085 0.25373 0.42892 0.11289 0.12041 0.2539 0.21634 0.42323 0.28783 0.1731 0.0677 0.37264 0.10181 0.59841 0.10181 0.18439 0 0.34986-0.0168 0.49661-0.0506 0.14675-0.0339 0.24844-0.066 0.30489-0.0961l-0.06201-0.39533c-0.06021 0.0301-0.14845 0.0584-0.2651 0.0847s-0.25818 0.0398-0.42375 0.0398c-0.28975 0-0.51516-0.0701-0.67696-0.20929-0.15804-0.14299-0.2468-0.3497-0.26562-0.62063h1.8743v-0.16382c0-0.44779-0.09593-0.78065-0.28784-0.9989-0.19191-0.22201-0.46484-0.33331-0.81856-0.33331zm5.5878 0c-0.16933 0-0.32712 0.0341-0.47387 0.1018-0.14299 0.064-0.26722 0.15605-0.37259 0.27647-0.10536 0.11665-0.18836 0.25958-0.24856 0.42891-0.05645 0.16933-0.08475 0.35786-0.08475 0.56482s0.0283 0.39498 0.08475 0.56431c0.06021 0.16558 0.1432 0.3085 0.24856 0.42892 0.10536 0.12041 0.2296 0.21442 0.37259 0.28215 0.14675 0.064 0.30454 0.0961 0.47387 0.0961 0.1731 0 0.33332-0.0321 0.48008-0.0961 0.14675-0.0677 0.27239-0.16174 0.37775-0.28215 0.10536-0.12042 0.18643-0.26334 0.24288-0.42892 0.06021-0.16933 0.09043-0.35735 0.09043-0.56431s-0.03023-0.39549-0.09043-0.56482c-0.05644-0.16933-0.13752-0.31226-0.24288-0.42891-0.10536-0.12038-0.231-0.21247-0.37775-0.27647-0.14676-0.0677-0.30698-0.1018-0.48008-0.1018zm-27.861 6e-3c-0.39135 0-0.7789 0.0662-1.1627 0.19793v2.4779h0.46302v-2.1735c0.23707-0.064 0.47016-0.0956 0.6997-0.0956 0.10913 0 0.2089 5e-3 0.29921 0.0165 0.09408 8e-3 0.20101 0.0287 0.32143 0.0625l0.08475-0.41239c-0.1317-0.0301-0.25209-0.0488-0.36122-0.0563-0.10912-0.0113-0.22375-0.017-0.34416-0.017zm25.4 0c-0.39135 0-0.7789 0.0662-1.1627 0.19793v2.4779h0.46302v-2.1735c0.23707-0.064 0.47016-0.0956 0.6997-0.0956 0.10912 0 0.2089 5e-3 0.29921 0.0165 0.09408 8e-3 0.20101 0.0287 0.32143 0.0625l0.08475-0.41239c-0.1317-0.0301-0.25209-0.0488-0.36122-0.0563-0.10912-0.0113-0.22375-0.017-0.34416-0.017zm8.077 0c-0.14676 0-0.30454 0.0115-0.47387 0.0341-0.16557 0.0226-0.33296 0.0547-0.5023 0.0961v2.5456h0.46819v-2.2128c0.07902-0.0151 0.16009-0.0266 0.24288-0.0341 0.08655-0.0113 0.16762-0.0165 0.24288-0.0165 0.09031 0 0.17279 0.011 0.24805 0.0336 0.07902 0.0226 0.14472 0.0638 0.19741 0.12403 0.05644 0.0564 0.10012 0.13752 0.13022 0.24288 0.03011 0.10536 0.04496 0.24252 0.04496 0.41186v1.4511h0.46302v-1.5353c0-0.39887-0.09068-0.68857-0.2713-0.86919-0.17686-0.18063-0.44017-0.27131-0.79013-0.27131zm7.9587 0c-0.19944 0-0.41191 0.0437-0.63769 0.13023v2.5456h0.42323v-2.2407c0.09407-0.0339 0.17899-0.0512 0.25425-0.0512 0.12041 0 0.20097 0.0379 0.24236 0.11317 0.04139 0.0753 0.06201 0.17835 0.06201 0.31006v0.85835h0.42375v-0.85265c0-0.10536-0.01154-0.20129-0.03411-0.28784 0.04139-0.0489 0.08647-0.0844 0.13539-0.10698 0.04892-0.0226 0.09592-0.0341 0.14108-0.0341 0.09031 0 0.16562 0.036 0.22583 0.10749 0.0602 0.0715 0.09043 0.17459 0.09043 0.31006v1.8743h0.42323v-1.8629c0-0.13547-0.01871-0.25395-0.05633-0.35555-0.03763-0.1016-0.08847-0.186-0.15244-0.25373-0.06021-0.0677-0.13167-0.11857-0.21446-0.15244-0.07902-0.0339-0.16342-0.0512-0.25373-0.0512-0.18439 0-0.35754 0.0662-0.51935 0.19794-0.06773-0.0677-0.15072-0.11663-0.24856-0.14678-0.09408-0.0339-0.19576-0.0512-0.30489-0.0512zm6.1526 0c-0.14676 0-0.30506 0.0115-0.47439 0.0341-0.16557 0.0226-0.33296 0.0547-0.5023 0.0961v2.5456h0.46871v-2.2128c0.07902-0.0151 0.16009-0.0266 0.24288-0.0341 0.08655-0.0113 0.1671-0.0165 0.24236-0.0165 0.09031 0 0.1733 0.011 0.24856 0.0336 0.07902 0.0226 0.14472 0.0638 0.1974 0.12403 0.05644 0.0564 0.0996 0.13752 0.12971 0.24288 0.0301 0.10536 0.04548 0.24252 0.04548 0.41186v1.4511h0.4625v-1.5353c0-0.39887-0.09016-0.68857-0.27078-0.86919-0.17686-0.18063-0.44018-0.27131-0.79013-0.27131zm-53.046 0.0563v2.2128c-0.0113 4e-3 -0.03383 0.01-0.0677 0.0171-0.03387 4e-3 -0.0737 9e-3 -0.11886 0.0165-0.04516 4e-3 -0.09408 7e-3 -0.14676 0.0114-0.04892 4e-3 -0.09784 6e-3 -0.14676 6e-3 -0.22578 0-0.3874-0.0681-0.48524-0.20361-0.09408-0.13547-0.14108-0.36472-0.14108-0.68833v-1.3715h-0.46302v1.4733c-2e-6 0.17686 0.01728 0.33849 0.05116 0.48525 0.03387 0.14675 0.09188 0.27482 0.17467 0.38395 0.08278 0.10537 0.19024 0.18785 0.32194 0.24805 0.1317 0.0565 0.29717 0.0847 0.49661 0.0847 0.22578 0 0.42148-0.0148 0.58705-0.045 0.16933-0.0301 0.30458-0.0584 0.40618-0.0847v-2.5461zm16.933 0v2.2128c-0.0113 4e-3 -0.03383 0.01-0.0677 0.0171-0.03387 4e-3 -0.0737 9e-3 -0.11886 0.0165-0.04516 4e-3 -0.09408 7e-3 -0.14676 0.0114-0.04892 4e-3 -0.09784 6e-3 -0.14676 6e-3 -0.22578 0-0.38741-0.0681-0.48524-0.20361-0.09407-0.13547-0.14108-0.36472-0.14108-0.68833v-1.3715h-0.46302v1.4733c0 0.17686 0.0173 0.33849 0.05116 0.48525 0.03387 0.14675 0.09188 0.27482 0.17467 0.38395 0.08279 0.10537 0.19024 0.18785 0.32194 0.24805 0.1317 0.0565 0.29717 0.0847 0.49661 0.0847 0.22578 0 0.42147-0.0148 0.58705-0.045 0.16933-0.0301 0.30458-0.0584 0.40618-0.0847v-2.5461zm23.65 5.3e-4 0.94258 1.2418c-0.1731 0.21449-0.35009 0.44182-0.53072 0.68264-0.17686 0.23707-0.32748 0.46875-0.45165 0.69453h0.48008c0.04139-0.0715 0.09224-0.15257 0.15244-0.24288 0.06021-0.0903 0.12399-0.1824 0.19172-0.27648 0.07149-0.0978 0.14488-0.19376 0.22014-0.28783 0.07526-0.0941 0.14672-0.18424 0.21446-0.27079 0.06773 0.0828 0.13535 0.17104 0.20309 0.26511 0.0715 0.0941 0.13912 0.19 0.20309 0.28784 0.06397 0.0941 0.1225 0.18615 0.17518 0.27646 0.05645 0.0903 0.10345 0.1733 0.14108 0.24857h0.51935c-0.12042-0.2333-0.26719-0.47024-0.44029-0.71106-0.16933-0.24084-0.33864-0.47252-0.50798-0.69454l0.86351-1.2134h-0.49661l-0.64906 0.91415-0.7059-0.91415zm14.111 0 0.94258 1.2418c-0.1731 0.21449-0.34958 0.44182-0.5302 0.68264-0.17686 0.23707-0.32747 0.46875-0.45165 0.69453h0.47956c0.04139-0.0715 0.09224-0.15257 0.15244-0.24288 0.06021-0.0903 0.1245-0.1824 0.19224-0.27648 0.07149-0.0978 0.14488-0.19376 0.22014-0.28783 0.07526-0.0941 0.14672-0.18424 0.21446-0.27079 0.06773 0.0828 0.13535 0.17104 0.20309 0.26511 0.07149 0.0941 0.13912 0.19 0.20309 0.28784 0.06397 0.0941 0.1225 0.18615 0.17518 0.27646 0.05645 0.0903 0.10345 0.1733 0.14108 0.24857h0.51935c-0.12042-0.2333-0.26719-0.47024-0.44028-0.71106-0.16933-0.24084-0.33864-0.47252-0.50798-0.69454l0.86352-1.2134h-0.49661l-0.64957 0.91415-0.70538-0.91415zm-46.724 0.3328c0.19191 0 0.34585 0.0657 0.4625 0.19739 0.11665 0.12795 0.17518 0.30303 0.17518 0.52505h-1.3885c0.0113-0.0903 0.03575-0.17856 0.07338-0.26511 0.03763-0.0865 0.08847-0.16378 0.15244-0.23151 0.06397-0.0677 0.13928-0.12241 0.22582-0.16382 0.09031-0.0414 0.19008-0.062 0.29921-0.062zm19.755 0c0.19191 0 0.34585 0.0657 0.4625 0.19739 0.11665 0.12795 0.17518 0.30303 0.17518 0.52505h-1.3885c0.0113-0.0903 0.03575-0.17856 0.07338-0.26511 0.03763-0.0865 0.08848-0.16378 0.15244-0.23151 0.06397-0.0677 0.13928-0.12241 0.22583-0.16382 0.09031-0.0414 0.19008-0.062 0.29921-0.062zm-16.984 0.017c0.10913 0 0.21414 0.0226 0.31574 0.0677 0.1016 0.0414 0.17883 0.0865 0.23151 0.1354v1.6593c-0.03763 0.0113-0.09756 0.0228-0.18035 0.0341-0.07902 0.0113-0.17687 0.017-0.29352 0.017-0.22954 0-0.41615-0.083-0.55914-0.24856-0.14299-0.16557-0.21446-0.40058-0.21446-0.70538 0-0.13547 0.01344-0.26162 0.03979-0.37827 0.02633-0.12042 0.06758-0.22211 0.12402-0.3049 0.05644-0.0865 0.12791-0.15415 0.21446-0.20309 0.09031-0.0489 0.19777-0.0734 0.32194-0.0734zm22.577 0c0.21825 0 0.39141 0.0863 0.51935 0.25941 0.12794 0.16934 0.19172 0.40295 0.19172 0.70022 0 0.29351-0.06378 0.5266-0.19172 0.6997-0.12794 0.16933-0.3011 0.25425-0.51935 0.25425-0.21449 0-0.38572-0.0849-0.51366-0.25425-0.12418-0.1731-0.18604-0.40619-0.18604-0.6997 0-0.29727 0.06186-0.53088 0.18604-0.70022 0.12794-0.1731 0.29918-0.25941 0.51366-0.25941zm-20.263 0.3669c-0.12041 0-0.22211 0.0245-0.30489 0.0734-0.07902 0.0489-0.14472 0.10886-0.1974 0.18035-0.05268 0.0715-0.09444 0.14873-0.12454 0.23151-0.0301 0.0828-0.05072 0.15615-0.06201 0.22014l0.32194 0.0904c0.0113-0.0414 0.02614-0.0846 0.04496-0.12971 0.01881-0.0489 0.03943-0.0926 0.06201-0.13022 0.02635-0.0376 0.05849-0.0673 0.09612-0.0899 0.03763-0.0263 0.08271-0.0398 0.13539-0.0398 0.09784 0 0.188 0.0264 0.27078 0.0791 0.08279 0.0527 0.16962 0.10546 0.25993 0.15813 0.07902 0.0489 0.16009 0.094 0.24288 0.13539 0.08655 0.0377 0.18055 0.0563 0.28215 0.0563 0.11665 0 0.21642-0.0245 0.29921-0.0734 0.08279-0.0489 0.15041-0.10885 0.20309-0.18035 0.05644-0.0715 0.09768-0.14873 0.12402-0.23151 0.0301-0.0828 0.05072-0.15614 0.06201-0.22014l-0.32143-0.0904c-0.0113 0.0414-0.02666 0.0865-0.04548 0.13539-0.01881 0.0452-0.04135 0.0864-0.0677 0.12402-0.02257 0.0377-0.05281 0.0698-0.09043 0.0961-0.03763 0.0226-0.08271 0.0341-0.13539 0.0341-0.09407 0-0.18424-0.0264-0.27078-0.0791-0.08279-0.0527-0.16911-0.10546-0.25942-0.15813-0.07902-0.0489-0.16202-0.0921-0.24856-0.12971-0.08278-0.0414-0.17487-0.062-0.27647-0.062zm-25.406 5.0007-0.25425 0.339c0.18815 0.16181 0.35029 0.32343 0.48576 0.48524 0.13923 0.16181 0.25385 0.3292 0.34416 0.50229 0.09031 0.1731 0.15601 0.35394 0.1974 0.54209 0.04515 0.18815 0.0677 0.38768 0.0677 0.59841 0 0.41769-0.09401 0.80332-0.28215 1.157-0.18438 0.35372-0.45155 0.66596-0.8015 0.93689h-0.0057l0.24856 0.33848c0.21449-0.15428 0.40058-0.32551 0.55862-0.51366 0.16181-0.18439 0.29565-0.38009 0.40101-0.58705 0.10913-0.21072 0.18968-0.42896 0.24236-0.65474 0.05645-0.22577 0.08475-0.45502 0.08475-0.68833 0-0.47036-0.10694-0.91645-0.32143-1.3379-0.21073-0.42521-0.53258-0.79791-0.96532-1.1178zm6.6771 0c-0.42898 0.31233-0.75031 0.68118-0.9648 1.1064-0.21449 0.42522-0.32194 0.8713-0.32194 1.3379 0 0.47038 0.10553 0.91786 0.31626 1.3431 0.21449 0.42146 0.53774 0.79223 0.97048 1.1121l0.25425-0.33848c-0.18815-0.16181-0.3517-0.32395-0.49093-0.48576-0.13547-0.1618-0.24869-0.32919-0.339-0.50229-0.08655-0.17309-0.15225-0.35342-0.1974-0.54157-0.04139-0.18815-0.06201-0.38769-0.06201-0.59842 0-0.41768 0.09208-0.80331 0.27647-1.157 0.18439-0.35372 0.45155-0.66596 0.8015-0.93689h0.0057zm21.545 0-0.25373 0.339c0.18815 0.16181 0.34978 0.32343 0.48524 0.48524 0.13923 0.16181 0.25386 0.3292 0.34416 0.50229 0.09031 0.1731 0.15653 0.35394 0.19792 0.54209 0.04515 0.18815 0.0677 0.38768 0.0677 0.59841 0 0.41769-0.094 0.80332-0.28215 1.157-0.18438 0.35372-0.45155 0.66596-0.8015 0.93689h-0.0057l0.24805 0.33848c0.21449-0.15428 0.40109-0.32551 0.55914-0.51366 0.16181-0.18439 0.29513-0.38009 0.40049-0.58705 0.10913-0.21072 0.1902-0.42896 0.24288-0.65474 0.05645-0.22577 0.08475-0.45502 0.08475-0.68833 0-0.47036-0.10746-0.91645-0.32194-1.3379-0.21072-0.42521-0.53258-0.79791-0.96531-1.1178zm-6.937 0.0455-0.46819 0.0791v1.3095c-0.05268-0.0376-0.13183-0.0736-0.2372-0.10749-0.10536-0.0339-0.22767-0.0506-0.3669-0.0506-0.17686 0-0.33516 0.0335-0.47439 0.10129-0.13547 0.0677-0.25201 0.16225-0.34985 0.28267-0.09784 0.12042-0.17315 0.26526-0.22583 0.4346-0.04892 0.16556-0.07338 0.34973-0.07338 0.55293 0 0.21073 0.03023 0.40066 0.09043 0.56999 0.06021 0.16934 0.14512 0.31419 0.25425 0.4346 0.10913 0.11663 0.24053 0.20731 0.39481 0.2713 0.15428 0.064 0.32552 0.0956 0.51366 0.0956 0.21072 0 0.39541-0.0148 0.55345-0.045 0.15805-0.0301 0.28752-0.0603 0.38912-0.0904zm-9.5617 0.38343c-0.06397 0-0.13544 2e-3 -0.21446 6e-3 -0.07526 0-0.15441 4e-3 -0.2372 0.0114-0.07902 8e-3 -0.15958 0.0171-0.24236 0.0284-0.07902 0.0113-0.15241 0.0242-0.22014 0.0393v3.4432h0.4625v-1.3038h0.40669c0.42898 0 0.75083-0.0978 0.96532-0.29352 0.21449-0.19944 0.32143-0.48146 0.32143-0.84646 0-0.16181-0.02638-0.30858-0.07906-0.44029-0.04892-0.1317-0.12563-0.24492-0.231-0.33899-0.1016-0.0979-0.2316-0.17316-0.38964-0.22583-0.15428-0.0527-0.33512-0.0791-0.54208-0.0791zm0.03411 0.40101v5.3e-4c0.48918 0 0.73381 0.23309 0.73381 0.6997 0 0.25965-0.06954 0.44574-0.20877 0.55862-0.13547 0.1129-0.34462 0.1695-0.62684 0.1695h-0.38396v-1.4113c0.04516-8e-3 0.11329-0.0109 0.20361-0.0109 0.09031-4e-3 0.18431-6e-3 0.28215-6e-3zm5.7459 0.44597c-0.15428 0-0.3049 0.0283-0.45165 0.0847-0.14676 0.0564-0.27816 0.14084-0.39481 0.25373s-0.21066 0.25582-0.28216 0.42892c-0.0715 0.17309-0.10749 0.37647-0.10749 0.60978 0 0.19567 0.0283 0.37792 0.08475 0.54725 0.05644 0.16557 0.14084 0.30901 0.25373 0.42943 0.11289 0.12042 0.25441 0.21635 0.42375 0.28784 0.1731 0.0677 0.37212 0.10128 0.5979 0.10128 0.18438 0 0.35037-0.0168 0.49712-0.0506 0.14675-0.0339 0.24793-0.0661 0.30437-0.0961l-0.06201-0.39481c-0.06021 0.0301-0.14845 0.0584-0.2651 0.0847-0.11665 0.0263-0.25766 0.0393-0.42323 0.0393-0.28975 0-0.51567-0.0696-0.67748-0.20877-0.15804-0.143-0.24629-0.35022-0.2651-0.62115h1.8738v-0.1633c0-0.4478-0.09593-0.78117-0.28784-0.99942-0.19191-0.22202-0.46484-0.3328-0.81856-0.3328zm-2.5172 6e-3c-0.39135 0-0.7789 0.0657-1.1627 0.1974v2.4779h0.4625v-2.173c0.23707-0.0639 0.47068-0.0961 0.70022-0.0961 0.10912 0 0.20838 6e-3 0.29869 0.0171 0.09407 8e-3 0.20153 0.0281 0.32194 0.062l0.08475-0.41186c-0.1317-0.0301-0.25209-0.0493-0.36122-0.0568-0.10912-0.0113-0.22375-0.0165-0.34416-0.0165zm10.391 0c-0.19944 0-0.41191 0.0432-0.63769 0.12971v2.5456h0.42323v-2.2407c0.09407-0.0339 0.17899-0.0506 0.25425-0.0506 0.12042 0 0.20097 0.0374 0.24236 0.11265 0.04139 0.0753 0.06201 0.17888 0.06201 0.31058v0.85782h0.42375v-0.85214c0-0.10537-0.01154-0.20129-0.03411-0.28784 0.04139-0.0489 0.08647-0.0849 0.13539-0.10748 0.04892-0.0226 0.09592-0.0341 0.14108-0.0341 0.09031 0 0.16562 0.036 0.22582 0.10749 0.06021 0.0715 0.09043 0.17511 0.09043 0.31057v1.8738h0.42323v-1.8624c3e-6 -0.13547-0.01871-0.25445-0.05633-0.35605-0.03763-0.1016-0.08847-0.186-0.15244-0.25373-0.06021-0.0677-0.13167-0.11858-0.21445-0.15245-0.07902-0.0339-0.16342-0.0506-0.25374-0.0506-0.18438 0-0.35754 0.0657-0.51935 0.1974-0.06773-0.0677-0.15073-0.11662-0.24856-0.14676-0.09407-0.0339-0.19576-0.0506-0.30489-0.0506zm-15.85 0.0558v2.2128c-0.0113 4e-3 -0.03383 0.01-0.0677 0.017-0.03387 4e-3 -0.07319 0.01-0.11834 0.0171-0.04516 4e-3 -0.09408 7e-3 -0.14676 0.0109-0.04892 4e-3 -0.09784 6e-3 -0.14676 6e-3 -0.22578 0-0.3874-0.0676-0.48524-0.20309-0.09407-0.13547-0.14108-0.36523-0.14108-0.68885v-1.3715h-0.46302v1.4733c0 0.17686 0.01678 0.33849 0.05064 0.48524 0.03387 0.14676 0.0924 0.27483 0.17518 0.38396 0.08279 0.10536 0.18972 0.18836 0.32143 0.24856 0.1317 0.0565 0.29769 0.0842 0.49713 0.0842 0.22578 0 0.42148-0.0148 0.58705-0.045 0.16933-0.0301 0.30458-0.0584 0.40618-0.0847v-2.5461zm7.9701 0.3333c0.19191 0 0.34637 0.0662 0.46302 0.19792 0.11665 0.12794 0.17467 0.30302 0.17467 0.52504h-1.3885c0.0113-0.0903 0.03576-0.17907 0.07338-0.26562 0.03763-0.0865 0.08848-0.16378 0.15244-0.23151 0.06397-0.0677 0.13928-0.1219 0.22582-0.1633 0.09031-0.0414 0.19008-0.0625 0.29921-0.0625zm2.7714 0.0171c0.10913 0 0.21466 0.0226 0.31626 0.0677 0.1016 0.0414 0.17883 0.0865 0.23151 0.13539v1.6599c-0.03763 0.0113-0.09808 0.0223-0.18087 0.0336-0.07902 0.0113-0.17687 0.0171-0.29352 0.0171-0.22954 0-0.41563-0.083-0.55862-0.24856-0.14299-0.16558-0.21446-0.40059-0.21446-0.70539 0-0.13546 0.01294-0.26162 0.03928-0.37827 0.02633-0.12041 0.06809-0.2221 0.12454-0.30489 0.05645-0.0865 0.12791-0.15416 0.21446-0.20309 0.09031-0.0489 0.19725-0.0734 0.32143-0.0734zm-31.558 5.3682-0.25425 0.33847c0.18815 0.16181 0.34978 0.32344 0.48524 0.48525 0.13923 0.1618 0.25437 0.32919 0.34468 0.50229s0.15601 0.35394 0.1974 0.54209c0.045155 0.18814 0.067696 0.38769 0.067696 0.59841 0 0.41768-0.094005 0.80332-0.28215 1.157-0.18439 0.3537-0.45155 0.66596-0.8015 0.93689h-0.00568l0.24856 0.339c0.21449-0.15429 0.40058-0.32552 0.55862-0.51367 0.16181-0.18438 0.29513-0.38008 0.40049-0.58704 0.10913-0.21072 0.1902-0.42896 0.24288-0.65474 0.056445-0.22578 0.08475-0.45556 0.08475-0.68885 0-0.47038-0.10746-0.91645-0.32194-1.3379-0.21073-0.42521-0.53206-0.79739-0.9648-1.1172z" fill="#fff"/>
  </clipPath>
 </defs>
 <metadata>
  <rdf:RDF>
   <cc:Work rdf:about="">
    <dc:format>image/svg+xml</dc:format>
    <dc:type rdf:resource="http://purl.org/dc/dcmitype/StillImage"/>
    <dc:title/>
   </cc:Work>
  </rdf:RDF>
 </metadata>
 <g transform="translate(0 -244.08)">
  <rect y="244.08" width="91.281" height="52.917" display="none" fill="url(#linearGradient841)"/>
  <rect x="4.4409e-16" y="244.08" width="91.281" height="52.917" display="none" fill="#42a5f5" fill-opacity=".13502" opacity=".597"/>
  <rect y="244.08" width="91.281" height="52.917" clip-path="url(#clipPath1620)" fill="url(#linearGradient5863)"/>
 </g>
</svg>
