<?xml version="1.0" encoding="UTF-8" standalone="no"?>
<!-- Created with Inkscape (http://www.inkscape.org/) -->

<svg
   xmlns:dc="http://purl.org/dc/elements/1.1/"
   xmlns:cc="http://creativecommons.org/ns#"
   xmlns:rdf="http://www.w3.org/1999/02/22-rdf-syntax-ns#"
   xmlns:svg="http://www.w3.org/2000/svg"
   xmlns="http://www.w3.org/2000/svg"
   xmlns:xlink="http://www.w3.org/1999/xlink"
   xmlns:sodipodi="http://sodipodi.sourceforge.net/DTD/sodipodi-0.dtd"
   xmlns:inkscape="http://www.inkscape.org/namespaces/inkscape"
   width="345"
   height="200"
   viewBox="0 0 91.28125 52.916666"
   version="1.1"
   id="svg8"
   sodipodi:docname="lua.svg"
   inkscape:version="0.92.4 (5da689c313, 2019-01-14)">
  <defs
     id="defs2">
    <linearGradient
       id="linearGradient5877"
       inkscape:collect="always">
      <stop
         id="stop5873"
         offset="0"
         style="stop-color:#ffffff;stop-opacity:0.89873415" />
      <stop
         id="stop5875"
         offset="1"
         style="stop-color:#ffffff;stop-opacity:0;" />
    </linearGradient>
    <linearGradient
       id="linearGradient906"
       inkscape:collect="always">
      <stop
         id="stop902"
         offset="0"
         style="stop-color:#cde8ff;stop-opacity:1" />
      <stop
         id="stop904"
         offset="1"
         style="stop-color:#ffffff;stop-opacity:0;" />
    </linearGradient>
    <linearGradient
       inkscape:collect="always"
       id="linearGradient6991">
      <stop
         style="stop-color:#ffffff;stop-opacity:1;"
         offset="0"
         id="stop6987" />
      <stop
         style="stop-color:#ffffff;stop-opacity:0;"
         offset="1"
         id="stop6989" />
    </linearGradient>
    <clipPath
       clipPathUnits="userSpaceOnUse"
       id="clipPath4694">
      <g
         inkscape:label="Clip"
         id="use4696"
         style="fill:none;fill-opacity:1" />
    </clipPath>
    <linearGradient
       inkscape:collect="always"
       xlink:href="#linearGradient6991"
       id="linearGradient6993"
       x1="0"
       y1="270.54168"
       x2="91.28125"
       y2="270.54168"
       gradientUnits="userSpaceOnUse" />
    <clipPath
       clipPathUnits="userSpaceOnUse"
       id="clipPath7018">
      <g
         inkscape:label="Clip"
         id="use7020">
        <rect
           style="opacity:1;fill:url(#linearGradient7050);fill-opacity:1;stroke:none;stroke-width:0.26458332;stroke-opacity:1"
           id="rect7046"
           width="91.28125"
           height="52.916664"
           x="0"
           y="244.08334" />
      </g>
    </clipPath>
    <linearGradient
       inkscape:collect="always"
       xlink:href="#linearGradient6991"
       id="linearGradient7050"
       gradientUnits="userSpaceOnUse"
       x1="0"
       y1="270.54168"
       x2="91.28125"
       y2="270.54168" />
    <clipPath
       clipPathUnits="userSpaceOnUse"
       id="clipPath7084">
      <g
         id="use7086"
         inkscape:label="Clip">
        <path
           style="display:inline;stroke-width:0.68551093"
           d="m 26.621054,265.69923 -19.2163127,0.008 -0.0014,2.17556 19.2177467,-0.008 z m 9.264282,1.95237 v 1.36976 h 2.286438 v 6.4655 h 1.381711 v -6.4655 h 2.286439 v -1.36976 z m 46.971402,0.25521 v 1.45102 h -0.835905 v 1.18384 h 0.835905 v 2.83224 c 0,0.4024 0.03455,0.7395 0.104191,1.01035 0.06965,0.27085 0.177959,0.48748 0.324994,0.64999 0.147035,0.16251 0.332848,0.27829 0.557268,0.34794 0.23217,0.0696 0.50668,0.10467 0.82396,0.10467 h 1.10308 v -1.12602 h -0.84738 c -0.29407,0 -0.50696,-0.0658 -0.63852,-0.19738 -0.12382,-0.13156 -0.18591,-0.37154 -0.18591,-0.71978 v -2.90201 h 1.69475 v -1.18384 h -1.69475 v -1.45102 z m -39.788523,1.45102 v 1.18384 h 3.667669 c 0.340501,0 0.580474,0.0812 0.71977,0.24375 0.147035,0.1625 0.220805,0.36373 0.220805,0.60362 v 0.46456 H 44.76297 c -0.379195,0 -0.700402,0.0425 -0.963516,0.12761 -0.263114,0.0774 -0.47601,0.19363 -0.638521,0.34841 -0.162512,0.14703 -0.282497,0.32864 -0.359885,0.54532 -0.06965,0.21669 -0.104666,0.4646 -0.104666,0.74319 0,0.5804 0.158736,1.03652 0.476022,1.36928 0.325023,0.33276 0.851183,0.49945 1.578617,0.49945 h 2.86713 c 0.255374,0 0.464539,-0.0234 0.627051,-0.0698 0.170248,-0.0464 0.301908,-0.116 0.394773,-0.20886 0.09286,-0.1006 0.154485,-0.22853 0.185438,-0.3833 0.0387,-0.15477 0.05831,-0.34433 0.05831,-0.56875 v -2.8786 c 0,-0.28633 -0.03875,-0.55337 -0.116138,-0.80101 -0.07738,-0.24764 -0.205313,-0.46054 -0.383302,-0.63852 -0.170252,-0.18573 -0.390609,-0.32859 -0.661463,-0.42919 -0.270854,-0.1006 -0.595791,-0.15102 -0.974985,-0.15102 z m 8.414035,0 c -0.309546,0 -0.529902,0.0696 -0.66146,0.20885 -0.131557,0.13156 -0.197386,0.37947 -0.197386,0.74319 v 5.17699 h 1.230202 v -4.77075 c 0,-0.11608 0.05043,-0.17444 0.151028,-0.17444 h 2.00828 c 0.650048,0 1.11832,0.12792 1.404649,0.3833 0.294069,0.25538 0.441135,0.62653 0.441135,1.11407 v 3.44782 h 1.241674 v -3.44782 c 0,-0.85126 -0.255379,-1.50908 -0.766129,-1.9734 -0.503013,-0.47205 -1.27661,-0.70781 -2.321329,-0.70781 z m 9.716409,0 c -0.820297,0 -1.470652,0.23997 -1.95045,0.71976 -0.472058,0.4798 -0.707822,1.21465 -0.707822,2.20519 0,0.99829 0.235764,1.74155 0.707822,2.22909 0.479798,0.47979 1.130153,0.71976 1.95045,0.71977 h 2.704633 v 0.27815 c 0,0.44111 -0.08918,0.75858 -0.267167,0.95205 -0.177989,0.19347 -0.494986,0.29011 -0.951567,0.29011 h -3.505649 v 1.18432 h 3.644728 c 0.425626,0 0.785586,-0.0467 1.079655,-0.13956 0.301806,-0.0851 0.541781,-0.22425 0.719768,-0.41771 0.185728,-0.19347 0.317388,-0.44511 0.394776,-0.75466 0.08512,-0.30954 0.127609,-0.68118 0.127609,-1.11455 v -3.52858 c 0,-0.88995 -0.19376,-1.54777 -0.580694,-1.9734 -0.379193,-0.43336 -0.936162,-0.64998 -1.671334,-0.64998 z m 7.666074,0 c -0.386937,0 -0.716085,0.0504 -0.986937,0.15102 -0.263113,0.1006 -0.483471,0.24346 -0.661464,0.42919 -0.170246,0.17798 -0.293967,0.39088 -0.371355,0.63852 -0.07739,0.24764 -0.116139,0.51468 -0.116139,0.80101 v 2.08953 c 0,0.29407 0.03873,0.56486 0.116139,0.81249 0.07739,0.2399 0.201109,0.45279 0.371355,0.63852 0.177993,0.17799 0.398351,0.31712 0.661464,0.41772 0.270852,0.1006 0.6,0.15103 0.986937,0.15103 h 3.749395 v -1.1958 h -3.749395 c -0.340507,0 -0.584206,-0.0775 -0.731242,-0.23227 -0.139296,-0.16251 -0.209334,-0.36746 -0.209334,-0.61511 v -0.44113 h 2.913963 c 0.750655,0 1.284277,-0.15079 1.601559,-0.4526 0.317282,-0.30955 0.476026,-0.74654 0.476026,-1.31145 0,-0.59588 -0.162473,-1.05669 -0.487494,-1.38171 -0.325029,-0.33277 -0.851186,-0.49896 -1.578616,-0.49896 z m 6.422956,0 c -0.309542,0 -0.5299,0.0696 -0.661456,0.20885 -0.131563,0.13156 -0.197393,0.37947 -0.197393,0.74319 v 5.17699 h 1.230204 v -4.77075 c 0,-0.11608 0.05045,-0.17444 0.151032,-0.17444 h 2.00828 c 0.650043,0 1.118322,0.12792 1.404646,0.3833 0.294071,0.25538 0.441133,0.62653 0.441133,1.11407 v 3.44782 h 1.241673 v -3.44782 c 0,-0.85126 -0.255373,-1.50908 -0.766127,-1.9734 -0.503007,-0.47205 -1.276606,-0.70781 -2.321325,-0.70781 z m -60.64463,0.59263 c -1.926834,0 -4.9709967,-0.11556 -4.9709967,3.65381 0,2.96662 0.0076,4.52652 0.0076,4.52652 h 6.3460137 l 0.0014,-4.34777 c 0,0 -0.05512,-1.55382 1.620198,-1.62594 1.675252,-0.0721 8.968441,-0.008 8.968441,-0.008 l 9.6e-4,-2.19898 z m 46.671738,0.59121 h 1.218733 c 0.495276,0 0.847292,0.11252 1.056236,0.33694 0.208945,0.22442 0.313526,0.58812 0.313526,1.09112 v 2.14737 h -2.588495 c -0.533965,0 -0.924735,-0.13913 -1.172372,-0.41772 -0.239899,-0.28633 -0.359884,-0.74293 -0.359884,-1.36976 -3e-6,-0.62683 0.119985,-1.0797 0.359884,-1.35829 0.247637,-0.28633 0.638407,-0.42966 1.172372,-0.42966 z m 7.549936,0 h 1.973387 c 0.30181,0 0.522167,0.0696 0.661463,0.20885 0.139296,0.1393 0.208855,0.32511 0.208855,0.55728 0,0.22442 -0.06956,0.40229 -0.208855,0.53385 -0.131556,0.13156 -0.363588,0.19739 -0.696356,0.19739 h -2.87907 v -0.65 c 0,-0.23989 0.07004,-0.44112 0.209334,-0.60362 0.147036,-0.16252 0.390735,-0.24375 0.731242,-0.24375 z m -24.078822,2.28691 h 2.890548 v 1.14896 c 0,0.20894 -0.112524,0.31352 -0.336943,0.31352 H 44.76297 c -0.309546,0 -0.530383,-0.0658 -0.66194,-0.19739 -0.131556,-0.13929 -0.197387,-0.32089 -0.197387,-0.54532 0,-0.22442 0.06583,-0.39856 0.197387,-0.52238 0.131557,-0.13156 0.359858,-0.19739 0.684881,-0.19739 z"
           id="path843"
           inkscape:connector-curvature="0" />
        <rect
           style="display:inline;opacity:1;fill:url(#linearGradient849);fill-opacity:1;stroke:none;stroke-width:0.26458332;stroke-opacity:1"
           id="rect845"
           width="91.28125"
           height="52.916664"
           x="0"
           y="244.08334" />
      </g>
    </clipPath>
    <linearGradient
       inkscape:collect="always"
       xlink:href="#linearGradient906"
       id="linearGradient841"
       gradientUnits="userSpaceOnUse"
       x1="92.604164"
       y1="238.79167"
       x2="-5.2916665"
       y2="314.19794"
       gradientTransform="translate(0,-3.5058594e-6)" />
    <linearGradient
       inkscape:collect="always"
       xlink:href="#linearGradient6991"
       id="linearGradient849"
       gradientUnits="userSpaceOnUse"
       x1="0"
       y1="270.54168"
       x2="91.28125"
       y2="270.54168" />
    <clipPath
       clipPathUnits="userSpaceOnUse"
       id="clipPath5859">
      <path
         style="display:inline;opacity:1;fill:#000000;fill-opacity:1;stroke:none;stroke-width:0.26458332;stroke-opacity:1"
         d="m 32.014583,246.3323 c -0.29315,0 -0.529166,0.23601 -0.529166,0.52916 v 2.11667 c 0,0.29316 0.236016,0.52917 0.529166,0.52917 h 19.05 c 0.293161,0 0.529167,-0.23601 0.529167,-0.52917 v -2.11667 c 0,-0.29315 -0.236006,-0.52916 -0.529167,-0.52916 z m 21.166667,0 c -0.293158,0 -0.529167,0.23601 -0.529167,0.52916 v 2.11667 14.81667 2.11666 0.014 c 0,0.28545 0.229775,0.51521 0.515216,0.51521 h 0.01395 2.130618 1.044382 0.396875 v 0.92604 h -3.395657 -0.264584 c -0.317582,0 -0.573092,0.25551 -0.573092,0.57309 v 6.52674 c 0,0.31759 0.25551,0.57309 0.573092,0.57309 h 2.293398 c 0.31759,0 0.573093,-0.2555 0.573093,-0.57309 v -3.66024 h 3.660241 c 0.317589,0 0.573092,-0.25551 0.573092,-0.5731 v -0.26458 -10.49548 c 0,-0.31759 -0.255503,-0.57309 -0.573092,-0.57309 h -2.293398 c -0.31759,0 -0.573093,0.2555 -0.573093,0.57309 v 3.79253 H 56.35625 55.827083 V 249.5073 H 72.23125 c 0.293161,0 0.529167,-0.23601 0.529167,-0.52917 v -2.11667 c 0,-0.29315 -0.236006,-0.52916 -0.529167,-0.52916 z m 4.144968,4.10104 c -0.31759,0 -0.573093,0.2555 -0.573093,0.57309 v 6.26215 0.30851 c 0,0.29315 0.236006,0.52917 0.529167,0.52917 h 3.175 0.661458 v 3.57187 c 0,0.29316 0.236006,0.52917 0.529167,0.52917 h 2.116666 c 0.293161,0 0.529167,-0.23601 0.529167,-0.52917 v -7.9375 h 1.058333 v 7.9375 c 0,0.29316 0.236009,0.52917 0.529167,0.52917 h 2.116667 c 0.293147,0 0.529166,-0.23601 0.529166,-0.52917 v -3.57187 h 0.661459 0.837676 2.293398 c 0.317589,0 0.573092,-0.25551 0.573092,-0.5731 v -6.52673 c 0,-0.31759 -0.255503,-0.57309 -0.573092,-0.57309 h -2.293398 c -0.31759,0 -0.573093,0.2555 -0.573093,0.57309 v 3.66024 h -0.529167 -0.396875 v -1.4552 -2.11667 c 0,-0.29316 -0.236008,-0.52917 -0.529166,-0.52917 H 65.88125 61.647917 c -0.293161,0 -0.529167,0.23601 -0.529167,0.52917 v 2.11667 1.4552 h -0.661458 -0.264584 v -3.66024 c 0,-0.31759 -0.255503,-0.57309 -0.573092,-0.57309 z m -38.011635,0.13229 c -0.29315,0 -0.529167,0.23601 -0.529167,0.52917 v 2.11667 c 0,0.29315 0.236017,0.52916 0.529167,0.52916 h 12.038542 v 0.66146 0.83767 2.33733 1.32292 h -0.264583 -0.661459 v -1.45521 -2.11667 c 0,-0.29317 -0.236008,-0.52917 -0.529166,-0.52917 H 27.78125 23.547916 c -0.29317,0 -0.529166,0.236 -0.529166,0.52917 v 2.11667 1.45521 h -0.661459 -0.264583 v -3.66025 c 0,-0.31759 -0.255501,-0.57309 -0.573092,-0.57309 h -2.2934 c -0.31759,0 -0.573091,0.2555 -0.573091,0.57309 v 6.52674 c 0,0.31759 0.255501,0.57309 0.573091,0.57309 h 2.2934 0.837675 0.661459 v 3.57187 c 0,0.29316 0.236006,0.52917 0.529166,0.52917 h 2.116667 c 0.29316,0 0.529167,-0.23601 0.529167,-0.52917 v -7.9375 h 1.058333 v 7.9375 c 0,0.29316 0.236009,0.52917 0.529167,0.52917 h 2.116667 c 0.293158,0 0.529166,-0.23601 0.529166,-0.52917 v -3.57187 h 0.661459 0.837676 2.293398 c 0.317589,0 0.573092,-0.2555 0.573092,-0.57309 v -4.45399 -2.07275 -1.10225 -0.39688 h 0.926042 v 13.75833 h -0.529167 -0.396875 v -3.79253 c 0,-0.31759 -0.255503,-0.57309 -0.573092,-0.57309 h -2.293398 c -0.31759,0 -0.573093,0.2555 -0.573093,0.57309 v 10.76007 c 0,0.31759 0.255503,0.57309 0.573093,0.57309 h 2.293398 1.366842 v 3.39566 c 0,0.31759 0.255503,0.57309 0.573093,0.57309 h 2.293398 c 0.317582,0 0.573093,-0.2555 0.573093,-0.57309 v -6.26215 c 0,-0.31759 -0.255511,-0.57309 -0.573093,-0.57309 h -2.293398 -1.366843 v -0.92605 h 0.396875 1.058334 2.116666 c 0.293161,0 0.529167,-0.23601 0.529167,-0.52916 v -2.11667 -14.81666 -2.11667 c 0,-0.29316 -0.236006,-0.52917 -0.529167,-0.52917 h -2.116666 z m 55.131002,4.23333 c -0.34716,0 -0.626835,0.27968 -0.626835,0.62684 v 20.53983 h -3.704167 c -0.29315,0 -0.529166,0.23601 -0.529166,0.52917 v 2.11666 8.46667 c 0,0.29316 0.236005,0.52917 0.529166,0.52917 h 2.116667 c 0.293161,0 0.529167,-0.23601 0.529167,-0.52917 v -3.57187 h 0.661458 3.175 c 0.293161,0 0.529167,-0.23602 0.529167,-0.52917 v -2.38125 c 0,-0.29316 -0.236006,-0.52917 -0.529167,-0.52917 h -3.175 -0.661458 v -0.92604 h 3.704166 c 0.293161,0 0.529167,-0.236 0.529167,-0.52917 v -0.62683 -1.48983 -21.069 c 0,-0.34716 -0.279673,-0.62684 -0.626835,-0.62684 z M 15.08125,259.0323 c -0.29316,0 -0.529167,0.236 -0.529167,0.52916 v 23.01875 0.26459 c 0,0.29316 0.236007,0.52916 0.529167,0.52916 h 3.704166 v 0.92605 h -0.661458 -3.175 c -0.29316,0 -0.529167,0.236 -0.529167,0.52916 v 2.38125 c 0,0.29316 0.236007,0.52917 0.529167,0.52917 h 3.175 0.661458 v 3.57187 c 0,0.29317 0.236007,0.52917 0.529167,0.52917 h 2.116667 c 0.29316,0 0.529166,-0.236 0.529166,-0.52917 v -8.46666 -2.11667 c 0,-0.0366 -0.004,-0.0725 -0.01085,-0.10697 -0.0492,-0.24157 -0.261803,-0.42219 -0.518313,-0.42219 h -2.116667 -1.5875 v -20.63751 c 0,-0.29316 -0.236016,-0.52916 -0.529167,-0.52916 z m 25.664583,0 c -0.439729,0 -0.79375,0.35401 -0.79375,0.79375 v 24.47396 h -0.661458 -3.175 c -0.293161,0 -0.529167,0.236 -0.529167,0.52916 v 2.38125 c 0,0.29316 0.236006,0.52917 0.529167,0.52917 h 3.175 0.661458 v 0.92604 H 27.669628 c -0.231439,0 -0.417545,0.18612 -0.417545,0.41755 v 2.33991 c 0,0.23143 0.186106,0.41754 0.417545,0.41754 h 15.039911 c 0.231439,0 0.417544,-0.18611 0.417544,-0.41754 v -0.64079 -30.95625 c 0,-0.43974 -0.35401,-0.79375 -0.79375,-0.79375 z m 29.36875,0 c -0.293161,0 -0.529166,0.236 -0.529166,0.52916 v 3.70417 h -7.9375 c -0.293161,0 -0.529167,0.23601 -0.529167,0.52917 v 2.11666 8.46667 c 0,0.29316 0.236006,0.52917 0.529167,0.52917 h 2.116666 c 0.293161,0 0.529167,-0.23601 0.529167,-0.52917 v -7.9375 h 5.291667 v 0.92604 h -0.661459 -3.175 c -0.293161,0 -0.529166,0.23601 -0.529166,0.52917 v 2.38125 c 0,0.29315 0.236005,0.52917 0.529166,0.52917 h 3.175 0.661459 v 3.57187 c 0,0.29316 0.236005,0.52917 0.529166,0.52917 h 2.116667 c 0.293161,0 0.529167,-0.23601 0.529167,-0.52917 v -14.81667 c 0,-0.29316 -0.236006,-0.52916 -0.529167,-0.52916 z m -50.8,4.23333 c -0.29316,0 -0.529167,0.23601 -0.529167,0.52917 v 14.81666 c 0,0.29317 0.236007,0.52917 0.529167,0.52917 h 2.116667 c 0.29316,0 0.529166,-0.236 0.529166,-0.52917 v -3.57187 h 0.661459 3.175 c 0.29316,0 0.529166,-0.23601 0.529166,-0.52917 v -2.38125 c 0,-0.29316 -0.236006,-0.52916 -0.529166,-0.52916 h -3.175 -0.661459 v -0.92605 h 5.291667 v 7.9375 c 0,0.29317 0.236009,0.52917 0.529167,0.52917 h 2.116667 c 0.293158,0 0.529166,-0.236 0.529166,-0.52917 v -8.46666 -2.11667 c 0,-0.0366 -0.004,-0.0725 -0.01085,-0.10697 -0.0492,-0.24157 -0.26181,-0.4222 -0.518318,-0.4222 H 27.78125 21.960416 v -3.70416 c 0,-0.29316 -0.236006,-0.52917 -0.529166,-0.52917 z m 37.967709,8.33438 c -0.293161,0 -0.529167,0.236 -0.529167,0.52916 v 3.175 0.66146 H 53.18125 c -0.293158,0 -0.529167,0.23601 -0.529167,0.52917 v 2.11666 c 0,0.29317 0.236009,0.52917 0.529167,0.52917 h 8.466667 2.38125 0.79375 0.396875 v 3.79253 c 0,0.31759 0.25551,0.5731 0.573092,0.5731 h 2.293398 c 0.31759,0 0.573093,-0.25551 0.573093,-0.5731 V 272.1731 c 0,-0.31759 -0.255503,-0.57309 -0.573093,-0.57309 h -2.293398 c -0.317582,0 -0.573092,0.2555 -0.573092,0.57309 v 3.79253 h -0.396875 -0.79375 -2.38125 -1.455209 v -0.66146 -3.175 c 0,-0.29316 -0.236005,-0.52916 -0.529166,-0.52916 z m -33.822742,4.23333 c -0.31759,0 -0.573092,0.2555 -0.573092,0.57309 v 19.22673 c 0,0.31759 0.255502,0.5731 0.573092,0.5731 h 2.2934 21.166666 c 0.317589,0 0.573092,-0.25551 0.573092,-0.5731 v -2.29339 c 0,-0.31759 -0.255503,-0.5731 -0.573092,-0.5731 H 26.326041 v -9.39271 h 0.396876 1.058333 2.116667 8.466666 c 0.293161,0 0.529167,-0.23601 0.529167,-0.52916 v -2.11667 c 0,-0.29315 -0.236006,-0.52916 -0.529167,-0.52916 h -3.571875 v -0.66146 -3.175 c 0,-0.29316 -0.236005,-0.52917 -0.529166,-0.52917 h -2.38125 c -0.293161,0 -0.529167,0.23601 -0.529167,0.52917 v 3.175 0.66146 H 29.897917 27.78125 26.722917 26.326041 v -3.79254 c 0,-0.31759 -0.255501,-0.57309 -0.573091,-0.57309 z m 38.056075,4.23333 c -0.29315,0 -0.529167,0.23601 -0.529167,0.52917 v 3.175 0.66146 h -3.571875 c -0.293161,0 -0.529166,0.236 -0.529166,0.52917 v 2.11666 c 0,0.29316 0.236005,0.52917 0.529166,0.52917 h 7.9375 v 3.43958 0.26458 c 0,0.29317 0.236009,0.52917 0.529167,0.52917 h 10.583333 c 0.293161,0 0.529167,-0.236 0.529167,-0.52917 v -2.11666 c 0,-0.29316 -0.236006,-0.52917 -0.529167,-0.52917 h -7.9375 v -1.5875 -2.11666 c 0,-0.29317 -0.236008,-0.52917 -0.529166,-0.52917 H 65.88125 64.426042 v -0.66146 -3.175 c 0,-0.29316 -0.236006,-0.52917 -0.529167,-0.52917 z m 0.132292,8.59896 c -0.293161,0 -0.529167,0.23601 -0.529167,0.52917 v 6.08541 0.26459 c 0,0.29316 0.236006,0.52916 0.529167,0.52916 H 72.23125 c 0.293161,0 0.529167,-0.236 0.529167,-0.52916 v -2.11667 c 0,-0.29316 -0.236006,-0.52916 -0.529167,-0.52916 h -7.9375 v -3.70417 c 0,-0.29316 -0.236006,-0.52917 -0.529167,-0.52917 z"
         id="path5861"
         inkscape:connector-curvature="0" />
    </clipPath>
    <linearGradient
       inkscape:collect="always"
       xlink:href="#linearGradient5877"
       id="linearGradient5863"
       gradientUnits="userSpaceOnUse"
       gradientTransform="translate(0.03307292,0.01653295)"
       x1="72.760422"
       y1="255.98959"
       x2="34.395836"
       y2="303.61459" />
    <linearGradient
       inkscape:collect="always"
       xlink:href="#linearGradient5877"
       id="linearGradient5863-5"
       gradientUnits="userSpaceOnUse"
       gradientTransform="translate(0.03307282,0.01652328)"
       x1="86.979164"
       y1="249.25439"
       x2="41.224571"
       y2="286.40244" />
    <clipPath
       clipPathUnits="userSpaceOnUse"
       id="clipPath1975">
      <path
         d="m 46.165648,261.3748 v 3.22964 h 3.229634 v 0.9857 h -3.229634 v 3.22964 h -0.974111 v -3.22964 h -3.229634 v -0.9857 h 3.229634 v -3.22964 z"
         style="display:inline;fill:#ffffff;fill-opacity:1;stroke-width:0.29687136"
         id="path1977"
         inkscape:connector-curvature="0"
         inkscape:transform-center-x="-0.18708867"
         inkscape:transform-center-y="-1.403165" />
    </clipPath>
    <clipPath
       clipPathUnits="userSpaceOnUse"
       id="clipPath1979">
      <path
         style="display:inline;fill:#000000;fill-opacity:1;stroke:none;stroke-width:0.17236824px;stroke-linecap:butt;stroke-linejoin:miter;stroke-opacity:1"
         d="m 22.031183,253.06139 c -0.401273,-0.0139 -0.848803,0.0685 -1.332218,0.30489 l -7.405233,3.70417 h 12.351184 c 1.245649,-0.0504 1.778779,0.41015 2.097546,0.7183 l -3.853511,-3.85351 c -0.316848,-0.34696 -0.974968,-0.84332 -1.857768,-0.87385 z m -8.742619,4.00906 0.001,12.58683 c 0.01143,1.30643 0.231328,1.44804 0.676961,1.98127 l 4.879806,4.87981 h 9.72447 v -4.16719 z"
         id="path1981"
         inkscape:connector-curvature="0" />
    </clipPath>
    <clipPath
       clipPathUnits="userSpaceOnUse"
       id="clipPath1983">
      <path
         style="display:inline;fill:#ffffff;fill-opacity:1;stroke:none;stroke-width:0.17236824px;stroke-linecap:butt;stroke-linejoin:miter;stroke-opacity:1"
         d="m 13.288564,257.07045 15.282271,15.2802 h 4.166672 v -9.56995 l -4.938718,-4.93769 c -0.312322,-0.3047 -0.836014,-0.82585 -2.153873,-0.77256 z m 0,0 -3.4385496,7.16545 c -0.2736754,0.64878 -1.2161379,2.14642 0.3937746,3.67988 l 3.72277,3.72277 c -0.445634,-0.53323 -0.665535,-0.67484 -0.676962,-1.98127 z"
         id="path1985"
         inkscape:connector-curvature="0" />
    </clipPath>
    <clipPath
       clipPathUnits="userSpaceOnUse"
       id="clipPath1990">
      <path
         style="display:inline;fill:#ffffff;fill-opacity:1;stroke-width:0.02573495"
         d="m 79.76771,253.28568 a 2.6625378,2.6625378 0 0 0 -2.662885,2.66236 2.6625378,2.6625378 0 0 0 2.662885,2.66289 2.6625378,2.6625378 0 0 0 2.66237,-2.66289 2.6625378,2.6625378 0 0 0 -2.66237,-2.66236 z m -9.090403,2.66236 a 9.0898416,9.0898416 0 0 0 -9.089885,9.08989 9.0898416,9.0898416 0 0 0 9.089885,9.08988 9.0898416,9.0898416 0 0 0 9.089888,-9.08988 9.0898416,9.0898416 0 0 0 -9.089888,-9.08989 z m 3.765664,2.66289 a 2.6622806,2.6622806 0 0 1 2.661854,2.66185 2.6622806,2.6622806 0 0 1 -2.661854,2.66237 2.6622806,2.6622806 0 0 1 -2.66237,-2.66237 2.6622806,2.6622806 0 0 1 2.66237,-2.66185 z"
         id="path1992"
         inkscape:connector-curvature="0"
         clip-path="none" />
    </clipPath>
    <linearGradient
       inkscape:collect="always"
       xlink:href="#linearGradient5877"
       id="linearGradient1998"
       gradientUnits="userSpaceOnUse"
       gradientTransform="translate(0.03307282,0.01652328)"
       x1="55.69463"
       y1="242.76042"
       x2="4.5640635"
       y2="281.98492" />
    <linearGradient
       inkscape:collect="always"
       xlink:href="#linearGradient5877"
       id="linearGradient2000"
       gradientUnits="userSpaceOnUse"
       gradientTransform="translate(0.03307292,0.01653295)"
       x1="75.670837"
       y1="227.67918"
       x2="-12.357723"
       y2="301.15631" />
    <linearGradient
       inkscape:collect="always"
       xlink:href="#linearGradient5877"
       id="linearGradient2002"
       gradientUnits="userSpaceOnUse"
       gradientTransform="translate(0.03307282,0.01652328)"
       x1="72.760422"
       y1="255.98959"
       x2="34.395836"
       y2="303.61459" />
    <linearGradient
       inkscape:collect="always"
       xlink:href="#linearGradient5877"
       id="linearGradient2004"
       gradientUnits="userSpaceOnUse"
       gradientTransform="translate(0.03307282,0.01652328)"
       x1="87.841667"
       y1="244.87709"
       x2="41.804169"
       y2="285.75522" />
    <clipPath
       clipPathUnits="userSpaceOnUse"
       id="clipPath2948">
      <path
         style="display:inline;fill:#000000;fill-opacity:1;stroke-width:0.02573495"
         d="m 70.728983,252.83092 c -6.725584,-8e-5 -12.177739,5.46873 -12.177551,12.21476 9.8e-5,6.74583 5.452171,12.21432 12.177551,12.21424 6.725385,9e-5 12.177458,-5.46841 12.177556,-12.21424 -0.0037,-2.37892 -0.699804,-4.70499 -2.00298,-6.69261 -0.285046,0.13482 -0.591773,0.21793 -0.905889,0.24546 1.297226,1.87679 1.99399,4.10222 1.99833,6.38256 1.19e-4,6.22686 -5.055442,11.27478 -11.291822,11.27476 -6.236176,-2.7e-4 -11.291419,-5.04811 -11.2913,-11.27476 1.64e-4,-6.22645 5.055322,-11.27398 11.2913,-11.27425 2.29117,9e-4 4.527868,0.69767 6.41305,1.99781 0.02926,-0.31107 0.113052,-0.61457 0.247529,-0.89659 -1.974665,-1.28905 -4.279739,-1.97585 -6.635774,-1.97714 z"
         id="path2950"
         inkscape:connector-curvature="0"
         sodipodi:nodetypes="ccccccccccccc" />
    </clipPath>
  </defs>
  <sodipodi:namedview
     id="base"
     pagecolor="#303d4f"
     bordercolor="#666666"
     borderopacity="1.0"
     inkscape:pageopacity="0"
     inkscape:pageshadow="2"
     inkscape:zoom="45.254834"
     inkscape:cx="168.41362"
     inkscape:cy="115.7985"
     inkscape:document-units="mm"
     inkscape:current-layer="layer1"
     showgrid="true"
     units="px"
     inkscape:window-width="1542"
     inkscape:window-height="1377"
     inkscape:window-x="1016"
     inkscape:window-y="0"
     inkscape:window-maximized="0"
     showguides="false"
     inkscape:guide-bbox="true"
     objecttolerance="1">
    <inkscape:grid
       type="xygrid"
       id="grid4518"
       color="#ffffff"
       opacity="0.03137255"
       empcolor="#ffffff"
       empopacity="0.01568627"
       enabled="false"
       empspacing="1"
       spacingx="0.13229167"
       spacingy="0.13229167" />
    <sodipodi:guide
       position="45.657,52.900122"
       orientation="1,0"
       id="guide1862"
       inkscape:locked="false"
       inkscape:label=""
       inkscape:color="rgb(0,0,255)" />
    <sodipodi:guide
       position="48.035016,31.898618"
       orientation="0,1"
       id="guide1864"
       inkscape:locked="false"
       inkscape:label=""
       inkscape:color="rgb(0,0,255)" />
  </sodipodi:namedview>
  <metadata
     id="metadata5">
    <rdf:RDF>
      <cc:Work
         rdf:about="">
        <dc:format>image/svg+xml</dc:format>
        <dc:type
           rdf:resource="http://purl.org/dc/dcmitype/StillImage" />
        <dc:title />
      </cc:Work>
    </rdf:RDF>
  </metadata>
  <g
     inkscape:label="Layer 1"
     inkscape:groupmode="layer"
     id="layer1"
     transform="translate(0,-244.08334)"
     style="display:inline">
    <rect
       mask="none"
       clip-path="none"
       style="display:none;opacity:1;fill:url(#linearGradient841);fill-opacity:1;stroke:none;stroke-width:0.26458332;stroke-opacity:1"
       id="rect4525"
       width="91.28125"
       height="52.916664"
       x="0"
       y="244.08334" />
    <rect
       style="display:none;opacity:0.597;fill:#42a5f5;fill-opacity:0.13502108;stroke:none;stroke-width:0.26458332;stroke-opacity:1"
       id="rect4520"
       width="91.28125"
       height="52.916664"
       x="4.4408921e-16"
       y="244.08334" />
    <rect
       mask="none"
       clip-path="url(#clipPath1983)"
       style="display:inline;opacity:1;fill:url(#linearGradient1998);fill-opacity:1;stroke:none;stroke-width:0.26458332;stroke-opacity:1"
       id="rect1973"
       width="91.28125"
       height="52.916668"
       x="0.033072915"
       y="244.09988"
       transform="translate(0.0010031,4.4405431)" />
    <rect
       y="244.09988"
       x="0.033072915"
       height="52.916664"
       width="91.28125"
       id="rect6985"
       style="display:inline;opacity:1;fill:url(#linearGradient2000);fill-opacity:1;stroke:none;stroke-width:0.26458332;stroke-opacity:1"
       clip-path="url(#clipPath1979)"
       mask="none"
       transform="translate(0.0010031,4.4405431)" />
    <rect
       y="244.09988"
       x="0.033072915"
       height="52.916668"
       width="91.28125"
       id="rect6985-8"
       style="display:inline;opacity:1;fill:url(#linearGradient2002);fill-opacity:1;stroke:none;stroke-width:0.26458332;stroke-opacity:1"
       clip-path="url(#clipPath1975)"
       mask="none"
       transform="translate(0.0010031,4.4405431)" />
    <rect
       mask="none"
       clip-path="url(#clipPath2948)"
       style="display:inline;opacity:1;fill:url(#linearGradient2004);fill-opacity:1;stroke:none;stroke-width:0.26458332;stroke-opacity:1"
       id="rect1967"
       width="91.28125"
       height="52.916668"
       x="0.033072915"
       y="244.09988"
       transform="translate(0.0010031,4.4405431)" />
    <rect
       y="244.09988"
       x="0.033072915"
       height="52.916668"
       width="91.28125"
       id="rect1988"
       style="display:inline;opacity:1;fill:url(#linearGradient5863-5);fill-opacity:1;stroke:none;stroke-width:0.26458332;stroke-opacity:1"
       clip-path="url(#clipPath1990)"
       mask="none"
       transform="translate(0.0010031,4.4405431)" />
  </g>
</svg>
