<?xml version="1.0" encoding="UTF-8" standalone="no"?>
<!-- Created with Inkscape (http://www.inkscape.org/) -->

<svg
   width="345"
   height="200"
   viewBox="0 0 91.28125 52.916666"
   version="1.1"
   id="svg8"
   sodipodi:docname="puro.svg"
   inkscape:version="1.2.2 (b0a8486541, 2022-12-01)"
   xml:space="preserve"
   xmlns:inkscape="http://www.inkscape.org/namespaces/inkscape"
   xmlns:sodipodi="http://sodipodi.sourceforge.net/DTD/sodipodi-0.dtd"
   xmlns:xlink="http://www.w3.org/1999/xlink"
   xmlns="http://www.w3.org/2000/svg"
   xmlns:svg="http://www.w3.org/2000/svg"
   xmlns:rdf="http://www.w3.org/1999/02/22-rdf-syntax-ns#"
   xmlns:cc="http://creativecommons.org/ns#"
   xmlns:dc="http://purl.org/dc/elements/1.1/"><defs
     id="defs2"><linearGradient
       inkscape:collect="always"
       id="linearGradient15530"><stop
         style="stop-color:#ffffff;stop-opacity:1;"
         offset="0"
         id="stop15526" /><stop
         style="stop-color:#ffffff;stop-opacity:0;"
         offset="1"
         id="stop15528" /></linearGradient><linearGradient
       inkscape:collect="always"
       id="linearGradient15522"><stop
         style="stop-color:#ffffff;stop-opacity:1;"
         offset="0"
         id="stop15518" /><stop
         style="stop-color:#ffffff;stop-opacity:0;"
         offset="1"
         id="stop15520" /></linearGradient><linearGradient
       inkscape:collect="always"
       id="linearGradient6991"><stop
         style="stop-color:#ffffff;stop-opacity:1;"
         offset="0"
         id="stop6987" /><stop
         style="stop-color:#ffffff;stop-opacity:0;"
         offset="1"
         id="stop6989" /></linearGradient><clipPath
       clipPathUnits="userSpaceOnUse"
       id="clipPath4694"><g
         inkscape:label="Clip"
         id="use4696"
         style="fill:none;fill-opacity:1" /></clipPath><linearGradient
       inkscape:collect="always"
       xlink:href="#linearGradient6991"
       id="linearGradient6993"
       x1="0"
       y1="270.54168"
       x2="91.28125"
       y2="270.54168"
       gradientUnits="userSpaceOnUse" /><clipPath
       clipPathUnits="userSpaceOnUse"
       id="clipPath7018"><g
         inkscape:label="Clip"
         id="use7020"><rect
           style="opacity:1;fill:url(#linearGradient7050);fill-opacity:1;stroke:none;stroke-width:0.26458332;stroke-opacity:1"
           id="rect7046"
           width="91.28125"
           height="52.916664"
           x="0"
           y="244.08334" /></g></clipPath><linearGradient
       inkscape:collect="always"
       xlink:href="#linearGradient6991"
       id="linearGradient7050"
       gradientUnits="userSpaceOnUse"
       x1="0"
       y1="270.54168"
       x2="91.28125"
       y2="270.54168" /><clipPath
       clipPathUnits="userSpaceOnUse"
       id="clipPath7084"><g
         id="use7086"
         inkscape:label="Clip"><path
           style="display:inline;stroke-width:0.68551093"
           d="m 26.621054,265.69923 -19.2163127,0.008 -0.0014,2.17556 19.2177467,-0.008 z m 9.264282,1.95237 v 1.36976 h 2.286438 v 6.4655 h 1.381711 v -6.4655 h 2.286439 v -1.36976 z m 46.971402,0.25521 v 1.45102 h -0.835905 v 1.18384 h 0.835905 v 2.83224 c 0,0.4024 0.03455,0.7395 0.104191,1.01035 0.06965,0.27085 0.177959,0.48748 0.324994,0.64999 0.147035,0.16251 0.332848,0.27829 0.557268,0.34794 0.23217,0.0696 0.50668,0.10467 0.82396,0.10467 h 1.10308 v -1.12602 h -0.84738 c -0.29407,0 -0.50696,-0.0658 -0.63852,-0.19738 -0.12382,-0.13156 -0.18591,-0.37154 -0.18591,-0.71978 v -2.90201 h 1.69475 v -1.18384 h -1.69475 v -1.45102 z m -39.788523,1.45102 v 1.18384 h 3.667669 c 0.340501,0 0.580474,0.0812 0.71977,0.24375 0.147035,0.1625 0.220805,0.36373 0.220805,0.60362 v 0.46456 H 44.76297 c -0.379195,0 -0.700402,0.0425 -0.963516,0.12761 -0.263114,0.0774 -0.47601,0.19363 -0.638521,0.34841 -0.162512,0.14703 -0.282497,0.32864 -0.359885,0.54532 -0.06965,0.21669 -0.104666,0.4646 -0.104666,0.74319 0,0.5804 0.158736,1.03652 0.476022,1.36928 0.325023,0.33276 0.851183,0.49945 1.578617,0.49945 h 2.86713 c 0.255374,0 0.464539,-0.0234 0.627051,-0.0698 0.170248,-0.0464 0.301908,-0.116 0.394773,-0.20886 0.09286,-0.1006 0.154485,-0.22853 0.185438,-0.3833 0.0387,-0.15477 0.05831,-0.34433 0.05831,-0.56875 v -2.8786 c 0,-0.28633 -0.03875,-0.55337 -0.116138,-0.80101 -0.07738,-0.24764 -0.205313,-0.46054 -0.383302,-0.63852 -0.170252,-0.18573 -0.390609,-0.32859 -0.661463,-0.42919 -0.270854,-0.1006 -0.595791,-0.15102 -0.974985,-0.15102 z m 8.414035,0 c -0.309546,0 -0.529902,0.0696 -0.66146,0.20885 -0.131557,0.13156 -0.197386,0.37947 -0.197386,0.74319 v 5.17699 h 1.230202 v -4.77075 c 0,-0.11608 0.05043,-0.17444 0.151028,-0.17444 h 2.00828 c 0.650048,0 1.11832,0.12792 1.404649,0.3833 0.294069,0.25538 0.441135,0.62653 0.441135,1.11407 v 3.44782 h 1.241674 v -3.44782 c 0,-0.85126 -0.255379,-1.50908 -0.766129,-1.9734 -0.503013,-0.47205 -1.27661,-0.70781 -2.321329,-0.70781 z m 9.716409,0 c -0.820297,0 -1.470652,0.23997 -1.95045,0.71976 -0.472058,0.4798 -0.707822,1.21465 -0.707822,2.20519 0,0.99829 0.235764,1.74155 0.707822,2.22909 0.479798,0.47979 1.130153,0.71976 1.95045,0.71977 h 2.704633 v 0.27815 c 0,0.44111 -0.08918,0.75858 -0.267167,0.95205 -0.177989,0.19347 -0.494986,0.29011 -0.951567,0.29011 h -3.505649 v 1.18432 h 3.644728 c 0.425626,0 0.785586,-0.0467 1.079655,-0.13956 0.301806,-0.0851 0.541781,-0.22425 0.719768,-0.41771 0.185728,-0.19347 0.317388,-0.44511 0.394776,-0.75466 0.08512,-0.30954 0.127609,-0.68118 0.127609,-1.11455 v -3.52858 c 0,-0.88995 -0.19376,-1.54777 -0.580694,-1.9734 -0.379193,-0.43336 -0.936162,-0.64998 -1.671334,-0.64998 z m 7.666074,0 c -0.386937,0 -0.716085,0.0504 -0.986937,0.15102 -0.263113,0.1006 -0.483471,0.24346 -0.661464,0.42919 -0.170246,0.17798 -0.293967,0.39088 -0.371355,0.63852 -0.07739,0.24764 -0.116139,0.51468 -0.116139,0.80101 v 2.08953 c 0,0.29407 0.03873,0.56486 0.116139,0.81249 0.07739,0.2399 0.201109,0.45279 0.371355,0.63852 0.177993,0.17799 0.398351,0.31712 0.661464,0.41772 0.270852,0.1006 0.6,0.15103 0.986937,0.15103 h 3.749395 v -1.1958 h -3.749395 c -0.340507,0 -0.584206,-0.0775 -0.731242,-0.23227 -0.139296,-0.16251 -0.209334,-0.36746 -0.209334,-0.61511 v -0.44113 h 2.913963 c 0.750655,0 1.284277,-0.15079 1.601559,-0.4526 0.317282,-0.30955 0.476026,-0.74654 0.476026,-1.31145 0,-0.59588 -0.162473,-1.05669 -0.487494,-1.38171 -0.325029,-0.33277 -0.851186,-0.49896 -1.578616,-0.49896 z m 6.422956,0 c -0.309542,0 -0.5299,0.0696 -0.661456,0.20885 -0.131563,0.13156 -0.197393,0.37947 -0.197393,0.74319 v 5.17699 h 1.230204 v -4.77075 c 0,-0.11608 0.05045,-0.17444 0.151032,-0.17444 h 2.00828 c 0.650043,0 1.118322,0.12792 1.404646,0.3833 0.294071,0.25538 0.441133,0.62653 0.441133,1.11407 v 3.44782 h 1.241673 v -3.44782 c 0,-0.85126 -0.255373,-1.50908 -0.766127,-1.9734 -0.503007,-0.47205 -1.276606,-0.70781 -2.321325,-0.70781 z m -60.64463,0.59263 c -1.926834,0 -4.9709967,-0.11556 -4.9709967,3.65381 0,2.96662 0.0076,4.52652 0.0076,4.52652 h 6.3460137 l 0.0014,-4.34777 c 0,0 -0.05512,-1.55382 1.620198,-1.62594 1.675252,-0.0721 8.968441,-0.008 8.968441,-0.008 l 9.6e-4,-2.19898 z m 46.671738,0.59121 h 1.218733 c 0.495276,0 0.847292,0.11252 1.056236,0.33694 0.208945,0.22442 0.313526,0.58812 0.313526,1.09112 v 2.14737 h -2.588495 c -0.533965,0 -0.924735,-0.13913 -1.172372,-0.41772 -0.239899,-0.28633 -0.359884,-0.74293 -0.359884,-1.36976 -3e-6,-0.62683 0.119985,-1.0797 0.359884,-1.35829 0.247637,-0.28633 0.638407,-0.42966 1.172372,-0.42966 z m 7.549936,0 h 1.973387 c 0.30181,0 0.522167,0.0696 0.661463,0.20885 0.139296,0.1393 0.208855,0.32511 0.208855,0.55728 0,0.22442 -0.06956,0.40229 -0.208855,0.53385 -0.131556,0.13156 -0.363588,0.19739 -0.696356,0.19739 h -2.87907 v -0.65 c 0,-0.23989 0.07004,-0.44112 0.209334,-0.60362 0.147036,-0.16252 0.390735,-0.24375 0.731242,-0.24375 z m -24.078822,2.28691 h 2.890548 v 1.14896 c 0,0.20894 -0.112524,0.31352 -0.336943,0.31352 H 44.76297 c -0.309546,0 -0.530383,-0.0658 -0.66194,-0.19739 -0.131556,-0.13929 -0.197387,-0.32089 -0.197387,-0.54532 0,-0.22442 0.06583,-0.39856 0.197387,-0.52238 0.131557,-0.13156 0.359858,-0.19739 0.684881,-0.19739 z"
           id="path843"
           inkscape:connector-curvature="0" /><rect
           style="display:inline;opacity:1;fill:url(#linearGradient849);fill-opacity:1;stroke:none;stroke-width:0.26458332;stroke-opacity:1"
           id="rect845"
           width="91.28125"
           height="52.916664"
           x="0"
           y="244.08334" /></g></clipPath><linearGradient
       inkscape:collect="always"
       xlink:href="#linearGradient6991"
       id="linearGradient849"
       gradientUnits="userSpaceOnUse"
       x1="0"
       y1="270.54168"
       x2="91.28125"
       y2="270.54168" /><clipPath
       clipPathUnits="userSpaceOnUse"
       id="clipPath4677"><path
         inkscape:connector-curvature="0"
         id="path4679"
         d="m 88.767706,247.25834 h -7.408331 l -3.439591,3.70417 h -1.852078 -1.322922 c -0.293148,0 -0.529159,0.236 -0.529159,0.52916 v 3.70417 h -6.085419 v -3.70417 c 0,-0.29316 -0.236011,-0.52916 -0.529172,-0.52916 h -1.322909 c -0.293161,0 -0.529169,0.236 -0.529169,0.52916 v 5.55625 c 0,0.29316 0.236008,0.52917 0.529169,0.52917 h 1.322909 2.38125 v 3.70417 c 0,0.29315 0.236011,0.52916 0.529172,0.52916 h 1.322919 c 0.29315,0 0.529159,-0.23601 0.529159,-0.52916 v -3.70417 h 2.38125 1.322922 c 0.293158,0 0.529169,-0.23601 0.529169,-0.52917 v -3.70416 h 1.322909 l 3.439591,3.70416 h 7.408331 z m 0,38.1 h -7.408331 l -3.439591,3.70417 h -3.175 c -0.293148,0 -0.529159,0.236 -0.529159,0.52916 v 1.32292 c 0,0.29316 0.236011,0.52917 0.529159,0.52917 h 3.175 l 3.439591,3.70416 h 7.408331 z M 76.596875,264.19167 c 0,-0.29316 -0.236011,-0.52916 -0.529169,-0.52916 H 74.744784 53.578125 c -0.293161,0 -0.529169,0.236 -0.529169,0.52916 v 1.32292 c 0,0.29316 0.236008,0.52917 0.529169,0.52917 h 20.6375 v 16.40416 c 0,0.29316 0.236011,0.52917 0.529159,0.52917 h 1.322922 c 0.293158,0 0.529169,-0.23601 0.529169,-0.52917 z m -0.529169,-29.63333 h -9.789581 v 7.40833 l 3.704159,3.43959 v 7.40833 c 0,0.29316 0.236011,0.52917 0.529172,0.52917 h 1.322919 c 0.29315,0 0.529159,-0.23601 0.529159,-0.52917 v -7.40833 l 3.704172,-3.43959 z m -3.704172,38.1 c 0,-0.29316 -0.236009,-0.52917 -0.529159,-0.52917 h -9.789591 c -0.293159,0 -0.529159,0.23601 -0.529159,0.52917 v 1.32292 c 0,0.29315 0.236,0.52916 0.529159,0.52916 h 9.789591 c 0.29315,0 0.529159,-0.23601 0.529159,-0.52916 z m 0,12.7 c 0,-0.29316 -0.236009,-0.52917 -0.529159,-0.52917 h -1.322919 c -0.293161,0 -0.529172,0.23601 -0.529172,0.52917 v 9.78958 c 0,0.29316 0.236011,0.52917 0.529172,0.52917 h 1.322919 c 0.29315,0 0.529159,-0.23601 0.529159,-0.52917 z m -4.233328,-25.4 c 0,-0.29316 -0.236011,-0.52917 -0.529172,-0.52917 h -9.789578 c -0.293161,0 -0.529172,0.23601 -0.529172,0.52917 v 1.32292 c 0,0.29315 0.236011,0.52916 0.529172,0.52916 h 9.789578 c 0.293161,0 0.529172,-0.23601 0.529172,-0.52916 z m 0,8.46667 c 0,-0.29316 -0.236011,-0.52917 -0.529172,-0.52917 H 51.196875 v -20.6375 c 0,-0.29316 -0.236011,-0.52917 -0.529169,-0.52917 h -1.322922 c -0.293148,0 -0.529159,0.23601 -0.529159,0.52917 v 22.48958 c 0,0.29316 0.236011,0.52917 0.529159,0.52917 h 1.322922 6.614578 v 3.70417 c 0,0.29315 0.236011,0.52916 0.529172,0.52916 h 1.322919 c 0.293161,0 0.529159,-0.23601 0.529159,-0.52916 v -3.70417 h 7.9375 c 0.293161,0 0.529172,-0.23601 0.529172,-0.52917 z m 0,12.7 c 0,-0.29316 -0.236011,-0.52917 -0.529172,-0.52917 h -1.322909 c -0.293161,0 -0.529169,0.23601 -0.529169,0.52917 v 12.17083 h -6.614581 -1.322919 c -0.293161,0 -0.529172,0.23601 -0.529172,0.52917 v 3.175 l -3.704159,3.43958 v 7.40833 h 9.789581 v -7.40833 l -3.704172,-3.43958 v -1.32292 h 6.614591 1.322909 c 0.293161,0 0.529172,-0.23601 0.529172,-0.52917 z m -4.233331,-4.23334 c 0,-0.29316 -0.236011,-0.52916 -0.529169,-0.52916 h -1.322922 c -0.293159,0 -0.529159,0.236 -0.529159,0.52916 v 5.55625 c 0,0.29316 0.236,0.52917 0.529159,0.52917 h 1.322922 c 0.293158,0 0.529169,-0.23601 0.529169,-0.52917 z m 0,8.46667 c 0,-0.29316 -0.236011,-0.52917 -0.529169,-0.52917 h -1.322922 c -0.046,0 -0.0898,0.008 -0.132289,0.0186 -0.0425,-0.0109 -0.0863,-0.0186 -0.132289,-0.0186 h -19.05 v -12.17083 c 0,-0.29316 -0.236011,-0.52917 -0.529172,-0.52917 h -1.322909 -16.93334 c -0.29316,0 -0.52916,0.23601 -0.52916,0.52917 v 1.32292 c 0,0.29315 0.236,0.52916 0.52916,0.52916 h 7.937499 v 3.70417 c 0,0.29316 0.236011,0.52917 0.529172,0.52917 h 1.322919 c 0.293161,0 0.529159,-0.23601 0.529159,-0.52917 v -3.70417 h 6.085422 v 12.17084 c 0,0.29315 0.236008,0.52916 0.529169,0.52916 h 1.322909 19.314591 v 3.70417 c 0,0.29316 0.236,0.52917 0.529159,0.52917 h 1.322922 c 0.293158,0 0.529169,-0.23601 0.529169,-0.52917 z m -0.529169,-50.8 h -9.789581 v 7.40833 l 3.704159,3.43959 v 7.40833 c 0,0.29316 0.236011,0.52917 0.529172,0.52917 h 1.322919 c 0.293161,0 0.529159,-0.23601 0.529159,-0.52917 v -7.40833 l 3.704172,-3.43959 z m -7.9375,38.1 c 0,-0.29316 -0.236011,-0.52917 -0.529172,-0.52917 h -1.322909 c -0.293161,0 -0.529169,0.23601 -0.529169,0.52917 v 5.55625 c 0,0.29316 0.236008,0.52917 0.529169,0.52917 h 1.322909 c 0.293161,0 0.529172,-0.23601 0.529172,-0.52917 z m -4.7625,-38.1 h -9.789581 v 7.40833 l 3.704159,3.43959 v 9.78958 H 32.411456 c -0.293161,0 -0.529172,0.23601 -0.529172,0.52917 v 1.32291 c 0,0.29316 0.236011,0.52917 0.529172,0.52917 h 12.7 1.322919 c 0.293161,0 0.529159,-0.23601 0.529159,-0.52917 v -11.64166 l 3.704172,-3.43959 z m 0,65.88125 -3.704172,-3.43958 v -3.175 c 0,-0.29316 -0.235998,-0.52917 -0.529159,-0.52917 h -1.322919 c -0.293161,0 -0.529172,0.23601 -0.529172,0.52917 v 3.175 l -3.704159,3.43958 v 7.40833 h 9.789581 z m -7.9375,-40.48125 c 0,-0.29316 -0.236011,-0.52917 -0.529172,-0.52917 H 25.796875 v -3.70416 c 0,-0.29316 -0.23601,-0.52917 -0.52917,-0.52917 h -1.32292 c -0.29316,0 -0.52916,0.23601 -0.52916,0.52917 v 3.70416 h -6.08542 v -7.9375 c 0,-0.29316 -0.23601,-0.52916 -0.52917,-0.52916 h -1.32291 -1.85209 l -3.43958,-3.70417 H 2.7781261 v 9.78958 h 7.4083289 l 3.43958,-3.70416 h 1.32292 v 7.9375 c 0,0.29315 0.23601,0.52916 0.52917,0.52916 h 1.32291 2.38125 v 3.70417 c 0,0.29316 0.23601,0.52917 0.52917,0.52917 h 1.32292 c 0.29316,0 0.52916,-0.23601 0.52916,-0.52917 v -3.70417 h 2.38125 1.32292 16.933329 c 0.293161,0 0.529172,-0.23601 0.529172,-0.52916 z m 0,29.63333 c 0,-0.29316 -0.236011,-0.52916 -0.529172,-0.52916 h -1.322909 c -0.293161,0 -0.529169,0.236 -0.529169,0.52916 v 3.70417 h -7.9375 c -0.293161,0 -0.529172,0.23601 -0.529172,0.52917 v 3.175 l -3.704159,3.43958 v 7.40833 h 9.789581 v -7.40833 l -3.704172,-3.43958 v -1.32292 h 6.614591 1.322909 c 0.293161,0 0.529172,-0.23601 0.529172,-0.52917 z m -4.233331,-21.16666 c 0,-0.29316 -0.236011,-0.52917 -0.529169,-0.52917 h -21.431251 -1.05833 c -0.29316,0 -0.52917,0.23601 -0.52917,0.52917 v 18.25625 c 0,0.29315 0.23601,0.52916 0.52917,0.52916 h 1.32291 c 0.29316,0 0.52917,-0.23601 0.52917,-0.52916 v -16.40417 h 20.637501 c 0.293158,0 0.529169,-0.23601 0.529169,-0.52917 z m 0,8.46666 c 0,-0.29316 -0.236011,-0.52916 -0.529169,-0.52916 h -1.322922 c -0.293148,0 -0.529159,0.236 -0.529159,0.52916 v 5.55625 c 0,0.29316 0.236011,0.52917 0.529159,0.52917 h 1.322922 c 0.293158,0 0.529169,-0.23601 0.529169,-0.52917 z m 0,8.46667 c 0,-0.29316 -0.236011,-0.52917 -0.529169,-0.52917 h -7.9375 v -3.70416 c 0,-0.29316 -0.236011,-0.52917 -0.529172,-0.52917 h -1.322909 c -0.293161,0 -0.529169,0.23601 -0.529169,0.52917 v 5.55625 c 0,0.29315 0.236008,0.52916 0.529169,0.52916 h 1.322909 8.466672 c 0.293158,0 0.529169,-0.23601 0.529169,-0.52916 z m -0.529169,-50.8 h -9.789581 v 7.40833 l 3.704159,3.43959 v 3.175 c 0,0.29315 0.236011,0.52916 0.529172,0.52916 h 1.322919 c 0.293161,0 0.529159,-0.23601 0.529159,-0.52916 v -3.175 l 3.704172,-3.43959 z m -3.704172,29.63333 c 0,-0.29316 -0.235998,-0.52916 -0.529159,-0.52916 h -9.78959 c -0.29316,0 -0.52916,0.236 -0.52916,0.52916 v 1.32292 c 0,0.29316 0.236,0.52917 0.52916,0.52917 h 9.78959 c 0.293161,0 0.529159,-0.23601 0.529159,-0.52917 z m -4.233328,12.7 c 0,-0.29316 -0.236011,-0.52916 -0.529172,-0.52916 h -9.789579 c -0.29316,0 -0.52917,0.236 -0.52917,0.52916 v 1.32292 c 0,0.29316 0.23601,0.52917 0.52917,0.52917 h 9.789579 c 0.293161,0 0.529172,-0.23601 0.529172,-0.52917 z m 0,12.7 c 0,-0.29316 -0.236011,-0.52916 -0.529172,-0.52916 h -9.789579 c -0.29316,0 -0.52917,0.236 -0.52917,0.52916 v 1.32292 c 0,0.29316 0.23601,0.52917 0.52917,0.52917 h 9.789579 c 0.293161,0 0.529172,-0.23601 0.529172,-0.52917 z m -4.762501,-55.03333 h -9.78958 v 7.40833 l 3.70416,3.43959 v 11.64166 c 0,0.29316 0.23601,0.52917 0.52917,0.52917 h 1.32292 c 0.29316,0 0.52916,-0.23601 0.52916,-0.52917 v -11.64166 l 3.70417,-3.43959 z m -11.64167,54.50417 -3.43958,-3.70417 H 2.7781261 v 9.78958 h 7.4083289 l 3.43958,-3.70416 z"
         style="display:inline;opacity:1;fill:#000000;fill-opacity:1;stroke:none;stroke-width:0.26458332;stroke-opacity:1" /></clipPath><clipPath
       clipPathUnits="userSpaceOnUse"
       id="clipPath5859"><path
         style="display:inline;opacity:1;fill:#000000;fill-opacity:1;stroke:none;stroke-width:0.26458332;stroke-opacity:1"
         d="m 32.014583,246.3323 c -0.29315,0 -0.529166,0.23601 -0.529166,0.52916 v 2.11667 c 0,0.29316 0.236016,0.52917 0.529166,0.52917 h 19.05 c 0.293161,0 0.529167,-0.23601 0.529167,-0.52917 v -2.11667 c 0,-0.29315 -0.236006,-0.52916 -0.529167,-0.52916 z m 21.166667,0 c -0.293158,0 -0.529167,0.23601 -0.529167,0.52916 v 2.11667 14.81667 2.11666 0.014 c 0,0.28545 0.229775,0.51521 0.515216,0.51521 h 0.01395 2.130618 1.044382 0.396875 v 0.92604 h -3.395657 -0.264584 c -0.317582,0 -0.573092,0.25551 -0.573092,0.57309 v 6.52674 c 0,0.31759 0.25551,0.57309 0.573092,0.57309 h 2.293398 c 0.31759,0 0.573093,-0.2555 0.573093,-0.57309 v -3.66024 h 3.660241 c 0.317589,0 0.573092,-0.25551 0.573092,-0.5731 v -0.26458 -10.49548 c 0,-0.31759 -0.255503,-0.57309 -0.573092,-0.57309 h -2.293398 c -0.31759,0 -0.573093,0.2555 -0.573093,0.57309 v 3.79253 H 56.35625 55.827083 V 249.5073 H 72.23125 c 0.293161,0 0.529167,-0.23601 0.529167,-0.52917 v -2.11667 c 0,-0.29315 -0.236006,-0.52916 -0.529167,-0.52916 z m 4.144968,4.10104 c -0.31759,0 -0.573093,0.2555 -0.573093,0.57309 v 6.26215 0.30851 c 0,0.29315 0.236006,0.52917 0.529167,0.52917 h 3.175 0.661458 v 3.57187 c 0,0.29316 0.236006,0.52917 0.529167,0.52917 h 2.116666 c 0.293161,0 0.529167,-0.23601 0.529167,-0.52917 v -7.9375 h 1.058333 v 7.9375 c 0,0.29316 0.236009,0.52917 0.529167,0.52917 h 2.116667 c 0.293147,0 0.529166,-0.23601 0.529166,-0.52917 v -3.57187 h 0.661459 0.837676 2.293398 c 0.317589,0 0.573092,-0.25551 0.573092,-0.5731 v -6.52673 c 0,-0.31759 -0.255503,-0.57309 -0.573092,-0.57309 h -2.293398 c -0.31759,0 -0.573093,0.2555 -0.573093,0.57309 v 3.66024 h -0.529167 -0.396875 v -1.4552 -2.11667 c 0,-0.29316 -0.236008,-0.52917 -0.529166,-0.52917 H 65.88125 61.647917 c -0.293161,0 -0.529167,0.23601 -0.529167,0.52917 v 2.11667 1.4552 h -0.661458 -0.264584 v -3.66024 c 0,-0.31759 -0.255503,-0.57309 -0.573092,-0.57309 z m -38.011635,0.13229 c -0.29315,0 -0.529167,0.23601 -0.529167,0.52917 v 2.11667 c 0,0.29315 0.236017,0.52916 0.529167,0.52916 h 12.038542 v 0.66146 0.83767 2.33733 1.32292 h -0.264583 -0.661459 v -1.45521 -2.11667 c 0,-0.29317 -0.236008,-0.52917 -0.529166,-0.52917 H 27.78125 23.547916 c -0.29317,0 -0.529166,0.236 -0.529166,0.52917 v 2.11667 1.45521 h -0.661459 -0.264583 v -3.66025 c 0,-0.31759 -0.255501,-0.57309 -0.573092,-0.57309 h -2.2934 c -0.31759,0 -0.573091,0.2555 -0.573091,0.57309 v 6.52674 c 0,0.31759 0.255501,0.57309 0.573091,0.57309 h 2.2934 0.837675 0.661459 v 3.57187 c 0,0.29316 0.236006,0.52917 0.529166,0.52917 h 2.116667 c 0.29316,0 0.529167,-0.23601 0.529167,-0.52917 v -7.9375 h 1.058333 v 7.9375 c 0,0.29316 0.236009,0.52917 0.529167,0.52917 h 2.116667 c 0.293158,0 0.529166,-0.23601 0.529166,-0.52917 v -3.57187 h 0.661459 0.837676 2.293398 c 0.317589,0 0.573092,-0.2555 0.573092,-0.57309 v -4.45399 -2.07275 -1.10225 -0.39688 h 0.926042 v 13.75833 h -0.529167 -0.396875 v -3.79253 c 0,-0.31759 -0.255503,-0.57309 -0.573092,-0.57309 h -2.293398 c -0.31759,0 -0.573093,0.2555 -0.573093,0.57309 v 10.76007 c 0,0.31759 0.255503,0.57309 0.573093,0.57309 h 2.293398 1.366842 v 3.39566 c 0,0.31759 0.255503,0.57309 0.573093,0.57309 h 2.293398 c 0.317582,0 0.573093,-0.2555 0.573093,-0.57309 v -6.26215 c 0,-0.31759 -0.255511,-0.57309 -0.573093,-0.57309 h -2.293398 -1.366843 v -0.92605 h 0.396875 1.058334 2.116666 c 0.293161,0 0.529167,-0.23601 0.529167,-0.52916 v -2.11667 -14.81666 -2.11667 c 0,-0.29316 -0.236006,-0.52917 -0.529167,-0.52917 h -2.116666 z m 55.131002,4.23333 c -0.34716,0 -0.626835,0.27968 -0.626835,0.62684 v 20.53983 h -3.704167 c -0.29315,0 -0.529166,0.23601 -0.529166,0.52917 v 2.11666 8.46667 c 0,0.29316 0.236005,0.52917 0.529166,0.52917 h 2.116667 c 0.293161,0 0.529167,-0.23601 0.529167,-0.52917 v -3.57187 h 0.661458 3.175 c 0.293161,0 0.529167,-0.23602 0.529167,-0.52917 v -2.38125 c 0,-0.29316 -0.236006,-0.52917 -0.529167,-0.52917 h -3.175 -0.661458 v -0.92604 h 3.704166 c 0.293161,0 0.529167,-0.236 0.529167,-0.52917 v -0.62683 -1.48983 -21.069 c 0,-0.34716 -0.279673,-0.62684 -0.626835,-0.62684 z M 15.08125,259.0323 c -0.29316,0 -0.529167,0.236 -0.529167,0.52916 v 23.01875 0.26459 c 0,0.29316 0.236007,0.52916 0.529167,0.52916 h 3.704166 v 0.92605 h -0.661458 -3.175 c -0.29316,0 -0.529167,0.236 -0.529167,0.52916 v 2.38125 c 0,0.29316 0.236007,0.52917 0.529167,0.52917 h 3.175 0.661458 v 3.57187 c 0,0.29317 0.236007,0.52917 0.529167,0.52917 h 2.116667 c 0.29316,0 0.529166,-0.236 0.529166,-0.52917 v -8.46666 -2.11667 c 0,-0.0366 -0.004,-0.0725 -0.01085,-0.10697 -0.0492,-0.24157 -0.261803,-0.42219 -0.518313,-0.42219 h -2.116667 -1.5875 v -20.63751 c 0,-0.29316 -0.236016,-0.52916 -0.529167,-0.52916 z m 25.664583,0 c -0.439729,0 -0.79375,0.35401 -0.79375,0.79375 v 24.47396 h -0.661458 -3.175 c -0.293161,0 -0.529167,0.236 -0.529167,0.52916 v 2.38125 c 0,0.29316 0.236006,0.52917 0.529167,0.52917 h 3.175 0.661458 v 0.92604 H 27.669628 c -0.231439,0 -0.417545,0.18612 -0.417545,0.41755 v 2.33991 c 0,0.23143 0.186106,0.41754 0.417545,0.41754 h 15.039911 c 0.231439,0 0.417544,-0.18611 0.417544,-0.41754 v -0.64079 -30.95625 c 0,-0.43974 -0.35401,-0.79375 -0.79375,-0.79375 z m 29.36875,0 c -0.293161,0 -0.529166,0.236 -0.529166,0.52916 v 3.70417 h -7.9375 c -0.293161,0 -0.529167,0.23601 -0.529167,0.52917 v 2.11666 8.46667 c 0,0.29316 0.236006,0.52917 0.529167,0.52917 h 2.116666 c 0.293161,0 0.529167,-0.23601 0.529167,-0.52917 v -7.9375 h 5.291667 v 0.92604 h -0.661459 -3.175 c -0.293161,0 -0.529166,0.23601 -0.529166,0.52917 v 2.38125 c 0,0.29315 0.236005,0.52917 0.529166,0.52917 h 3.175 0.661459 v 3.57187 c 0,0.29316 0.236005,0.52917 0.529166,0.52917 h 2.116667 c 0.293161,0 0.529167,-0.23601 0.529167,-0.52917 v -14.81667 c 0,-0.29316 -0.236006,-0.52916 -0.529167,-0.52916 z m -50.8,4.23333 c -0.29316,0 -0.529167,0.23601 -0.529167,0.52917 v 14.81666 c 0,0.29317 0.236007,0.52917 0.529167,0.52917 h 2.116667 c 0.29316,0 0.529166,-0.236 0.529166,-0.52917 v -3.57187 h 0.661459 3.175 c 0.29316,0 0.529166,-0.23601 0.529166,-0.52917 v -2.38125 c 0,-0.29316 -0.236006,-0.52916 -0.529166,-0.52916 h -3.175 -0.661459 v -0.92605 h 5.291667 v 7.9375 c 0,0.29317 0.236009,0.52917 0.529167,0.52917 h 2.116667 c 0.293158,0 0.529166,-0.236 0.529166,-0.52917 v -8.46666 -2.11667 c 0,-0.0366 -0.004,-0.0725 -0.01085,-0.10697 -0.0492,-0.24157 -0.26181,-0.4222 -0.518318,-0.4222 H 27.78125 21.960416 v -3.70416 c 0,-0.29316 -0.236006,-0.52917 -0.529166,-0.52917 z m 37.967709,8.33438 c -0.293161,0 -0.529167,0.236 -0.529167,0.52916 v 3.175 0.66146 H 53.18125 c -0.293158,0 -0.529167,0.23601 -0.529167,0.52917 v 2.11666 c 0,0.29317 0.236009,0.52917 0.529167,0.52917 h 8.466667 2.38125 0.79375 0.396875 v 3.79253 c 0,0.31759 0.25551,0.5731 0.573092,0.5731 h 2.293398 c 0.31759,0 0.573093,-0.25551 0.573093,-0.5731 V 272.1731 c 0,-0.31759 -0.255503,-0.57309 -0.573093,-0.57309 h -2.293398 c -0.317582,0 -0.573092,0.2555 -0.573092,0.57309 v 3.79253 h -0.396875 -0.79375 -2.38125 -1.455209 v -0.66146 -3.175 c 0,-0.29316 -0.236005,-0.52916 -0.529166,-0.52916 z m -33.822742,4.23333 c -0.31759,0 -0.573092,0.2555 -0.573092,0.57309 v 19.22673 c 0,0.31759 0.255502,0.5731 0.573092,0.5731 h 2.2934 21.166666 c 0.317589,0 0.573092,-0.25551 0.573092,-0.5731 v -2.29339 c 0,-0.31759 -0.255503,-0.5731 -0.573092,-0.5731 H 26.326041 v -9.39271 h 0.396876 1.058333 2.116667 8.466666 c 0.293161,0 0.529167,-0.23601 0.529167,-0.52916 v -2.11667 c 0,-0.29315 -0.236006,-0.52916 -0.529167,-0.52916 h -3.571875 v -0.66146 -3.175 c 0,-0.29316 -0.236005,-0.52917 -0.529166,-0.52917 h -2.38125 c -0.293161,0 -0.529167,0.23601 -0.529167,0.52917 v 3.175 0.66146 H 29.897917 27.78125 26.722917 26.326041 v -3.79254 c 0,-0.31759 -0.255501,-0.57309 -0.573091,-0.57309 z m 38.056075,4.23333 c -0.29315,0 -0.529167,0.23601 -0.529167,0.52917 v 3.175 0.66146 h -3.571875 c -0.293161,0 -0.529166,0.236 -0.529166,0.52917 v 2.11666 c 0,0.29316 0.236005,0.52917 0.529166,0.52917 h 7.9375 v 3.43958 0.26458 c 0,0.29317 0.236009,0.52917 0.529167,0.52917 h 10.583333 c 0.293161,0 0.529167,-0.236 0.529167,-0.52917 v -2.11666 c 0,-0.29316 -0.236006,-0.52917 -0.529167,-0.52917 h -7.9375 v -1.5875 -2.11666 c 0,-0.29317 -0.236008,-0.52917 -0.529166,-0.52917 H 65.88125 64.426042 v -0.66146 -3.175 c 0,-0.29316 -0.236006,-0.52917 -0.529167,-0.52917 z m 0.132292,8.59896 c -0.293161,0 -0.529167,0.23601 -0.529167,0.52917 v 6.08541 0.26459 c 0,0.29316 0.236006,0.52916 0.529167,0.52916 H 72.23125 c 0.293161,0 0.529167,-0.236 0.529167,-0.52916 v -2.11667 c 0,-0.29316 -0.236006,-0.52916 -0.529167,-0.52916 h -7.9375 v -3.70417 c 0,-0.29316 -0.236006,-0.52917 -0.529167,-0.52917 z"
         id="path5861"
         inkscape:connector-curvature="0" /></clipPath><linearGradient
       inkscape:collect="always"
       xlink:href="#linearGradient15522"
       id="linearGradient15524"
       x1="49.54221"
       y1="-188.0148"
       x2="850.75128"
       y2="800.5885"
       gradientUnits="userSpaceOnUse"
       gradientTransform="matrix(0.71831626,0,0,0.71831626,195.05062,24.479329)" /><linearGradient
       inkscape:collect="always"
       xlink:href="#linearGradient15530"
       id="linearGradient15532"
       x1="-356.32028"
       y1="-396.97815"
       x2="66.599754"
       y2="726.7323"
       gradientUnits="userSpaceOnUse"
       gradientTransform="matrix(0.71831626,0,0,0.71831626,195.05062,24.479329)" /></defs><sodipodi:namedview
     id="base"
     pagecolor="#407caf"
     bordercolor="#666666"
     borderopacity="1.0"
     inkscape:pageopacity="0"
     inkscape:pageshadow="2"
     inkscape:zoom="2.0065436"
     inkscape:cx="221.27603"
     inkscape:cy="45.600803"
     inkscape:document-units="mm"
     inkscape:current-layer="g575"
     showgrid="true"
     units="px"
     inkscape:window-width="1480"
     inkscape:window-height="1377"
     inkscape:window-x="2560"
     inkscape:window-y="0"
     inkscape:window-maximized="0"
     inkscape:showpageshadow="0"
     inkscape:pagecheckerboard="0"
     inkscape:deskcolor="$chipInner"><inkscape:grid
       type="xygrid"
       id="grid4518"
       color="#ffffff"
       opacity="0.03137255"
       empcolor="#ffffff"
       empopacity="0.01568627"
       enabled="true"
       empspacing="1"
       spacingx="0.13229167"
       spacingy="0.13229167" /></sodipodi:namedview><metadata
     id="metadata5"><rdf:RDF><cc:Work
         rdf:about=""><dc:format>image/svg+xml</dc:format><dc:type
           rdf:resource="http://purl.org/dc/dcmitype/StillImage" /></cc:Work></rdf:RDF></metadata><g
     inkscape:label="Layer 1"
     inkscape:groupmode="layer"
     id="layer1"
     transform="translate(0,-244.08334)"
     style="display:inline"><g
       id="g575"
       transform="matrix(0.05160142,0,0,0.05160142,15.057813,251.02667)"><g
         id="g143"
         transform="matrix(1.687356,0,0,1.687356,-352.00351,-61.843354)"><path
           id="path128"
           style="display:inline;fill:url(#linearGradient15532);fill-opacity:1;stroke:none;stroke-width:0.718316"
           d="m 498.8984,280.50448 c -7.61487,1.01211 -15.23046,1.54007 -21.48268,6.59846 -7.50928,6.0748 -8.73473,17.9852 -7.55453,26.85784 0.62206,4.6784 1.33247,9.35392 3.48455,13.64801 3.64186,7.26362 9.63334,11.45643 16.21455,15.70527 9.35463,6.04032 17.99741,10.21517 29.45097,8.6241 11.86802,-1.64925 26.66749,-5.4944 36.60611,-12.37371 4.05202,-2.80431 7.92734,-5.84351 9.83088,-10.51903 2.216,-5.44196 1.07173,-12.99577 0.36419,-18.67622 -0.71473,-5.74437 -2.58163,-11.49881 -6.65018,-15.77422 -11.77392,-12.37157 -29.13419,-14.39506 -45.17922,-14.39506 -4.99014,0 -10.13041,-0.35341 -15.08464,0.30456 m 112.05734,9.34099 c -4.04484,0.57322 -8.11985,1.26783 -11.36017,3.95074 -4.55125,3.769 -6.28886,10.31071 -7.45684,15.85467 -1.64998,7.83109 -3.65192,13.76438 -0.19754,21.54949 3.27624,7.38358 10.24391,12.43118 16.8596,16.56797 7.93237,4.95997 15.76417,9.48896 24.42275,13.09059 5.63304,2.34243 10.85017,5.34428 17.23959,4.49451 7.77937,-1.03438 11.22872,-5.04474 15.82092,-10.86238 8.34899,-10.57721 13.90373,-27.12075 6.67388,-39.81124 -3.02699,-5.31195 -8.81087,-8.27357 -13.875,-11.34796 -10.57793,-6.42103 -21.5854,-10.20584 -33.76087,-12.18049 -4.69419,-0.76142 -9.60891,-1.97968 -14.36632,-1.3059 z M 414.8554,288.1014 c -6.44833,0.86844 -13.21343,2.26126 -19.39454,4.31061 -2.36685,0.7844 -6.30754,1.69595 -4.99445,5.03037 1.97106,5.00379 8.62482,9.2512 12.69336,12.46638 1.39138,1.09974 4.17989,3.11606 3.13258,5.21067 -1.19312,2.38983 -5.71923,3.51831 -7.95822,4.608 -3.1333,1.52498 -6.10641,3.36172 -9.33812,4.68342 -3.76038,1.53791 -9.01415,2.8237 -11.92836,5.81046 -3.4982,3.5844 1.0861,9.51122 3.39979,12.40819 7.70179,9.64196 17.83436,15.9064 26.48648,24.48669 -2.84669,0.90436 -5.68835,1.58604 -8.61979,2.15494 2.08742,9.64412 10.19075,15.10763 17.94713,20.07694 3.52908,2.26055 6.71194,4.60872 10.78552,5.78245 -3.12037,1.75916 -6.36644,2.97958 -9.33812,5.02821 5.64741,7.38214 16.45663,12.11369 25.14107,14.83539 4.06208,1.27286 8.3454,1.90282 12.21138,3.7805 5.70487,2.77054 11.47726,9.30507 15.08464,14.42666 132.48489,41.20519 224.9663,-11.92497 227.08348,-17.92702 0.77506,-1.82237 2.69081,-2.9063 4.21508,-4.02041 3.49532,-2.55577 7.11779,-5.10795 10.10671,-8.26064 1.27644,-1.34612 3.04207,-2.96665 3.0004,-4.98655 -0.0467,-2.27204 -2.19445,-3.76111 -3.76972,-5.03109 10.79342,-4.43416 20.06186,-11.34796 28.70464,-19.09213 2.41282,-2.16285 7.72692,-6.6006 6.33698,-10.34806 -0.79589,-2.14633 -3.13688,-3.62247 -4.87234,-4.94561 -3.84658,-2.93145 -7.94817,-5.38665 -11.49234,-8.69593 -1.27501,-1.19097 -3.57362,-2.6743 -4.06208,-4.44926 -0.54017,-1.961 1.45531,-3.62534 2.61036,-4.9061 3.22093,-3.5729 11.02041,-10.23816 5.71637,-14.64718 -1.29513,-1.07676 -2.83664,-1.93371 -4.26537,-2.81868 -1.87265,-1.16008 -3.64042,-2.02708 -5.74653,-2.64699 6.14592,-18.89387 12.77238,-38.40478 15.25704,-58.18362 1.78071,-14.1731 0.31175,-28.2485 0.58471,-42.38066 0.21621,-11.18993 1.38491,-22.52352 0.6156,-33.76086 -1.02145,-14.91584 -4.14253,-28.83034 -8.41077,-43.09898 -2.4236,-8.10404 -4.40543,-16.29069 -6.71051,-24.42275 -1.28866,-4.54479 -2.25695,-9.64412 -4.90538,-13.63724 -1.4862,-2.24042 -3.53986,-3.64832 -5.7688,-5.072031 -2.69943,-1.72467 -5.40246,-3.40122 -8.61979,-3.93048 -9.9415,-1.63453 -18.15257,7.930791 -25.14107,13.385681 -13.75504,10.73452 -30.80284,19.18407 -41.12433,33.67682 -7.22267,10.14119 -10.14262,23.39341 -13.46771,35.1975 -14.24493,-5.48722 -29.84029,-3.17424 -42.38066,5.74653 1.62986,-8.7807 1.69523,-24.24318 -6.46556,-29.48401 -2.32519,-1.49338 -4.96501,-3.5765 -7.90076,-3.02483 -3.84874,0.72334 -7.78224,4.05489 -10.77475,6.41169 -9.37762,7.38573 -18.62235,18.88813 -22.2678,30.40705 -1.43663,-4.85941 -0.3412,-10.09235 -1.29656,-15.08465 -2.70087,-14.11922 -7.76644,-29.54075 -15.61835,-41.66234 -8.84032,-13.64729 -22.85611,-22.17227 -32.99514,-34.451171 -6.60564,-7.99859 -12.95196,-16.16606 -22.63989,-20.546 -4.50097,-2.03484 -9.74037,-3.37034 -14.23344,-0.3065 -4.71144,3.2131 -5.6316,10.14054 -7.53011,15.07796 -3.7532,9.762641 -9.30651,18.541181 -13.65591,28.014331 -4.02473,8.76705 -9.03714,17.36386 -11.96859,26.57771 -5.59353,17.58007 -7.11348,37.10462 -9.56653,55.31035 -1.61693,12.00378 -5.80184,24.41557 -4.69779,36.63413 0.97619,10.80778 2.73535,21.27078 6.10497,31.60591 1.98183,6.07983 6.05469,12.35433 6.70189,18.67623 z" /></g><g
         id="g200"
         transform="matrix(1.687356,0,0,1.687356,-352.00351,-61.843354)"><path
           id="path4"
           style="display:inline;fill:url(#linearGradient15524);fill-opacity:1;stroke:none;stroke-width:0.718316"
           d="m 453.40317,72.850629 c -3.20247,0.20142 -6.49311,1.69062 -8.30273,4.14154 -3.63971,4.92965 -4.63114,11.58728 -6.9671,17.16384 -3.42853,8.183031 -8.30868,15.650691 -12.00655,23.704431 -4.02472,8.76703 -9.03723,17.36388 -11.96866,26.5777 -5.59353,17.58003 -7.11377,37.1047 -9.5668,55.31036 -1.61693,12.00374 -5.80116,24.41561 -4.69711,36.63413 0.97617,10.80774 2.73468,21.2708 6.10428,31.60591 1.98184,6.07981 6.05475,12.35434 6.70195,18.67622 -6.4483,0.86845 -13.21345,2.26197 -19.39454,4.3113 -2.36685,0.7844 -6.30762,1.6952 -4.99454,5.02962 1.97104,5.00377 8.62547,9.25154 12.69399,12.46672 1.39138,1.09972 4.17872,3.11598 3.13141,5.2106 -1.1931,2.38983 -5.7186,3.51765 -7.95759,4.60732 -3.1333,1.52498 -6.10641,3.36279 -9.33812,4.68449 -3.76036,1.53792 -9.01377,2.8229 -11.92797,5.80966 -3.49818,3.58438 1.08569,9.51083 3.39937,12.4078 7.70177,9.64191 17.83441,15.90702 26.48651,24.48728 -2.84669,0.90436 -5.68835,1.58605 -8.61979,2.15495 1.91646,8.85538 9.70016,16.18263 17.9579,19.34825 2.07019,0.79374 10.87972,2.58881 10.32159,5.71706 -0.43458,2.43509 -6.9297,4.47401 -8.88495,5.82229 5.82624,7.59186 19.19917,9.80374 28.01433,12.26469 1.86547,0.52078 3.94167,0.30262 5.73531,1.03959 2.99033,1.22832 4.68012,4.46256 6.69212,6.80858 85.37731,32.42312 157.05595,26.18697 224.33582,-3.11877 3.49533,-2.55574 7.11664,-5.10794 10.10554,-8.26063 3.29419,-3.4752 4.13151,-6.54624 -0.76883,-8.58051 v -1.43664 c 10.23814,-4.20644 27.89758,-22.99768 36.19552,-30.22823 2.66639,-2.32303 7.84423,-6.23084 7.98286,-10.1392 0.0977,-2.77053 -3.18888,-4.59562 -5.10678,-6.02291 -4.68412,-3.48743 -12.51957,-7.3568 -15.26282,-12.72907 -1.17158,-2.2943 0.90042,-4.10816 2.3191,-5.68199 2.15494,-2.39128 8.26165,-7.94139 7.88885,-11.4173 -0.60914,-5.6754 -12.30197,-3.18795 -11.78909,-9.4265 0.35269,-4.29192 2.78134,-8.79898 3.98021,-12.91707 3.22521,-11.0807 7.11578,-22.38206 9.09259,-33.76086 1.808,-10.40767 2.92433,-21.04669 3.05003,-31.60592 0.0855,-7.18242 -0.81342,-14.43315 -0.67622,-21.54949 0.21621,-11.18988 1.38381,-22.52357 0.6145,-33.76086 -1.02145,-14.9158 -4.14253,-28.83039 -8.41076,-43.09898 -2.63764,-8.81803 -4.7798,-17.73668 -7.32767,-26.5777 -1.1177,-3.87817 -1.94283,-8.924551 -4.76866,-11.993921 -2.62329,-2.84847 -6.9442,-2.39677 -10.31598,-1.43803 -7.79515,2.21679 -13.91381,9.024481 -20.11285,13.906151 -13.31252,10.48451 -29.64421,18.46497 -39.68838,32.56835 -7.22265,10.14117 -10.14194,23.39345 -13.46703,35.1975 -2.99035,-1.15218 -6.12939,-2.56812 -9.33811,-2.95745 -17.39901,-2.10752 -29.52787,7.97491 -44.53561,14.45051 -0.3139,-3.44649 0.89987,-6.64658 1.3244,-10.05643 0.85695,-6.87858 1.17363,-13.29965 -0.35495,-20.11286 -0.44248,-1.97465 -0.35555,-5.90062 -1.7074,-7.4371 -1.13135,-1.28648 -3.02455,-0.4499 -4.29166,0.13048 -3.88537,1.7807 -7.58765,4.61075 -10.77194,7.42868 -12.5001,11.06133 -20.28883,25.59802 -24.42416,41.54029 -2.15207,-3.33658 -4.87261,-6.90592 -5.91489,-10.77475 -1.63917,-6.08627 -0.30218,-13.14233 -0.57801,-19.39454 -0.26578,-6.01444 -2.27066,-12.25665 -4.09805,-17.9579 -3.1412,-9.80284 -6.66568,-20.18256 -12.5537,-28.73265 -7.8835,-11.44849 -18.75835,-19.87775 -28.57412,-29.479031 -6.45333,-6.31291 -12.14459,-18.12428 -21.54949,-20.31909 -0.98984,-0.23099 -2.04708,-0.30705 -3.11457,-0.23991 z m 167.609,121.151341 c -0.73987,3.22883 -1.35687,8.05978 -3.89322,10.40436 -1.41939,1.31234 -4.91996,2.37125 -6.03694,0.0561 -0.69893,-1.4474 0.51832,-2.9154 1.41979,-3.9311 2.30077,-2.59165 5.30452,-5.23352 8.51037,-6.52936 z m -49.56383,6.94887 c 13.1904,0.47768 26.1051,6.99052 37.35245,13.26499 26.10927,14.56526 51.29951,33.75691 63.86141,61.67419 6.31685,14.03873 8.09867,30.0939 8.99298,45.25392 0.3297,5.57484 1.26242,10.95938 0.34513,16.52128 -0.66876,4.05846 -2.90455,7.00648 -4.26361,10.77474 -0.93309,2.5881 -0.95005,5.33781 -2.04692,7.90148 -2.60605,6.08843 -8.90774,9.22177 -11.58706,15.08464 -0.99486,2.17794 -0.7694,4.8472 -1.13358,7.18317 -0.69103,4.42983 -1.6059,8.73115 -3.21419,12.92969 -1.02935,2.68722 -2.25122,5.91768 -5.05768,7.17614 -5.72783,2.5687 -9.68618,-2.14855 -13.57225,-5.53467 -1.44597,-1.25993 -3.56009,-3.6004 -5.68199,-3.37413 -3.59803,0.38358 -8.02067,6.62321 -10.86734,8.78535 -4.82421,3.66339 -11.36949,6.00289 -17.21153,7.39641 -10.31285,2.46023 -21.99487,1.78648 -32.32423,-0.45035 -4.35513,-0.94315 -8.43669,-3.13603 -12.80764,-3.86656 -6.68607,-1.1177 -13.53232,1.03631 -20.23491,0.57802 -14.49774,-0.992 -28.88496,-6.34509 -39.5074,-16.4848 -3.34591,-3.19435 -6.92457,-6.37072 -8.61979,-10.74669 -3.99166,2.46383 -7.43747,5.84087 -11.49306,8.16103 -13.36854,7.64718 -16.40722,-14.04693 -18.10101,-22.52735 -0.43099,-2.15854 -0.55243,-4.78674 -1.55448,-6.76929 -3.34376,-6.62142 -11.19145,-10.24758 -13.67467,-17.65627 -2.21026,-6.59269 -0.0314,-12.75164 0.25955,-19.39173 0.1882,-4.29623 -0.29219,-8.65286 0.23289,-12.9297 1.70167,-13.85627 7.08967,-26.91249 14.28215,-38.78767 10.52976,-17.38822 27.61717,-33.40032 45.13327,-43.60685 14.05669,-8.19094 28.56892,-14.48729 44.53561,-17.85689 5.66965,-1.196 12.14962,-2.91257 17.9579,-2.7021 z m -67.89351,77.74089 c -2.28504,10e-4 -4.56556,0.0775 -6.81138,0.376 -7.9345,1.05521 -16.79702,1.57033 -22.75042,7.74856 -5.0907,5.28248 -6.7789,13.62148 -6.69773,20.67965 0.0718,6.2206 1.08166,13.06115 3.89601,18.67622 6.6315,13.22848 21.29256,19.85292 35.60857,17.86391 11.86799,-1.64926 26.66746,-5.49342 36.60607,-12.37272 4.05201,-2.80429 7.92703,-5.8439 9.83055,-10.51941 2.216,-5.44194 1.07232,-12.99579 0.36477,-18.67622 -0.77793,-6.25221 -2.91129,-12.80738 -8.02353,-16.85938 -9.40706,-7.45468 -23.86564,-6.84505 -35.18628,-6.84505 -2.26198,0 -4.55158,-0.0731 -6.83663,-0.0716 z m 108.66077,9.52892 c -1.14262,-0.024 -2.28292,0.0277 -3.41481,0.18799 -4.04482,0.57322 -8.11947,1.26784 -11.35978,3.95074 -4.7495,3.9335 -6.41383,10.80297 -7.60265,16.57319 -1.53073,7.43168 -3.26577,12.65603 -0.34653,20.11285 5.13595,13.11859 20.39652,18.97931 32.23865,24.21512 5.31912,2.35175 10.46517,4.99727 16.52128,4.19205 7.77935,-1.03437 11.22901,-5.0455 15.82119,-10.86313 8.28577,-10.49674 13.99855,-27.20352 6.67389,-39.80062 -2.43796,-4.1928 -6.89686,-6.5714 -11.00202,-8.87934 -8.35329,-4.69563 -17.9608,-6.78465 -27.29602,-8.31395 -3.35148,-0.54897 -6.80536,-1.30292 -10.2332,-1.3749 z m -92.45235,1.20374 c 8.03503,-0.0898 13.03495,8.23594 13.48246,16.12143 0.67234,11.83353 -6.57291,26.0151 -18.54435,29.39766 -8.32672,2.35319 -13.98845,-5.45055 -14.33827,-13.08122 -0.52868,-11.53327 2.93501,-27.98745 15.7749,-31.85845 1.26729,-0.38214 2.47739,-0.5666 3.62526,-0.57942 z m 94.71813,7.90709 c 6.4203,-0.72476 11.82809,5.00354 13.88651,10.88277 3.83078,10.93923 4.27961,30.5892 -9.51348,35.38971 -6.38654,2.22319 -11.63856,-5.46319 -14.05065,-10.25004 -5.20708,-10.33297 -6.32588,-29.95568 6.8703,-35.29851 0.95167,-0.38529 1.89014,-0.62039 2.80732,-0.72393 z"
           sodipodi:nodetypes="ssccccccccccccscccccccscccccccccsccccsscccsccccccccccccccccccssccccccccccccccscssccsccccccccscccccscccccccccsssscccsssscsssscsssssccsss" /></g></g></g></svg>
