<?xml version="1.0" encoding="UTF-8" standalone="no"?>
<!-- Created with Inkscape (http://www.inkscape.org/) -->

<svg
   xmlns:dc="http://purl.org/dc/elements/1.1/"
   xmlns:cc="http://creativecommons.org/ns#"
   xmlns:rdf="http://www.w3.org/1999/02/22-rdf-syntax-ns#"
   xmlns:svg="http://www.w3.org/2000/svg"
   xmlns="http://www.w3.org/2000/svg"
   xmlns:xlink="http://www.w3.org/1999/xlink"
   xmlns:sodipodi="http://sodipodi.sourceforge.net/DTD/sodipodi-0.dtd"
   xmlns:inkscape="http://www.inkscape.org/namespaces/inkscape"
   width="345"
   height="200"
   viewBox="0 0 91.28125 52.916666"
   version="1.1"
   id="svg8"
   sodipodi:docname="star.svg"
   inkscape:version="0.92.4 (5da689c313, 2019-01-14)">
  <defs
     id="defs2">
    <linearGradient
       id="linearGradient5877"
       inkscape:collect="always">
      <stop
         id="stop5873"
         offset="0"
         style="stop-color:#ffffff;stop-opacity:0.89873415" />
      <stop
         id="stop5875"
         offset="1"
         style="stop-color:#ffffff;stop-opacity:0;" />
    </linearGradient>
    <linearGradient
       id="linearGradient906"
       inkscape:collect="always">
      <stop
         id="stop902"
         offset="0"
         style="stop-color:#cde8ff;stop-opacity:1" />
      <stop
         id="stop904"
         offset="1"
         style="stop-color:#ffffff;stop-opacity:0;" />
    </linearGradient>
    <linearGradient
       inkscape:collect="always"
       id="linearGradient6991">
      <stop
         style="stop-color:#ffffff;stop-opacity:1;"
         offset="0"
         id="stop6987" />
      <stop
         style="stop-color:#ffffff;stop-opacity:0;"
         offset="1"
         id="stop6989" />
    </linearGradient>
    <clipPath
       clipPathUnits="userSpaceOnUse"
       id="clipPath4694">
      <g
         inkscape:label="Clip"
         id="use4696"
         style="fill:none;fill-opacity:1" />
    </clipPath>
    <linearGradient
       inkscape:collect="always"
       xlink:href="#linearGradient6991"
       id="linearGradient6993"
       x1="0"
       y1="270.54168"
       x2="91.28125"
       y2="270.54168"
       gradientUnits="userSpaceOnUse" />
    <clipPath
       clipPathUnits="userSpaceOnUse"
       id="clipPath7018">
      <g
         inkscape:label="Clip"
         id="use7020">
        <rect
           style="opacity:1;fill:url(#linearGradient7050);fill-opacity:1;stroke:none;stroke-width:0.26458332;stroke-opacity:1"
           id="rect7046"
           width="91.28125"
           height="52.916664"
           x="0"
           y="244.08334" />
      </g>
    </clipPath>
    <linearGradient
       inkscape:collect="always"
       xlink:href="#linearGradient6991"
       id="linearGradient7050"
       gradientUnits="userSpaceOnUse"
       x1="0"
       y1="270.54168"
       x2="91.28125"
       y2="270.54168" />
    <clipPath
       clipPathUnits="userSpaceOnUse"
       id="clipPath7084">
      <g
         id="use7086"
         inkscape:label="Clip">
        <path
           style="display:inline;stroke-width:0.68551093"
           d="m 26.621054,265.69923 -19.2163127,0.008 -0.0014,2.17556 19.2177467,-0.008 z m 9.264282,1.95237 v 1.36976 h 2.286438 v 6.4655 h 1.381711 v -6.4655 h 2.286439 v -1.36976 z m 46.971402,0.25521 v 1.45102 h -0.835905 v 1.18384 h 0.835905 v 2.83224 c 0,0.4024 0.03455,0.7395 0.104191,1.01035 0.06965,0.27085 0.177959,0.48748 0.324994,0.64999 0.147035,0.16251 0.332848,0.27829 0.557268,0.34794 0.23217,0.0696 0.50668,0.10467 0.82396,0.10467 h 1.10308 v -1.12602 h -0.84738 c -0.29407,0 -0.50696,-0.0658 -0.63852,-0.19738 -0.12382,-0.13156 -0.18591,-0.37154 -0.18591,-0.71978 v -2.90201 h 1.69475 v -1.18384 h -1.69475 v -1.45102 z m -39.788523,1.45102 v 1.18384 h 3.667669 c 0.340501,0 0.580474,0.0812 0.71977,0.24375 0.147035,0.1625 0.220805,0.36373 0.220805,0.60362 v 0.46456 H 44.76297 c -0.379195,0 -0.700402,0.0425 -0.963516,0.12761 -0.263114,0.0774 -0.47601,0.19363 -0.638521,0.34841 -0.162512,0.14703 -0.282497,0.32864 -0.359885,0.54532 -0.06965,0.21669 -0.104666,0.4646 -0.104666,0.74319 0,0.5804 0.158736,1.03652 0.476022,1.36928 0.325023,0.33276 0.851183,0.49945 1.578617,0.49945 h 2.86713 c 0.255374,0 0.464539,-0.0234 0.627051,-0.0698 0.170248,-0.0464 0.301908,-0.116 0.394773,-0.20886 0.09286,-0.1006 0.154485,-0.22853 0.185438,-0.3833 0.0387,-0.15477 0.05831,-0.34433 0.05831,-0.56875 v -2.8786 c 0,-0.28633 -0.03875,-0.55337 -0.116138,-0.80101 -0.07738,-0.24764 -0.205313,-0.46054 -0.383302,-0.63852 -0.170252,-0.18573 -0.390609,-0.32859 -0.661463,-0.42919 -0.270854,-0.1006 -0.595791,-0.15102 -0.974985,-0.15102 z m 8.414035,0 c -0.309546,0 -0.529902,0.0696 -0.66146,0.20885 -0.131557,0.13156 -0.197386,0.37947 -0.197386,0.74319 v 5.17699 h 1.230202 v -4.77075 c 0,-0.11608 0.05043,-0.17444 0.151028,-0.17444 h 2.00828 c 0.650048,0 1.11832,0.12792 1.404649,0.3833 0.294069,0.25538 0.441135,0.62653 0.441135,1.11407 v 3.44782 h 1.241674 v -3.44782 c 0,-0.85126 -0.255379,-1.50908 -0.766129,-1.9734 -0.503013,-0.47205 -1.27661,-0.70781 -2.321329,-0.70781 z m 9.716409,0 c -0.820297,0 -1.470652,0.23997 -1.95045,0.71976 -0.472058,0.4798 -0.707822,1.21465 -0.707822,2.20519 0,0.99829 0.235764,1.74155 0.707822,2.22909 0.479798,0.47979 1.130153,0.71976 1.95045,0.71977 h 2.704633 v 0.27815 c 0,0.44111 -0.08918,0.75858 -0.267167,0.95205 -0.177989,0.19347 -0.494986,0.29011 -0.951567,0.29011 h -3.505649 v 1.18432 h 3.644728 c 0.425626,0 0.785586,-0.0467 1.079655,-0.13956 0.301806,-0.0851 0.541781,-0.22425 0.719768,-0.41771 0.185728,-0.19347 0.317388,-0.44511 0.394776,-0.75466 0.08512,-0.30954 0.127609,-0.68118 0.127609,-1.11455 v -3.52858 c 0,-0.88995 -0.19376,-1.54777 -0.580694,-1.9734 -0.379193,-0.43336 -0.936162,-0.64998 -1.671334,-0.64998 z m 7.666074,0 c -0.386937,0 -0.716085,0.0504 -0.986937,0.15102 -0.263113,0.1006 -0.483471,0.24346 -0.661464,0.42919 -0.170246,0.17798 -0.293967,0.39088 -0.371355,0.63852 -0.07739,0.24764 -0.116139,0.51468 -0.116139,0.80101 v 2.08953 c 0,0.29407 0.03873,0.56486 0.116139,0.81249 0.07739,0.2399 0.201109,0.45279 0.371355,0.63852 0.177993,0.17799 0.398351,0.31712 0.661464,0.41772 0.270852,0.1006 0.6,0.15103 0.986937,0.15103 h 3.749395 v -1.1958 h -3.749395 c -0.340507,0 -0.584206,-0.0775 -0.731242,-0.23227 -0.139296,-0.16251 -0.209334,-0.36746 -0.209334,-0.61511 v -0.44113 h 2.913963 c 0.750655,0 1.284277,-0.15079 1.601559,-0.4526 0.317282,-0.30955 0.476026,-0.74654 0.476026,-1.31145 0,-0.59588 -0.162473,-1.05669 -0.487494,-1.38171 -0.325029,-0.33277 -0.851186,-0.49896 -1.578616,-0.49896 z m 6.422956,0 c -0.309542,0 -0.5299,0.0696 -0.661456,0.20885 -0.131563,0.13156 -0.197393,0.37947 -0.197393,0.74319 v 5.17699 h 1.230204 v -4.77075 c 0,-0.11608 0.05045,-0.17444 0.151032,-0.17444 h 2.00828 c 0.650043,0 1.118322,0.12792 1.404646,0.3833 0.294071,0.25538 0.441133,0.62653 0.441133,1.11407 v 3.44782 h 1.241673 v -3.44782 c 0,-0.85126 -0.255373,-1.50908 -0.766127,-1.9734 -0.503007,-0.47205 -1.276606,-0.70781 -2.321325,-0.70781 z m -60.64463,0.59263 c -1.926834,0 -4.9709967,-0.11556 -4.9709967,3.65381 0,2.96662 0.0076,4.52652 0.0076,4.52652 h 6.3460137 l 0.0014,-4.34777 c 0,0 -0.05512,-1.55382 1.620198,-1.62594 1.675252,-0.0721 8.968441,-0.008 8.968441,-0.008 l 9.6e-4,-2.19898 z m 46.671738,0.59121 h 1.218733 c 0.495276,0 0.847292,0.11252 1.056236,0.33694 0.208945,0.22442 0.313526,0.58812 0.313526,1.09112 v 2.14737 h -2.588495 c -0.533965,0 -0.924735,-0.13913 -1.172372,-0.41772 -0.239899,-0.28633 -0.359884,-0.74293 -0.359884,-1.36976 -3e-6,-0.62683 0.119985,-1.0797 0.359884,-1.35829 0.247637,-0.28633 0.638407,-0.42966 1.172372,-0.42966 z m 7.549936,0 h 1.973387 c 0.30181,0 0.522167,0.0696 0.661463,0.20885 0.139296,0.1393 0.208855,0.32511 0.208855,0.55728 0,0.22442 -0.06956,0.40229 -0.208855,0.53385 -0.131556,0.13156 -0.363588,0.19739 -0.696356,0.19739 h -2.87907 v -0.65 c 0,-0.23989 0.07004,-0.44112 0.209334,-0.60362 0.147036,-0.16252 0.390735,-0.24375 0.731242,-0.24375 z m -24.078822,2.28691 h 2.890548 v 1.14896 c 0,0.20894 -0.112524,0.31352 -0.336943,0.31352 H 44.76297 c -0.309546,0 -0.530383,-0.0658 -0.66194,-0.19739 -0.131556,-0.13929 -0.197387,-0.32089 -0.197387,-0.54532 0,-0.22442 0.06583,-0.39856 0.197387,-0.52238 0.131557,-0.13156 0.359858,-0.19739 0.684881,-0.19739 z"
           id="path843"
           inkscape:connector-curvature="0" />
        <rect
           style="display:inline;opacity:1;fill:url(#linearGradient849);fill-opacity:1;stroke:none;stroke-width:0.26458332;stroke-opacity:1"
           id="rect845"
           width="91.28125"
           height="52.916664"
           x="0"
           y="244.08334" />
      </g>
    </clipPath>
    <linearGradient
       inkscape:collect="always"
       xlink:href="#linearGradient906"
       id="linearGradient841"
       gradientUnits="userSpaceOnUse"
       x1="92.604164"
       y1="238.79167"
       x2="-5.2916665"
       y2="314.19794"
       gradientTransform="translate(0,-3.5058594e-6)" />
    <linearGradient
       inkscape:collect="always"
       xlink:href="#linearGradient6991"
       id="linearGradient849"
       gradientUnits="userSpaceOnUse"
       x1="0"
       y1="270.54168"
       x2="91.28125"
       y2="270.54168" />
    <clipPath
       clipPathUnits="userSpaceOnUse"
       id="clipPath5859">
      <path
         style="display:inline;opacity:1;fill:#000000;fill-opacity:1;stroke:none;stroke-width:0.26458332;stroke-opacity:1"
         d="m 32.014583,246.3323 c -0.29315,0 -0.529166,0.23601 -0.529166,0.52916 v 2.11667 c 0,0.29316 0.236016,0.52917 0.529166,0.52917 h 19.05 c 0.293161,0 0.529167,-0.23601 0.529167,-0.52917 v -2.11667 c 0,-0.29315 -0.236006,-0.52916 -0.529167,-0.52916 z m 21.166667,0 c -0.293158,0 -0.529167,0.23601 -0.529167,0.52916 v 2.11667 14.81667 2.11666 0.014 c 0,0.28545 0.229775,0.51521 0.515216,0.51521 h 0.01395 2.130618 1.044382 0.396875 v 0.92604 h -3.395657 -0.264584 c -0.317582,0 -0.573092,0.25551 -0.573092,0.57309 v 6.52674 c 0,0.31759 0.25551,0.57309 0.573092,0.57309 h 2.293398 c 0.31759,0 0.573093,-0.2555 0.573093,-0.57309 v -3.66024 h 3.660241 c 0.317589,0 0.573092,-0.25551 0.573092,-0.5731 v -0.26458 -10.49548 c 0,-0.31759 -0.255503,-0.57309 -0.573092,-0.57309 h -2.293398 c -0.31759,0 -0.573093,0.2555 -0.573093,0.57309 v 3.79253 H 56.35625 55.827083 V 249.5073 H 72.23125 c 0.293161,0 0.529167,-0.23601 0.529167,-0.52917 v -2.11667 c 0,-0.29315 -0.236006,-0.52916 -0.529167,-0.52916 z m 4.144968,4.10104 c -0.31759,0 -0.573093,0.2555 -0.573093,0.57309 v 6.26215 0.30851 c 0,0.29315 0.236006,0.52917 0.529167,0.52917 h 3.175 0.661458 v 3.57187 c 0,0.29316 0.236006,0.52917 0.529167,0.52917 h 2.116666 c 0.293161,0 0.529167,-0.23601 0.529167,-0.52917 v -7.9375 h 1.058333 v 7.9375 c 0,0.29316 0.236009,0.52917 0.529167,0.52917 h 2.116667 c 0.293147,0 0.529166,-0.23601 0.529166,-0.52917 v -3.57187 h 0.661459 0.837676 2.293398 c 0.317589,0 0.573092,-0.25551 0.573092,-0.5731 v -6.52673 c 0,-0.31759 -0.255503,-0.57309 -0.573092,-0.57309 h -2.293398 c -0.31759,0 -0.573093,0.2555 -0.573093,0.57309 v 3.66024 h -0.529167 -0.396875 v -1.4552 -2.11667 c 0,-0.29316 -0.236008,-0.52917 -0.529166,-0.52917 H 65.88125 61.647917 c -0.293161,0 -0.529167,0.23601 -0.529167,0.52917 v 2.11667 1.4552 h -0.661458 -0.264584 v -3.66024 c 0,-0.31759 -0.255503,-0.57309 -0.573092,-0.57309 z m -38.011635,0.13229 c -0.29315,0 -0.529167,0.23601 -0.529167,0.52917 v 2.11667 c 0,0.29315 0.236017,0.52916 0.529167,0.52916 h 12.038542 v 0.66146 0.83767 2.33733 1.32292 h -0.264583 -0.661459 v -1.45521 -2.11667 c 0,-0.29317 -0.236008,-0.52917 -0.529166,-0.52917 H 27.78125 23.547916 c -0.29317,0 -0.529166,0.236 -0.529166,0.52917 v 2.11667 1.45521 h -0.661459 -0.264583 v -3.66025 c 0,-0.31759 -0.255501,-0.57309 -0.573092,-0.57309 h -2.2934 c -0.31759,0 -0.573091,0.2555 -0.573091,0.57309 v 6.52674 c 0,0.31759 0.255501,0.57309 0.573091,0.57309 h 2.2934 0.837675 0.661459 v 3.57187 c 0,0.29316 0.236006,0.52917 0.529166,0.52917 h 2.116667 c 0.29316,0 0.529167,-0.23601 0.529167,-0.52917 v -7.9375 h 1.058333 v 7.9375 c 0,0.29316 0.236009,0.52917 0.529167,0.52917 h 2.116667 c 0.293158,0 0.529166,-0.23601 0.529166,-0.52917 v -3.57187 h 0.661459 0.837676 2.293398 c 0.317589,0 0.573092,-0.2555 0.573092,-0.57309 v -4.45399 -2.07275 -1.10225 -0.39688 h 0.926042 v 13.75833 h -0.529167 -0.396875 v -3.79253 c 0,-0.31759 -0.255503,-0.57309 -0.573092,-0.57309 h -2.293398 c -0.31759,0 -0.573093,0.2555 -0.573093,0.57309 v 10.76007 c 0,0.31759 0.255503,0.57309 0.573093,0.57309 h 2.293398 1.366842 v 3.39566 c 0,0.31759 0.255503,0.57309 0.573093,0.57309 h 2.293398 c 0.317582,0 0.573093,-0.2555 0.573093,-0.57309 v -6.26215 c 0,-0.31759 -0.255511,-0.57309 -0.573093,-0.57309 h -2.293398 -1.366843 v -0.92605 h 0.396875 1.058334 2.116666 c 0.293161,0 0.529167,-0.23601 0.529167,-0.52916 v -2.11667 -14.81666 -2.11667 c 0,-0.29316 -0.236006,-0.52917 -0.529167,-0.52917 h -2.116666 z m 55.131002,4.23333 c -0.34716,0 -0.626835,0.27968 -0.626835,0.62684 v 20.53983 h -3.704167 c -0.29315,0 -0.529166,0.23601 -0.529166,0.52917 v 2.11666 8.46667 c 0,0.29316 0.236005,0.52917 0.529166,0.52917 h 2.116667 c 0.293161,0 0.529167,-0.23601 0.529167,-0.52917 v -3.57187 h 0.661458 3.175 c 0.293161,0 0.529167,-0.23602 0.529167,-0.52917 v -2.38125 c 0,-0.29316 -0.236006,-0.52917 -0.529167,-0.52917 h -3.175 -0.661458 v -0.92604 h 3.704166 c 0.293161,0 0.529167,-0.236 0.529167,-0.52917 v -0.62683 -1.48983 -21.069 c 0,-0.34716 -0.279673,-0.62684 -0.626835,-0.62684 z M 15.08125,259.0323 c -0.29316,0 -0.529167,0.236 -0.529167,0.52916 v 23.01875 0.26459 c 0,0.29316 0.236007,0.52916 0.529167,0.52916 h 3.704166 v 0.92605 h -0.661458 -3.175 c -0.29316,0 -0.529167,0.236 -0.529167,0.52916 v 2.38125 c 0,0.29316 0.236007,0.52917 0.529167,0.52917 h 3.175 0.661458 v 3.57187 c 0,0.29317 0.236007,0.52917 0.529167,0.52917 h 2.116667 c 0.29316,0 0.529166,-0.236 0.529166,-0.52917 v -8.46666 -2.11667 c 0,-0.0366 -0.004,-0.0725 -0.01085,-0.10697 -0.0492,-0.24157 -0.261803,-0.42219 -0.518313,-0.42219 h -2.116667 -1.5875 v -20.63751 c 0,-0.29316 -0.236016,-0.52916 -0.529167,-0.52916 z m 25.664583,0 c -0.439729,0 -0.79375,0.35401 -0.79375,0.79375 v 24.47396 h -0.661458 -3.175 c -0.293161,0 -0.529167,0.236 -0.529167,0.52916 v 2.38125 c 0,0.29316 0.236006,0.52917 0.529167,0.52917 h 3.175 0.661458 v 0.92604 H 27.669628 c -0.231439,0 -0.417545,0.18612 -0.417545,0.41755 v 2.33991 c 0,0.23143 0.186106,0.41754 0.417545,0.41754 h 15.039911 c 0.231439,0 0.417544,-0.18611 0.417544,-0.41754 v -0.64079 -30.95625 c 0,-0.43974 -0.35401,-0.79375 -0.79375,-0.79375 z m 29.36875,0 c -0.293161,0 -0.529166,0.236 -0.529166,0.52916 v 3.70417 h -7.9375 c -0.293161,0 -0.529167,0.23601 -0.529167,0.52917 v 2.11666 8.46667 c 0,0.29316 0.236006,0.52917 0.529167,0.52917 h 2.116666 c 0.293161,0 0.529167,-0.23601 0.529167,-0.52917 v -7.9375 h 5.291667 v 0.92604 h -0.661459 -3.175 c -0.293161,0 -0.529166,0.23601 -0.529166,0.52917 v 2.38125 c 0,0.29315 0.236005,0.52917 0.529166,0.52917 h 3.175 0.661459 v 3.57187 c 0,0.29316 0.236005,0.52917 0.529166,0.52917 h 2.116667 c 0.293161,0 0.529167,-0.23601 0.529167,-0.52917 v -14.81667 c 0,-0.29316 -0.236006,-0.52916 -0.529167,-0.52916 z m -50.8,4.23333 c -0.29316,0 -0.529167,0.23601 -0.529167,0.52917 v 14.81666 c 0,0.29317 0.236007,0.52917 0.529167,0.52917 h 2.116667 c 0.29316,0 0.529166,-0.236 0.529166,-0.52917 v -3.57187 h 0.661459 3.175 c 0.29316,0 0.529166,-0.23601 0.529166,-0.52917 v -2.38125 c 0,-0.29316 -0.236006,-0.52916 -0.529166,-0.52916 h -3.175 -0.661459 v -0.92605 h 5.291667 v 7.9375 c 0,0.29317 0.236009,0.52917 0.529167,0.52917 h 2.116667 c 0.293158,0 0.529166,-0.236 0.529166,-0.52917 v -8.46666 -2.11667 c 0,-0.0366 -0.004,-0.0725 -0.01085,-0.10697 -0.0492,-0.24157 -0.26181,-0.4222 -0.518318,-0.4222 H 27.78125 21.960416 v -3.70416 c 0,-0.29316 -0.236006,-0.52917 -0.529166,-0.52917 z m 37.967709,8.33438 c -0.293161,0 -0.529167,0.236 -0.529167,0.52916 v 3.175 0.66146 H 53.18125 c -0.293158,0 -0.529167,0.23601 -0.529167,0.52917 v 2.11666 c 0,0.29317 0.236009,0.52917 0.529167,0.52917 h 8.466667 2.38125 0.79375 0.396875 v 3.79253 c 0,0.31759 0.25551,0.5731 0.573092,0.5731 h 2.293398 c 0.31759,0 0.573093,-0.25551 0.573093,-0.5731 V 272.1731 c 0,-0.31759 -0.255503,-0.57309 -0.573093,-0.57309 h -2.293398 c -0.317582,0 -0.573092,0.2555 -0.573092,0.57309 v 3.79253 h -0.396875 -0.79375 -2.38125 -1.455209 v -0.66146 -3.175 c 0,-0.29316 -0.236005,-0.52916 -0.529166,-0.52916 z m -33.822742,4.23333 c -0.31759,0 -0.573092,0.2555 -0.573092,0.57309 v 19.22673 c 0,0.31759 0.255502,0.5731 0.573092,0.5731 h 2.2934 21.166666 c 0.317589,0 0.573092,-0.25551 0.573092,-0.5731 v -2.29339 c 0,-0.31759 -0.255503,-0.5731 -0.573092,-0.5731 H 26.326041 v -9.39271 h 0.396876 1.058333 2.116667 8.466666 c 0.293161,0 0.529167,-0.23601 0.529167,-0.52916 v -2.11667 c 0,-0.29315 -0.236006,-0.52916 -0.529167,-0.52916 h -3.571875 v -0.66146 -3.175 c 0,-0.29316 -0.236005,-0.52917 -0.529166,-0.52917 h -2.38125 c -0.293161,0 -0.529167,0.23601 -0.529167,0.52917 v 3.175 0.66146 H 29.897917 27.78125 26.722917 26.326041 v -3.79254 c 0,-0.31759 -0.255501,-0.57309 -0.573091,-0.57309 z m 38.056075,4.23333 c -0.29315,0 -0.529167,0.23601 -0.529167,0.52917 v 3.175 0.66146 h -3.571875 c -0.293161,0 -0.529166,0.236 -0.529166,0.52917 v 2.11666 c 0,0.29316 0.236005,0.52917 0.529166,0.52917 h 7.9375 v 3.43958 0.26458 c 0,0.29317 0.236009,0.52917 0.529167,0.52917 h 10.583333 c 0.293161,0 0.529167,-0.236 0.529167,-0.52917 v -2.11666 c 0,-0.29316 -0.236006,-0.52917 -0.529167,-0.52917 h -7.9375 v -1.5875 -2.11666 c 0,-0.29317 -0.236008,-0.52917 -0.529166,-0.52917 H 65.88125 64.426042 v -0.66146 -3.175 c 0,-0.29316 -0.236006,-0.52917 -0.529167,-0.52917 z m 0.132292,8.59896 c -0.293161,0 -0.529167,0.23601 -0.529167,0.52917 v 6.08541 0.26459 c 0,0.29316 0.236006,0.52916 0.529167,0.52916 H 72.23125 c 0.293161,0 0.529167,-0.236 0.529167,-0.52916 v -2.11667 c 0,-0.29316 -0.236006,-0.52916 -0.529167,-0.52916 h -7.9375 v -3.70417 c 0,-0.29316 -0.236006,-0.52917 -0.529167,-0.52917 z"
         id="path5861"
         inkscape:connector-curvature="0" />
    </clipPath>
    <linearGradient
       inkscape:collect="always"
       xlink:href="#linearGradient5877"
       id="linearGradient5863"
       gradientUnits="userSpaceOnUse"
       gradientTransform="translate(0.03307292,0.01653295)"
       x1="72.760422"
       y1="255.98959"
       x2="34.395836"
       y2="303.61459" />
    <linearGradient
       inkscape:collect="always"
       xlink:href="#linearGradient5877"
       id="linearGradient5863-5"
       gradientUnits="userSpaceOnUse"
       gradientTransform="translate(0.01653636,-0.01654962)"
       x1="86.979164"
       y1="249.25439"
       x2="41.224571"
       y2="286.40244" />
    <clipPath
       clipPathUnits="userSpaceOnUse"
       id="clipPath1975">
      <path
         d="m 46.165648,261.3748 v 3.22964 h 3.229634 v 0.9857 h -3.229634 v 3.22964 h -0.974111 v -3.22964 h -3.229634 v -0.9857 h 3.229634 v -3.22964 z"
         style="display:inline;fill:#ffffff;fill-opacity:1;stroke-width:0.29687136"
         id="path1977"
         inkscape:connector-curvature="0"
         inkscape:transform-center-x="-0.18708867"
         inkscape:transform-center-y="-1.403165" />
    </clipPath>
    <clipPath
       clipPathUnits="userSpaceOnUse"
       id="clipPath1979">
      <path
         style="display:inline;fill:#000000;fill-opacity:1;stroke:none;stroke-width:0.17236824px;stroke-linecap:butt;stroke-linejoin:miter;stroke-opacity:1"
         d="m 22.031183,253.06139 c -0.401273,-0.0139 -0.848803,0.0685 -1.332218,0.30489 l -7.405233,3.70417 h 12.351184 c 1.245649,-0.0504 1.778779,0.41015 2.097546,0.7183 l -3.853511,-3.85351 c -0.316848,-0.34696 -0.974968,-0.84332 -1.857768,-0.87385 z m -8.742619,4.00906 0.001,12.58683 c 0.01143,1.30643 0.231328,1.44804 0.676961,1.98127 l 4.879806,4.87981 h 9.72447 v -4.16719 z"
         id="path1981"
         inkscape:connector-curvature="0" />
    </clipPath>
    <clipPath
       clipPathUnits="userSpaceOnUse"
       id="clipPath1983">
      <path
         style="display:inline;fill:#ffffff;fill-opacity:1;stroke:none;stroke-width:0.17236824px;stroke-linecap:butt;stroke-linejoin:miter;stroke-opacity:1"
         d="m 13.288564,257.07045 15.282271,15.2802 h 4.166672 v -9.56995 l -4.938718,-4.93769 c -0.312322,-0.3047 -0.836014,-0.82585 -2.153873,-0.77256 z m 0,0 -3.4385496,7.16545 c -0.2736754,0.64878 -1.2161379,2.14642 0.3937746,3.67988 l 3.72277,3.72277 c -0.445634,-0.53323 -0.665535,-0.67484 -0.676962,-1.98127 z"
         id="path1985"
         inkscape:connector-curvature="0" />
    </clipPath>
    <clipPath
       clipPathUnits="userSpaceOnUse"
       id="clipPath1994">
      <path
         inkscape:connector-curvature="0"
         id="path1996"
         d="m 70.728983,252.83092 a 12.177398,12.214417 0 0 0 -12.177551,12.21476 12.177398,12.214417 0 0 0 12.177551,12.21424 12.177398,12.214417 0 0 0 12.177556,-12.21424 12.177398,12.214417 0 0 0 -2.00298,-6.69261 2.6625381,2.6625381 0 0 1 -0.905889,0.24546 11.291791,11.274545 0 0 1 1.99833,6.38256 11.291791,11.274545 0 0 1 -11.291822,11.27476 11.291791,11.274545 0 0 1 -11.2913,-11.27476 11.291791,11.274545 0 0 1 11.2913,-11.27425 11.291791,11.274545 0 0 1 6.41305,1.99781 2.6625381,2.6625381 0 0 1 0.247529,-0.89659 12.177398,12.214417 0 0 0 -6.635774,-1.97714 z m 3.713988,5.78001 a 2.6622806,2.6622806 0 0 0 -2.66237,2.66185 2.6622806,2.6622806 0 0 0 2.66237,2.66237 2.6622806,2.6622806 0 0 0 2.661854,-2.66237 2.6622806,2.6622806 0 0 0 -2.661854,-2.66185 z"
         style="display:inline;fill:#000000;fill-opacity:1;stroke-width:0.02573495" />
    </clipPath>
    <linearGradient
       inkscape:collect="always"
       xlink:href="#linearGradient5877"
       id="linearGradient2000"
       gradientUnits="userSpaceOnUse"
       gradientTransform="translate(0.03307292,0.01653295)"
       x1="75.670837"
       y1="227.67918"
       x2="-12.357723"
       y2="301.15631" />
    <clipPath
       clipPathUnits="userSpaceOnUse"
       id="clipPath2658">
      <path
         style="fill:#616161;fill-opacity:1;stroke:none;stroke-width:0.2212314px;stroke-linecap:butt;stroke-linejoin:miter;stroke-opacity:1"
         d="m 39.332567,270.59225 -1.764234,1.06467 c -1.659236,1.01628 -0.44981,3.03027 0.518078,2.98187 l 2.165218,-0.008 0.61573,-1.48078 z"
         id="path2660"
         inkscape:connector-curvature="0" />
    </clipPath>
    <clipPath
       clipPathUnits="userSpaceOnUse"
       id="clipPath2662">
      <path
         style="fill:#616161;fill-opacity:1;stroke:none;stroke-width:0.2212314px;stroke-linecap:butt;stroke-linejoin:miter;stroke-opacity:1"
         d="m 44.861874,265.13546 6.980878,-11.95744 c 1.313561,-2.75157 3.773194,-0.69907 3.558879,0.46931 l -3.395332,11.45406 4.596143,-1.17375 c 2.812502,-0.53872 3.935921,3.47735 1.550297,4.74839 l -4.979384,2.60756 10.392151,7.78696 c 1.43724,1.23192 -0.306264,3.82774 -2.144366,2.8598 l -12.340564,-5.64139 c 0,0 -0.855366,-0.28132 -1.842857,-0.17376 l -9.066618,14.63675 c -1.131321,1.99166 -4.720777,1.28613 -3.868539,-1.80915 l 6.564797,-15.79257 -1.534792,-2.55798 -13.379682,-9.36764 c -1.349246,-0.95816 -1.632782,-4.46816 1.926097,-3.80331 l 14.951805,7.28066 z"
         id="path2664"
         inkscape:connector-curvature="0"
         sodipodi:nodetypes="ccccccccccccccccccc" />
    </clipPath>
    <linearGradient
       inkscape:collect="always"
       xlink:href="#linearGradient5877"
       id="linearGradient2666"
       gradientUnits="userSpaceOnUse"
       gradientTransform="translate(0.01653636,-0.01654962)"
       x1="86.979164"
       y1="249.25439"
       x2="29.582905"
       y2="295.1337" />
    <clipPath
       clipPathUnits="userSpaceOnUse"
       id="clipPath2712">
      <path
         inkscape:connector-curvature="0"
         id="path2714"
         d="m 55.721232,263.22161 c -0.303389,0 -0.57891,0.0493 -0.825853,0.14804 -0.239889,0.0988 -0.444445,0.22945 -0.613778,0.39172 -0.169333,0.16228 -0.299581,0.35264 -0.391304,0.57137 -0.09172,0.21872 -0.137641,0.44833 -0.137641,0.68821 0,0.6985 0.299735,1.21698 0.899457,1.55565 -0.282223,0.17639 -0.5256,0.40933 -0.730212,0.6986 -0.204612,0.28928 -0.306889,0.62075 -0.306889,0.99469 0,0.20461 0.03173,0.41292 0.09523,0.62459 0.07056,0.21166 0.18327,0.40537 0.338491,0.58176 0.16228,0.16933 0.377686,0.31043 0.645798,0.42332 0.26811,0.10583 0.60667,0.15885 1.015892,0.15885 0.712611,0 1.241947,-0.16907 1.587669,-0.50774 0.352778,-0.33867 0.528947,-0.78326 0.528947,-1.33359 0,-0.76906 -0.363189,-1.32637 -1.089911,-1.67209 0.246945,-0.16227 0.465692,-0.37768 0.656192,-0.64579 0.1905,-0.27517 0.285679,-0.59954 0.285679,-0.97348 0,-0.19051 -0.03549,-0.38462 -0.106037,-0.58218 -0.07056,-0.20461 -0.18327,-0.38829 -0.338494,-0.55056 -0.155221,-0.16933 -0.359775,-0.30668 -0.613776,-0.41251 -0.246945,-0.10584 -0.54668,-0.15886 -0.899458,-0.15886 z m 15.662957,0 c -0.225777,0 -0.43743,0.0284 -0.634984,0.0848 -0.197556,0.0565 -0.377481,0.127 -0.539759,0.21167 -0.155223,0.0776 -0.289226,0.16235 -0.402115,0.25408 -0.112888,0.0917 -0.197633,0.16937 -0.254079,0.23287 l 0.434137,0.61377 c 0.04233,-0.0423 0.105788,-0.0953 0.190451,-0.15885 0.08467,-0.0706 0.183606,-0.14111 0.296495,-0.21166 0.119944,-0.0706 0.253949,-0.13065 0.402115,-0.18005 0.155224,-0.0494 0.324295,-0.074 0.507739,-0.074 0.155219,0 0.300079,0.0213 0.434135,0.0637 0.134054,0.0423 0.250525,0.10912 0.349305,0.20084 0.105833,0.0847 0.186819,0.19404 0.243263,0.3281 0.0635,0.13405 0.09523,0.29645 0.09523,0.48694 0,0.16934 -0.03507,0.33507 -0.105622,0.49735 -0.0635,0.15522 -0.152002,0.30717 -0.264891,0.45534 -0.105833,0.14817 -0.232739,0.29595 -0.380907,0.44411 -0.14111,0.14817 -0.289307,0.30012 -0.444531,0.45535 -0.1905,0.19049 -0.384201,0.38796 -0.581757,0.59257 -0.1905,0.19755 -0.363744,0.4092 -0.518966,0.63498 -0.155223,0.22578 -0.28213,0.46582 -0.380907,0.71982 -0.09878,0.25399 -0.14804,0.5291 -0.148038,0.82544 v 0.11643 c -2e-6,0.0353 0.0034,0.0703 0.01039,0.10563 h 3.96876 v -0.74061 h -3.016075 c 0,-0.10584 0.04217,-0.23275 0.126833,-0.38091 0.08467,-0.14817 0.190698,-0.30012 0.317698,-0.45534 0.127,-0.15523 0.261005,-0.30677 0.402117,-0.45493 0.14111,-0.14818 0.264678,-0.27508 0.370511,-0.38091 0.190501,-0.1905 0.377522,-0.38462 0.560967,-0.58217 0.183442,-0.19756 0.345419,-0.39877 0.486529,-0.60338 0.148167,-0.20461 0.264637,-0.41251 0.349305,-0.62418 0.09172,-0.21167 0.137641,-0.43041 0.137641,-0.65619 0,-0.58561 -0.16573,-1.03396 -0.497343,-1.3444 -0.324554,-0.3175 -0.829261,-0.47614 -1.513649,-0.47614 z m -3.429001,0.11644 c -0.578555,0.007 -1.097039,0.0989 -1.55565,0.27529 -0.45861,0.17639 -0.850188,0.43021 -1.174743,0.76181 -0.3175,0.33162 -0.564219,0.74448 -0.740608,1.23836 -0.169333,0.48685 -0.254075,1.0479 -0.254075,1.68291 0,0.86783 0.179923,1.54495 0.539756,2.03178 0.359834,0.48683 0.902948,0.73021 1.62967,0.73021 0.352778,0 0.656269,-0.0635 0.91027,-0.19045 0.254,-0.13406 0.46231,-0.30354 0.624588,-0.50816 0.162279,-0.21167 0.282089,-0.44085 0.359701,-0.6878 0.07761,-0.25399 0.116432,-0.50071 0.116432,-0.7406 0,-0.26106 -0.03548,-0.51529 -0.106038,-0.76223 -0.07056,-0.24695 -0.183268,-0.46194 -0.338491,-0.64538 -0.155221,-0.1905 -0.363534,-0.34246 -0.624588,-0.45535 -0.254001,-0.11288 -0.564173,-0.16924 -0.931062,-0.16924 -0.225777,0 -0.441186,0.0246 -0.645796,0.074 -0.197556,0.0494 -0.380822,0.11284 -0.550155,0.19046 0.08467,-0.381 0.208234,-0.70203 0.370513,-0.96308 0.162277,-0.26106 0.363076,-0.47271 0.602965,-0.63499 0.239889,-0.16934 0.511654,-0.28914 0.815041,-0.35969 0.310445,-0.0776 0.652761,-0.11976 1.026706,-0.12684 z m -8.921389,0.0316 v 0.76223 h 3.174922 c -0.239889,0.28928 -0.483265,0.65957 -0.73021,1.11112 -0.246945,0.4445 -0.47279,0.93125 -0.6774,1.46042 -0.204612,0.52211 -0.381197,1.06564 -0.529362,1.63009 -0.141112,0.55738 -0.229195,1.08631 -0.264474,1.58725 h 0.899458 c 0.04233,-0.58561 0.14461,-1.17089 0.306889,-1.7565 0.162277,-0.59267 0.353055,-1.14664 0.571776,-1.66169 0.22578,-0.52211 0.46206,-0.99134 0.709004,-1.40761 0.246945,-0.41628 0.476131,-0.74774 0.687797,-0.99468 v -0.73063 z m 17.335456,0 c -0.211665,0.52211 -0.412881,1.07274 -0.60338,1.65129 -0.1905,0.5715 -0.373766,1.14301 -0.550157,1.7145 -0.169331,0.5715 -0.328382,1.12881 -0.476548,1.67209 -0.148168,0.54328 -0.28217,1.04756 -0.402115,1.51323 h 0.889062 l 0.380905,-1.7145 h 2.518731 l 0.391719,1.7145 h 0.920668 c -0.119945,-0.46567 -0.253948,-0.96995 -0.402117,-1.51323 -0.148168,-0.54328 -0.3068,-1.10059 -0.476133,-1.67209 -0.162278,-0.57149 -0.338862,-1.143 -0.529363,-1.7145 -0.183442,-0.57855 -0.377145,-1.12918 -0.581759,-1.65129 z m -20.648023,0.58217 c 0.197556,0 0.366628,0.0355 0.507739,0.10604 0.14111,0.0635 0.254242,0.14449 0.338907,0.24326 0.09172,0.0917 0.158519,0.19776 0.20085,0.3177 0.04233,0.1129 0.06362,0.21517 0.06362,0.30689 0,0.33867 -0.0814,0.61378 -0.243681,0.82544 -0.155223,0.21167 -0.366874,0.39494 -0.634984,0.55016 -0.479778,-0.11289 -0.825434,-0.29282 -1.037101,-0.53976 -0.20461,-0.254 -0.306888,-0.52535 -0.306888,-0.81463 0,-0.11289 0.01752,-0.22602 0.05281,-0.3389 0.04233,-0.11995 0.109541,-0.22557 0.201265,-0.31729 0.09172,-0.0988 0.204435,-0.18018 0.338491,-0.24368 0.141112,-0.0635 0.314356,-0.0952 0.518966,-0.0952 z m 21.155763,0.18006 c 0.162277,0.42333 0.335104,0.93139 0.518548,1.52404 0.190498,0.58561 0.367085,1.19594 0.529362,1.83094 h -2.116616 c 0.169333,-0.62088 0.349258,-1.22411 0.539758,-1.80972 0.190501,-0.58561 0.366668,-1.10076 0.528948,-1.54526 z m -10.561873,2.48713 c 0.416278,0 0.719354,0.11271 0.909854,0.33849 0.197554,0.22578 0.296493,0.5539 0.296493,0.98429 0,0.14816 -0.02129,0.3068 -0.06363,0.47613 -0.03528,0.16229 -0.09873,0.31048 -0.190453,0.44453 -0.09172,0.13406 -0.208193,0.24719 -0.349303,0.33891 -0.141112,0.0847 -0.317279,0.12683 -0.528947,0.12683 -0.254001,0 -0.462311,-0.053 -0.624588,-0.15885 -0.16228,-0.11288 -0.292527,-0.26108 -0.391304,-0.44453 -0.09172,-0.1905 -0.158934,-0.40549 -0.201267,-0.64538 -0.03528,-0.24695 -0.05281,-0.50786 -0.05281,-0.78302 v -0.21167 c 0,-0.0706 0.0034,-0.1411 0.01039,-0.21166 0.190498,-0.0847 0.37752,-0.14854 0.560964,-0.19086 0.190501,-0.0423 0.398811,-0.0632 0.624588,-0.0632 z m -10.964401,0.24327 c 0.507999,0.11288 0.906672,0.27861 1.195951,0.49734 0.289276,0.21167 0.433717,0.5185 0.433717,0.92066 0,0.127 -0.02463,0.25432 -0.07402,0.38132 -0.04939,0.12701 -0.127037,0.24348 -0.23287,0.34931 -0.09878,0.0988 -0.229441,0.17976 -0.39172,0.24326 -0.155222,0.0565 -0.341826,0.0848 -0.56055,0.0848 -0.232833,0 -0.430706,-0.0321 -0.592983,-0.0956 -0.16228,-0.0706 -0.292527,-0.15863 -0.391304,-0.26447 -0.09878,-0.10583 -0.169331,-0.21855 -0.211663,-0.33849 -0.04233,-0.12701 -0.06362,-0.24723 -0.06362,-0.36012 0,-0.32455 0.07764,-0.603 0.23287,-0.83583 0.155221,-0.23283 0.37397,-0.42696 0.656192,-0.58217 z"
         style="font-style:normal;font-variant:normal;font-weight:normal;font-stretch:normal;font-size:13.151968px;line-height:1.25;font-family:'Ubuntu Mono';-inkscape-font-specification:'Ubuntu Mono';letter-spacing:0px;word-spacing:0px;fill:#ffffff;fill-opacity:1;stroke:none;stroke-width:0.26458332;stroke-opacity:1" />
    </clipPath>
    <clipPath
       clipPathUnits="userSpaceOnUse"
       id="clipPath2658-8">
      <path
         style="fill:#616161;fill-opacity:1;stroke:none;stroke-width:0.2212314px;stroke-linecap:butt;stroke-linejoin:miter;stroke-opacity:1"
         d="m 39.332567,270.59225 -1.764234,1.06467 c -1.659236,1.01628 -0.44981,3.03027 0.518078,2.98187 l 2.165218,-0.008 0.61573,-1.48078 z"
         id="path2660-2"
         inkscape:connector-curvature="0" />
    </clipPath>
    <clipPath
       clipPathUnits="userSpaceOnUse"
       id="clipPath2662-3">
      <path
         style="fill:#616161;fill-opacity:1;stroke:none;stroke-width:0.2212314px;stroke-linecap:butt;stroke-linejoin:miter;stroke-opacity:1"
         d="m 44.861874,265.13546 6.980878,-11.95744 c 1.313561,-2.75157 3.773194,-0.69907 3.558879,0.46931 l -3.395332,11.45406 4.596143,-1.17375 c 2.812502,-0.53872 3.935921,3.47735 1.550297,4.74839 l -4.979384,2.60756 10.392151,7.78696 c 1.43724,1.23192 -0.306264,3.82774 -2.144366,2.8598 l -12.340564,-5.64139 c 0,0 -0.855366,-0.28132 -1.842857,-0.17376 l -9.066618,14.63675 c -1.131321,1.99166 -4.720777,1.28613 -3.868539,-1.80915 l 6.564797,-15.79257 -1.534792,-2.55798 -13.379682,-9.36764 c -1.349246,-0.95816 -1.632782,-4.46816 1.926097,-3.80331 l 14.951805,7.28066 z"
         id="path2664-8"
         inkscape:connector-curvature="0"
         sodipodi:nodetypes="ccccccccccccccccccc" />
    </clipPath>
    <linearGradient
       inkscape:collect="always"
       xlink:href="#linearGradient5877"
       id="linearGradient2765"
       gradientUnits="userSpaceOnUse"
       gradientTransform="translate(0.01653636,-0.01654962)"
       x1="86.979164"
       y1="249.25439"
       x2="-31.543758"
       y2="327.23373" />
    <linearGradient
       inkscape:collect="always"
       xlink:href="#linearGradient5877"
       id="linearGradient2767"
       gradientUnits="userSpaceOnUse"
       gradientTransform="translate(0.01653636,-0.01654962)"
       x1="86.979164"
       y1="249.25439"
       x2="9.2522392"
       y2="307.80502" />
  </defs>
  <sodipodi:namedview
     id="base"
     pagecolor="$chipInner"
     bordercolor="#666666"
     borderopacity="1.0"
     inkscape:pageopacity="0"
     inkscape:pageshadow="2"
     inkscape:zoom="2"
     inkscape:cx="185.28732"
     inkscape:cy="103.20169"
     inkscape:document-units="mm"
     inkscape:current-layer="layer1"
     showgrid="true"
     units="px"
     inkscape:window-width="1542"
     inkscape:window-height="1377"
     inkscape:window-x="1016"
     inkscape:window-y="0"
     inkscape:window-maximized="0"
     showguides="true"
     inkscape:guide-bbox="true">
    <inkscape:grid
       type="xygrid"
       id="grid4518"
       color="#ffffff"
       opacity="0.03137255"
       empcolor="#ffffff"
       empopacity="0.01568627"
       enabled="false"
       empspacing="1"
       spacingx="0.13229167"
       spacingy="0.13229167" />
    <sodipodi:guide
       position="45.657,52.900122"
       orientation="1,0"
       id="guide1862"
       inkscape:locked="false"
       inkscape:label=""
       inkscape:color="rgb(0,0,255)" />
    <sodipodi:guide
       position="48.035016,31.898618"
       orientation="0,1"
       id="guide1864"
       inkscape:locked="false"
       inkscape:label=""
       inkscape:color="rgb(0,0,255)" />
  </sodipodi:namedview>
  <metadata
     id="metadata5">
    <rdf:RDF>
      <cc:Work
         rdf:about="">
        <dc:format>image/svg+xml</dc:format>
        <dc:type
           rdf:resource="http://purl.org/dc/dcmitype/StillImage" />
        <dc:title></dc:title>
      </cc:Work>
    </rdf:RDF>
  </metadata>
  <g
     inkscape:label="Layer 1"
     inkscape:groupmode="layer"
     id="layer1"
     transform="translate(0,-244.08334)"
     style="display:inline">
    <rect
       mask="none"
       clip-path="none"
       style="display:none;opacity:1;fill:url(#linearGradient841);fill-opacity:1;stroke:none;stroke-width:0.26458332;stroke-opacity:1"
       id="rect4525"
       width="91.28125"
       height="52.916664"
       x="0"
       y="244.08334" />
    <rect
       style="display:none;opacity:0.597;fill:#42a5f5;fill-opacity:0.13502108;stroke:none;stroke-width:0.26458332;stroke-opacity:1"
       id="rect4520"
       width="91.28125"
       height="52.916664"
       x="4.4408921e-16"
       y="244.08334" />
    <rect
       y="244.06682"
       x="0.016536456"
       height="52.916668"
       width="91.28125"
       id="rect1988"
       style="display:inline;opacity:1;fill:url(#linearGradient2666);fill-opacity:1;stroke:none;stroke-width:0.26458332;stroke-opacity:1"
       clip-path="url(#clipPath2662)"
       mask="none"
       transform="matrix(0.80587296,0,0,0.80587296,-8.8923796,49.054641)" />
    <rect
       mask="none"
       clip-path="url(#clipPath2658)"
       style="display:inline;opacity:1;fill:url(#linearGradient5863-5);fill-opacity:1;stroke:none;stroke-width:0.26458332;stroke-opacity:1"
       id="rect2656"
       width="91.28125"
       height="52.916668"
       x="0.016536456"
       y="244.06682"
       transform="matrix(0.80587296,0,0,0.80587296,-8.8923796,49.054641)" />
    <rect
       y="244.06682"
       x="0.016536456"
       height="52.916668"
       width="91.28125"
       id="rect1988-5"
       style="display:inline;opacity:1;fill:url(#linearGradient2765);fill-opacity:1;stroke:none;stroke-width:0.26458332;stroke-opacity:1"
       clip-path="url(#clipPath2662-3)"
       mask="none"
       transform="matrix(0.5478603,0,0,0.5478603,40.579006,120.08169)" />
    <rect
       mask="none"
       clip-path="url(#clipPath2658-8)"
       style="display:inline;opacity:1;fill:url(#linearGradient2767);fill-opacity:1;stroke:none;stroke-width:0.26458332;stroke-opacity:1"
       id="rect2656-0"
       width="91.28125"
       height="52.916668"
       x="0.016536456"
       y="244.06682"
       transform="matrix(0.5478603,0,0,0.5478603,40.579006,120.08169)" />
  </g>
</svg>
