<?xml version="1.0" encoding="UTF-8" standalone="no"?>
<!-- Created with Inkscape (http://www.inkscape.org/) -->

<svg
   xmlns:dc="http://purl.org/dc/elements/1.1/"
   xmlns:cc="http://creativecommons.org/ns#"
   xmlns:rdf="http://www.w3.org/1999/02/22-rdf-syntax-ns#"
   xmlns:svg="http://www.w3.org/2000/svg"
   xmlns="http://www.w3.org/2000/svg"
   xmlns:xlink="http://www.w3.org/1999/xlink"
   xmlns:sodipodi="http://sodipodi.sourceforge.net/DTD/sodipodi-0.dtd"
   xmlns:inkscape="http://www.inkscape.org/namespaces/inkscape"
   width="345"
   height="200"
   viewBox="0 0 91.28125 52.916666"
   version="1.1"
   id="svg8"
   sodipodi:docname="tan.svg"
   inkscape:version="0.92.4 (5da689c313, 2019-01-14)">
  <defs
     id="defs2">
    <linearGradient
       id="linearGradient5361"
       inkscape:collect="always">
      <stop
         id="stop5357"
         offset="0"
         style="stop-color:#ffffff;stop-opacity:1;" />
      <stop
         id="stop5359"
         offset="1"
         style="stop-color:#ffffff;stop-opacity:0.33755276" />
    </linearGradient>
    <linearGradient
       inkscape:collect="always"
       id="linearGradient6991">
      <stop
         style="stop-color:#ffffff;stop-opacity:1;"
         offset="0"
         id="stop6987" />
      <stop
         style="stop-color:#ffffff;stop-opacity:0;"
         offset="1"
         id="stop6989" />
    </linearGradient>
    <clipPath
       clipPathUnits="userSpaceOnUse"
       id="clipPath4694">
      <g
         inkscape:label="Clip"
         id="use4696"
         style="fill:none;fill-opacity:1" />
    </clipPath>
    <linearGradient
       inkscape:collect="always"
       xlink:href="#linearGradient6991"
       id="linearGradient6993"
       x1="0"
       y1="270.54168"
       x2="91.28125"
       y2="270.54168"
       gradientUnits="userSpaceOnUse" />
    <clipPath
       clipPathUnits="userSpaceOnUse"
       id="clipPath7018">
      <g
         inkscape:label="Clip"
         id="use7020">
        <rect
           style="opacity:1;fill:url(#linearGradient7050);fill-opacity:1;stroke:none;stroke-width:0.26458332;stroke-opacity:1"
           id="rect7046"
           width="91.28125"
           height="52.916664"
           x="0"
           y="244.08334" />
      </g>
    </clipPath>
    <linearGradient
       inkscape:collect="always"
       xlink:href="#linearGradient6991"
       id="linearGradient7050"
       gradientUnits="userSpaceOnUse"
       x1="0"
       y1="270.54168"
       x2="91.28125"
       y2="270.54168" />
    <clipPath
       clipPathUnits="userSpaceOnUse"
       id="clipPath7084">
      <g
         id="use7086"
         inkscape:label="Clip">
        <path
           style="display:inline;stroke-width:0.68551093"
           d="m 26.621054,265.69923 -19.2163127,0.008 -0.0014,2.17556 19.2177467,-0.008 z m 9.264282,1.95237 v 1.36976 h 2.286438 v 6.4655 h 1.381711 v -6.4655 h 2.286439 v -1.36976 z m 46.971402,0.25521 v 1.45102 h -0.835905 v 1.18384 h 0.835905 v 2.83224 c 0,0.4024 0.03455,0.7395 0.104191,1.01035 0.06965,0.27085 0.177959,0.48748 0.324994,0.64999 0.147035,0.16251 0.332848,0.27829 0.557268,0.34794 0.23217,0.0696 0.50668,0.10467 0.82396,0.10467 h 1.10308 v -1.12602 h -0.84738 c -0.29407,0 -0.50696,-0.0658 -0.63852,-0.19738 -0.12382,-0.13156 -0.18591,-0.37154 -0.18591,-0.71978 v -2.90201 h 1.69475 v -1.18384 h -1.69475 v -1.45102 z m -39.788523,1.45102 v 1.18384 h 3.667669 c 0.340501,0 0.580474,0.0812 0.71977,0.24375 0.147035,0.1625 0.220805,0.36373 0.220805,0.60362 v 0.46456 H 44.76297 c -0.379195,0 -0.700402,0.0425 -0.963516,0.12761 -0.263114,0.0774 -0.47601,0.19363 -0.638521,0.34841 -0.162512,0.14703 -0.282497,0.32864 -0.359885,0.54532 -0.06965,0.21669 -0.104666,0.4646 -0.104666,0.74319 0,0.5804 0.158736,1.03652 0.476022,1.36928 0.325023,0.33276 0.851183,0.49945 1.578617,0.49945 h 2.86713 c 0.255374,0 0.464539,-0.0234 0.627051,-0.0698 0.170248,-0.0464 0.301908,-0.116 0.394773,-0.20886 0.09286,-0.1006 0.154485,-0.22853 0.185438,-0.3833 0.0387,-0.15477 0.05831,-0.34433 0.05831,-0.56875 v -2.8786 c 0,-0.28633 -0.03875,-0.55337 -0.116138,-0.80101 -0.07738,-0.24764 -0.205313,-0.46054 -0.383302,-0.63852 -0.170252,-0.18573 -0.390609,-0.32859 -0.661463,-0.42919 -0.270854,-0.1006 -0.595791,-0.15102 -0.974985,-0.15102 z m 8.414035,0 c -0.309546,0 -0.529902,0.0696 -0.66146,0.20885 -0.131557,0.13156 -0.197386,0.37947 -0.197386,0.74319 v 5.17699 h 1.230202 v -4.77075 c 0,-0.11608 0.05043,-0.17444 0.151028,-0.17444 h 2.00828 c 0.650048,0 1.11832,0.12792 1.404649,0.3833 0.294069,0.25538 0.441135,0.62653 0.441135,1.11407 v 3.44782 h 1.241674 v -3.44782 c 0,-0.85126 -0.255379,-1.50908 -0.766129,-1.9734 -0.503013,-0.47205 -1.27661,-0.70781 -2.321329,-0.70781 z m 9.716409,0 c -0.820297,0 -1.470652,0.23997 -1.95045,0.71976 -0.472058,0.4798 -0.707822,1.21465 -0.707822,2.20519 0,0.99829 0.235764,1.74155 0.707822,2.22909 0.479798,0.47979 1.130153,0.71976 1.95045,0.71977 h 2.704633 v 0.27815 c 0,0.44111 -0.08918,0.75858 -0.267167,0.95205 -0.177989,0.19347 -0.494986,0.29011 -0.951567,0.29011 h -3.505649 v 1.18432 h 3.644728 c 0.425626,0 0.785586,-0.0467 1.079655,-0.13956 0.301806,-0.0851 0.541781,-0.22425 0.719768,-0.41771 0.185728,-0.19347 0.317388,-0.44511 0.394776,-0.75466 0.08512,-0.30954 0.127609,-0.68118 0.127609,-1.11455 v -3.52858 c 0,-0.88995 -0.19376,-1.54777 -0.580694,-1.9734 -0.379193,-0.43336 -0.936162,-0.64998 -1.671334,-0.64998 z m 7.666074,0 c -0.386937,0 -0.716085,0.0504 -0.986937,0.15102 -0.263113,0.1006 -0.483471,0.24346 -0.661464,0.42919 -0.170246,0.17798 -0.293967,0.39088 -0.371355,0.63852 -0.07739,0.24764 -0.116139,0.51468 -0.116139,0.80101 v 2.08953 c 0,0.29407 0.03873,0.56486 0.116139,0.81249 0.07739,0.2399 0.201109,0.45279 0.371355,0.63852 0.177993,0.17799 0.398351,0.31712 0.661464,0.41772 0.270852,0.1006 0.6,0.15103 0.986937,0.15103 h 3.749395 v -1.1958 h -3.749395 c -0.340507,0 -0.584206,-0.0775 -0.731242,-0.23227 -0.139296,-0.16251 -0.209334,-0.36746 -0.209334,-0.61511 v -0.44113 h 2.913963 c 0.750655,0 1.284277,-0.15079 1.601559,-0.4526 0.317282,-0.30955 0.476026,-0.74654 0.476026,-1.31145 0,-0.59588 -0.162473,-1.05669 -0.487494,-1.38171 -0.325029,-0.33277 -0.851186,-0.49896 -1.578616,-0.49896 z m 6.422956,0 c -0.309542,0 -0.5299,0.0696 -0.661456,0.20885 -0.131563,0.13156 -0.197393,0.37947 -0.197393,0.74319 v 5.17699 h 1.230204 v -4.77075 c 0,-0.11608 0.05045,-0.17444 0.151032,-0.17444 h 2.00828 c 0.650043,0 1.118322,0.12792 1.404646,0.3833 0.294071,0.25538 0.441133,0.62653 0.441133,1.11407 v 3.44782 h 1.241673 v -3.44782 c 0,-0.85126 -0.255373,-1.50908 -0.766127,-1.9734 -0.503007,-0.47205 -1.276606,-0.70781 -2.321325,-0.70781 z m -60.64463,0.59263 c -1.926834,0 -4.9709967,-0.11556 -4.9709967,3.65381 0,2.96662 0.0076,4.52652 0.0076,4.52652 h 6.3460137 l 0.0014,-4.34777 c 0,0 -0.05512,-1.55382 1.620198,-1.62594 1.675252,-0.0721 8.968441,-0.008 8.968441,-0.008 l 9.6e-4,-2.19898 z m 46.671738,0.59121 h 1.218733 c 0.495276,0 0.847292,0.11252 1.056236,0.33694 0.208945,0.22442 0.313526,0.58812 0.313526,1.09112 v 2.14737 h -2.588495 c -0.533965,0 -0.924735,-0.13913 -1.172372,-0.41772 -0.239899,-0.28633 -0.359884,-0.74293 -0.359884,-1.36976 -3e-6,-0.62683 0.119985,-1.0797 0.359884,-1.35829 0.247637,-0.28633 0.638407,-0.42966 1.172372,-0.42966 z m 7.549936,0 h 1.973387 c 0.30181,0 0.522167,0.0696 0.661463,0.20885 0.139296,0.1393 0.208855,0.32511 0.208855,0.55728 0,0.22442 -0.06956,0.40229 -0.208855,0.53385 -0.131556,0.13156 -0.363588,0.19739 -0.696356,0.19739 h -2.87907 v -0.65 c 0,-0.23989 0.07004,-0.44112 0.209334,-0.60362 0.147036,-0.16252 0.390735,-0.24375 0.731242,-0.24375 z m -24.078822,2.28691 h 2.890548 v 1.14896 c 0,0.20894 -0.112524,0.31352 -0.336943,0.31352 H 44.76297 c -0.309546,0 -0.530383,-0.0658 -0.66194,-0.19739 -0.131556,-0.13929 -0.197387,-0.32089 -0.197387,-0.54532 0,-0.22442 0.06583,-0.39856 0.197387,-0.52238 0.131557,-0.13156 0.359858,-0.19739 0.684881,-0.19739 z"
           id="path843"
           inkscape:connector-curvature="0" />
        <rect
           style="display:inline;opacity:1;fill:url(#linearGradient849);fill-opacity:1;stroke:none;stroke-width:0.26458332;stroke-opacity:1"
           id="rect845"
           width="91.28125"
           height="52.916664"
           x="0"
           y="244.08334" />
      </g>
    </clipPath>
    <linearGradient
       inkscape:collect="always"
       xlink:href="#linearGradient5361"
       id="linearGradient841"
       gradientUnits="userSpaceOnUse"
       x1="92.604164"
       y1="238.79167"
       x2="-5.2916665"
       y2="314.19794"
       gradientTransform="translate(0,-3.5058594e-6)" />
    <linearGradient
       inkscape:collect="always"
       xlink:href="#linearGradient6991"
       id="linearGradient849"
       gradientUnits="userSpaceOnUse"
       x1="0"
       y1="270.54168"
       x2="91.28125"
       y2="270.54168" />
    <clipPath
       clipPathUnits="userSpaceOnUse"
       id="clipPath974">
      <path
         inkscape:connector-curvature="0"
         id="path976"
         d="m 25.832297,264.38936 -19.2163138,0.008 -0.0014,2.17556 19.2177468,-0.008 z m 9.264283,1.95237 v 1.36976 h 2.286436 v 6.4655 h 1.381713 v -6.4655 h 2.286439 v -1.36976 z m 46.971399,0.25521 v 1.45102 h -0.835903 v 1.18384 h 0.835903 v 2.83224 c 0,0.4024 0.03455,0.7395 0.104193,1.01035 0.06965,0.27085 0.177959,0.48748 0.324993,0.64999 0.147035,0.16251 0.332849,0.27829 0.557268,0.34794 0.23217,0.0696 0.50668,0.10467 0.823961,0.10467 h 1.103079 v -1.12602 h -0.847378 c -0.294071,0 -0.50696,-0.0658 -0.638522,-0.19738 -0.12382,-0.13156 -0.185909,-0.37154 -0.185909,-0.71978 v -2.90201 h 1.694749 v -1.18384 h -1.694749 v -1.45102 z m -39.78852,1.45102 v 1.18384 h 3.667667 c 0.3405,0 0.580475,0.0812 0.71977,0.24375 0.147034,0.1625 0.220805,0.36373 0.220805,0.60362 v 0.46456 h -2.913488 c -0.379196,0 -0.700402,0.0425 -0.963517,0.12761 -0.263112,0.0774 -0.476009,0.19363 -0.638519,0.34841 -0.162513,0.14703 -0.282498,0.32864 -0.359886,0.54532 -0.06965,0.21669 -0.104667,0.4646 -0.104667,0.74319 0,0.5804 0.158737,1.03652 0.476022,1.36928 0.325023,0.33276 0.851184,0.49945 1.578618,0.49945 h 2.867129 c 0.255375,0 0.464539,-0.0234 0.627052,-0.0698 0.170248,-0.0464 0.301908,-0.116 0.394774,-0.20886 0.09286,-0.1006 0.154485,-0.22853 0.185436,-0.3833 0.0387,-0.15477 0.05831,-0.34433 0.05831,-0.56875 v -2.8786 c 0,-0.28633 -0.03875,-0.55337 -0.116133,-0.80101 -0.07738,-0.24764 -0.205314,-0.46054 -0.383305,-0.63852 -0.170251,-0.18573 -0.390609,-0.32859 -0.661463,-0.42919 -0.270854,-0.1006 -0.595792,-0.15102 -0.974985,-0.15102 z m 8.414033,0 c -0.309544,0 -0.529902,0.0696 -0.661458,0.20885 -0.131559,0.13156 -0.197387,0.37947 -0.197387,0.74319 v 5.17699 h 1.230201 v -4.77075 c 0,-0.11608 0.05043,-0.17444 0.151029,-0.17444 h 2.00828 c 0.650047,0 1.11832,0.12792 1.40465,0.3833 0.294068,0.25538 0.441134,0.62653 0.441134,1.11407 v 3.44782 h 1.241674 v -3.44782 c 0,-0.85126 -0.255379,-1.50908 -0.76613,-1.9734 -0.503013,-0.47205 -1.27661,-0.70781 -2.321328,-0.70781 z m 9.71641,0 c -0.820298,0 -1.470652,0.23997 -1.95045,0.71976 -0.472059,0.4798 -0.707821,1.21465 -0.707821,2.20519 0,0.99829 0.235762,1.74155 0.707821,2.22909 0.479798,0.47979 1.130152,0.71976 1.95045,0.71977 h 2.704632 v 0.27815 c 0,0.44111 -0.08918,0.75858 -0.267166,0.95205 -0.17799,0.19347 -0.494988,0.29011 -0.951569,0.29011 h -3.505647 v 1.18432 h 3.644728 c 0.425625,0 0.785585,-0.0467 1.079654,-0.13956 0.301807,-0.0851 0.541782,-0.22425 0.71977,-0.41771 0.185727,-0.19347 0.317386,-0.44511 0.394774,-0.75466 0.08512,-0.30954 0.127608,-0.68118 0.127608,-1.11455 v -3.52858 c 0,-0.88995 -0.193759,-1.54777 -0.580691,-1.9734 -0.379193,-0.43336 -0.936162,-0.64998 -1.671336,-0.64998 z m 7.666075,0 c -0.386938,0 -0.716087,0.0504 -0.986938,0.15102 -0.263113,0.1006 -0.483471,0.24346 -0.661464,0.42919 -0.170246,0.17798 -0.293968,0.39088 -0.371356,0.63852 -0.07739,0.24764 -0.116139,0.51468 -0.116139,0.80101 v 2.08953 c 0,0.29407 0.03873,0.56486 0.116139,0.81249 0.07739,0.2399 0.20111,0.45279 0.371356,0.63852 0.177993,0.17799 0.398351,0.31712 0.661464,0.41772 0.270851,0.1006 0.6,0.15103 0.986938,0.15103 h 3.749394 v -1.1958 h -3.749394 c -0.340508,0 -0.584208,-0.0775 -0.731243,-0.23227 -0.139297,-0.16251 -0.209335,-0.36746 -0.209335,-0.61511 v -0.44113 h 2.913965 c 0.750654,0 1.284276,-0.15079 1.601557,-0.4526 0.317283,-0.30955 0.476028,-0.74654 0.476028,-1.31145 0,-0.59588 -0.162473,-1.05669 -0.487495,-1.38171 -0.32503,-0.33277 -0.851186,-0.49896 -1.578615,-0.49896 z m 6.422956,0 c -0.309544,0 -0.529902,0.0696 -0.661458,0.20885 -0.131562,0.13156 -0.197393,0.37947 -0.197393,0.74319 v 5.17699 h 1.230204 v -4.77075 c 0,-0.11608 0.05045,-0.17444 0.151032,-0.17444 h 2.00828 c 0.650045,0 1.118323,0.12792 1.404647,0.3833 0.294071,0.25538 0.441132,0.62653 0.441132,1.11407 v 3.44782 h 1.241673 v -3.44782 c 0,-0.85126 -0.255373,-1.50908 -0.766127,-1.9734 -0.503007,-0.47205 -1.276604,-0.70781 -2.321325,-0.70781 z m -60.644632,0.59263 c -1.926834,0 -4.9709968,-0.11556 -4.9709968,3.65381 0,2.96662 0.0076,4.52652 0.0076,4.52652 h 6.3460138 l 0.0014,-4.34777 c 0,0 -0.05512,-1.55382 1.620198,-1.62594 1.675252,-0.0721 8.968443,-0.008 8.968443,-0.008 l 0.0011,-2.19898 z m 46.67174,0.59121 h 1.218732 c 0.495276,0 0.847291,0.11252 1.056235,0.33694 0.208947,0.22442 0.313526,0.58812 0.313526,1.09112 v 2.14737 h -2.588493 c -0.533966,0 -0.924737,-0.13913 -1.172374,-0.41772 -0.239898,-0.28633 -0.359884,-0.74293 -0.359884,-1.36976 -2e-6,-0.62683 0.119986,-1.0797 0.359884,-1.35829 0.247637,-0.28633 0.638408,-0.42966 1.172374,-0.42966 z m 7.549936,0 h 1.973387 c 0.30181,0 0.522165,0.0696 0.661461,0.20885 0.139297,0.1393 0.208856,0.32511 0.208856,0.55728 0,0.22442 -0.06956,0.40229 -0.208856,0.53385 -0.131557,0.13156 -0.363588,0.19739 -0.696355,0.19739 h -2.879071 v -0.65 c 0,-0.23989 0.07004,-0.44112 0.209335,-0.60362 0.147035,-0.16252 0.390735,-0.24375 0.731243,-0.24375 z m -24.078825,2.28691 h 2.890549 v 1.14896 c 0,0.20894 -0.112524,0.31352 -0.336941,0.31352 h -2.576547 c -0.309547,0 -0.530384,-0.0658 -0.66194,-0.19739 -0.131556,-0.13929 -0.197387,-0.32089 -0.197387,-0.54532 0,-0.22442 0.06583,-0.39856 0.197387,-0.52238 0.131556,-0.13156 0.359857,-0.19739 0.684879,-0.19739 z"
         style="display:inline;stroke-width:0.68551093" />
    </clipPath>
  </defs>
  <sodipodi:namedview
     id="base"
     pagecolor="#303d4f"
     bordercolor="#666666"
     borderopacity="1.0"
     inkscape:pageopacity="0"
     inkscape:pageshadow="2"
     inkscape:zoom="2.058808"
     inkscape:cx="96.966594"
     inkscape:cy="91.693936"
     inkscape:document-units="mm"
     inkscape:current-layer="layer1"
     showgrid="true"
     units="px"
     inkscape:window-width="2560"
     inkscape:window-height="1379"
     inkscape:window-x="0"
     inkscape:window-y="0"
     inkscape:window-maximized="1">
    <inkscape:grid
       type="xygrid"
       id="grid4518"
       color="#ffffff"
       opacity="0.03137255"
       empcolor="#ffffff"
       empopacity="0.01568627" />
  </sodipodi:namedview>
  <metadata
     id="metadata5">
    <rdf:RDF>
      <cc:Work
         rdf:about="">
        <dc:format>image/svg+xml</dc:format>
        <dc:type
           rdf:resource="http://purl.org/dc/dcmitype/StillImage" />
        <dc:title />
      </cc:Work>
    </rdf:RDF>
  </metadata>
  <g
     inkscape:label="Layer 1"
     inkscape:groupmode="layer"
     id="layer1"
     transform="translate(0,-244.08334)">
    <rect
       style="display:none;opacity:0.87900002;fill:#42a5f5;fill-opacity:0.64978901;stroke:none;stroke-width:0.26458332;stroke-opacity:1"
       id="rect4520"
       width="91.28125"
       height="52.916664"
       x="4.4408921e-16"
       y="244.08334" />
    <rect
       y="244.08334"
       x="0"
       height="52.916664"
       width="91.28125"
       id="rect6985"
       style="display:inline;opacity:1;fill:url(#linearGradient841);fill-opacity:1.0;stroke:none;stroke-width:0.26458332;stroke-opacity:1"
       clip-path="url(#clipPath974)"
       mask="none" />
  </g>
</svg>
